<?xml version="1.0" standalone="no"?>
<!DOCTYPE svg PUBLIC "-//W3C//DTD SVG 20010904//EN"
 "http://www.w3.org/TR/2001/REC-SVG-20010904/DTD/svg10.dtd">
<svg version="1.0" xmlns="http://www.w3.org/2000/svg"
 width="1280.000000pt" height="1004.000000pt" viewBox="0 0 1280.000000 1004.000000"
 preserveAspectRatio="xMidYMid meet">
<metadata>
Created by potrace 1.15, written by Peter Selinger 2001-2017
</metadata>
<g transform="translate(0.000000,1004.000000) scale(0.100000,-0.100000)"
fill="#000000" stroke="none">
<path d="M1165 10029 c-312 -29 -716 -134 -867 -225 -100 -60 -178 -145 -226
-244 -57 -120 -67 -172 -66 -335 1 -161 25 -289 89 -460 77 -206 232 -475 379
-660 86 -108 260 -279 361 -355 49 -38 152 -102 228 -144 75 -42 199 -110 275
-152 304 -168 441 -259 464 -309 15 -34 -8 -59 -89 -95 -83 -38 -156 -107
-195 -188 -28 -57 -32 -74 -31 -146 0 -95 22 -160 84 -257 83 -128 206 -237
464 -411 231 -155 431 -249 745 -348 426 -134 473 -153 534 -216 74 -77 70
-155 -9 -182 -55 -19 -218 -9 -320 18 -117 33 -130 34 -148 16 -44 -45 -30
-177 34 -305 51 -103 149 -207 254 -268 133 -78 504 -201 775 -257 123 -25
337 -56 386 -56 l26 0 -26 44 c-14 24 -62 116 -106 204 -259 520 -347 927
-246 1148 29 63 91 134 118 134 69 0 100 -67 233 -515 103 -347 199 -576 319
-760 174 -267 442 -407 911 -474 176 -26 419 -51 485 -51 l50 0 -103 92 c-345
313 -609 615 -704 805 -79 157 -67 245 37 285 131 50 227 2 365 -185 194 -262
236 -304 326 -328 93 -25 129 11 129 129 0 280 -299 884 -650 1314 -135 164
-170 248 -125 298 10 11 16 22 14 23 -75 61 -202 119 -311 141 -82 17 -224 21
-246 7 -9 -6 36 -54 160 -168 288 -267 408 -401 539 -602 104 -158 153 -293
130 -354 -27 -70 -81 -20 -380 352 -131 163 -289 351 -350 419 -311 340 -626
532 -992 603 -112 21 -341 36 -385 24 -24 -6 -14 -10 61 -21 119 -18 357 -78
470 -118 284 -102 634 -413 891 -791 151 -223 243 -483 188 -527 -68 -53 -113
-107 -124 -148 -40 -145 19 -409 130 -587 22 -35 36 -63 32 -63 -19 0 -101 61
-144 107 -90 98 -110 135 -315 598 -271 612 -424 876 -623 1076 -190 191 -399
284 -704 311 -142 13 -247 4 -386 -31 -126 -32 -189 -60 -236 -105 -38 -37
-44 -48 -44 -83 0 -24 7 -49 18 -61 15 -19 22 -20 62 -12 200 40 491 -53 622
-199 87 -96 122 -201 140 -414 13 -162 14 -160 -73 -154 -82 7 -244 75 -616
257 -370 182 -470 239 -557 321 -219 205 -141 396 240 587 196 99 424 182 568
207 385 66 812 32 1292 -104 185 -53 464 -148 627 -215 142 -57 414 -182 435
-199 7 -5 15 -8 17 -5 3 2 -32 32 -78 65 -368 272 -881 510 -1352 627 -198 49
-280 59 -475 59 -293 0 -466 -40 -853 -194 -320 -127 -409 -143 -508 -91 -42
22 -58 38 -78 76 -23 45 -24 52 -13 103 43 206 350 405 754 487 118 24 257 36
416 36 138 0 157 -2 273 -34 68 -19 171 -51 229 -71 394 -138 1059 -495 1630
-874 113 -75 219 -144 235 -155 44 -27 -201 213 -335 328 -284 246 -559 420
-990 630 -342 166 -618 262 -940 326 -307 62 -441 65 -1210 30 -639 -30 -945
48 -1135 288 -110 138 -150 290 -110 417 55 173 277 278 460 216 33 -11 97
-34 143 -50 121 -45 242 -74 655 -157 533 -107 806 -179 1172 -309 325 -115
558 -216 768 -331 603 -331 1189 -793 1642 -1294 l58 -65 -28 50 c-116 207
-371 514 -603 728 -347 321 -855 656 -1367 902 -434 209 -679 291 -1391 465
-494 121 -635 166 -828 262 -130 65 -199 110 -267 178 -191 189 -62 339 351
406 115 19 338 14 475 -11 321 -58 690 -184 1050 -359 381 -186 766 -429 1393
-882 96 -69 175 -124 177 -122 4 4 -256 246 -370 343 -49 42 -142 117 -205
166 -63 49 -158 125 -210 170 -270 231 -601 450 -935 619 -394 200 -770 315
-1230 376 -136 18 -545 26 -680 13z"/>
<path d="M11090 9944 c-357 -33 -646 -92 -940 -192 -466 -159 -991 -462 -1425
-823 -49 -41 -115 -93 -145 -114 -164 -116 -621 -505 -594 -505 3 0 126 83
273 184 463 319 751 501 1048 659 538 288 1112 474 1528 494 263 13 566 -66
665 -173 35 -38 40 -50 40 -90 0 -64 -22 -104 -96 -173 -105 -99 -282 -191
-509 -264 -142 -47 -207 -63 -510 -132 -368 -83 -572 -132 -724 -175 -667
-189 -1413 -576 -1988 -1030 -145 -115 -403 -368 -530 -520 -85 -102 -263
-347 -263 -363 0 -2 93 89 208 203 294 293 606 547 967 787 489 324 885 510
1485 694 335 104 564 156 1110 254 335 60 465 90 580 132 205 76 286 79 410
17 225 -113 251 -383 58 -609 -137 -161 -317 -245 -590 -274 -146 -16 -302
-13 -753 14 -225 14 -473 25 -550 25 -509 0 -1134 -186 -1748 -521 -292 -160
-496 -300 -729 -500 -129 -111 -324 -296 -298 -282 8 4 75 48 148 96 308 203
687 420 1067 612 363 184 621 288 894 363 132 36 141 37 296 36 423 -3 816
-129 1030 -329 115 -106 164 -221 130 -301 -33 -81 -96 -118 -195 -116 -82 1
-160 25 -385 119 -400 168 -597 216 -895 216 -184 1 -259 -9 -470 -59 -388
-92 -782 -253 -1130 -460 -134 -80 -284 -183 -277 -190 2 -2 51 18 108 45 346
162 877 338 1224 405 480 93 939 78 1255 -42 319 -122 504 -224 613 -341 151
-161 105 -322 -136 -479 -80 -53 -135 -80 -467 -237 -253 -120 -389 -178 -501
-216 -99 -33 -186 -39 -196 -13 -9 24 16 248 38 333 49 191 203 331 435 392
90 24 255 30 316 12 35 -11 39 -9 58 14 63 80 -14 172 -195 232 -153 51 -250
64 -415 58 -339 -13 -566 -109 -778 -331 -194 -205 -350 -466 -610 -1026 -201
-433 -252 -523 -344 -611 -26 -25 -71 -58 -99 -73 l-51 -28 41 60 c96 139 161
338 161 487 0 110 -20 164 -77 215 -25 22 -50 40 -54 40 -5 0 -9 25 -9 56 0
191 207 523 519 834 239 238 439 368 667 434 142 41 331 81 429 92 l70 8 -50
8 c-72 13 -279 1 -402 -23 -139 -27 -265 -69 -394 -133 -301 -150 -504 -336
-939 -861 -198 -239 -290 -339 -332 -361 -24 -12 -29 -12 -43 3 -41 40 12 200
116 355 126 188 271 345 539 583 109 98 197 182 194 187 -8 13 -203 9 -274 -6
-85 -18 -172 -54 -244 -100 l-58 -37 21 -23 c44 -47 14 -121 -110 -266 -386
-454 -699 -1054 -699 -1341 0 -57 4 -72 24 -96 20 -24 31 -28 69 -26 94 3 165
61 314 258 102 136 192 226 248 249 82 34 201 9 241 -52 94 -142 -180 -517
-739 -1011 -64 -57 -115 -106 -113 -109 6 -6 285 15 456 34 525 58 808 193
998 475 126 188 213 390 348 807 124 384 168 469 231 446 34 -12 92 -87 117
-151 27 -71 33 -243 12 -358 -46 -246 -178 -575 -359 -895 -36 -63 -64 -116
-63 -117 6 -6 231 19 344 38 239 40 617 146 780 220 192 86 340 259 378 439
16 76 8 140 -20 168 -14 14 -21 14 -68 -1 -94 -29 -239 -50 -314 -44 -135 10
-172 54 -124 147 43 84 135 128 455 218 428 121 637 213 932 410 247 165 338
247 427 382 87 132 101 287 36 408 -39 74 -98 129 -178 167 -31 15 -65 34 -74
42 -66 59 38 135 575 417 153 80 306 165 340 188 353 238 703 704 842 1121
152 458 68 801 -240 977 -68 39 -346 132 -495 165 -211 48 -368 65 -620 69
-129 2 -255 2 -280 0z"/>
<path d="M4505 9569 c-42 -12 -85 -59 -92 -102 -6 -40 23 -135 59 -191 18 -28
19 -28 13 -6 -3 14 -9 54 -12 90 -4 57 -2 69 17 93 36 45 103 33 162 -30 27
-29 118 -171 118 -185 0 -4 -27 -5 -59 -2 -89 10 -130 -1 -145 -38 -38 -89 74
-281 324 -557 71 -78 153 -152 135 -120 -25 42 -115 172 -157 227 -62 82 -119
200 -121 254 -2 43 -2 43 31 41 18 0 48 -13 68 -28 191 -146 596 -1038 1311
-2888 14 -37 28 -65 30 -63 7 6 -407 1077 -669 1731 -418 1041 -635 1487 -816
1677 -79 83 -139 112 -197 97z"/>
<path d="M8230 9523 c-91 -44 -241 -239 -385 -501 -142 -259 -429 -904 -790
-1772 -220 -529 -485 -1183 -482 -1187 2 -2 59 131 127 294 674 1630 1067
2445 1257 2613 43 38 92 58 113 45 20 -13 9 -63 -34 -151 -24 -49 -63 -114
-88 -144 -54 -66 -168 -226 -168 -235 0 -27 251 237 346 365 123 165 167 279
126 330 -19 23 -27 25 -106 25 -47 -1 -86 1 -86 4 0 2 17 34 37 70 124 222
296 227 255 7 -6 -33 -10 -61 -8 -63 8 -8 67 129 72 169 15 108 -86 179 -186
131z"/>
<path d="M1783 9486 c-142 -27 -223 -83 -208 -143 10 -44 88 -108 188 -157
191 -92 467 -167 984 -265 87 -17 213 -42 281 -56 70 -14 156 -25 200 -25 l77
0 -116 59 c-149 75 -263 149 -315 203 -54 56 -62 80 -33 109 20 20 29 21 98
16 287 -20 752 -341 706 -486 -8 -26 -66 -43 -120 -34 -22 3 -38 3 -35 0 3 -3
71 -35 150 -70 353 -157 712 -359 1085 -612 83 -56 202 -136 265 -179 l115
-78 -55 54 c-90 86 -358 320 -595 518 -121 101 -294 248 -385 325 -636 544
-956 705 -1605 806 -170 27 -573 35 -682 15z"/>
<path d="M10380 9405 c-642 -80 -1011 -248 -1588 -723 -64 -53 -245 -199 -402
-326 -353 -284 -763 -632 -720 -610 8 4 107 69 220 144 460 306 834 514 1228
684 96 41 176 77 180 80 3 3 -15 3 -39 0 -65 -9 -119 15 -119 54 0 59 87 163
207 249 189 135 500 242 592 203 104 -43 -13 -159 -309 -307 l-145 -73 75 1
c41 0 109 6 150 13 41 8 192 34 335 59 321 57 435 80 595 119 320 78 526 171
575 261 38 71 -9 120 -150 158 -70 19 -111 22 -325 25 -168 2 -281 -2 -360
-11z"/>
<path d="M1295 8789 c-51 -14 -112 -75 -146 -144 -88 -179 1 -338 243 -434
226 -90 515 -113 767 -61 52 10 98 23 103 28 5 5 -51 11 -139 15 -161 7 -304
32 -370 65 -49 25 -93 75 -93 106 0 26 33 60 75 76 50 20 237 15 353 -9 136
-28 182 -48 337 -141 224 -136 281 -154 515 -165 149 -8 148 -9 48 49 -25 15
-67 45 -92 67 -138 122 54 124 269 4 207 -116 290 -150 646 -260 182 -57 482
-162 639 -225 30 -12 51 -17 45 -12 -28 27 -554 299 -820 425 -460 217 -697
290 -1154 357 -344 50 -673 123 -1046 230 -77 22 -142 40 -145 39 -3 0 -19 -5
-35 -10z"/>
<path d="M11210 8644 c-245 -65 -589 -136 -792 -164 -82 -11 -214 -29 -295
-40 -346 -48 -609 -130 -1033 -322 -209 -94 -803 -388 -797 -394 3 -3 108 31
233 74 126 44 324 107 440 141 296 85 434 135 544 193 141 76 180 94 250 117
113 37 188 22 162 -33 -9 -20 -83 -75 -182 -135 l-35 -21 100 0 c231 0 328 28
552 158 76 44 166 90 200 101 95 32 225 51 342 51 149 -1 221 -30 221 -90 0
-96 -161 -154 -458 -167 -169 -7 -173 -12 -35 -44 130 -29 357 -36 502 -15
259 38 455 138 516 261 29 59 27 175 -4 235 -27 52 -84 115 -123 136 -42 22
-89 16 -308 -42z"/>
<path d="M2975 7750 c-147 -21 -317 -76 -465 -150 -190 -96 -288 -218 -250
-311 31 -74 105 -87 252 -45 178 52 664 238 691 265 4 4 -27 11 -70 15 -249
23 -311 89 -125 132 143 34 253 18 762 -107 222 -55 409 -98 415 -96 15 6
-172 97 -307 151 -141 55 -295 100 -443 127 -123 22 -366 33 -460 19z"/>
<path d="M9445 7693 c-162 -15 -426 -82 -606 -153 -135 -54 -277 -124 -259
-128 9 -1 171 33 360 77 521 119 498 115 660 116 116 0 154 -4 191 -18 50 -19
85 -50 75 -66 -13 -20 -95 -42 -206 -54 l-114 -12 100 -47 c113 -53 469 -193
596 -233 46 -15 109 -28 140 -29 50 -1 60 2 87 28 88 84 25 211 -162 326 -85
52 -289 138 -392 164 -123 31 -317 43 -470 29z"/>
<path d="M2680 6455 c-14 -2 -61 -7 -105 -11 -72 -6 -78 -7 -60 -21 21 -15
319 -180 583 -323 174 -94 225 -107 262 -70 19 19 22 30 18 75 -5 60 -50 159
-98 217 -38 46 -133 93 -227 113 -70 14 -321 28 -373 20z"/>
<path d="M9710 6379 c-109 -19 -182 -51 -236 -104 -65 -64 -117 -169 -118
-235 -1 -64 19 -85 78 -84 36 1 104 32 401 188 197 103 369 195 383 204 l26
17 -40 8 c-61 12 -433 17 -494 6z"/>
<path d="M6190 6045 c0 -5 5 -17 10 -25 5 -8 10 -10 10 -5 0 6 -5 17 -10 25
-5 8 -10 11 -10 5z"/>
<path d="M6323 5738 c-78 -85 -67 -177 22 -194 87 -16 162 27 149 84 -20 81
-64 132 -114 132 -25 0 -43 -7 -57 -22z"/>
<path d="M6332 5484 c-39 -27 -65 -92 -70 -177 -6 -95 9 -193 53 -342 l32
-114 -24 -49 c-79 -160 -100 -615 -52 -1152 36 -410 76 -760 89 -773 10 -11
23 68 55 323 67 550 90 872 82 1155 -7 208 -21 313 -58 425 l-21 65 36 130
c44 161 60 263 52 337 -15 144 -97 226 -174 172z"/>
<path d="M6030 4120 c-121 -62 -272 -123 -392 -156 -81 -23 -122 -27 -323 -34
-241 -9 -311 -20 -493 -76 -108 -33 -248 -94 -337 -146 -63 -38 -245 -200
-245 -219 0 -4 51 17 113 46 130 63 254 99 309 89 101 -16 104 -157 6 -234
-42 -32 -162 -84 -278 -120 -143 -44 -242 -97 -357 -193 -179 -151 -253 -261
-347 -520 -25 -70 -46 -132 -46 -137 0 -5 75 66 168 158 168 168 241 224 321
244 58 15 90 -4 112 -67 24 -67 23 -120 -2 -171 -35 -74 -93 -107 -314 -184
-168 -58 -218 -84 -262 -134 -84 -95 -142 -315 -158 -601 -4 -79 -3 -95 6 -75
82 182 153 284 257 365 104 82 251 147 397 175 176 35 363 146 557 329 76 71
207 224 217 253 2 6 -21 -8 -50 -30 -55 -41 -149 -92 -170 -92 -14 0 -4 71 20
143 58 168 226 398 350 478 50 32 111 39 131 14 7 -8 16 -30 20 -48 l7 -32 18
40 c27 61 32 131 10 155 -39 43 -162 15 -261 -60 -63 -47 -186 -192 -281 -330
-61 -89 -65 -92 -58 -56 9 52 58 176 102 256 168 310 453 472 589 336 54 -54
69 -162 39 -281 -62 -244 -390 -624 -833 -965 -45 -35 -80 -65 -78 -68 7 -7
214 94 296 145 255 158 423 319 655 628 234 311 325 485 325 619 0 94 -37 115
-207 116 -73 0 -83 2 -83 18 0 28 30 63 69 79 19 8 80 19 135 24 119 10 179
36 260 110 71 65 214 260 189 258 -4 0 -51 -22 -103 -49z"/>
<path d="M6560 4160 c0 -22 115 -186 170 -240 89 -89 151 -119 274 -130 130
-13 196 -48 196 -104 0 -13 -13 -16 -67 -17 -122 -1 -174 -13 -201 -44 -22
-26 -24 -35 -20 -94 11 -138 105 -318 330 -626 149 -205 244 -315 373 -428
145 -127 363 -266 520 -331 49 -21 44 -15 -80 84 -273 218 -511 468 -673 706
-83 121 -122 239 -122 364 1 165 88 242 232 205 77 -20 137 -55 216 -129 79
-74 137 -154 195 -271 40 -80 97 -237 97 -268 0 -6 -33 38 -74 98 -106 156
-200 270 -265 321 -92 73 -209 105 -257 70 -24 -18 -24 -86 1 -152 l18 -47 13
38 c15 44 28 55 70 55 99 0 311 -245 398 -460 29 -71 53 -186 42 -197 -10 -11
-112 45 -173 95 -29 23 -53 40 -53 37 0 -4 25 -40 56 -81 147 -200 385 -400
564 -475 36 -16 119 -42 185 -58 134 -35 229 -79 327 -151 114 -84 182 -179
277 -390 9 -20 10 1 6 95 -10 217 -42 387 -91 495 -54 118 -87 143 -305 224
-180 67 -238 96 -283 142 -52 53 -63 102 -42 184 18 70 50 110 90 110 76 0
238 -125 405 -313 58 -64 106 -115 108 -113 6 5 -71 229 -109 321 -48 113
-100 185 -214 296 -154 148 -218 187 -425 260 -152 53 -207 78 -260 120 -70
55 -92 157 -44 204 51 52 198 22 383 -75 50 -28 92 -46 92 -42 0 18 -170 181
-225 217 -134 86 -356 174 -541 215 -71 16 -156 24 -299 30 -272 12 -402 47
-672 184 -79 40 -143 70 -143 66z"/>
<path d="M4735 4100 c-386 -43 -788 -161 -1129 -332 -176 -88 -323 -217 -404
-354 -58 -99 -131 -334 -103 -334 4 0 34 35 66 78 101 131 170 193 272 245
173 86 264 71 234 -39 -15 -56 -53 -110 -186 -264 -202 -233 -283 -351 -375
-543 -175 -365 -226 -768 -134 -1058 13 -43 32 -87 42 -99 17 -21 18 -18 19
107 2 140 10 181 37 197 59 36 178 -260 205 -512 28 -264 2 -620 -75 -996 -13
-66 -22 -121 -20 -123 6 -6 121 261 171 397 108 296 117 498 48 1100 -35 315
-26 487 43 764 53 216 150 477 249 671 277 542 587 809 1096 944 169 45 285
62 477 68 99 3 169 10 164 15 -5 5 -62 22 -128 39 -108 28 -136 32 -304 34
-102 2 -221 0 -265 -5z"/>
<path d="M7570 4084 c-14 -2 -59 -9 -100 -15 -74 -11 -198 -45 -212 -57 -4 -4
46 -8 110 -10 430 -10 868 -161 1141 -394 370 -314 696 -1031 751 -1652 13
-139 11 -167 -25 -441 -46 -341 -58 -499 -52 -675 7 -185 19 -250 79 -425 50
-145 144 -375 159 -390 8 -7 10 -4 5 10 -14 46 -57 324 -71 459 -18 169 -20
502 -4 631 28 233 139 514 205 523 32 5 37 -17 44 -183 l6 -150 32 68 c160
335 58 945 -231 1378 -51 77 -106 148 -290 373 -76 92 -104 141 -113 192 -5
35 -3 45 16 64 32 32 92 22 206 -35 113 -55 168 -104 264 -234 41 -55 78 -101
83 -101 21 0 -24 185 -69 279 -95 203 -225 321 -499 456 -276 135 -597 241
-882 290 -202 34 -459 52 -553 39z"/>
</g>
</svg>
