<?xml version="1.0" standalone="no"?>
<!DOCTYPE svg PUBLIC "-//W3C//DTD SVG 20010904//EN"
 "http://www.w3.org/TR/2001/REC-SVG-20010904/DTD/svg10.dtd">
<svg version="1.0" xmlns="http://www.w3.org/2000/svg"
 width="1280.000000pt" height="1280.000000pt" viewBox="0 0 1280.000000 1280.000000"
 preserveAspectRatio="xMidYMid meet">
<metadata>
Created by potrace 1.15, written by Peter Selinger 2001-2017
</metadata>
<g transform="translate(0.000000,1280.000000) scale(0.100000,-0.100000)"
fill="#000000" stroke="none">
<path d="M5768 12783 c12 -2 30 -2 40 0 9 3 -1 5 -23 4 -22 0 -30 -2 -17 -4z"/>
<path d="M7018 12783 c12 -2 32 -2 45 0 12 2 2 4 -23 4 -25 0 -35 -2 -22 -4z"/>
<path d="M5642 12726 c-142 -37 -386 -115 -379 -122 2 -2 75 7 163 21 286 44
617 74 844 76 70 1 87 3 65 9 -55 16 -278 40 -420 45 -136 5 -144 5 -273 -29z"/>
<path d="M6830 12753 c-75 -4 -303 -33 -337 -42 -17 -5 47 -10 162 -14 268 -9
562 -40 885 -92 56 -9 -112 52 -245 90 -233 65 -270 69 -465 58z"/>
<path d="M6245 12660 c-193 -50 -388 -120 -295 -106 78 12 672 18 810 8 79 -6
146 -9 148 -7 6 5 -232 81 -345 109 -128 33 -181 32 -318 -4z"/>
<path d="M4948 12569 c-119 -8 -312 -34 -372 -50 -60 -16 -258 -112 -393 -191
-68 -40 -121 -73 -119 -75 2 -2 55 16 117 40 226 87 544 185 789 242 63 15
126 31 140 35 21 7 19 8 -15 8 -22 -1 -88 -4 -147 -9z"/>
<path d="M5157 12565 c-102 -38 -468 -236 -407 -221 14 4 97 24 185 46 188 47
413 91 615 120 79 12 146 22 147 24 10 9 -369 46 -462 45 -22 0 -57 -7 -78
-14z"/>
<path d="M7450 12574 c-85 -6 -313 -34 -319 -39 -2 -3 1 -5 7 -5 78 0 547 -86
765 -141 87 -21 163 -39 170 -39 19 0 -135 86 -283 159 -127 62 -139 65 -210
67 -41 1 -100 0 -130 -2z"/>
<path d="M7701 12576 c2 -2 67 -19 144 -36 253 -58 552 -149 813 -248 56 -22
102 -38 102 -36 0 9 -208 124 -344 190 -147 71 -157 74 -287 94 -74 11 -197
24 -274 30 -162 11 -160 11 -154 6z"/>
<path d="M8227 12551 c24 -11 60 -22 80 -25 29 -4 24 -1 -22 14 -87 29 -106
33 -58 11z"/>
<path d="M4540 12539 c-37 -12 -44 -16 -20 -13 34 6 105 33 85 32 -5 0 -35 -8
-65 -19z"/>
<path d="M5700 12466 c-135 -63 -406 -214 -398 -221 2 -2 67 8 145 21 268 44
576 73 801 75 74 1 120 5 115 10 -27 27 -475 159 -538 159 -16 0 -73 -20 -125
-44z"/>
<path d="M6850 12480 c-122 -31 -390 -120 -390 -129 0 -3 55 -7 123 -9 248 -6
589 -39 830 -80 59 -10 107 -17 107 -16 0 2 -54 35 -120 74 -163 97 -361 190
-402 190 -18 -1 -85 -14 -148 -30z"/>
<path d="M6225 12246 c-170 -85 -341 -184 -332 -193 3 -2 65 0 138 6 73 6 246
11 384 11 138 0 311 -5 384 -11 73 -6 135 -9 137 -6 14 14 -448 260 -513 273
-22 4 -66 -14 -198 -80z"/>
<path d="M4345 12269 c-55 -5 -152 -18 -217 -28 -105 -17 -122 -23 -177 -60
-73 -50 -237 -181 -306 -245 l-50 -47 102 51 c213 104 368 170 643 271 200 74
200 75 5 58z"/>
<path d="M4555 12225 c-131 -94 -352 -280 -363 -306 -2 -4 30 6 70 23 152 62
501 172 721 228 256 64 252 57 42 85 -60 8 -173 18 -250 21 l-140 7 -80 -58z"/>
<path d="M7920 12269 c-87 -7 -290 -36 -297 -42 -1 -2 53 -15 120 -31 246 -56
582 -158 791 -240 50 -20 91 -34 93 -32 9 9 -239 218 -368 309 l-67 47 -88 -1
c-49 -1 -132 -5 -184 -10z"/>
<path d="M8484 12215 c201 -73 433 -170 611 -256 l120 -59 -65 61 c-81 76
-294 238 -335 255 -49 20 -394 65 -490 64 -11 -1 61 -30 159 -65z"/>
<path d="M5187 12167 c-113 -79 -393 -314 -384 -323 1 -2 52 10 112 27 148 40
384 92 530 118 117 20 339 51 373 51 15 1 15 2 2 10 -52 30 -356 125 -493 153
l-67 15 -73 -51z"/>
<path d="M7405 12180 c-143 -36 -381 -114 -398 -129 -4 -4 55 -15 130 -25 255
-32 588 -99 818 -165 l70 -20 -75 71 c-107 101 -372 310 -392 308 -2 -1 -70
-18 -153 -40z"/>
<path d="M3807 12174 c-191 -51 -373 -120 -447 -168 -91 -60 -257 -194 -337
-272 -72 -70 -70 -72 17 -14 172 115 554 322 785 425 171 76 169 79 -18 29z"/>
<path d="M8885 12203 c6 -6 26 -16 45 -23 153 -59 567 -276 790 -415 173 -108
173 -108 18 28 -127 111 -285 226 -353 257 -68 31 -270 98 -390 129 -44 12
-89 24 -100 27 -13 4 -16 3 -10 -3z"/>
<path d="M9350 12107 c0 -8 76 -55 125 -76 28 -12 46 -18 40 -13 -14 12 -165
93 -165 89z"/>
<path d="M3388 12059 c-21 -11 -38 -22 -38 -24 0 -3 18 4 40 15 22 11 40 23
40 25 0 7 0 7 -42 -16z"/>
<path d="M5780 11983 c-149 -107 -400 -325 -382 -331 6 -2 79 8 164 22 212 35
420 56 641 63 103 3 187 9 187 12 0 22 -455 265 -516 276 -23 4 -42 -4 -94
-42z"/>
<path d="M6805 11962 c-142 -70 -359 -194 -370 -212 -4 -6 34 -10 107 -10 205
0 504 -28 762 -71 65 -11 120 -18 122 -16 6 6 -127 131 -216 203 -113 92 -230
174 -249 174 -9 0 -79 -31 -156 -68z"/>
<path d="M3910 11874 c-123 -12 -255 -28 -314 -39 -59 -11 -74 -19 -113 -57
-62 -60 -174 -193 -260 -307 -68 -91 -84 -123 -46 -89 31 26 291 181 448 266
126 68 219 113 455 219 21 10 12 11 -55 11 -44 -1 -96 -3 -115 -4z"/>
<path d="M4069 11799 c-132 -147 -313 -379 -295 -379 3 0 20 9 38 19 128 76
558 258 791 336 71 24 131 45 133 48 12 11 -279 46 -446 53 l-145 7 -76 -84z"/>
<path d="M8440 11873 c-65 -5 -279 -32 -320 -41 -32 -7 -25 -11 120 -61 251
-86 495 -188 712 -297 48 -24 90 -44 93 -44 16 0 -175 243 -281 358 l-85 92
-97 -2 c-53 -1 -117 -3 -142 -5z"/>
<path d="M8855 11822 c246 -112 460 -227 685 -366 66 -41 120 -72 120 -68 0
14 -157 212 -253 320 -94 105 -102 112 -150 122 -94 19 -270 39 -402 45 l-130
7 130 -60z"/>
<path d="M4693 11732 c-166 -182 -323 -390 -288 -380 11 4 86 31 167 62 80 30
199 72 265 92 149 45 459 124 490 124 44 0 23 18 -59 48 -153 57 -321 105
-474 137 -17 4 -39 -14 -101 -83z"/>
<path d="M7885 11780 c-138 -35 -299 -87 -385 -124 -34 -14 -34 -14 -10 -20
265 -57 626 -163 835 -245 55 -21 102 -37 104 -35 5 5 -126 180 -197 264 -64
75 -184 200 -192 200 -3 -1 -72 -18 -155 -40z"/>
<path d="M3285 11765 c-136 -38 -283 -88 -336 -116 -20 -10 -72 -57 -116 -104
-84 -89 -248 -293 -242 -299 2 -2 60 38 128 90 162 123 350 250 531 358 181
107 177 105 165 105 -5 0 -64 -15 -130 -34z"/>
<path d="M9431 11786 c2 -2 63 -38 134 -81 171 -102 369 -235 533 -356 72 -55
132 -97 132 -94 0 8 -171 218 -244 298 -39 44 -83 85 -98 93 -82 43 -489 168
-457 140z"/>
<path d="M6299 11657 c-114 -86 -192 -150 -276 -229 -57 -54 -59 -58 -35 -58
15 0 115 5 222 10 134 7 265 7 419 0 123 -6 225 -9 227 -7 14 14 -416 358
-446 356 -8 0 -58 -32 -111 -72z"/>
<path d="M5270 11528 c-85 -96 -215 -259 -253 -319 l-17 -25 188 47 c201 51
400 89 580 113 63 8 115 16 117 18 14 14 -468 268 -507 268 -9 0 -58 -46 -108
-102z"/>
<path d="M7295 11566 c-71 -34 -182 -94 -245 -131 -134 -80 -139 -73 70 -100
152 -20 383 -66 540 -107 183 -48 170 -50 125 13 -124 172 -315 389 -343 389
-10 0 -75 -29 -147 -64z"/>
<path d="M2709 11542 c-284 -144 -351 -194 -520 -392 -54 -63 -167 -210 -184
-240 -14 -23 14 0 150 127 161 149 307 271 500 415 184 136 222 167 214 167
-3 1 -75 -34 -160 -77z"/>
<path d="M9976 11601 c5 -4 70 -52 144 -106 167 -121 341 -262 489 -397 203
-184 218 -197 194 -163 -59 84 -149 196 -240 297 -91 101 -113 120 -219 184
-110 66 -354 194 -371 194 -4 0 -3 -4 3 -9z"/>
<path d="M10442 11384 c21 -22 52 -48 70 -58 39 -22 33 -15 -47 49 -58 47 -58
47 -23 9z"/>
<path d="M3565 11389 c-168 -9 -425 -45 -442 -62 -27 -26 -149 -240 -214 -374
-38 -78 -69 -144 -69 -147 0 -3 60 41 133 97 199 153 456 323 700 461 43 24
59 38 40 35 -5 -1 -71 -5 -148 -10z"/>
<path d="M3750 11390 c-34 -21 -300 -521 -281 -528 5 -2 46 21 92 51 189 123
472 275 708 380 46 21 82 40 79 42 -21 22 -571 72 -598 55z"/>
<path d="M8910 11389 c-133 -7 -426 -41 -436 -52 -2 -2 31 -19 74 -37 204 -88
532 -263 727 -388 44 -28 81 -49 83 -47 13 12 -244 489 -281 520 -8 7 -64 8
-167 4z"/>
<path d="M9256 11309 c231 -136 448 -282 637 -431 48 -37 87 -66 87 -63 0 18
-140 290 -204 396 l-76 126 -73 12 c-145 23 -324 41 -416 41 l-95 0 140 -81z"/>
<path d="M2349 11359 c-23 -19 -23 -20 -2 -10 12 6 25 16 28 21 10 16 -1 12
-26 -11z"/>
<path d="M6769 11246 c-68 -52 -173 -138 -234 -192 l-109 -99 197 -11 c226
-14 350 -27 525 -55 68 -11 126 -19 128 -17 6 7 -166 231 -257 335 -135 152
-105 148 -250 39z"/>
<path d="M2945 11294 c-142 -38 -303 -91 -376 -122 -41 -18 -54 -32 -105 -114
-56 -90 -214 -392 -214 -410 0 -5 57 44 128 108 207 192 556 472 671 540 17
10 31 22 31 26 0 4 -1 8 -2 7 -2 0 -61 -16 -133 -35z"/>
<path d="M4307 11223 c-65 -107 -211 -393 -204 -400 2 -1 78 32 168 76 196 94
470 203 649 258 12 4 12 6 -3 15 -57 31 -482 158 -531 158 -8 0 -43 -48 -79
-107z"/>
<path d="M5835 11238 c-94 -100 -292 -355 -282 -364 3 -3 61 4 129 15 195 32
516 61 673 61 l39 0 -39 41 c-91 94 -396 339 -422 339 -6 0 -50 -42 -98 -92z"/>
<path d="M8300 11299 c-125 -32 -380 -116 -393 -129 -5 -4 29 -20 75 -35 156
-51 433 -164 586 -240 134 -66 152 -72 146 -52 -12 40 -153 310 -207 397 -34
56 -59 86 -72 87 -11 1 -72 -11 -135 -28z"/>
<path d="M9760 11317 c0 -2 50 -39 110 -82 204 -144 441 -341 628 -519 39 -38
72 -66 72 -61 0 19 -133 277 -197 384 -56 91 -76 116 -104 128 -138 58 -509
168 -509 150z"/>
<path d="M4906 11038 c-69 -114 -221 -416 -214 -423 2 -3 44 11 94 31 146 57
384 131 547 170 83 20 159 38 167 41 16 5 -50 48 -208 137 -83 46 -304 156
-315 156 -2 0 -33 -51 -71 -112z"/>
<path d="M7690 11075 c-180 -89 -373 -202 -365 -216 4 -5 16 -9 28 -9 66 0
532 -138 706 -209 70 -28 72 -29 65 -8 -22 75 -235 472 -272 509 -4 4 -77 -26
-162 -67z"/>
<path d="M2285 11042 c-269 -140 -317 -177 -398 -313 -58 -97 -184 -349 -164
-329 8 8 36 40 62 70 155 179 405 429 595 593 30 26 50 47 45 47 -6 0 -68 -31
-140 -68z"/>
<path d="M10410 11103 c1 -5 26 -28 57 -53 67 -54 448 -430 557 -550 l78 -85
-74 145 c-41 80 -97 181 -125 225 -49 76 -58 83 -156 142 -127 77 -337 186
-337 176z"/>
<path d="M6303 10819 c-98 -110 -273 -336 -273 -352 0 -4 33 -5 73 0 94 10
531 10 625 0 l74 -8 -41 60 c-92 135 -328 411 -352 411 -4 0 -52 -50 -106
-111z"/>
<path d="M5512 10823 c-64 -93 -278 -500 -268 -511 2 -1 64 13 137 32 179 46
308 72 459 92 69 9 134 19 144 23 16 6 0 24 -95 108 -110 98 -198 169 -306
246 l-51 37 -20 -27z"/>
<path d="M7189 10774 c-120 -89 -208 -162 -296 -248 -66 -63 -67 -76 -6 -76
61 0 379 -59 533 -98 85 -22 157 -39 158 -37 12 11 -187 390 -263 503 l-22 33
-104 -77z"/>
<path d="M3175 10829 c-138 -12 -324 -41 -340 -53 -21 -17 -102 -252 -145
-421 -21 -82 -37 -151 -35 -154 2 -2 59 48 127 110 200 183 509 431 617 495
17 10 31 22 31 26 0 10 -131 8 -255 -3z"/>
<path d="M3454 10829 c-31 -38 -183 -531 -169 -547 1 -1 67 46 146 106 169
127 330 234 494 329 l119 68 -40 7 c-216 38 -532 59 -550 37z"/>
<path d="M9108 10829 c-88 -7 -310 -38 -316 -43 -1 -2 44 -29 100 -61 144 -81
360 -224 512 -338 71 -54 131 -96 133 -94 11 11 -102 391 -152 510 l-15 37
-88 -1 c-48 -1 -126 -5 -174 -10z"/>
<path d="M9480 10775 c199 -141 424 -326 598 -490 50 -48 92 -82 92 -76 0 26
-73 288 -109 391 -67 192 -59 178 -116 190 -96 20 -271 39 -415 46 l-145 7 95
-68z"/>
<path d="M1828 10758 c-121 -91 -250 -202 -314 -270 -69 -73 -222 -335 -287
-491 -24 -56 -6 -38 79 81 154 215 343 444 522 635 136 144 136 147 0 45z"/>
<path d="M10950 10774 c25 -28 92 -102 148 -165 135 -148 276 -322 397 -489
118 -163 120 -166 99 -115 -33 79 -98 202 -175 331 -73 121 -88 139 -190 230
-101 89 -212 179 -294 237 -24 18 -22 12 15 -29z"/>
<path d="M4051 10702 c-52 -137 -107 -324 -145 -495 -4 -16 0 -15 32 5 21 12
55 34 77 48 114 76 384 220 564 301 l84 37 -39 17 c-115 48 -320 112 -481 149
l-62 14 -30 -76z"/>
<path d="M8605 10745 c-71 -18 -191 -54 -265 -80 -74 -26 -143 -49 -152 -52
-28 -8 -21 -17 30 -37 137 -55 452 -222 611 -323 46 -30 85 -52 87 -50 16 15
-150 557 -175 571 -3 2 -64 -11 -136 -29z"/>
<path d="M2630 10735 c-116 -31 -291 -89 -367 -120 -36 -15 -43 -30 -99 -190
-35 -99 -116 -396 -110 -402 1 -2 36 36 77 85 105 124 394 417 529 535 63 55
122 107 130 114 24 21 -21 15 -160 -22z"/>
<path d="M10151 10664 c189 -166 442 -423 582 -593 15 -18 30 -32 32 -29 13
13 -148 536 -172 558 -26 24 -412 146 -527 166 -38 7 -35 3 85 -102z"/>
<path d="M2008 10497 c-216 -109 -322 -176 -342 -215 -38 -73 -175 -526 -163
-539 2 -2 17 16 32 39 111 170 349 465 548 680 65 70 116 128 113 128 -2 0
-87 -42 -188 -93z"/>
<path d="M4666 10556 c-64 -154 -174 -546 -152 -546 2 0 63 29 137 64 151 73
293 131 452 187 60 20 111 39 113 42 12 12 -495 287 -530 287 -3 0 -12 -15
-20 -34z"/>
<path d="M8020 10537 c-140 -65 -410 -218 -410 -232 0 -2 30 -13 68 -25 128
-42 397 -153 515 -212 66 -32 121 -57 123 -55 15 15 -156 577 -175 577 -3 0
-58 -24 -121 -53z"/>
<path d="M10721 10492 c177 -185 373 -423 516 -624 42 -60 78 -106 80 -105 10
10 -81 317 -139 469 l-29 78 -92 57 c-89 55 -393 213 -411 213 -4 0 29 -40 75
-88z"/>
<path d="M11326 10512 c10 -18 36 -49 58 -70 38 -35 38 -35 -9 23 -64 80 -71
86 -49 47z"/>
<path d="M1460 10470 c-6 -11 -8 -20 -6 -20 3 0 10 9 16 20 6 11 8 20 6 20 -3
0 -10 -9 -16 -20z"/>
<path d="M5992 10413 c-68 -98 -271 -487 -260 -499 3 -2 42 3 89 11 141 25
348 45 462 45 80 0 107 3 107 13 0 31 -345 457 -370 457 -5 0 -17 -12 -28 -27z"/>
<path d="M6730 10363 c-117 -125 -300 -360 -300 -384 0 -5 50 -9 110 -9 115 0
328 -20 466 -44 43 -8 81 -12 83 -10 17 16 -255 523 -281 524 -3 0 -39 -35
-78 -77z"/>
<path d="M5225 10273 c-35 -90 -102 -300 -125 -393 -45 -184 -44 -174 -23
-165 121 51 390 135 546 171 42 10 76 21 75 25 -13 33 -433 379 -461 379 -3 0
-8 -8 -12 -17z"/>
<path d="M7524 10248 c-136 -96 -394 -317 -394 -338 0 -4 27 -13 60 -19 98
-20 359 -97 468 -139 85 -33 102 -37 102 -23 0 57 -143 526 -169 554 -4 4 -34
-12 -67 -35z"/>
<path d="M1465 10154 c-146 -116 -248 -215 -281 -270 -38 -65 -164 -457 -151
-470 2 -3 28 37 58 88 119 208 279 447 431 646 43 56 75 102 71 102 -4 0 -62
-43 -128 -96z"/>
<path d="M3085 10233 c-191 -11 -424 -46 -436 -64 -18 -30 -59 -379 -59 -505
l0 -74 104 117 c107 122 321 334 461 460 l80 72 -50 -1 c-27 -1 -72 -3 -100
-5z"/>
<path d="M3262 10177 c-27 -147 -61 -547 -47 -547 4 0 55 45 113 101 110 105
341 294 475 389 72 51 76 55 53 61 -77 21 -423 58 -542 59 l-41 0 -11 -63z"/>
<path d="M9329 10229 c-113 -8 -332 -37 -362 -48 -16 -6 -12 -12 25 -36 129
-84 342 -257 537 -434 l81 -73 0 68 c0 116 -39 474 -57 520 -6 16 -48 16 -224
3z"/>
<path d="M9660 10183 c182 -163 349 -329 518 -518 l62 -70 -6 100 c-7 131 -20
256 -40 381 l-17 102 -56 11 c-83 16 -291 39 -416 46 l-110 6 65 -58z"/>
<path d="M11338 10112 c115 -152 312 -449 389 -585 31 -54 58 -96 60 -93 7 6
-63 243 -109 366 l-41 111 -86 79 c-88 81 -262 224 -293 241 -9 5 27 -49 80
-119z"/>
<path d="M2457 10134 c-142 -38 -286 -85 -362 -119 l-51 -22 -17 -109 c-25
-165 -39 -320 -35 -412 l3 -82 76 108 c131 185 280 367 468 571 109 118 111
117 -82 65z"/>
<path d="M3895 10148 c-26 -114 -59 -453 -53 -540 l3 -47 90 71 c101 79 364
255 467 312 37 21 70 41 73 46 10 16 -269 112 -452 156 -125 29 -121 29 -128
2z"/>
<path d="M8845 10158 c-120 -30 -332 -94 -413 -125 l-92 -36 141 -83 c150 -89
246 -154 401 -271 53 -40 98 -73 100 -73 9 0 -14 327 -31 446 -12 76 -21 142
-21 147 0 9 -35 7 -85 -5z"/>
<path d="M10271 10092 c164 -171 355 -403 488 -591 40 -55 74 -101 78 -101 14
0 -19 369 -47 532 l-12 66 -93 36 c-135 51 -431 136 -477 136 -6 0 23 -35 63
-78z"/>
<path d="M4496 9962 c-29 -137 -61 -466 -54 -544 l3 -36 80 49 c112 70 314
178 417 225 48 21 88 42 88 46 0 19 -405 243 -501 277 -25 9 -28 7 -33 -17z"/>
<path d="M8134 9901 c-98 -50 -217 -115 -263 -145 l-85 -54 55 -23 c94 -39
337 -167 436 -229 52 -33 98 -60 101 -60 21 0 -34 569 -57 593 -4 4 -88 -33
-187 -82z"/>
<path d="M1910 9936 c-107 -50 -223 -113 -337 -184 l-78 -48 -12 -59 c-32
-158 -65 -566 -43 -535 6 8 42 71 82 140 90 160 251 402 367 555 132 173 133
175 124 175 -4 0 -51 -20 -103 -44z"/>
<path d="M10848 9933 c122 -148 302 -409 435 -633 48 -80 92 -152 97 -160 23
-33 -7 358 -40 515 -10 50 -11 51 -108 110 -95 59 -397 215 -415 215 -5 0 9
-21 31 -47z"/>
<path d="M6338 9838 c-54 -92 -208 -394 -208 -409 0 -2 126 -4 280 -4 181 0
280 4 280 10 0 37 -258 515 -278 515 -4 0 -38 -51 -74 -112z"/>
<path d="M5706 9855 c-52 -123 -167 -528 -154 -541 3 -2 49 8 104 21 124 32
354 75 399 75 19 0 36 4 39 9 11 17 -165 247 -311 405 l-62 68 -15 -37z"/>
<path d="M7030 9813 c-79 -86 -193 -227 -259 -320 -48 -69 -50 -73 -28 -77 12
-2 76 -12 142 -21 66 -10 181 -33 255 -51 74 -19 136 -34 136 -34 10 0 -90
367 -119 440 -7 19 -22 56 -31 83 -10 26 -21 47 -26 47 -4 0 -36 -30 -70 -67z"/>
<path d="M1066 9779 c-87 -97 -249 -307 -273 -353 -48 -92 -184 -528 -169
-543 3 -3 20 28 37 68 77 175 257 519 370 707 67 112 120 204 118 206 -2 2
-40 -37 -83 -85z"/>
<path d="M11693 9840 c8 -14 63 -106 122 -205 109 -180 264 -476 344 -655 50
-112 49 -83 -5 102 -52 181 -110 326 -159 398 -81 119 -346 434 -302 360z"/>
<path d="M5056 9682 c-17 -27 -56 -393 -56 -525 l0 -77 91 46 c100 50 273 122
359 149 30 10 59 21 63 25 9 8 -117 129 -227 219 -117 95 -225 171 -230 163z"/>
<path d="M7700 9642 c-80 -57 -242 -189 -335 -275 l-69 -64 69 -23 c107 -35
250 -93 358 -145 54 -26 100 -45 103 -43 13 14 -31 487 -54 570 l-7 27 -65
-47z"/>
<path d="M1355 9603 c-112 -85 -262 -212 -317 -270 -34 -35 -37 -45 -52 -143
-24 -165 -36 -292 -35 -382 l1 -83 26 60 c98 225 302 607 427 800 31 48 55 89
53 90 -2 2 -48 -31 -103 -72z"/>
<path d="M11469 9518 c118 -192 235 -409 327 -608 42 -91 78 -167 81 -170 13
-13 -22 357 -47 501 l-11 65 -110 99 c-104 94 -306 255 -321 255 -3 0 33 -64
81 -142z"/>
<path d="M2909 9598 c-52 -5 -145 -16 -205 -26 l-109 -17 2 -140 c1 -137 36
-442 52 -458 5 -4 38 35 75 87 103 144 262 339 376 459 l102 107 -99 -1 c-54
-1 -141 -6 -194 -11z"/>
<path d="M3216 9513 c11 -204 49 -514 63 -512 3 0 23 21 45 47 84 103 256 280
373 385 84 75 120 113 111 118 -35 19 -390 59 -525 59 l-72 0 5 -97z"/>
<path d="M9335 9599 c-113 -11 -296 -39 -313 -48 -8 -5 15 -31 70 -78 91 -78
339 -328 408 -411 31 -38 46 -49 51 -39 14 25 50 310 56 449 l6 138 -94 -1
c-52 -1 -134 -5 -184 -10z"/>
<path d="M9694 9548 c188 -208 365 -426 451 -557 l29 -44 8 29 c31 127 68 562
47 574 -29 19 -389 60 -516 60 l-76 0 57 -62z"/>
<path d="M3840 9477 c0 -119 36 -449 56 -519 4 -14 26 1 107 75 129 117 177
157 310 255 l107 80 -48 20 c-116 49 -302 107 -469 146 l-63 14 0 -71z"/>
<path d="M8845 9515 c-129 -33 -309 -91 -394 -127 l-44 -18 99 -73 c121 -90
268 -211 352 -291 34 -32 64 -57 66 -55 23 23 79 580 59 592 -4 2 -66 -10
-138 -28z"/>
<path d="M2400 9509 c-126 -33 -288 -85 -362 -118 l-48 -20 0 -103 c0 -105 19
-298 40 -421 l12 -67 80 137 c101 172 213 340 334 500 65 86 88 123 76 123 -9
-1 -69 -14 -132 -31z"/>
<path d="M10290 9536 c0 -2 42 -60 94 -129 52 -69 123 -168 157 -219 62 -91
223 -357 232 -381 2 -7 7 -10 10 -7 15 14 57 398 57 521 0 47 -2 49 -37 64
-82 35 -245 88 -368 121 -131 34 -145 37 -145 30z"/>
<path d="M12029 9477 c19 -44 80 -147 81 -136 0 9 -91 179 -95 179 -3 0 4 -19
14 -43z"/>
<path d="M6072 9273 c-61 -172 -130 -433 -114 -433 4 0 48 7 97 15 50 8 145
18 213 21 67 4 122 10 122 13 0 30 -254 501 -270 501 -3 0 -25 -53 -48 -117z"/>
<path d="M6651 9310 c-58 -95 -211 -394 -211 -414 0 -10 33 -15 128 -20 70 -3
165 -13 212 -20 47 -8 87 -12 89 -10 13 12 -102 408 -147 509 l-18 39 -53 -84z"/>
<path d="M1783 9276 c-92 -47 -210 -111 -260 -142 l-93 -58 0 -47 c0 -128 40
-492 60 -543 8 -21 8 -21 16 -1 66 170 264 551 395 758 38 60 69 111 69 113 0
11 -32 -3 -187 -80z"/>
<path d="M4444 9238 c7 -129 29 -320 49 -425 l12 -62 65 51 c77 60 278 195
349 234 28 15 51 31 51 35 0 20 -487 289 -524 289 -5 0 -6 -50 -2 -122z"/>
<path d="M8193 9270 c-98 -49 -215 -114 -261 -143 l-83 -54 104 -62 c90 -53
243 -157 339 -231 21 -17 29 -18 33 -8 25 70 70 588 52 588 -4 0 -87 -40 -184
-90z"/>
<path d="M10876 9332 c117 -176 323 -557 423 -782 l34 -75 7 35 c17 76 41 292
47 426 l6 140 -94 59 c-96 60 -352 194 -409 214 l-32 11 18 -28z"/>
<path d="M5540 9279 c0 -2 -5 -31 -10 -64 -21 -122 -40 -323 -40 -417 l0 -96
73 28 c40 15 125 42 188 60 62 17 125 35 138 39 22 6 21 10 -55 111 -106 144
-294 360 -294 339z"/>
<path d="M7209 9208 c-132 -148 -298 -363 -287 -373 2 -2 48 -15 104 -29 55
-14 147 -42 203 -61 57 -20 106 -34 109 -31 14 15 -39 539 -57 559 -4 4 -37
-25 -72 -65z"/>
<path d="M853 9138 c-101 -117 -207 -257 -234 -309 -25 -49 -56 -254 -64 -417
-3 -64 -2 -110 1 -102 4 8 30 83 60 165 66 188 161 417 252 608 39 81 69 147
68 147 -2 0 -39 -42 -83 -92z"/>
<path d="M11979 9049 c85 -177 177 -399 248 -599 24 -68 46 -126 47 -128 12
-12 -28 361 -48 449 -9 41 -29 79 -73 140 -65 89 -210 266 -237 288 -8 7 20
-60 63 -150z"/>
<path d="M1315 8993 c-95 -70 -161 -124 -289 -238 l-78 -70 5 -165 c5 -140 38
-424 50 -437 2 -2 32 79 67 179 71 209 179 467 275 658 37 73 65 134 63 136
-2 1 -44 -27 -93 -63z"/>
<path d="M5000 8993 c0 -125 42 -489 58 -505 4 -3 41 14 82 39 41 24 125 69
185 99 61 30 111 59 113 63 6 19 -403 361 -431 361 -4 0 -7 -26 -7 -57z"/>
<path d="M7728 8988 c-93 -68 -179 -140 -282 -234 l-69 -63 129 -65 c71 -36
158 -83 194 -105 36 -21 66 -38 67 -37 8 8 43 277 48 366 3 58 8 126 11 153 3
26 1 47 -5 47 -5 0 -47 -28 -93 -62z"/>
<path d="M11430 9047 c0 -2 34 -75 76 -162 104 -218 193 -434 256 -624 29 -88
56 -160 59 -161 11 0 40 226 51 399 l12 175 -85 79 c-109 103 -369 310 -369
294z"/>
<path d="M3065 8979 c-104 -7 -404 -45 -412 -52 -3 -4 39 -175 68 -277 33
-111 97 -290 109 -303 3 -4 30 34 59 85 74 130 188 303 287 434 46 61 84 114
84 118 0 7 -12 6 -195 -5z"/>
<path d="M3280 8980 c0 -52 109 -416 160 -535 l20 -47 74 103 c76 108 162 212
279 341 37 42 67 78 67 80 0 11 -246 45 -380 53 -58 3 -131 8 -162 11 -40 3
-58 1 -58 -6z"/>
<path d="M9405 8983 c-167 -10 -441 -45 -453 -58 -3 -3 23 -34 57 -71 87 -93
202 -232 287 -347 l73 -99 16 39 c54 129 155 467 155 521 0 24 1 24 -135 15z"/>
<path d="M9570 8985 c0 -2 37 -53 82 -112 89 -118 228 -327 297 -449 l43 -78
14 26 c40 77 176 540 162 553 -19 18 -598 77 -598 60z"/>
<path d="M2475 8886 c-179 -46 -425 -130 -425 -145 0 -44 99 -384 149 -511
l30 -75 22 50 c95 217 199 415 316 602 34 55 63 104 63 107 0 10 -20 6 -155
-28z"/>
<path d="M3910 8903 c0 -73 156 -563 179 -563 4 0 17 13 29 29 36 50 193 210
284 292 l88 79 -38 16 c-78 33 -301 106 -392 128 -158 39 -150 38 -150 19z"/>
<path d="M8855 8908 c-161 -39 -483 -143 -501 -161 -3 -2 84 -93 192 -201 108
-108 198 -195 200 -194 24 25 174 509 174 564 0 6 -19 4 -65 -8z"/>
<path d="M10200 8914 c0 -3 13 -24 28 -47 90 -132 243 -415 333 -617 l38 -85
15 35 c53 129 156 475 156 527 0 18 -14 27 -78 52 -97 37 -279 92 -395 120
-99 23 -97 23 -97 15z"/>
<path d="M6400 8804 c-55 -144 -120 -363 -154 -514 l-5 -25 169 0 c126 0 170
3 170 12 0 45 -146 533 -166 552 -2 2 -8 -9 -14 -25z"/>
<path d="M5937 8764 c-19 -66 -45 -310 -49 -464 -3 -89 -1 -104 12 -101 32 7
237 50 278 58 l42 8 -53 116 c-52 112 -174 335 -208 381 -16 20 -17 21 -22 2z"/>
<path d="M6817 8682 c-60 -100 -207 -391 -207 -410 0 -6 21 -14 48 -17 26 -4
98 -18 160 -31 63 -13 116 -24 119 -24 9 0 -6 272 -22 390 -20 153 -27 190
-34 190 -3 0 -32 -44 -64 -98z"/>
<path d="M512 8666 c-34 -57 -94 -169 -132 -248 -63 -131 -72 -157 -90 -264
-32 -198 -53 -493 -30 -439 5 11 27 97 49 190 57 233 131 477 208 684 35 95
62 175 60 177 -2 2 -31 -43 -65 -100z"/>
<path d="M12260 8744 c0 -6 12 -39 26 -74 41 -102 132 -374 175 -525 43 -153
99 -378 99 -400 0 -7 4 -16 8 -19 16 -10 -10 294 -38 451 -15 86 -30 126 -88
245 -69 144 -182 342 -182 322z"/>
<path d="M1859 8659 c-215 -106 -359 -195 -359 -222 0 -59 114 -448 152 -522
14 -26 16 -24 68 127 62 179 137 359 226 547 35 74 63 136 61 138 -2 2 -69
-29 -148 -68z"/>
<path d="M4510 8723 c1 -43 112 -413 156 -518 l15 -36 77 71 c42 40 119 103
170 142 52 39 90 74 85 79 -23 23 -243 148 -360 205 -135 66 -143 69 -143 57z"/>
<path d="M8170 8665 c-137 -68 -360 -195 -360 -206 0 -3 41 -36 90 -74 50 -37
123 -98 164 -136 41 -38 76 -69 79 -69 23 0 177 505 165 541 -2 5 -64 -20
-138 -56z"/>
<path d="M10820 8725 c0 -3 25 -55 55 -115 78 -155 165 -363 232 -550 36 -104
59 -156 65 -148 29 45 169 531 156 543 -43 42 -508 288 -508 270z"/>
<path d="M825 8550 c-48 -55 -131 -155 -182 -222 l-94 -123 5 -155 c4 -146 29
-380 45 -422 5 -13 16 20 35 104 62 269 159 590 248 812 21 54 37 100 35 102
-1 2 -43 -41 -92 -96z"/>
<path d="M5493 8500 c7 -149 42 -418 56 -433 5 -5 35 5 67 21 33 16 100 44
149 63 50 18 92 34 94 36 12 8 -277 373 -344 433 l-28 25 6 -145z"/>
<path d="M7240 8544 c-124 -140 -281 -349 -269 -358 2 -1 40 -15 84 -30 44
-16 111 -44 149 -63 37 -19 70 -33 72 -31 9 10 45 266 54 388 12 162 12 190 3
190 -5 0 -46 -43 -93 -96z"/>
<path d="M11925 8615 c4 -11 22 -59 40 -107 63 -163 154 -457 207 -670 45
-181 54 -206 60 -177 13 63 37 283 44 406 l7 122 -48 67 c-114 159 -325 404
-310 359z"/>
<path d="M1414 8398 c-97 -69 -239 -185 -325 -266 -94 -88 -91 -62 -32 -282
42 -160 123 -385 133 -373 4 4 24 81 44 169 43 192 117 433 193 637 30 81 53
150 51 153 -3 2 -31 -15 -64 -38z"/>
<path d="M11350 8436 c0 -2 27 -77 60 -165 33 -88 76 -214 96 -278 45 -149
124 -459 124 -490 0 -45 17 -21 53 77 44 120 90 274 116 392 l19 88 -107 95
c-146 130 -361 297 -361 281z"/>
<path d="M5070 8415 c0 -57 159 -555 177 -555 2 0 41 27 86 59 45 32 106 73
135 91 28 17 52 35 52 39 0 12 -216 201 -319 279 -99 76 -131 97 -131 87z"/>
<path d="M7650 8349 c-111 -83 -201 -159 -287 -243 l-62 -60 67 -40 c37 -22
100 -64 140 -94 41 -29 75 -52 77 -50 1 2 24 61 50 133 49 137 128 425 117
425 -4 0 -50 -32 -102 -71z"/>
<path d="M3243 8379 c-119 -8 -391 -44 -400 -53 -13 -12 102 -242 215 -428 60
-101 82 -126 82 -95 0 22 167 351 234 460 36 60 66 113 66 118 0 10 -21 10
-197 -2z"/>
<path d="M3470 8373 c0 -5 36 -81 79 -169 85 -170 198 -357 210 -349 5 2 31
44 60 93 50 89 180 279 227 335 37 44 48 40 -181 73 -134 19 -395 30 -395 17z"/>
<path d="M9071 8369 c-118 -11 -301 -40 -306 -48 -2 -4 12 -27 32 -51 60 -76
158 -220 218 -323 51 -86 59 -95 70 -80 67 98 191 326 250 458 l24 55 -102 -1
c-56 -1 -140 -5 -186 -10z"/>
<path d="M9390 8374 c0 -3 14 -25 30 -50 51 -73 192 -333 235 -432 22 -50 44
-90 49 -89 24 8 253 428 271 498 6 24 4 26 -60 38 -161 29 -525 54 -525 35z"/>
<path d="M12514 8343 c27 -99 37 -130 47 -143 9 -13 10 -13 6 1 -3 9 -15 49
-27 88 -11 39 -23 71 -26 71 -3 0 -3 -8 0 -17z"/>
<path d="M2695 8294 c-208 -52 -455 -138 -455 -160 0 -22 175 -361 230 -448
28 -43 55 -75 59 -70 5 5 19 41 31 79 38 119 127 336 195 480 36 76 65 139 65
141 0 7 -25 3 -125 -22z"/>
<path d="M4100 8305 c0 -35 241 -482 270 -500 4 -3 18 11 31 31 30 48 150 197
207 256 29 30 43 51 37 57 -21 20 -331 119 -482 154 -49 11 -63 12 -63 2z"/>
<path d="M8575 8280 c-150 -38 -371 -112 -389 -130 -6 -6 16 -36 57 -80 37
-38 99 -113 139 -166 l72 -96 19 23 c52 64 267 472 256 484 -2 2 -72 -14 -154
-35z"/>
<path d="M10010 8315 c0 -3 22 -50 49 -104 66 -130 144 -318 197 -470 24 -68
45 -125 47 -128 8 -8 145 231 218 380 39 81 70 149 68 151 -21 20 -334 120
-485 156 -95 22 -94 22 -94 15z"/>
<path d="M6226 8179 c-22 -136 -36 -277 -42 -411 -7 -140 -6 -151 10 -145 9 4
59 10 111 13 88 6 95 9 95 28 0 55 -126 484 -159 545 -5 8 -11 -2 -15 -30z"/>
<path d="M6552 8128 c-52 -143 -131 -432 -132 -479 0 -3 45 -9 100 -13 55 -3
105 -7 111 -9 27 -6 -12 545 -41 576 -4 5 -21 -29 -38 -75z"/>
<path d="M2062 8065 c-151 -74 -316 -166 -361 -202 l-24 -20 67 -138 c76 -158
216 -399 226 -388 3 5 16 54 29 111 35 159 105 397 166 559 30 81 54 148 52
149 -1 2 -71 -30 -155 -71z"/>
<path d="M5892 8003 c6 -123 40 -401 53 -436 4 -10 23 -7 88 15 45 15 93 27
106 27 20 1 22 4 16 28 -16 67 -246 503 -265 503 -3 0 -2 -62 2 -137z"/>
<path d="M6909 8104 c-50 -76 -154 -269 -200 -374 -42 -92 -46 -106 -31 -112
38 -15 194 -59 198 -56 17 17 71 499 63 558 -4 22 -5 22 -30 -16z"/>
<path d="M4700 8121 c0 -17 169 -341 224 -429 l58 -93 119 120 c65 66 119 122
119 125 0 8 -160 107 -262 160 -134 72 -258 128 -258 117z"/>
<path d="M7970 8057 c-80 -40 -196 -103 -259 -141 l-113 -70 66 -58 c36 -33
91 -88 123 -124 l58 -65 69 113 c75 125 210 392 204 407 -1 6 -68 -22 -148
-62z"/>
<path d="M10641 8058 c68 -165 209 -644 209 -709 0 -43 22 -20 93 99 77 131
115 203 173 329 l33 73 -92 57 c-97 61 -413 223 -434 223 -8 0 -2 -25 18 -72z"/>
<path d="M445 8033 c-26 -43 -78 -142 -117 -220 -64 -131 -70 -150 -75 -220
-3 -43 0 -134 6 -203 11 -127 32 -282 37 -277 2 1 14 82 29 180 31 218 82 474
134 670 21 81 37 147 35 147 -2 0 -24 -35 -49 -77z"/>
<path d="M12344 8076 c44 -135 126 -526 161 -762 13 -91 26 -168 28 -170 7 -8
27 168 37 332 l10 155 -36 82 c-58 134 -221 430 -200 363z"/>
<path d="M915 7958 c-78 -84 -190 -223 -259 -320 l-47 -68 11 -57 c19 -93 96
-351 131 -443 l33 -85 7 45 c4 25 15 99 23 165 32 234 82 481 142 698 20 71
33 131 31 133 -2 3 -35 -28 -72 -68z"/>
<path d="M11844 8015 c3 -11 16 -60 30 -110 56 -197 124 -545 159 -810 l12
-100 44 120 c49 139 108 345 117 415 l6 48 -85 115 c-74 100 -137 175 -260
311 -22 24 -27 27 -23 11z"/>
<path d="M5560 7997 c0 -48 152 -528 175 -555 2 -2 20 8 42 21 21 13 63 37 93
52 30 15 57 29 58 30 6 6 -78 125 -167 235 -109 136 -201 235 -201 217z"/>
<path d="M7174 7913 c-94 -106 -274 -341 -274 -358 0 -10 187 -111 194 -104
25 26 188 559 172 559 -3 0 -44 -44 -92 -97z"/>
<path d="M1555 7763 c-177 -130 -355 -290 -355 -318 0 -51 257 -528 271 -502
4 6 10 44 14 82 17 169 80 495 139 710 13 50 23 91 22 92 -1 1 -42 -28 -91
-64z"/>
<path d="M3505 7819 c-109 -8 -313 -35 -348 -45 -15 -5 -11 -15 29 -72 104
-147 332 -409 344 -395 4 4 20 46 35 93 32 96 100 262 151 362 l34 68 -67 -1
c-38 -1 -117 -6 -178 -10z"/>
<path d="M3776 7818 c49 -85 341 -438 363 -438 4 0 24 38 45 84 20 46 66 132
102 192 35 59 62 109 60 111 -9 10 -252 43 -382 52 -183 14 -197 14 -188 -1z"/>
<path d="M8850 7819 c-121 -9 -339 -38 -356 -48 -8 -4 4 -32 35 -83 36 -60 88
-161 157 -306 9 -18 364 412 364 441 0 8 -53 7 -200 -4z"/>
<path d="M9090 7821 c0 -6 20 -52 45 -101 47 -94 110 -246 140 -340 24 -74 24
-74 47 -53 46 40 192 210 274 319 67 88 85 117 74 124 -44 28 -580 75 -580 51z"/>
<path d="M5260 7815 c0 -29 167 -336 279 -514 7 -11 22 -3 74 41 36 31 76 64
89 73 l23 16 -90 86 c-129 122 -375 318 -375 298z"/>
<path d="M7445 7734 c-132 -101 -335 -282 -335 -298 0 -6 12 -19 28 -28 15 -9
52 -39 84 -67 l56 -51 49 78 c88 138 238 425 231 442 -2 4 -52 -30 -113 -76z"/>
<path d="M11190 7814 c0 -4 20 -87 45 -186 44 -175 97 -459 111 -588 12 -112
13 -112 81 2 64 108 203 384 203 404 0 7 -33 42 -72 79 -120 111 -368 306
-368 289z"/>
<path d="M3095 7762 c-177 -33 -555 -154 -555 -177 0 -29 356 -465 380 -465 4
0 13 28 20 63 23 108 87 328 134 456 25 68 45 125 43 126 -1 1 -11 0 -22 -3z"/>
<path d="M4415 7733 c66 -101 344 -433 363 -433 4 0 23 26 41 58 19 31 61 94
93 140 33 46 58 85 57 86 -2 2 -47 19 -99 39 -140 52 -293 97 -444 132 l-29 6
18 -28z"/>
<path d="M8350 7744 c-198 -51 -490 -146 -490 -160 0 -2 24 -37 53 -77 30 -39
72 -102 94 -140 l40 -67 76 79 c102 107 297 353 297 375 0 8 -4 7 -70 -10z"/>
<path d="M9729 7717 c37 -85 109 -314 141 -447 19 -74 35 -137 37 -139 6 -7
53 41 146 149 120 138 239 302 229 312 -26 26 -492 168 -552 168 -19 0 -19 -1
-1 -43z"/>
<path d="M6406 7573 c-10 -37 -35 -272 -42 -400 l-7 -133 53 0 53 0 -6 153
c-6 133 -32 385 -42 395 -2 2 -6 -5 -9 -15z"/>
<path d="M221 7580 c0 -3 -19 -59 -42 -125 -22 -65 -56 -179 -75 -252 -30
-117 -34 -149 -34 -256 0 -148 34 -467 49 -467 4 0 12 105 19 233 13 247 38
495 72 708 12 71 19 137 17 147 -3 9 -5 15 -6 12z"/>
<path d="M2408 7536 c-143 -65 -428 -226 -428 -243 0 -10 104 -149 186 -248
135 -163 202 -232 207 -215 3 8 13 74 22 145 20 156 55 329 95 482 17 62 30
114 30 117 0 11 -15 6 -112 -38z"/>
<path d="M10313 7566 c32 -83 118 -502 132 -641 4 -38 11 -76 15 -83 11 -22
216 209 343 388 l46 66 -92 58 c-86 54 -421 226 -440 226 -5 0 -7 -6 -4 -14z"/>
<path d="M5010 7563 c0 -19 200 -270 306 -382 l79 -84 20 28 c11 16 44 56 73
91 l52 63 -92 57 c-149 92 -438 242 -438 227z"/>
<path d="M12601 7560 c-1 -8 8 -65 19 -127 39 -226 78 -645 81 -868 0 -74 3
-92 9 -71 14 46 39 268 46 411 6 123 5 137 -24 255 -43 175 -130 442 -131 400z"/>
<path d="M6180 7538 c-1 -94 49 -500 63 -514 2 -2 25 -1 50 2 41 6 46 9 42 28
-31 152 -119 451 -146 496 -6 11 -8 8 -9 -12z"/>
<path d="M6582 7400 c-52 -163 -100 -355 -91 -364 2 -2 24 -6 49 -8 l45 -3 17
100 c21 129 41 337 36 395 -3 42 -7 34 -56 -120z"/>
<path d="M7684 7506 c-117 -57 -282 -150 -352 -198 l-42 -29 50 -57 c29 -31
59 -69 68 -84 9 -16 19 -28 23 -28 14 0 198 202 271 297 91 119 113 153 101
153 -6 0 -59 -24 -119 -54z"/>
<path d="M510 7411 c-39 -66 -100 -181 -136 -256 l-66 -136 37 -144 c35 -142
119 -402 134 -418 4 -4 11 77 14 180 9 261 35 516 78 772 11 63 17 116 15 118
-2 3 -36 -50 -76 -116z"/>
<path d="M12244 7508 c10 -34 56 -346 71 -493 9 -82 19 -239 22 -348 3 -109
10 -194 15 -189 24 24 158 474 158 532 0 26 -95 226 -170 358 -60 105 -107
174 -96 140z"/>
<path d="M5967 7468 c32 -140 141 -471 161 -489 4 -4 26 2 49 12 l42 18 -24
55 c-62 140 -206 409 -225 421 -4 3 -6 -5 -3 -17z"/>
<path d="M6808 7412 c-83 -139 -204 -390 -193 -400 3 -3 22 -13 44 -23 l39
-17 22 56 c58 149 148 448 138 458 -3 2 -25 -31 -50 -74z"/>
<path d="M1075 7329 c-49 -55 -134 -159 -187 -230 l-97 -129 22 -53 c60 -145
253 -491 269 -481 4 3 8 42 8 87 0 183 33 533 71 758 21 128 23 149 12 149 -5
0 -48 -46 -98 -101z"/>
<path d="M11650 7422 c0 -7 9 -63 20 -125 32 -185 60 -460 67 -671 5 -175 8
-196 20 -180 52 69 220 384 262 491 13 31 11 35 -35 100 -113 158 -333 412
-334 385z"/>
<path d="M5760 7385 c0 -28 237 -456 261 -470 12 -8 79 33 79 48 0 18 -150
218 -248 330 -79 92 -92 104 -92 92z"/>
<path d="M7040 7371 c-8 -11 -46 -54 -83 -97 -64 -74 -182 -226 -220 -285 -17
-26 -17 -26 24 -54 34 -24 42 -26 50 -14 52 78 148 247 198 347 57 113 67 147
31 103z"/>
<path d="M3860 7329 c-130 -12 -310 -40 -310 -49 0 -20 436 -378 447 -366 1 1
16 54 32 116 16 63 45 159 64 213 l35 97 -86 -1 c-48 -1 -130 -6 -182 -10z"/>
<path d="M4189 7327 c49 -60 421 -357 446 -357 6 0 22 30 35 68 13 37 41 105
62 151 21 46 36 86 34 89 -15 14 -290 49 -461 58 -121 7 -129 6 -116 -9z"/>
<path d="M8405 7329 c-114 -10 -320 -40 -335 -49 -7 -4 5 -39 34 -101 24 -52
52 -120 62 -151 10 -32 21 -58 24 -58 24 0 327 240 410 324 l44 46 -74 -1
c-41 -1 -115 -5 -165 -10z"/>
<path d="M8710 7333 c0 -5 13 -46 30 -91 16 -45 44 -134 61 -199 17 -65 33
-120 34 -121 10 -11 358 269 423 340 l23 25 -43 7 c-206 33 -528 57 -528 39z"/>
<path d="M1872 7223 c-105 -76 -264 -208 -330 -275 l-53 -54 74 -100 c146
-197 305 -373 318 -352 5 7 9 67 9 133 0 66 7 185 15 265 14 147 53 418 61
432 13 21 -21 3 -94 -49z"/>
<path d="M3362 7245 c-192 -49 -422 -127 -422 -144 0 -26 437 -381 470 -381 4
0 11 33 14 73 9 89 39 251 72 379 13 53 24 99 24 102 0 10 -21 6 -158 -29z"/>
<path d="M9310 7278 c0 -2 13 -55 29 -118 16 -63 39 -178 51 -255 12 -77 24
-150 26 -163 4 -22 8 -20 81 30 88 61 300 238 356 295 l38 40 -83 31 c-118 44
-227 78 -343 106 -133 32 -155 37 -155 34z"/>
<path d="M10873 7245 c38 -222 59 -414 75 -694 l7 -124 100 113 c109 122 275
337 275 356 0 23 -250 236 -409 350 l-54 38 6 -39z"/>
<path d="M4865 7214 c91 -83 240 -203 333 -269 67 -46 86 -55 93 -44 5 8 9 19
9 24 0 6 20 45 45 88 l44 78 -27 10 c-102 41 -167 64 -232 85 -81 27 -299 84
-315 84 -5 -1 17 -26 50 -56z"/>
<path d="M7860 7235 c-129 -35 -289 -88 -373 -124 l-48 -21 19 -27 c11 -16 36
-61 56 -100 l36 -73 73 51 c170 121 409 329 377 328 -8 0 -71 -16 -140 -34z"/>
<path d="M5642 7158 c70 -93 220 -268 266 -312 l30 -28 35 35 35 34 -56 55
c-109 105 -345 298 -366 298 -4 0 21 -37 56 -82z"/>
<path d="M7174 7197 c-65 -48 -207 -167 -297 -249 l-58 -53 36 -35 37 -35 86
91 c100 105 275 324 259 324 -3 0 -31 -19 -63 -43z"/>
<path d="M12772 7085 c0 -22 4 -53 8 -70 7 -28 8 -28 8 10 0 22 -4 54 -8 70
-7 28 -8 28 -8 -10z"/>
<path d="M2797 7046 c-65 -30 -139 -66 -165 -81 -108 -62 -252 -150 -252 -155
0 -26 437 -380 469 -380 7 0 11 29 11 83 0 111 17 294 40 451 11 71 19 131 17
132 -2 2 -56 -21 -120 -50z"/>
<path d="M9915 7068 c27 -124 55 -392 55 -530 0 -60 4 -108 8 -108 35 0 462
353 462 382 0 21 -478 278 -518 278 -8 0 -11 -8 -7 -22z"/>
<path d="M5475 7023 c124 -113 389 -314 399 -302 15 20 47 81 45 84 -33 31
-463 266 -486 265 -5 -1 15 -21 42 -47z"/>
<path d="M7238 6997 c-131 -67 -328 -183 -328 -193 0 -3 12 -22 26 -44 l26
-39 59 40 c120 81 389 307 367 309 -4 0 -71 -33 -150 -73z"/>
<path d="M718 6847 c-77 -128 -140 -247 -183 -347 l-36 -85 22 -55 c54 -133
238 -470 257 -470 4 0 5 33 1 73 -17 161 -21 556 -10 761 7 114 11 210 9 212
-2 2 -29 -38 -60 -89z"/>
<path d="M4385 6933 c-84 -7 -292 -34 -321 -42 -28 -7 -24 -10 93 -80 120 -71
380 -201 402 -201 12 0 15 11 31 116 6 40 20 104 30 143 l18 71 -106 -2 c-59
-1 -125 -3 -147 -5z"/>
<path d="M4745 6895 c62 -40 401 -213 448 -229 10 -3 19 0 22 7 40 133 57 198
53 203 -18 17 -409 64 -533 64 l-60 0 70 -45z"/>
<path d="M7890 6929 c-117 -12 -307 -41 -320 -49 -9 -5 -5 -30 14 -89 14 -45
26 -89 26 -97 0 -37 43 -23 245 78 99 50 285 157 285 164 0 6 -170 2 -250 -7z"/>
<path d="M8200 6931 c0 -5 9 -47 20 -93 10 -46 24 -114 30 -153 6 -38 12 -71
14 -72 14 -14 492 236 511 267 7 11 -89 27 -257 45 -165 17 -318 20 -318 6z"/>
<path d="M227 6788 c-97 -298 -105 -374 -62 -538 29 -110 107 -351 112 -346 2
1 -2 116 -9 255 -9 195 -9 312 0 509 7 140 10 257 8 259 -2 2 -24 -61 -49
-139z"/>
<path d="M12058 6820 c9 -155 9 -666 -1 -815 l-8 -120 56 90 c31 50 95 167
142 262 l85 172 -51 114 c-47 103 -171 330 -213 388 -16 23 -17 19 -10 -91z"/>
<path d="M12554 6878 c12 -68 18 -656 8 -803 -6 -82 -9 -151 -7 -153 6 -6 84
244 111 353 13 55 24 119 24 143 0 52 -37 203 -91 370 -39 119 -57 155 -45 90z"/>
<path d="M3905 6859 c-104 -23 -297 -82 -399 -121 -92 -36 -96 -27 50 -114 84
-49 370 -194 385 -194 3 0 9 53 13 117 3 65 13 165 22 222 8 57 14 104 12 106
-2 1 -39 -6 -83 -16z"/>
<path d="M1403 6811 c-144 -157 -303 -367 -303 -399 0 -26 140 -213 264 -352
54 -61 100 -109 101 -108 2 2 -1 59 -7 128 -10 130 -5 727 8 768 10 34 -6 25
-63 -37z"/>
<path d="M5320 6864 c0 -17 459 -254 491 -254 8 0 22 20 31 44 l16 44 -93 36
c-141 54 -445 143 -445 130z"/>
<path d="M7485 6865 c-5 -2 -77 -22 -159 -45 -83 -23 -196 -60 -252 -81 l-103
-40 18 -40 c10 -21 20 -42 23 -45 16 -15 488 227 488 251 0 3 -1 5 -2 4 -2 0
-7 -2 -13 -4z"/>
<path d="M8845 6843 c18 -104 26 -174 32 -285 3 -71 8 -128 10 -128 16 0 310
151 401 206 106 64 112 69 90 80 -72 37 -466 154 -518 154 -16 0 -19 -5 -15
-27z"/>
<path d="M11378 6685 c9 -229 9 -318 -1 -540 l-8 -179 27 24 c70 66 303 355
327 407 8 18 2 32 -38 90 -56 79 -190 243 -264 323 l-50 55 7 -180z"/>
<path d="M2241 6715 c-110 -83 -283 -228 -329 -277 l-22 -25 62 -59 c132 -125
384 -324 410 -324 7 0 8 31 3 93 -9 124 -9 458 0 580 4 54 4 97 -1 97 -5 0
-60 -39 -123 -85z"/>
<path d="M10463 6754 c14 -110 18 -399 8 -554 -5 -90 -8 -166 -6 -168 10 -11
277 200 410 323 l60 56 -88 84 c-83 79 -289 245 -359 289 l-31 20 6 -50z"/>
<path d="M3350 6676 c-92 -39 -258 -125 -372 -193 -89 -54 -107 -68 -96 -78
42 -40 430 -247 503 -269 20 -6 20 -1 20 279 0 157 0 285 0 285 0 -1 -25 -11
-55 -24z"/>
<path d="M9425 6413 c0 -155 2 -283 5 -283 3 0 70 32 150 70 147 72 370 199
370 212 0 19 -338 207 -475 264 l-50 21 0 -284z"/>
<path d="M4980 6639 c-69 -4 -181 -16 -249 -25 -103 -14 -121 -19 -107 -30 37
-26 370 -126 532 -159 l31 -6 7 88 c4 48 8 99 9 113 2 23 -1 25 -48 26 -27 1
-106 -2 -175 -7z"/>
<path d="M5267 6639 c23 -22 460 -149 512 -149 13 0 20 10 25 31 13 65 14 64
-96 82 -156 25 -455 50 -441 36z"/>
<path d="M7430 6639 c-104 -7 -400 -46 -407 -53 -2 -1 0 -24 3 -49 5 -34 11
-47 23 -47 57 0 480 127 506 151 6 6 6 8 0 8 -6 -1 -62 -6 -125 -10z"/>
<path d="M7629 6646 c-3 -3 -2 -29 2 -58 4 -29 8 -79 8 -110 1 -32 4 -58 9
-58 54 0 562 153 562 169 0 20 -564 74 -581 57z"/>
<path d="M4483 6570 c-186 -42 -501 -146 -486 -161 22 -21 512 -169 562 -169
3 0 6 79 6 175 0 96 0 175 0 174 0 0 -37 -9 -82 -19z"/>
<path d="M8265 6410 l0 -169 25 5 c182 41 462 124 524 157 19 9 18 10 -5 22
-65 35 -476 155 -527 155 -15 0 -17 -16 -17 -170z"/>
<path d="M4 6410 c0 -69 1 -97 3 -62 2 34 2 90 0 125 -2 34 -3 6 -3 -63z"/>
<path d="M5485 6449 c-169 -17 -251 -31 -228 -40 50 -18 510 -58 530 -46 5 3
7 26 5 51 l-4 46 -112 -1 c-61 -1 -147 -5 -191 -10z"/>
<path d="M7040 6409 l0 -51 118 6 c145 8 392 36 411 46 26 14 -280 49 -436 50
l-93 0 0 -51z"/>
<path d="M1768 6285 c-96 -109 -278 -341 -278 -357 0 -22 463 -399 474 -387 2
2 -7 68 -20 146 -31 189 -54 439 -54 584 0 65 -4 120 -9 123 -5 4 -56 -46
-113 -109z"/>
<path d="M2734 6319 c-125 -93 -250 -198 -312 -262 l-43 -44 73 -45 c158 -97
228 -134 357 -192 57 -26 106 -45 108 -42 3 3 -2 49 -11 103 -28 175 -36 255
-43 411 -3 83 -9 152 -13 152 -4 0 -57 -36 -116 -81z"/>
<path d="M3845 6353 c-146 -67 -415 -218 -415 -233 0 -20 542 -181 557 -166 3
3 0 33 -5 68 -10 61 -30 247 -35 335 l-2 42 -100 -46z"/>
<path d="M5004 6366 c-132 -34 -372 -112 -387 -126 -18 -16 229 -48 442 -57
l154 -6 -6 32 c-4 17 -10 67 -13 111 -7 78 -8 80 -33 80 -14 -1 -85 -16 -157
-34z"/>
<path d="M7637 6313 c-4 -49 -10 -99 -14 -112 l-6 -24 149 6 c143 6 365 30
429 46 28 7 24 10 -59 39 -157 57 -429 132 -479 132 -10 0 -16 -24 -20 -87z"/>
<path d="M9976 6393 c-3 -3 -6 -54 -6 -112 0 -112 -20 -319 -45 -460 -8 -47
-13 -87 -11 -89 8 -8 282 130 409 206 l130 77 -69 63 c-144 131 -396 327 -408
315z"/>
<path d="M1006 6281 c-79 -130 -206 -388 -206 -416 0 -46 371 -500 378 -463 2
9 -8 90 -22 180 -40 264 -66 542 -66 726 0 45 -4 82 -9 82 -6 0 -39 -49 -75
-109z"/>
<path d="M8876 6268 c-3 -68 -13 -165 -21 -217 -9 -52 -14 -96 -11 -98 16 -16
546 148 546 169 0 19 -460 268 -496 268 -7 0 -13 -44 -18 -122z"/>
<path d="M10946 6250 c-9 -186 -31 -401 -57 -563 -11 -71 -19 -131 -16 -133
11 -12 256 180 384 300 l78 73 -36 54 c-54 82 -186 244 -271 334 l-76 80 -6
-145z"/>
<path d="M11737 6203 c-8 -207 -27 -409 -58 -608 -12 -71 -23 -148 -26 -169
l-6 -39 87 94 c92 98 296 361 296 381 0 36 -261 528 -281 528 -3 0 -9 -84 -12
-187z"/>
<path d="M452 6300 c-39 -99 -93 -277 -122 -404 l-21 -89 85 -171 c47 -94 110
-211 141 -261 l57 -90 -7 45 c-3 25 -17 115 -30 200 -31 197 -55 453 -63 678
l-7 177 -33 -85z"/>
<path d="M106 6313 c-23 -165 -35 -306 -37 -419 -1 -115 2 -142 30 -254 42
-163 125 -411 129 -383 2 12 -8 98 -23 190 -37 243 -53 408 -66 668 -7 127
-15 234 -19 238 -4 4 -10 -14 -14 -40z"/>
<path d="M12337 6163 c-9 -256 -50 -643 -87 -808 -5 -22 -7 -41 -5 -43 14 -14
265 463 265 504 0 58 -135 511 -159 537 -4 4 -11 -81 -14 -190z"/>
<path d="M12701 6270 c-2 -125 -17 -360 -37 -540 -14 -135 -57 -429 -70 -475
-4 -16 -3 -17 5 -5 18 25 99 282 132 417 30 123 31 133 25 268 -7 145 -31 351
-46 401 -6 21 -9 4 -9 -66z"/>
<path d="M5650 6309 c-123 -31 -355 -105 -380 -120 -30 -19 261 5 448 37 99
18 99 17 86 83 -8 38 -7 38 -154 0z"/>
<path d="M7026 6293 c-3 -25 -4 -48 -2 -50 14 -14 417 -63 514 -63 43 0 12 15
-126 60 -101 34 -350 100 -373 100 -3 0 -9 -21 -13 -47z"/>
<path d="M4420 6154 c-179 -86 -384 -206 -368 -215 35 -19 570 -71 584 -57 2
2 -5 37 -16 77 -10 40 -24 105 -30 145 -15 99 -19 116 -28 116 -4 0 -68 -30
-142 -66z"/>
<path d="M5614 6125 c-183 -92 -310 -164 -288 -165 43 -1 503 147 527 169 9 9
-25 91 -39 91 -6 0 -96 -43 -200 -95z"/>
<path d="M7006 6212 c-2 -4 -11 -24 -20 -45 l-15 -38 47 -20 c107 -47 469
-156 479 -145 7 7 -172 107 -312 175 -158 77 -173 83 -179 73z"/>
<path d="M8255 6173 c-13 -79 -36 -190 -50 -242 l-14 -54 137 6 c146 7 452 45
452 57 0 19 -471 270 -507 270 -7 0 -15 -17 -18 -37z"/>
<path d="M5034 6086 c-141 -68 -339 -180 -349 -196 -5 -8 105 -4 260 11 103
10 323 43 330 51 2 1 -10 41 -26 88 -16 47 -29 93 -29 103 0 29 -28 20 -186
-57z"/>
<path d="M7609 6139 c0 -13 -12 -61 -28 -106 -24 -75 -25 -83 -10 -88 38 -12
291 -45 384 -50 55 -3 119 -8 143 -10 23 -3 42 -1 42 3 0 21 -430 249 -502
267 -25 6 -28 4 -29 -16z"/>
<path d="M3320 6048 c-178 -128 -388 -314 -372 -330 28 -28 494 -168 558 -168
l22 0 -24 83 c-27 91 -70 308 -80 405 -4 34 -10 64 -13 66 -4 3 -45 -23 -91
-56z"/>
<path d="M5780 6049 c-168 -121 -372 -297 -329 -284 76 23 469 245 469 266 0
11 -43 79 -50 79 -3 0 -43 -28 -90 -61z"/>
<path d="M6927 6062 l-25 -38 82 -51 c166 -104 391 -221 403 -210 12 12 -396
337 -423 337 -6 0 -23 -17 -37 -38z"/>
<path d="M9416 6088 c-3 -7 -10 -56 -16 -108 -11 -80 -63 -331 -86 -409 -7
-23 -6 -23 37 -16 118 20 504 139 532 165 16 14 -423 380 -456 380 -4 0 -9 -6
-11 -12z"/>
<path d="M5858 5927 c-81 -88 -253 -299 -270 -331 -23 -43 213 144 344 272
l78 76 -32 33 c-18 18 -35 33 -38 33 -3 0 -40 -38 -82 -83z"/>
<path d="M6851 5974 l-34 -34 29 -31 c75 -80 394 -340 394 -322 0 19 -244 315
-322 390 l-33 32 -34 -35z"/>
<path d="M2287 5920 c-118 -125 -318 -383 -306 -393 2 -3 49 -32 105 -65 154
-93 434 -230 434 -213 0 4 -17 76 -39 161 -40 160 -85 404 -97 523 -4 37 -10
67 -14 67 -5 0 -42 -36 -83 -80z"/>
<path d="M10457 5990 c-3 -8 -10 -60 -17 -115 -15 -131 -63 -371 -101 -513
-18 -62 -30 -115 -27 -117 7 -7 350 168 445 228 l93 58 -56 77 c-142 193 -329
406 -337 382z"/>
<path d="M5175 5865 c-173 -124 -377 -305 -344 -305 47 0 393 107 506 156 l52
23 -49 93 c-27 51 -55 94 -62 95 -7 2 -53 -26 -103 -62z"/>
<path d="M7536 5912 c-3 -9 -26 -53 -51 -96 -25 -44 -45 -80 -45 -82 0 -1 57
-23 127 -49 141 -52 334 -109 403 -119 l45 -7 -60 56 c-116 108 -382 315 -405
315 -5 0 -11 -8 -14 -18z"/>
<path d="M5964 5828 c-61 -100 -162 -287 -190 -353 l-16 -40 27 25 c67 61 336
405 324 414 -32 24 -69 46 -77 46 -6 0 -37 -42 -68 -92z"/>
<path d="M6762 5900 c-12 -10 -28 -20 -35 -23 -23 -7 147 -239 292 -397 l51
-55 -16 40 c-44 113 -235 445 -259 451 -5 2 -20 -5 -33 -16z"/>
<path d="M3889 5837 c-111 -84 -247 -198 -303 -256 -38 -39 -39 -40 -15 -45
110 -23 336 -46 451 -46 l107 0 -35 98 c-20 53 -48 146 -64 207 -15 60 -32
110 -37 112 -4 1 -51 -31 -104 -70z"/>
<path d="M8825 5883 c-17 -74 -70 -255 -95 -320 l-28 -73 101 0 c133 0 457 37
474 54 8 7 -253 230 -367 312 -81 59 -79 58 -85 27z"/>
<path d="M1390 5770 c-82 -138 -190 -359 -190 -388 0 -29 218 -223 384 -340
33 -23 61 -41 62 -39 2 2 -12 61 -31 132 -60 224 -135 624 -135 723 0 17 -4
32 -10 32 -5 0 -41 -54 -80 -120z"/>
<path d="M11357 5860 c-3 -14 -13 -79 -22 -145 -28 -207 -108 -583 -145 -679
-5 -14 -6 -26 -1 -26 26 0 307 227 400 324 l45 45 -48 105 c-44 95 -166 318
-207 377 l-17 24 -5 -25z"/>
<path d="M4554 5803 c-104 -74 -234 -180 -311 -255 -35 -33 -63 -60 -63 -61 0
-1 64 1 142 5 127 6 405 40 441 53 10 4 4 24 -24 83 -20 43 -49 112 -64 155
-15 42 -31 77 -35 77 -4 0 -43 -25 -86 -57z"/>
<path d="M6115 5823 c-50 -118 -161 -480 -151 -490 10 -11 230 405 250 472 5
17 -1 24 -31 35 -21 8 -41 16 -45 18 -4 2 -14 -14 -23 -35z"/>
<path d="M6652 5841 c-38 -14 -42 -18 -37 -41 16 -65 230 -469 242 -456 11 11
-140 496 -160 512 -1 1 -21 -6 -45 -15z"/>
<path d="M8162 5793 c-13 -38 -42 -107 -64 -156 -23 -48 -39 -89 -37 -92 21
-20 579 -72 579 -53 0 20 -425 368 -450 368 -3 0 -16 -30 -28 -67z"/>
<path d="M767 5796 c-30 -69 -114 -339 -136 -438 l-22 -97 40 -60 c87 -128
326 -409 338 -398 2 2 -19 91 -46 198 -57 222 -101 446 -126 634 -9 72 -20
146 -24 165 l-8 35 -16 -39z"/>
<path d="M12775 5788 c-4 -26 -5 -53 -2 -60 2 -7 8 8 12 34 4 26 5 53 2 60 -2
7 -8 -8 -12 -34z"/>
<path d="M6231 5754 c-19 -108 -40 -285 -46 -394 -5 -98 -5 -103 9 -73 34 75
146 461 146 504 0 3 -22 11 -49 16 l-49 10 -11 -63z"/>
<path d="M12035 5765 c-14 -121 -47 -333 -71 -455 -20 -100 -100 -430 -121
-500 -10 -34 215 227 315 366 29 40 52 82 52 95 0 58 -117 456 -155 528 -12
25 -13 23 -20 -34z"/>
<path d="M6518 5803 c-20 -3 -28 -10 -28 -24 0 -35 49 -218 98 -369 45 -138
47 -143 50 -100 5 58 -15 267 -36 395 -19 108 -19 108 -84 98z"/>
<path d="M6364 5658 c8 -153 34 -386 46 -407 14 -26 50 286 50 442 l0 97 -51
0 -52 0 7 -132z"/>
<path d="M287 5675 c-17 -116 -37 -325 -37 -390 0 -92 16 -149 79 -275 55
-109 163 -302 167 -297 2 1 -13 61 -32 132 -46 173 -119 540 -139 695 -9 69
-20 139 -24 155 -7 28 -8 27 -14 -20z"/>
<path d="M5279 5604 c-96 -108 -239 -286 -260 -326 -9 -16 -7 -16 28 -1 117
48 415 213 470 259 l22 19 -65 80 c-37 44 -72 81 -79 83 -7 2 -59 -50 -116
-114z"/>
<path d="M7413 5702 c-6 -10 -37 -49 -68 -86 -32 -37 -54 -71 -48 -74 113 -79
486 -282 516 -282 10 0 -12 31 -115 164 -80 103 -254 296 -266 296 -4 0 -12
-8 -19 -18z"/>
<path d="M2849 5633 c-113 -119 -309 -368 -309 -393 0 -25 558 -195 577 -176
3 2 -11 47 -30 98 -52 135 -92 265 -128 413 -17 72 -32 131 -34 133 -1 1 -35
-33 -76 -75z"/>
<path d="M9875 5583 c-29 -124 -97 -343 -140 -452 -14 -36 -23 -66 -22 -68 5
-4 198 43 297 73 80 24 271 92 279 100 13 12 -355 464 -378 464 -5 0 -21 -53
-36 -117z"/>
<path d="M12526 5663 c-3 -15 -8 -50 -11 -78 -26 -200 -104 -594 -155 -769
-11 -38 -18 -71 -16 -74 6 -6 109 180 173 313 l58 120 -3 115 c-2 103 -29 390
-37 398 -2 2 -6 -9 -9 -25z"/>
<path d="M5522 5497 c-71 -103 -200 -340 -246 -451 l-16 -38 28 17 c125 81
438 354 430 375 -2 4 -40 37 -85 73 l-82 67 -29 -43z"/>
<path d="M7230 5499 c-25 -22 -65 -54 -88 -71 l-44 -30 39 -40 c96 -100 410
-355 421 -343 13 12 -231 466 -277 517 -3 3 -26 -12 -51 -33z"/>
<path d="M4704 5451 c-135 -144 -317 -381 -292 -381 66 1 558 158 558 179 0 3
-23 38 -51 76 -28 39 -69 100 -91 138 -22 37 -43 66 -47 66 -3 -1 -38 -36 -77
-78z"/>
<path d="M8017 5481 c-15 -27 -57 -90 -93 -141 -36 -51 -62 -95 -58 -100 36
-32 534 -183 551 -166 11 11 -271 361 -349 433 l-23 22 -28 -48z"/>
<path d="M3459 5453 c-104 -107 -319 -374 -319 -395 0 -13 284 -47 453 -54
l157 -7 -51 109 c-54 115 -129 300 -150 372 -7 23 -15 42 -18 42 -4 0 -36 -30
-72 -67z"/>
<path d="M9295 5508 c-60 -170 -99 -267 -151 -375 l-63 -133 82 0 c154 0 517
43 517 61 0 25 -355 459 -376 459 -2 0 -7 -6 -9 -12z"/>
<path d="M1904 5418 c-56 -90 -207 -382 -218 -423 -5 -17 9 -30 87 -79 99 -62
435 -232 443 -224 2 3 -11 46 -30 95 -78 204 -174 531 -202 686 -3 20 -10 37
-15 37 -4 0 -34 -42 -65 -92z"/>
<path d="M10857 5499 c-3 -8 -22 -84 -42 -169 -49 -202 -119 -421 -200 -622
-6 -16 -1 -15 46 4 87 36 287 140 387 202 87 54 93 60 87 85 -20 83 -269 531
-278 500z"/>
<path d="M4040 5344 c-52 -58 -134 -158 -183 -222 l-87 -117 57 -3 c106 -6
523 41 523 59 0 4 -25 49 -56 100 -30 52 -76 138 -102 192 -25 53 -49 97 -52
97 -3 0 -48 -48 -100 -106z"/>
<path d="M8636 5343 c-26 -54 -73 -140 -103 -191 -31 -51 -54 -94 -52 -96 2
-2 70 -13 150 -25 162 -23 419 -39 419 -26 0 27 -337 435 -359 435 -5 0 -29
-44 -55 -97z"/>
<path d="M5716 5337 c-52 -117 -166 -500 -153 -513 15 -16 373 434 365 458 -2
5 -45 31 -96 58 l-93 49 -23 -52z"/>
<path d="M7075 5381 c-11 -10 -151 -85 -175 -93 -23 -7 172 -267 312 -416 28
-29 51 -52 53 -50 5 6 -57 236 -96 351 -55 163 -81 221 -94 208z"/>
<path d="M1165 5314 c-30 -73 -113 -342 -135 -438 l-22 -98 53 -55 c107 -109
410 -346 416 -326 2 5 -22 76 -53 158 -83 223 -189 589 -220 758 -8 47 -20 47
-39 1z"/>
<path d="M11612 5242 c-50 -226 -129 -490 -217 -720 -25 -68 -45 -125 -43
-128 8 -7 237 171 347 270 88 78 111 105 111 125 0 42 -57 255 -106 396 -25
71 -48 138 -51 148 -10 33 -18 16 -41 -91z"/>
<path d="M5942 5233 c-32 -147 -69 -543 -51 -543 11 0 131 211 193 341 74 155
86 189 62 189 -14 0 -139 38 -178 54 -13 6 -18 -2 -26 -41z"/>
<path d="M6839 5266 c-3 -3 -43 -16 -89 -29 -70 -21 -84 -28 -82 -44 5 -31
179 -375 227 -448 l46 -70 -6 125 c-7 124 -24 283 -46 406 -9 50 -15 64 -28
64 -10 0 -20 -2 -22 -4z"/>
<path d="M4918 5123 c-36 -60 -80 -134 -97 -165 -39 -69 -121 -251 -116 -256
13 -13 477 237 522 282 3 2 -238 246 -243 246 -1 0 -31 -48 -66 -107z"/>
<path d="M591 5155 c-22 -122 -41 -316 -41 -424 l0 -103 47 -67 c90 -127 310
-388 319 -378 2 2 -18 62 -45 133 -78 207 -149 434 -202 649 -27 110 -53 214
-57 230 -8 27 -10 23 -21 -40z"/>
<path d="M2469 5138 c-66 -102 -231 -427 -227 -446 7 -34 551 -203 575 -179 3
4 -26 73 -65 154 -76 160 -131 293 -182 443 -18 52 -35 99 -40 103 -4 5 -31
-29 -61 -75z"/>
<path d="M7717 5101 l-118 -119 28 -20 c94 -65 480 -269 490 -258 17 17 -251
517 -276 516 -3 -1 -59 -54 -124 -119z"/>
<path d="M10297 5213 c-2 -4 -17 -46 -32 -93 -42 -130 -119 -318 -191 -468
-35 -74 -64 -137 -64 -139 0 -22 503 125 568 166 11 6 0 36 -45 132 -89 186
-225 420 -236 402z"/>
<path d="M6180 5134 c0 -103 16 -281 36 -418 15 -100 18 -107 30 -85 38 74
154 475 154 535 0 19 -7 22 -80 28 -44 3 -93 9 -110 12 l-30 7 0 -79z"/>
<path d="M6565 5200 c-27 -5 -71 -9 -97 -9 -32 -1 -48 -5 -48 -14 0 -68 157
-580 170 -556 18 33 48 318 51 474 2 123 6 118 -76 105z"/>
<path d="M12217 5180 c-4 -14 -20 -83 -37 -155 -56 -236 -170 -601 -249 -790
l-21 -50 67 70 c71 73 188 217 262 320 l43 60 -7 125 c-6 129 -30 349 -44 410
-8 33 -8 34 -14 10z"/>
<path d="M250 5069 c0 -83 25 -321 45 -428 9 -46 34 -124 57 -175 45 -100 181
-351 210 -388 l19 -23 -6 25 c-4 14 -26 77 -50 140 -74 199 -154 457 -210 684
-30 121 -57 221 -60 224 -3 3 -5 -24 -5 -59z"/>
<path d="M12566 5109 c-2 -8 -16 -68 -31 -134 -56 -247 -172 -622 -255 -826
-16 -40 -28 -75 -26 -77 11 -10 171 286 240 442 30 68 63 273 75 471 8 123 7
156 -3 124z"/>
<path d="M3048 4913 c-93 -154 -213 -402 -202 -413 27 -25 604 -78 604 -56 0
2 -29 50 -65 107 -67 106 -245 452 -245 476 0 31 -20 6 -92 -114z"/>
<path d="M4314 4938 c-74 -118 -227 -422 -215 -426 23 -8 392 101 534 157 l28
11 -79 89 c-44 50 -106 125 -137 168 -32 43 -61 82 -65 86 -4 5 -34 -33 -66
-85z"/>
<path d="M9685 5008 c-21 -70 -202 -407 -292 -545 l-17 -26 146 6 c138 6 429
42 455 56 7 4 -10 49 -53 140 -66 139 -211 391 -225 391 -4 0 -11 -10 -14 -22z"/>
<path d="M8424 4983 c-60 -80 -150 -190 -203 -245 l-54 -58 34 -14 c135 -57
512 -166 526 -153 12 13 -218 449 -262 495 -10 12 -18 7 -41 -25z"/>
<path d="M3669 4843 c-78 -131 -199 -370 -199 -394 0 -18 278 3 498 38 56 9
102 20 102 25 0 4 -22 36 -49 71 -58 74 -196 283 -231 350 -14 26 -28 47 -32
47 -4 0 -44 -62 -89 -137z"/>
<path d="M5207 4878 c-61 -162 -145 -454 -133 -465 11 -11 250 177 380 299
l79 74 -69 41 c-38 23 -100 64 -139 92 -38 28 -72 51 -76 51 -3 0 -22 -42 -42
-92z"/>
<path d="M7525 4931 c-28 -21 -88 -62 -135 -91 -47 -29 -87 -54 -88 -56 -2 -1
29 -34 70 -72 164 -156 371 -314 376 -289 7 36 -139 512 -165 538 -5 5 -31 -9
-58 -30z"/>
<path d="M9036 4919 c-39 -71 -174 -272 -234 -349 l-51 -65 62 -12 c156 -30
547 -63 547 -46 -1 37 -269 523 -289 523 -4 0 -20 -23 -35 -51z"/>
<path d="M1655 4923 c-51 -123 -155 -481 -155 -531 0 -22 55 -61 215 -150 108
-60 305 -155 305 -147 0 2 -29 62 -64 133 -82 164 -163 356 -233 552 -30 85
-56 156 -58 158 -1 2 -6 -5 -10 -15z"/>
<path d="M11156 4919 c-93 -280 -183 -504 -288 -713 -27 -54 -47 -100 -45
-102 11 -12 386 188 500 267 13 9 -55 275 -109 428 -46 132 -51 142 -58 120z"/>
<path d="M5546 4762 c-9 -15 -45 -282 -51 -377 -3 -49 -8 -117 -10 -150 l-5
-59 36 34 c81 78 344 409 344 433 0 3 -24 13 -52 23 -29 9 -93 35 -143 56 -49
22 -95 42 -101 44 -7 3 -14 1 -18 -4z"/>
<path d="M7195 4735 c-38 -19 -105 -46 -147 -61 -43 -15 -78 -31 -78 -36 0
-23 202 -283 310 -398 l61 -65 -6 120 c-9 194 -47 476 -64 474 -3 0 -37 -16
-76 -34z"/>
<path d="M987 4648 c-25 -158 -37 -287 -37 -402 l0 -104 73 -67 c120 -112 374
-311 384 -302 2 2 -35 82 -81 178 -96 197 -213 483 -275 672 -24 70 -44 127
-45 127 -2 0 -10 -46 -19 -102z"/>
<path d="M11810 4715 c0 -23 -119 -348 -185 -505 -32 -74 -89 -200 -129 -280
-39 -79 -73 -148 -75 -153 -12 -30 260 184 377 297 l84 81 -7 130 c-6 115 -20
253 -41 398 -6 43 -24 67 -24 32z"/>
<path d="M2215 4643 c-52 -135 -165 -512 -165 -553 0 -19 231 -100 426 -150
180 -45 175 -50 90 88 -94 151 -209 365 -277 515 -29 64 -56 117 -60 117 -4 0
-10 -8 -14 -17z"/>
<path d="M4652 4582 c-59 -154 -150 -468 -138 -479 12 -12 305 137 439 223
l77 50 -83 61 c-46 33 -124 97 -174 142 l-92 80 -29 -77z"/>
<path d="M10566 4592 c-56 -130 -179 -364 -272 -519 -52 -86 -92 -158 -89
-162 16 -15 529 139 558 168 12 12 1 71 -50 251 -35 123 -99 308 -112 322 -4
4 -20 -23 -35 -60z"/>
<path d="M8070 4589 c-36 -33 -110 -95 -165 -136 -55 -42 -99 -78 -99 -81 7
-27 486 -283 501 -268 19 18 -142 547 -166 546 -3 -1 -35 -28 -71 -61z"/>
<path d="M5885 4563 c2 -43 7 -121 10 -173 6 -99 33 -302 44 -333 5 -13 25 13
78 105 105 179 208 398 193 408 -7 4 -38 11 -69 14 -50 6 -191 36 -244 52 -16
5 -17 -1 -12 -73z"/>
<path d="M6890 4625 c-25 -8 -99 -24 -164 -35 -66 -11 -121 -22 -123 -23 -6
-6 177 -365 228 -447 l53 -85 8 45 c28 159 61 562 47 559 -2 0 -24 -7 -49 -14z"/>
<path d="M12535 4565 c-9 -31 -15 -58 -13 -60 2 -3 12 20 22 51 10 31 16 58
13 60 -2 2 -12 -21 -22 -51z"/>
<path d="M6246 4540 c45 -204 155 -553 169 -538 22 21 165 500 165 551 0 9
-43 12 -170 12 l-169 1 5 -26z"/>
<path d="M551 4475 c-1 -65 22 -288 39 -374 5 -30 21 -77 34 -105 26 -57 161
-234 259 -341 l65 -70 -70 145 c-112 232 -221 500 -311 760 l-15 45 -1 -60z"/>
<path d="M12260 4486 c-5 -15 -10 -30 -10 -33 0 -14 -107 -298 -157 -418 -30
-71 -86 -195 -124 -274 -38 -79 -68 -145 -67 -147 5 -4 141 156 215 254 96
127 108 155 127 292 17 119 36 342 30 349 -2 2 -8 -8 -14 -23z"/>
<path d="M4047 4396 c-66 -171 -148 -468 -134 -482 19 -19 584 155 575 177 -2
3 -51 49 -109 102 -58 52 -146 140 -195 196 -48 56 -91 101 -95 101 -3 0 -23
-42 -42 -94z"/>
<path d="M8677 4421 c-60 -71 -207 -216 -291 -289 -27 -23 -47 -44 -45 -47 32
-31 557 -190 574 -174 16 17 -141 536 -174 571 -3 4 -32 -24 -64 -61z"/>
<path d="M2821 4462 c-36 -68 -179 -547 -167 -560 20 -20 585 -76 602 -59 8 7
10 3 -126 187 -55 74 -141 206 -192 292 -51 86 -96 157 -100 157 -4 1 -12 -7
-17 -17z"/>
<path d="M9978 4460 c-8 -14 -34 -59 -58 -100 -65 -113 -193 -302 -283 -419
l-80 -104 144 7 c182 9 449 43 466 59 14 14 -100 409 -155 537 l-19 44 -15
-24z"/>
<path d="M3447 4398 c-20 -48 -72 -192 -96 -268 -20 -64 -71 -266 -71 -284 0
-10 214 -1 344 15 120 14 266 40 266 48 0 4 -23 29 -51 56 -72 71 -224 253
-307 368 l-71 98 -14 -33z"/>
<path d="M9320 4358 c-67 -95 -186 -241 -288 -353 -50 -55 -89 -101 -87 -103
16 -16 425 -62 551 -62 l52 0 -24 103 c-27 116 -130 438 -148 462 -10 14 -18
8 -56 -47z"/>
<path d="M1486 4333 c-19 -67 -56 -416 -56 -533 l0 -48 83 -53 c141 -91 440
-240 453 -226 3 3 -22 49 -55 102 -129 204 -293 512 -377 708 -29 69 -39 79
-48 50z"/>
<path d="M5055 4338 c-17 -53 -55 -398 -55 -506 l0 -63 43 30 c105 72 403 323
406 341 1 3 -47 28 -106 57 -60 29 -145 75 -191 102 -46 28 -85 51 -88 51 -3
0 -7 -6 -9 -12z"/>
<path d="M7695 4309 c-33 -22 -116 -67 -185 -101 -69 -34 -127 -63 -129 -65
-16 -12 295 -275 421 -357 l26 -17 -5 98 c-9 187 -47 484 -62 482 -3 0 -33
-18 -66 -40z"/>
<path d="M11311 4313 c-44 -127 -275 -564 -398 -752 -30 -46 -52 -86 -49 -89
13 -12 316 142 459 234 l67 44 0 89 c0 143 -43 511 -59 511 -4 0 -13 -17 -20
-37z"/>
<path d="M5494 3968 c6 -151 36 -401 49 -415 16 -15 362 403 362 438 0 6 -49
23 -110 39 -60 16 -155 45 -209 64 l-99 36 7 -162z"/>
<path d="M7255 4098 c-71 -26 -243 -76 -318 -92 l-28 -7 52 -75 c86 -123 300
-374 320 -374 15 0 65 474 57 548 l-3 29 -80 -29z"/>
<path d="M954 3965 c3 -82 15 -213 26 -290 l20 -140 101 -98 c87 -84 359 -301
367 -292 1 1 -19 36 -46 76 -128 195 -292 495 -409 751 l-65 143 6 -150z"/>
<path d="M11861 4069 c-74 -194 -314 -645 -453 -851 -21 -31 -38 -59 -38 -63
0 -17 346 262 417 337 29 30 34 44 52 158 21 132 46 428 37 437 -3 3 -10 -5
-15 -18z"/>
<path d="M4490 4003 c-19 -112 -38 -280 -45 -410 -6 -101 -5 -123 6 -123 38 0
529 269 529 290 0 3 -28 20 -63 39 -81 44 -256 161 -333 222 -34 27 -66 49
-72 49 -5 0 -15 -30 -22 -67z"/>
<path d="M8239 4014 c-90 -69 -232 -163 -316 -211 -35 -19 -65 -38 -68 -43 -8
-13 172 -122 349 -210 88 -44 164 -80 169 -80 24 0 -24 537 -52 587 -5 10 -26
-1 -82 -43z"/>
<path d="M2031 3987 c-24 -135 -42 -337 -39 -432 l3 -100 35 -17 c85 -39 316
-110 503 -152 25 -6 19 5 -66 116 -134 176 -211 290 -325 481 l-100 167 -11
-63z"/>
<path d="M10730 3948 c-67 -122 -248 -394 -356 -535 -52 -69 -94 -127 -92
-128 11 -12 401 105 507 151 l54 24 -7 133 c-10 175 -42 437 -55 437 -3 0 -26
-37 -51 -82z"/>
<path d="M5950 3984 c0 -5 18 -76 39 -159 43 -164 118 -385 131 -385 19 0 240
406 264 488 7 21 4 22 -41 22 -49 0 -288 24 -355 36 -21 4 -38 3 -38 -2z"/>
<path d="M6755 3974 c-44 -7 -135 -16 -202 -20 l-121 -7 9 -24 c53 -140 257
-503 270 -481 30 54 159 483 159 531 0 19 -3 19 -115 1z"/>
<path d="M625 3920 c16 -79 78 -290 119 -399 30 -83 59 -140 97 -192 115 -161
318 -396 304 -354 -3 11 -56 102 -116 202 -121 202 -261 467 -339 643 -56 125
-77 157 -65 100z"/>
<path d="M12175 3894 c-14 -31 -25 -58 -25 -61 0 -2 -45 -95 -101 -206 -124
-247 -199 -379 -364 -642 l-19 -30 28 25 c82 73 323 381 352 449 50 118 172
521 158 521 -2 0 -15 -25 -29 -56z"/>
<path d="M3891 3839 c-20 -99 -40 -273 -47 -417 l-7 -143 39 7 c121 21 544
158 544 175 0 4 -30 29 -67 55 -129 91 -252 193 -420 347 l-31 29 -11 -53z"/>
<path d="M2647 3864 c-23 -75 -57 -379 -57 -505 l0 -86 38 -7 c192 -32 555
-66 569 -52 3 3 -40 54 -95 113 -128 137 -210 236 -325 392 -136 183 -123 169
-130 145z"/>
<path d="M8805 3779 c-60 -55 -173 -148 -250 -206 -77 -58 -141 -109 -143
-112 -8 -21 556 -196 574 -179 17 18 -46 599 -65 597 -3 0 -55 -45 -116 -100z"/>
<path d="M10130 3819 c-113 -164 -294 -384 -427 -522 -42 -42 -73 -80 -70 -83
3 -3 81 -1 174 5 148 10 236 21 391 47 l43 7 -6 116 c-7 123 -40 417 -53 465
l-8 28 -44 -63z"/>
<path d="M3256 3715 c-21 -134 -34 -273 -38 -400 l-3 -100 105 3 c202 6 503
46 498 66 -2 7 -41 45 -87 86 -109 96 -268 254 -360 360 -41 47 -80 86 -87 88
-7 2 -17 -33 -28 -103z"/>
<path d="M9433 3698 c-125 -138 -207 -219 -338 -334 -49 -43 -91 -81 -93 -84
-4 -9 275 -49 388 -55 52 -3 123 -8 158 -11 l62 -5 0 68 c0 130 -41 497 -59
531 -5 9 -44 -27 -118 -110z"/>
<path d="M5000 3662 c1 -150 43 -522 59 -522 4 0 59 39 123 88 141 105 352
292 341 302 -4 4 -57 24 -118 45 -60 21 -176 69 -257 106 l-148 67 0 -86z"/>
<path d="M7765 3718 c-77 -41 -235 -108 -337 -143 -57 -19 -109 -38 -117 -41
-11 -3 -5 -14 20 -41 90 -95 423 -362 436 -350 9 9 41 238 47 342 4 55 9 135
12 178 7 87 4 90 -61 55z"/>
<path d="M1430 3687 c0 -64 21 -303 36 -397 28 -186 10 -158 153 -243 124 -75
398 -213 406 -206 2 2 -42 63 -97 134 -123 158 -330 469 -418 628 -36 64 -68
116 -72 117 -5 0 -8 -15 -8 -33z"/>
<path d="M11330 3613 c-118 -208 -339 -534 -481 -710 -49 -61 -50 -62 -21 -52
103 36 485 249 502 280 23 41 77 579 59 579 -3 0 -29 -43 -59 -97z"/>
<path d="M5555 3478 c20 -119 140 -504 165 -531 16 -18 379 423 380 461 0 7
-12 12 -29 12 -48 0 -269 40 -391 71 -63 16 -119 29 -123 29 -5 0 -6 -19 -2
-42z"/>
<path d="M7200 3504 c-67 -22 -325 -72 -407 -80 -40 -4 -73 -8 -73 -11 0 -35
371 -486 386 -470 19 19 122 349 153 490 22 99 23 97 -59 71z"/>
<path d="M4444 3313 c10 -183 43 -453 58 -469 17 -17 538 260 538 286 0 3 -21
13 -48 24 -81 32 -343 170 -445 234 -54 34 -101 62 -104 62 -3 0 -3 -62 1
-137z"/>
<path d="M8275 3384 c-55 -36 -187 -108 -293 -161 -106 -53 -189 -100 -185
-104 44 -42 484 -279 519 -279 6 0 14 21 18 48 29 194 37 266 43 405 3 86 4
157 2 156 -2 -1 -49 -30 -104 -65z"/>
<path d="M12066 3425 c-19 -28 -38 -75 -31 -75 3 0 16 23 30 50 27 54 28 66 1
25z"/>
<path d="M1030 3419 c0 -27 77 -289 109 -372 44 -116 83 -168 195 -265 104
-90 260 -212 271 -212 3 0 -23 37 -58 83 -150 191 -331 461 -459 682 -32 55
-58 92 -58 84z"/>
<path d="M1990 3343 c0 -105 16 -272 38 -408 l17 -100 38 -18 c55 -27 256 -94
382 -127 153 -39 165 -42 165 -31 0 5 -50 63 -111 128 -140 149 -315 362 -427
520 -48 68 -90 123 -94 123 -5 0 -8 -39 -8 -87z"/>
<path d="M10757 3330 c-100 -143 -274 -359 -423 -521 -71 -78 -130 -145 -132
-149 -10 -25 536 136 570 169 27 25 85 602 61 601 -5 -1 -39 -45 -76 -100z"/>
<path d="M6130 3403 c0 -2 20 -49 46 -105 46 -105 140 -279 202 -376 l34 -54
23 35 c48 69 169 295 215 397 l47 105 -284 0 c-155 0 -283 -1 -283 -2z"/>
<path d="M11781 3404 c-1 -17 -163 -283 -255 -419 -44 -66 -129 -184 -188
-262 -59 -79 -104 -143 -101 -143 15 0 229 177 314 260 l97 95 42 120 c54 155
103 332 97 348 -4 7 -6 8 -6 1z"/>
<path d="M3844 3125 c7 -142 29 -342 47 -426 9 -39 14 -49 27 -45 10 3 71 19
137 35 114 28 367 111 407 132 10 5 18 13 18 17 0 5 -38 29 -84 55 -114 64
-310 193 -434 288 -57 44 -108 79 -114 79 -8 0 -9 -39 -4 -135z"/>
<path d="M8875 3184 c-123 -94 -319 -224 -443 -294 -51 -29 -89 -56 -85 -60
38 -35 565 -191 577 -171 12 19 47 300 52 409 2 70 7 142 9 160 2 17 1 32 -3
32 -4 0 -52 -34 -107 -76z"/>
<path d="M2594 3102 c8 -189 41 -421 64 -444 23 -23 254 -57 442 -64 l145 -6
-50 43 c-191 166 -371 345 -514 509 -41 47 -78 90 -84 95 -6 7 -7 -39 -3 -133z"/>
<path d="M10185 3178 c-53 -68 -407 -426 -513 -517 l-82 -71 74 0 c124 0 475
41 504 59 26 16 89 582 65 581 -4 -1 -26 -24 -48 -52z"/>
<path d="M3210 3178 c1 -84 24 -344 40 -452 11 -71 20 -131 20 -132 0 -23 551
29 598 55 10 6 -17 31 -94 86 -171 122 -416 328 -513 429 -40 42 -51 45 -51
14z"/>
<path d="M9495 3093 c-112 -107 -308 -267 -451 -369 -69 -48 -92 -69 -82 -75
34 -19 374 -59 505 -59 95 0 85 -12 108 135 30 197 46 466 28 465 -5 -1 -53
-44 -108 -97z"/>
<path d="M5060 3110 c0 -52 139 -510 170 -560 7 -12 20 -7 72 29 85 60 246
192 337 277 l74 69 -99 24 c-133 31 -316 86 -443 133 -117 43 -111 41 -111 28z"/>
<path d="M7680 3089 c-104 -41 -303 -101 -440 -134 -63 -15 -117 -29 -118 -31
-2 -1 27 -32 65 -67 169 -160 387 -327 404 -310 29 29 174 512 167 554 -3 15
-12 13 -78 -12z"/>
<path d="M1505 3065 c33 -148 111 -404 159 -515 12 -30 36 -49 143 -113 127
-75 381 -203 389 -195 2 2 -44 55 -102 118 -190 204 -328 371 -479 580 -118
163 -118 163 -110 125z"/>
<path d="M11298 3052 c-70 -119 -354 -472 -548 -682 -141 -151 -145 -150 105
-21 215 111 291 162 310 208 50 118 165 507 153 518 -2 3 -11 -8 -20 -23z"/>
<path d="M1035 2920 c19 -33 106 -160 111 -160 5 0 -93 149 -109 165 -7 7 -7
5 -2 -5z"/>
<path d="M5730 2912 c0 -18 156 -325 217 -426 l67 -110 71 76 c105 112 315
379 315 402 0 3 -37 6 -82 6 -112 0 -296 17 -450 40 -146 23 -138 22 -138 12z"/>
<path d="M7020 2909 c-96 -19 -292 -40 -437 -46 -86 -3 -153 -10 -153 -16 0
-22 194 -270 323 -412 l54 -60 52 80 c56 87 231 428 231 451 0 16 -5 16 -70 3z"/>
<path d="M1210 2866 c0 -16 148 -298 206 -394 48 -78 86 -126 142 -177 152
-140 362 -306 362 -285 0 6 -37 49 -81 98 -187 200 -372 424 -516 624 -79 109
-113 150 -113 134z"/>
<path d="M11588 2842 c-71 -121 -398 -524 -582 -719 -58 -62 -106 -115 -106
-118 0 -9 83 50 178 126 168 135 254 220 314 314 66 101 221 401 216 416 -2 5
-11 -3 -20 -19z"/>
<path d="M4527 2713 c25 -105 105 -360 137 -435 9 -21 22 -38 29 -38 21 0 338
163 435 224 52 32 90 62 85 66 -4 4 -51 22 -103 40 -150 51 -284 106 -439 181
-79 38 -149 69 -156 69 -9 0 -6 -29 12 -107z"/>
<path d="M8180 2758 c-139 -67 -318 -141 -461 -189 -52 -17 -98 -35 -103 -40
-5 -4 27 -31 70 -59 84 -54 427 -230 449 -230 13 0 71 151 114 296 20 69 71
267 71 279 0 9 -14 4 -140 -57z"/>
<path d="M2056 2785 c26 -128 91 -347 145 -487 l30 -76 82 -30 c188 -68 482
-151 493 -139 2 2 -42 44 -98 93 -151 131 -362 338 -485 477 -59 66 -123 137
-141 156 l-32 36 6 -30z"/>
<path d="M10699 2722 c-98 -118 -419 -441 -556 -560 -67 -58 -121 -107 -119
-109 11 -12 418 108 527 155 44 19 47 23 81 113 54 142 146 464 136 475 -2 2
-33 -31 -69 -74z"/>
<path d="M3907 2632 c-11 -19 107 -424 158 -545 15 -36 17 -38 53 -31 123 22
542 157 542 174 0 4 -53 30 -117 59 -144 64 -358 179 -515 277 -65 40 -119 70
-121 66z"/>
<path d="M2654 2613 c3 -10 14 -58 26 -108 28 -120 128 -421 149 -445 12 -16
46 -24 151 -40 147 -23 450 -39 450 -24 -1 5 -65 55 -143 111 -168 121 -366
286 -512 424 -102 97 -132 117 -121 82z"/>
<path d="M8827 2579 c-124 -80 -370 -213 -519 -281 -76 -34 -138 -65 -138 -69
0 -8 162 -70 270 -103 99 -30 301 -79 305 -74 24 27 175 522 175 574 0 10 -20
0 -93 -47z"/>
<path d="M10100 2568 c-216 -200 -408 -359 -598 -493 l-113 -80 88 -3 c97 -4
254 10 412 35 l103 16 18 42 c52 121 167 511 158 535 -2 4 -32 -19 -68 -52z"/>
<path d="M3280 2554 c0 -51 136 -495 166 -541 13 -21 22 -23 117 -23 99 0 298
19 425 41 l62 11 -167 100 c-191 114 -305 191 -480 325 -68 51 -123 90 -123
87z"/>
<path d="M9440 2473 c-135 -104 -362 -257 -522 -351 -133 -77 -137 -80 -105
-86 128 -24 254 -38 393 -43 155 -6 162 -5 172 14 37 68 169 510 160 533 -2 4
-46 -26 -98 -67z"/>
<path d="M5256 2483 c38 -92 130 -270 195 -379 40 -66 73 -121 75 -123 17 -19
483 367 469 388 -2 5 -33 11 -67 15 -123 13 -365 59 -516 97 -85 22 -157 39
-162 39 -5 0 -2 -17 6 -37z"/>
<path d="M7470 2494 c-117 -34 -403 -90 -530 -105 -58 -7 -108 -15 -113 -19
-13 -11 249 -239 399 -346 37 -27 69 -43 74 -38 42 44 280 495 280 530 0 7
-25 2 -110 -22z"/>
<path d="M1735 2385 c14 -33 45 -96 69 -140 128 -237 172 -287 320 -374 120
-70 306 -164 312 -158 3 2 -12 19 -33 37 -137 118 -369 342 -484 467 -75 82
-152 166 -173 188 l-37 40 26 -60z"/>
<path d="M11065 2383 c-135 -161 -407 -434 -620 -621 l-60 -52 60 27 c146 66
346 182 398 232 39 37 98 129 180 281 43 79 90 180 84 180 -2 0 -21 -21 -42
-47z"/>
<path d="M11369 2373 c-32 -39 -44 -57 -32 -50 13 8 57 67 50 67 -2 0 -10 -8
-18 -17z"/>
<path d="M6030 2362 c0 -26 252 -342 343 -430 l44 -43 107 121 c99 113 242
295 267 342 11 20 9 20 -88 13 -131 -10 -432 -11 -565 -1 -72 5 -108 5 -108
-2z"/>
<path d="M4690 2212 c0 -18 152 -316 215 -420 59 -99 70 -112 89 -106 46 14
287 137 396 202 113 69 139 92 102 92 -63 0 -498 127 -705 206 -98 37 -97 37
-97 26z"/>
<path d="M7982 2163 c-158 -59 -396 -130 -554 -164 -57 -13 -106 -26 -111 -29
-20 -17 509 -300 533 -285 31 19 287 500 278 523 -1 5 -67 -15 -146 -45z"/>
<path d="M2256 2164 c36 -85 130 -265 197 -376 l71 -117 120 -44 c154 -57 432
-135 442 -125 2 2 -64 53 -147 113 -168 122 -367 283 -509 414 -52 48 -116
106 -143 130 l-47 44 16 -39z"/>
<path d="M10495 2113 c-197 -186 -547 -470 -713 -578 -23 -15 -41 -30 -38 -32
10 -11 329 81 478 139 76 29 77 29 129 110 69 108 241 441 226 438 -1 -1 -38
-35 -82 -77z"/>
<path d="M2840 2025 c0 -20 139 -293 206 -406 l76 -127 62 -11 c162 -29 438
-56 510 -49 40 3 40 3 -90 77 -223 127 -520 330 -751 514 -7 5 -13 6 -13 2z"/>
<path d="M1788 1975 c41 -51 151 -160 208 -205 17 -14 -1 5 -40 42 -39 37
-102 100 -140 140 -42 45 -53 54 -28 23z"/>
<path d="M4135 1924 c98 -210 227 -424 256 -424 52 0 397 100 508 147 l44 19
-94 33 c-231 79 -431 162 -623 257 -70 35 -130 64 -132 64 -2 0 17 -43 41 -96z"/>
<path d="M9845 1919 c-160 -122 -367 -262 -542 -366 -72 -43 -149 -88 -170
-101 l-38 -23 125 6 c151 7 275 20 393 41 l87 16 60 97 c63 101 226 418 219
425 -2 2 -62 -41 -134 -95z"/>
<path d="M8617 1960 c-153 -76 -407 -183 -576 -241 -176 -60 -176 -53 -1 -114
116 -40 359 -105 393 -105 22 0 72 75 175 260 45 80 123 250 114 249 -4 0 -51
-22 -105 -49z"/>
<path d="M3496 1893 c54 -119 147 -293 204 -382 l52 -81 53 0 c79 0 298 19
410 36 159 23 165 28 78 64 -168 68 -522 256 -720 382 -51 32 -97 58 -102 58
-6 0 5 -35 25 -77z"/>
<path d="M5540 1966 c0 -21 208 -285 327 -415 l59 -65 87 62 c96 70 190 147
309 254 80 73 80 73 52 79 -16 4 -76 7 -134 8 -165 2 -598 51 -682 77 -10 3
-18 3 -18 0z"/>
<path d="M7205 1954 c-210 -37 -462 -63 -625 -65 -168 -2 -167 -1 -72 -91 86
-80 228 -196 327 -267 l60 -43 75 79 c114 120 322 386 309 396 -2 1 -35 -3
-74 -9z"/>
<path d="M9320 1951 c-45 -34 -303 -186 -420 -248 -100 -54 -337 -166 -410
-195 -24 -10 -25 -10 -4 -18 55 -21 394 -60 530 -60 l61 0 76 128 c66 110 207
387 207 406 0 11 -14 6 -40 -13z"/>
<path d="M2000 1926 c0 -12 138 -191 213 -277 129 -146 160 -174 257 -234 94
-58 377 -205 394 -205 17 0 -19 31 -116 101 -190 136 -391 300 -603 494 -122
112 -145 130 -145 121z"/>
<path d="M10703 1820 c-171 -164 -461 -400 -690 -560 -35 -24 -61 -46 -58 -48
8 -8 233 105 369 186 111 66 141 90 217 172 49 52 127 145 174 205 141 180
138 190 -12 45z"/>
<path d="M5000 1645 c0 -9 126 -177 189 -253 101 -122 173 -192 195 -192 51 0
513 250 501 271 -4 5 -18 9 -33 9 -114 0 -618 101 -834 166 -10 3 -18 2 -18
-1z"/>
<path d="M7809 1646 c-9 -9 -326 -85 -459 -111 -74 -14 -197 -34 -273 -44 -75
-10 -139 -20 -142 -23 -16 -16 461 -268 508 -268 18 0 47 26 119 108 135 154
278 342 260 342 -5 0 -11 -2 -13 -4z"/>
<path d="M2576 1598 c21 -36 163 -213 229 -287 105 -117 148 -144 339 -206
141 -46 296 -88 296 -80 0 1 -56 35 -124 74 -175 101 -425 268 -599 399 -82
62 -145 107 -141 100z"/>
<path d="M10170 1539 c-170 -134 -482 -343 -679 -456 -84 -48 -91 -54 -57 -48
60 10 271 73 357 106 100 39 141 69 234 176 101 114 225 274 213 273 -2 0 -32
-23 -68 -51z"/>
<path d="M10463 1464 l-28 -26 33 22 c29 20 39 30 28 30 -3 0 -18 -12 -33 -26z"/>
<path d="M4399 1461 c35 -64 262 -342 344 -420 l36 -34 118 28 c182 43 453
135 453 154 0 5 -17 12 -37 15 -171 31 -547 140 -773 226 -73 28 -136 50 -141
50 -6 0 -6 -8 0 -19z"/>
<path d="M8355 1454 c-180 -74 -507 -175 -720 -223 -180 -41 -176 -39 -145
-57 42 -23 348 -120 458 -145 l104 -23 64 69 c138 150 335 406 312 404 -7 0
-40 -12 -73 -25z"/>
<path d="M3147 1458 c6 -7 36 -48 67 -91 72 -98 158 -201 245 -293 65 -69 70
-72 132 -83 160 -27 519 -56 519 -41 0 4 -17 12 -37 19 -164 58 -807 405 -904
488 -20 16 -35 17 -22 1z"/>
<path d="M5950 1466 c0 -3 46 -46 103 -96 137 -123 333 -270 359 -270 35 0
324 226 428 335 l35 36 -45 -8 c-57 -10 -746 -11 -822 0 -32 4 -58 5 -58 3z"/>
<path d="M9637 1438 c-124 -90 -589 -342 -817 -443 -47 -21 -88 -40 -92 -44
-18 -16 302 8 472 36 76 12 101 21 124 42 74 68 355 415 345 425 -2 3 -17 -5
-32 -16z"/>
<path d="M3779 1391 c34 -63 262 -341 340 -416 32 -29 33 -30 134 -27 156 4
479 41 495 57 2 1 -34 15 -80 30 -243 80 -561 211 -788 325 -55 27 -102 50
-105 50 -3 0 -1 -8 4 -19z"/>
<path d="M8875 1324 c-207 -102 -410 -186 -630 -260 -91 -31 -164 -59 -161
-61 20 -21 562 -70 592 -54 25 13 190 202 276 316 50 66 96 126 101 133 16 21
-3 13 -178 -74z"/>
<path d="M5475 1094 c97 -92 292 -247 353 -282 l39 -21 179 89 c184 91 344
185 344 201 0 5 -39 9 -87 9 -175 0 -537 34 -754 70 -180 31 -178 32 -74 -66z"/>
<path d="M7310 1165 c-172 -35 -600 -75 -792 -75 -42 0 -79 -4 -82 -8 -8 -13
197 -133 372 -219 l154 -75 66 45 c91 63 232 176 333 269 l84 78 -35 -1 c-19
-1 -64 -7 -100 -14z"/>
<path d="M2760 1146 c0 -3 33 -27 73 -54 82 -55 107 -70 92 -55 -16 16 -165
114 -165 109z"/>
<path d="M2981 1128 c15 -13 60 -53 100 -89 91 -82 290 -233 338 -255 111 -53
514 -175 528 -160 3 3 -32 22 -78 43 -169 74 -509 252 -689 360 -193 117 -247
144 -199 101z"/>
<path d="M9835 1141 c-6 -6 -93 -60 -194 -120 -178 -107 -535 -293 -694 -362
-44 -18 -74 -35 -69 -37 25 -8 379 97 501 150 60 25 184 114 321 229 121 102
170 149 154 149 -6 0 -14 -4 -19 -9z"/>
<path d="M4880 910 c80 -76 227 -195 332 -270 l47 -33 118 28 c118 27 342 98
425 134 l43 18 -60 8 c-258 30 -517 78 -765 141 -96 24 -186 46 -200 50 -19 4
-3 -15 60 -76z"/>
<path d="M7999 986 c-9 -10 -319 -85 -469 -115 -143 -29 -342 -60 -482 -77
-32 -3 -56 -10 -53 -14 8 -13 360 -126 468 -150 l98 -23 67 46 c147 100 421
336 391 337 -9 0 -18 -2 -20 -4z"/>
<path d="M3660 878 c111 -103 297 -241 360 -266 65 -25 240 -51 400 -58 l115
-5 -178 65 c-206 75 -479 190 -652 275 l-120 59 75 -70z"/>
<path d="M9175 913 c-169 -88 -493 -225 -730 -309 l-150 -53 65 0 c68 -1 258
19 372 39 81 14 146 52 290 168 106 84 217 181 208 181 -3 0 -27 -12 -55 -26z"/>
<path d="M4240 859 c82 -76 234 -200 323 -263 l69 -49 161 6 c138 5 422 38
434 50 2 3 -25 10 -59 16 -208 41 -594 155 -852 252 -71 27 -132 49 -135 49
-3 -1 23 -28 59 -61z"/>
<path d="M8551 884 c-202 -82 -536 -184 -811 -248 l-144 -33 69 -12 c135 -24
311 -41 421 -41 l111 0 84 60 c127 91 367 296 357 305 -2 2 -41 -13 -87 -31z"/>
<path d="M9428 774 c-38 -20 -36 -28 2 -9 17 9 30 18 30 20 0 7 -1 6 -32 -11z"/>
<path d="M5880 777 c0 -15 294 -178 437 -243 l95 -42 46 19 c96 41 300 148
397 208 l100 62 -150 -8 c-194 -10 -590 -10 -777 0 -82 5 -148 6 -148 4z"/>
<path d="M5375 534 c50 -30 168 -94 262 -141 l172 -86 128 31 c133 33 336 96
413 129 l45 20 -205 6 c-258 8 -545 38 -790 82 -47 8 -92 15 -100 15 -8 0 26
-25 75 -56z"/>
<path d="M7395 569 c-239 -43 -626 -79 -848 -79 -69 0 -107 -4 -102 -9 17 -17
272 -99 420 -136 l144 -37 93 42 c127 57 428 223 428 236 0 6 -27 3 -135 -17z"/>
<path d="M4077 562 c45 -34 262 -153 372 -203 90 -41 136 -55 224 -70 176 -29
472 -51 455 -34 -2 3 -88 25 -189 50 -273 68 -495 136 -752 231 -131 49 -142
51 -110 26z"/>
<path d="M8665 544 c-236 -90 -566 -192 -814 -250 -79 -18 -146 -36 -149 -39
-18 -18 322 10 488 40 70 13 117 32 265 105 165 82 334 180 310 179 -5 0 -50
-16 -100 -35z"/>
<path d="M4760 466 c30 -20 133 -75 228 -124 l173 -87 152 1 c131 0 443 31
412 40 -5 2 -91 15 -189 29 -254 36 -635 117 -816 172 -8 3 10 -11 40 -31z"/>
<path d="M8040 479 c-194 -57 -564 -132 -814 -164 -66 -9 -122 -18 -124 -19
-1 -2 32 -9 75 -15 155 -22 319 -33 403 -28 76 4 97 10 191 54 128 61 377 202
339 192 -3 -1 -34 -10 -70 -20z"/>
<path d="M5990 245 c145 -55 345 -105 420 -105 36 0 102 9 148 20 98 24 366
110 359 116 -2 2 -96 -1 -208 -7 -187 -10 -531 -8 -734 6 l-80 5 95 -35z"/>
<path d="M5290 209 c54 -24 230 -78 373 -115 95 -24 113 -26 267 -21 169 5
420 34 420 49 0 4 -30 8 -67 8 -190 0 -648 42 -874 80 -150 26 -179 25 -119
-1z"/>
<path d="M7509 226 c-6 -6 -341 -53 -469 -65 -141 -15 -407 -31 -497 -31 -85
0 -97 -14 -20 -24 199 -26 318 -36 422 -36 104 0 138 5 255 34 118 30 367 110
379 122 2 2 -11 4 -31 4 -19 0 -37 -2 -39 -4z"/>
<path d="M6353 3 c32 -2 81 -2 110 0 29 2 3 3 -58 3 -60 0 -84 -1 -52 -3z"/>
</g>
</svg>
