<?xml version="1.0" standalone="no"?>
<!DOCTYPE svg PUBLIC "-//W3C//DTD SVG 20010904//EN"
 "http://www.w3.org/TR/2001/REC-SVG-20010904/DTD/svg10.dtd">
<svg version="1.0" xmlns="http://www.w3.org/2000/svg"
 width="1280.000000pt" height="853.000000pt" viewBox="0 0 1280.000000 853.000000"
 preserveAspectRatio="xMidYMid meet">
<metadata>
Created by potrace 1.15, written by Peter Selinger 2001-2017
</metadata>
<g transform="translate(0.000000,853.000000) scale(0.100000,-0.100000)"
fill="#000000" stroke="none">
<path d="M6014 8522 c22 -36 653 -801 672 -815 26 -20 887 -217 948 -217 18 0
38 6 43 13 19 23 223 548 223 572 0 25 -16 46 -225 298 l-130 157 -54 0 -54 0
20 -22 c94 -105 323 -392 320 -402 -3 -6 -49 -119 -102 -251 -53 -132 -100
-244 -104 -248 -5 -4 -196 34 -425 86 l-418 93 -283 347 c-156 191 -292 358
-303 372 -17 21 -28 25 -77 25 -31 0 -54 -4 -51 -8z"/>
<path d="M7597 8505 c68 -92 323 -386 345 -400 36 -21 837 -217 860 -209 9 3
24 24 32 47 35 96 156 474 156 487 0 7 -15 32 -32 56 -31 41 -36 43 -81 44
l-48 0 22 -32 23 -32 -78 -232 -79 -231 -36 8 c-67 16 -646 160 -681 169 -29
8 -61 41 -179 180 l-143 170 -50 0 -50 0 19 -25z"/>
<path d="M8961 8514 c7 -8 24 -21 38 -28 40 -21 759 -209 774 -203 7 3 25 51
41 108 15 57 29 112 32 122 5 15 -2 17 -54 17 l-59 0 -22 -76 c-18 -61 -25
-74 -39 -70 -9 3 -136 37 -280 76 -234 62 -274 70 -354 70 -81 0 -89 -2 -77
-16z"/>
<path d="M9897 8523 c-3 -5 -21 -68 -41 -142 -32 -120 -34 -136 -21 -160 24
-46 604 -710 633 -724 15 -8 179 -51 366 -97 281 -68 341 -79 351 -68 13 13
85 432 85 491 0 27 -42 80 -296 370 l-295 337 -117 -1 -117 0 107 -32 108 -32
197 -225 c108 -124 224 -258 258 -297 l62 -73 -38 -221 c-21 -122 -39 -223
-41 -224 -2 -2 -143 32 -314 74 l-310 77 -41 45 c-57 62 -488 562 -496 576 -6
10 30 169 69 311 6 21 4 22 -49 22 -31 0 -58 -3 -60 -7z"/>
<path d="M9000 8427 c0 -7 -38 -131 -85 -275 -81 -246 -85 -263 -71 -289 25
-49 635 -762 664 -777 29 -15 742 -176 780 -176 29 0 29 -1 92 298 40 188 51
259 44 277 -11 30 -595 709 -628 730 -25 17 -685 195 -748 203 -21 2 -35 8
-32 13 3 5 0 9 -5 9 -6 0 -11 -6 -11 -13z m448 -195 l332 -88 275 -319 c150
-175 272 -321 271 -325 -2 -3 -27 -113 -56 -246 l-52 -241 -332 75 c-182 41
-341 78 -353 83 -16 6 -476 538 -571 661 -11 14 -3 50 57 240 85 266 78 248
88 248 4 0 158 -40 341 -88z"/>
<path d="M7940 8079 c0 -5 9 -9 20 -9 11 0 20 2 20 4 0 2 -9 6 -20 9 -11 3
-20 1 -20 -4z"/>
<path d="M7973 8063 c-17 -2 -36 -10 -42 -17 -5 -6 -60 -139 -121 -294 -104
-265 -110 -285 -98 -310 25 -48 676 -828 703 -840 32 -15 822 -172 864 -172
39 0 32 -19 126 332 58 216 74 287 67 303 -16 35 -620 748 -658 777 -19 14
-53 29 -76 33 -29 5 -37 10 -27 16 9 6 1 7 -21 3 -27 -4 -31 -3 -20 5 11 8 7
10 -20 5 -28 -4 -32 -3 -20 6 12 9 11 10 -8 5 -29 -8 -587 126 -569 137 6 4
-4 5 -23 2 -26 -4 -31 -3 -20 5 8 6 11 10 5 9 -5 -1 -24 -3 -42 -5z m438 -203
c256 -61 378 -95 390 -107 39 -41 559 -664 559 -670 0 -15 -143 -529 -149
-535 -11 -13 -763 141 -785 160 -14 13 -552 660 -588 708 -7 10 38 135 183
512 5 12 11 22 13 22 3 0 173 -40 377 -90z"/>
<path d="M11306 7803 c-2 -10 -21 -123 -41 -252 -29 -181 -35 -238 -26 -257
13 -30 596 -700 624 -718 30 -20 668 -159 678 -149 9 9 39 383 39 486 0 70 36
22 -334 442 -136 154 -260 286 -274 294 -32 17 -607 171 -639 171 -12 0 -24
-8 -27 -17z m399 -153 c148 -39 273 -74 276 -78 4 -4 120 -135 258 -292 238
-271 251 -287 251 -325 0 -51 -29 -428 -34 -432 -1 -2 -133 26 -292 62 -158
36 -289 65 -290 65 -2 0 -512 586 -532 612 -11 14 -8 51 18 225 37 247 37 245
58 239 9 -3 138 -37 287 -76z"/>
<path d="M6624 7604 c-6 -3 -80 -151 -165 -331 l-153 -326 20 -37 c38 -69 705
-890 736 -906 28 -14 932 -174 985 -174 12 0 29 7 37 16 18 17 226 644 226
679 0 13 -20 49 -45 82 -99 129 -632 767 -655 785 -17 12 -178 52 -480 118
-438 96 -482 104 -506 94z m560 -209 c214 -46 393 -88 397 -92 48 -50 599
-732 599 -741 0 -8 -46 -148 -101 -311 l-102 -298 -251 44 c-138 24 -336 58
-440 75 l-189 32 -82 101 c-63 77 -513 636 -555 690 -7 9 32 98 235 544 l25
53 37 -7 c21 -3 213 -44 427 -90z"/>
<path d="M10469 7459 c0 -2 -2 -15 -3 -29 -1 -14 -24 -130 -51 -259 -31 -150
-51 -227 -56 -215 -4 11 -5 -6 -2 -36 4 -41 14 -66 37 -96 85 -112 610 -717
635 -732 17 -10 176 -46 381 -86 297 -58 354 -66 365 -55 7 9 24 121 44 292
27 245 29 281 17 305 -27 52 -615 719 -643 730 -16 6 -176 47 -358 91 -181 44
-338 82 -347 86 -10 4 -18 6 -19 4z m410 -189 c163 -39 303 -73 312 -78 16 -7
130 -136 426 -480 120 -138 131 -155 127 -185 -2 -17 -16 -131 -30 -252 -14
-121 -27 -222 -30 -224 -2 -2 -148 25 -324 60 l-320 64 -277 324 c-153 178
-282 330 -286 338 -5 7 11 112 38 246 50 252 51 257 61 257 4 0 140 -32 303
-70z"/>
<path d="M5191 7081 c-20 -5 -64 -79 -222 -366 -109 -198 -198 -369 -198 -380
-1 -32 22 -64 404 -555 267 -344 372 -471 397 -483 29 -14 232 -45 940 -142
193 -27 220 -25 240 20 11 25 28 34 28 15 0 -5 -3 -10 -7 -10 -15 0 -12 -62 3
-92 8 -16 184 -242 389 -503 272 -343 383 -477 407 -488 40 -18 1001 -124
1039 -114 15 4 30 15 34 24 20 53 207 763 207 787 -1 15 -12 44 -25 65 -63 92
-705 867 -732 883 -20 11 -197 45 -514 98 -430 72 -486 79 -505 66 -15 -9 -61
-115 -150 -344 -76 -193 -134 -328 -140 -325 -6 4 -5 8 2 11 7 2 10 7 7 11 -2
5 52 149 120 322 69 173 125 324 125 337 0 13 -5 33 -12 45 -13 25 -645 815
-692 865 -46 49 -75 61 -215 87 -69 13 -292 56 -496 95 -203 39 -379 73 -390
75 -11 2 -31 0 -44 -4z m591 -217 l468 -88 317 -398 c175 -218 320 -405 321
-414 2 -9 -58 -168 -133 -354 -109 -268 -141 -337 -154 -334 -9 2 -232 33
-496 70 l-480 68 -30 31 c-52 54 -658 838 -658 851 0 7 78 159 173 338 130
242 178 325 190 322 8 -3 225 -44 482 -92z m1843 -1149 c226 -36 419 -70 431
-74 17 -8 631 -752 657 -797 6 -11 -88 -373 -173 -664 l-20 -66 -457 53 -458
52 -25 28 c-14 15 -170 211 -348 435 l-322 407 124 323 c69 178 129 335 135
350 7 18 16 25 28 22 10 -2 203 -33 428 -69z"/>
<path d="M9534 7012 c-14 -9 -164 -569 -164 -612 0 -25 57 -98 335 -433 221
-264 348 -409 373 -423 51 -29 793 -154 819 -138 14 9 27 73 67 322 45 284 48
315 35 341 -13 27 -503 610 -609 725 -25 26 -55 52 -68 57 -12 5 -156 38 -320
73 -163 36 -326 72 -362 80 -73 18 -90 19 -106 8z m466 -182 c178 -39 330 -76
337 -83 6 -6 136 -158 287 -337 166 -194 276 -333 276 -345 0 -25 -88 -546
-93 -551 -2 -2 -163 24 -358 57 l-354 61 -40 46 c-22 25 -160 189 -306 363
l-265 318 70 276 c71 275 71 276 96 270 14 -2 171 -36 350 -75z"/>
<path d="M3418 6483 c-33 -37 -511 -799 -519 -827 -7 -24 -4 -38 16 -70 14
-23 197 -270 407 -551 344 -458 388 -512 428 -532 35 -17 98 -27 295 -48 138
-14 369 -39 515 -55 521 -56 496 -55 522 -38 16 11 86 149 226 447 111 237
202 439 202 449 0 24 11 8 -379 512 -364 471 -391 504 -432 525 -29 16 -1160
205 -1223 205 -28 0 -48 -6 -58 -17z m534 -184 c205 -33 447 -73 538 -88 l165
-27 333 -429 c184 -237 338 -440 344 -451 8 -18 -20 -85 -178 -413 -182 -381
-188 -392 -213 -387 -14 3 -273 33 -576 67 -310 34 -556 66 -564 72 -8 7 -174
225 -368 485 -236 315 -353 478 -349 488 3 9 108 180 232 380 163 263 231 364
245 364 10 0 186 -27 391 -61z"/>
<path d="M8362 6468 c-5 -7 -58 -162 -117 -344 -73 -223 -106 -339 -102 -355
9 -33 714 -898 750 -920 16 -9 48 -20 71 -23 22 -3 222 -31 444 -62 373 -52
404 -55 421 -40 23 21 167 689 158 729 -9 33 -669 826 -709 851 -31 19 -809
176 -874 176 -17 0 -36 -6 -42 -12z m438 -164 c162 -30 331 -62 376 -70 l81
-16 307 -369 308 -370 -68 -309 c-37 -171 -71 -315 -74 -321 -5 -7 -136 8
-406 46 l-399 57 -33 36 c-18 20 -165 200 -327 398 l-294 362 95 298 c52 165
96 304 99 311 2 6 12 9 22 7 10 -2 151 -29 313 -60z"/>
<path d="M7050 5918 c0 -18 2 -19 18 -7 9 7 18 14 20 15 1 1 -6 4 -18 7 -15 4
-20 0 -20 -15z"/>
<path d="M1173 5830 c-45 -10 -53 -18 -147 -144 -613 -823 -616 -827 -616
-861 0 -40 -20 -10 458 -685 200 -283 381 -532 400 -553 20 -20 52 -42 72 -47
19 -5 188 -21 375 -35 187 -14 516 -39 730 -56 215 -16 406 -27 426 -24 20 4
46 16 57 28 11 12 142 242 292 510 252 450 272 491 267 526 -4 31 -78 136
-387 552 -210 283 -398 530 -417 550 -19 20 -51 41 -71 47 -21 6 -332 52 -692
101 -360 50 -668 92 -685 95 -16 2 -45 0 -62 -4z m770 -241 l627 -84 182 -245
c101 -135 267 -359 370 -498 l187 -253 -19 -32 c-10 -18 -127 -223 -260 -457
-133 -234 -243 -426 -244 -426 -1 -1 -231 17 -959 76 -208 16 -389 30 -401 30
-22 0 -42 27 -633 857 l-172 242 217 298 c120 164 265 362 322 441 94 128 108
143 130 139 14 -3 307 -42 653 -88z"/>
<path d="M10042 5418 c-11 -14 -152 -671 -152 -708 0 -31 5 -38 389 -504 224
-271 356 -423 376 -432 41 -20 823 -106 845 -94 10 5 20 26 23 47 20 126 78
698 73 716 -7 26 -669 811 -709 841 -21 15 -110 34 -400 83 -396 66 -429 70
-445 51z m481 -164 l348 -57 237 -281 c130 -155 269 -319 308 -366 l72 -86
-39 -329 c-22 -181 -41 -330 -43 -332 -2 -2 -397 41 -682 75 l-61 7 -80 95
c-44 52 -190 229 -325 392 l-245 298 53 267 c30 148 59 292 65 321 7 38 15 52
27 52 9 0 174 -25 365 -56z"/>
<path d="M5595 5262 c-11 -2 -24 -9 -30 -14 -7 -7 -1 -8 20 -3 44 10 53 26 10
17z"/>
<path d="M5643 5243 c9 -2 23 -2 30 0 6 3 -1 5 -18 5 -16 0 -22 -2 -12 -5z"/>
<path d="M5567 5227 c-25 -11 -53 -65 -228 -440 -137 -295 -199 -438 -199
-461 0 -26 12 -51 48 -98 27 -35 194 -254 372 -488 379 -499 404 -528 446
-546 29 -12 757 -74 1072 -91 110 -5 121 -4 139 14 28 28 316 907 307 936 -3
12 -25 47 -47 77 -79 105 -680 865 -711 898 -46 50 -70 59 -201 77 -66 9 -266
36 -445 61 -286 39 -372 51 -495 69 -16 2 -43 -1 -58 -8z m604 -202 c266 -36
489 -65 496 -65 11 0 200 -236 584 -727 l127 -163 -22 -62 c-13 -35 -73 -214
-135 -398 -61 -184 -115 -341 -120 -348 -6 -10 -107 -5 -510 28 -276 22 -512
40 -525 40 -19 0 -61 49 -209 243 -102 133 -267 348 -366 477 -99 129 -181
241 -181 248 0 24 354 792 366 792 6 0 229 -29 495 -65z"/>
<path d="M6530 5136 c0 -2 7 -7 16 -10 8 -3 12 -2 9 4 -6 10 -25 14 -25 6z"/>
<path d="M6570 5120 c0 -5 12 -10 28 -10 21 0 24 2 12 10 -20 13 -40 13 -40 0z"/>
<path d="M8900 4768 c-11 -12 -20 -27 -20 -32 0 -6 5 -3 11 6 5 10 19 24 32
33 12 8 16 15 10 15 -7 0 -21 -10 -33 -22z"/>
<path d="M0 4696 l0 -83 123 -12 c67 -7 123 -13 123 -14 1 -1 147 -209 326
-462 178 -253 350 -497 382 -542 31 -46 54 -87 51 -93 -4 -6 -1 -9 7 -8 7 2
13 -4 12 -13 -1 -8 -137 -222 -304 -475 -167 -252 -324 -492 -349 -532 l-46
-73 -162 5 -163 6 0 -99 0 -98 37 -7 c65 -10 383 -7 406 5 12 6 37 27 55 47
21 23 29 29 22 15 -6 -13 -7 -23 -3 -23 10 0 337 510 330 516 -2 3 -48 -63
-102 -146 -53 -82 -99 -150 -102 -150 -3 0 2 11 11 25 9 14 120 186 247 382
226 350 257 397 244 361 -13 -35 3 -17 45 47 24 36 40 68 38 71 -3 3 -16 -11
-28 -30 -12 -20 -24 -36 -26 -36 -6 0 1 12 39 68 37 55 49 96 36 129 -11 29
-817 1171 -858 1217 -14 16 -41 35 -60 43 -33 14 -229 42 -298 43 l-33 0 0
-84z m611 -2293 c-5 -10 -17 -27 -26 -38 -16 -19 -17 -19 -3 5 26 46 29 50 34
50 3 0 0 -8 -5 -17z"/>
<path d="M8929 4767 c-19 -10 -28 -29 -43 -85 -13 -51 -22 -69 -28 -60 -6 9
-7 6 -3 -9 4 -14 -23 -134 -70 -310 -70 -262 -98 -355 -81 -263 5 25 4 31 -3
20 -11 -16 -4 -124 10 -151 11 -22 711 -894 755 -941 19 -20 49 -41 67 -46 17
-6 233 -25 479 -43 410 -31 449 -32 464 -17 11 11 34 130 80 413 35 219 64
409 64 423 0 13 -10 38 -22 55 -61 87 -715 872 -740 886 -18 11 -89 26 -195
40 -241 33 -654 90 -684 95 -14 3 -36 -1 -50 -7z m506 -177 c209 -28 388 -54
397 -58 9 -4 136 -151 281 -328 380 -462 377 -459 377 -485 0 -31 -116 -718
-122 -724 -3 -3 -121 4 -264 15 -518 41 -575 47 -587 63 -7 8 -158 196 -337
417 -179 221 -329 410 -333 419 -7 15 48 248 166 694 6 23 15 37 26 37 9 0
187 -23 396 -50z"/>
<path d="M11660 4408 c-5 -13 -27 -180 -49 -373 l-39 -350 19 -40 c22 -44 699
-857 739 -886 20 -15 64 -22 215 -34 104 -8 204 -15 222 -15 l33 0 0 60 c0 41
-4 60 -12 60 -7 0 -107 7 -223 16 l-210 17 -45 46 c-34 36 -544 641 -607 722
-10 12 -5 84 22 343 19 181 36 330 38 332 2 2 153 -16 336 -41 287 -38 335
-47 349 -65 9 -11 91 -107 182 -214 l165 -194 3 54 3 53 -176 206 c-103 120
-188 210 -203 216 -21 8 -708 108 -745 109 -4 0 -12 -10 -17 -22z"/>
<path d="M3592 4408 c-23 -6 -40 -21 -58 -51 -95 -159 -534 -964 -539 -987 -4
-18 0 -40 10 -59 8 -17 174 -248 367 -513 521 -716 504 -694 543 -712 34 -17
317 -31 1212 -62 211 -8 227 -5 257 54 21 41 403 993 411 1023 4 17 0 39 -10
60 -22 41 -764 1021 -812 1070 -22 23 -51 41 -77 48 -22 5 -198 26 -391 46
-192 20 -451 47 -575 60 -124 13 -243 26 -265 28 -22 3 -55 0 -73 -5z m705
-213 c298 -30 550 -55 561 -55 13 0 125 -140 383 -480 200 -265 368 -491 372
-503 6 -17 -35 -127 -186 -492 l-195 -470 -84 3 c-249 7 -1071 43 -1116 48
l-52 5 -73 97 c-40 53 -218 296 -396 539 l-323 443 252 464 252 464 32 -4 c17
-2 275 -29 573 -59z"/>
<path d="M7602 3993 c-25 -22 -302 -867 -302 -922 0 -20 9 -49 19 -66 11 -16
196 -257 413 -535 296 -381 402 -509 428 -522 29 -14 99 -20 425 -32 215 -9
447 -18 516 -22 142 -7 161 -4 177 31 7 14 55 231 108 482 96 454 96 456 79
492 -23 48 -759 965 -793 987 -16 11 -69 22 -146 30 -292 32 -875 94 -889 94
-8 0 -24 -8 -35 -17z m610 -178 c229 -23 422 -46 428 -50 15 -9 690 -853 695
-869 2 -6 -38 -200 -89 -431 l-92 -420 -60 2 c-32 1 -248 9 -479 19 -377 15
-422 19 -435 34 -11 14 -677 868 -722 927 -6 7 35 152 115 405 69 216 128 402
131 413 7 24 -48 28 508 -30z"/>
<path d="M10724 3675 c-12 -8 -24 -11 -28 -7 -4 3 -4 -1 -1 -10 6 -14 -99
-728 -111 -753 -2 -5 -2 19 0 55 4 53 3 59 -5 30 -11 -45 -1 -156 19 -195 8
-16 114 -151 235 -300 122 -148 287 -352 369 -451 81 -100 161 -193 177 -206
32 -28 -14 -24 599 -49 257 -11 285 -11 299 4 18 17 16 -4 53 556 16 250 22
296 37 314 10 11 13 17 6 14 -6 -4 -14 -1 -16 5 -3 7 -6 4 -7 -7 -1 -16 -4
-14 -14 10 -17 37 -693 849 -741 889 -34 28 -36 29 -432 72 -219 24 -403 44
-408 44 -6 0 -20 -7 -31 -15z m461 -155 c165 -17 320 -33 344 -36 43 -7 46 -9
340 -363 163 -196 310 -374 326 -394 l30 -39 -12 -181 c-20 -290 -43 -581 -47
-584 -4 -4 -695 26 -733 32 -33 6 -47 21 -259 280 -99 121 -442 543 -456 561
-7 9 48 411 97 719 7 39 9 41 38 38 18 -2 167 -17 332 -33z"/>
<path d="M10682 3630 c0 -14 2 -19 5 -12 2 6 2 18 0 25 -3 6 -5 1 -5 -13z"/>
<path d="M10672 3570 c0 -14 2 -19 5 -12 2 6 2 18 0 25 -3 6 -5 1 -5 -13z"/>
<path d="M10661 3504 c0 -11 3 -14 6 -6 3 7 2 16 -1 19 -3 4 -6 -2 -5 -13z"/>
<path d="M10652 3440 c0 -14 2 -19 5 -12 2 6 2 18 0 25 -3 6 -5 1 -5 -13z"/>
<path d="M1264 3433 c-3 -10 -11 -29 -17 -43 -6 -14 -13 -29 -16 -35 -2 -5 15
9 37 33 23 23 49 42 59 42 25 0 11 8 -25 15 -25 4 -34 2 -38 -12z"/>
<path d="M1345 3420 c-56 -12 -70 -28 -175 -192 -57 -90 -227 -354 -377 -586
-289 -448 -300 -470 -269 -530 16 -31 821 -1205 898 -1309 70 -95 -9 -88 928
-88 788 0 826 1 856 19 17 10 37 28 44 39 7 12 140 289 296 616 208 435 284
604 284 630 0 20 -9 51 -21 70 -39 65 -843 1166 -868 1189 -13 12 -40 26 -60
32 -20 5 -257 25 -526 45 -659 47 -892 64 -940 69 -22 2 -53 0 -70 -4z m745
-220 c322 -22 621 -43 665 -46 l80 -6 380 -524 c209 -289 388 -539 399 -557
l18 -32 -252 -515 c-138 -283 -261 -535 -273 -560 l-22 -45 -75 1 c-41 0 -376
1 -745 3 l-670 1 -51 73 c-213 302 -794 1149 -794 1158 0 8 427 693 646 1035
32 50 38 54 72 54 20 0 300 -18 622 -40z"/>
<path d="M10642 3380 c0 -14 2 -19 5 -12 2 6 2 18 0 25 -3 6 -5 1 -5 -13z"/>
<path d="M10632 3310 c0 -14 2 -19 5 -12 2 6 2 18 0 25 -3 6 -5 1 -5 -13z"/>
<path d="M10622 3250 c0 -14 2 -19 5 -12 2 6 2 18 0 25 -3 6 -5 1 -5 -13z"/>
<path d="M990 2990 c-78 -122 -140 -223 -137 -226 2 -3 69 95 147 216 78 121
140 223 138 226 -3 2 -69 -95 -148 -216z"/>
<path d="M10612 3180 c0 -14 2 -19 5 -12 2 6 2 18 0 25 -3 6 -5 1 -5 -13z"/>
<path d="M10602 3120 c0 -14 2 -19 5 -12 2 6 2 18 0 25 -3 6 -5 1 -5 -13z"/>
<path d="M5877 3088 c-17 -16 -86 -179 -225 -528 -110 -278 -203 -519 -205
-536 -4 -21 1 -43 17 -70 19 -33 398 -546 777 -1050 54 -72 111 -137 125 -145
23 -12 129 -14 655 -14 625 0 629 0 649 21 16 16 59 157 166 550 79 291 144
543 144 560 0 16 -13 50 -29 75 -55 84 -796 1032 -822 1052 -18 13 -54 22
-110 28 -101 11 -1033 79 -1083 79 -22 0 -44 -8 -59 -22z m661 -173 c284 -19
522 -36 529 -38 11 -2 79 -88 545 -692 l216 -281 -139 -493 c-76 -272 -140
-495 -142 -497 -2 -2 -257 -1 -566 3 l-561 6 -393 524 c-215 287 -393 531
-395 541 -2 14 344 921 364 954 7 10 -51 13 542 -27z"/>
<path d="M10592 3055 c0 -16 2 -22 5 -12 2 9 2 23 0 30 -3 6 -5 -1 -5 -18z"/>
<path d="M9582 2843 c-31 -27 -215 -925 -201 -977 6 -22 129 -187 336 -448
180 -227 365 -461 411 -520 51 -65 97 -113 117 -122 28 -14 99 -16 503 -16
436 0 471 1 492 18 21 17 25 48 75 495 29 262 51 487 48 499 -7 30 -20 47
-278 363 -120 149 -285 351 -366 450 -82 101 -160 187 -175 194 -19 9 -185 26
-469 47 -242 18 -447 33 -456 34 -9 0 -26 -8 -37 -17z m587 -161 l365 -27 309
-380 c169 -209 327 -404 350 -434 l41 -53 -48 -422 c-26 -231 -50 -429 -53
-438 -4 -16 -21 -18 -167 -18 -90 0 -285 3 -435 7 l-273 6 -137 171 c-273 341
-592 746 -597 760 -4 12 146 799 161 844 6 17 56 15 484 -16z"/>
<path d="M12377 2658 c-16 -12 -21 -55 -43 -383 -30 -465 -31 -498 -9 -531 15
-23 430 -530 461 -564 12 -12 14 -4 14 57 l0 72 -171 208 c-95 114 -179 216
-187 225 -13 16 -12 60 7 395 12 208 23 383 25 388 3 10 106 7 279 -8 l47 -4
0 62 0 62 -167 12 c-93 6 -184 14 -203 17 -21 3 -42 0 -53 -8z"/>
<path d="M200 2150 c0 -5 -15 -11 -32 -13 -18 -2 0 -5 41 -5 41 -1 72 0 70 2
-10 10 -79 23 -79 16z"/>
<path d="M0 2023 l0 -103 123 0 c208 0 136 72 584 -584 215 -314 407 -596 427
-627 l37 -57 -124 -218 c-68 -121 -152 -268 -185 -327 l-61 -108 135 3 136 3
164 295 c90 162 167 310 170 328 5 23 0 46 -17 80 -13 26 -226 341 -473 701
-301 436 -460 660 -480 672 -46 28 -116 38 -284 41 l-152 3 0 -102z"/>
<path d="M3935 1996 c-27 -12 -84 -91 -73 -101 2 -2 12 11 22 30 11 20 35 42
58 54 45 22 39 36 -7 17z"/>
<path d="M3964 1979 c-44 -13 -67 -42 -119 -156 -27 -59 -52 -100 -58 -96 -6
4 -7 1 -3 -6 10 -16 -234 -532 -247 -524 -6 4 -7 1 -2 -7 10 -16 -75 -191 -88
-183 -6 4 -7 1 -2 -7 7 -12 -74 -195 -83 -186 -2 2 4 19 14 38 16 31 16 32 0
19 -21 -18 -31 -37 -40 -76 -6 -29 -6 -29 10 -10 18 22 18 22 -10 -47 -12 -32
-16 -58 -12 -82 4 -23 80 -138 217 -333 116 -164 217 -304 223 -311 9 -9 43
-12 125 -10 l112 3 -234 330 -234 329 62 136 c113 248 458 995 461 998 4 5
1122 -29 1199 -36 l70 -7 308 -415 c170 -228 351 -473 402 -544 l94 -128 -14
-37 c-8 -20 -58 -164 -111 -321 -53 -157 -99 -291 -101 -297 -4 -10 19 -13 95
-13 l99 0 107 312 c58 172 106 324 106 338 0 14 -11 43 -23 66 -27 45 -826
1124 -865 1166 -50 55 -61 56 -712 77 -333 12 -630 23 -660 25 -30 2 -69 0
-86 -5z"/>
<path d="M5203 1953 c15 -2 37 -2 50 0 12 2 0 4 -28 4 -27 0 -38 -2 -22 -4z"/>
<path d="M3845 1869 c-4 -6 -5 -12 -2 -15 2 -3 7 2 10 11 7 17 1 20 -8 4z"/>
<path d="M11412 1788 c-30 -30 -6 -37 28 -8 21 19 22 20 4 20 -11 0 -25 -5
-32 -12z"/>
<path d="M11473 1773 c15 -2 37 -2 50 0 12 2 0 4 -28 4 -27 0 -38 -2 -22 -4z"/>
<path d="M12140 1765 c0 -2 15 -9 33 -14 47 -14 -66 -14 -425 0 -163 6 -308 9
-321 5 -14 -3 -27 -13 -31 -21 -3 -8 -28 -227 -57 -487 -41 -379 -49 -479 -40
-508 6 -21 120 -172 292 -385 l281 -350 71 -3 c56 -2 68 0 60 10 -5 7 -138
173 -295 368 l-285 356 22 214 c13 118 33 318 46 444 l23 228 90 -6 c50 -3
195 -8 321 -11 127 -3 261 -8 298 -11 l68 -6 250 -304 c138 -167 252 -304 255
-304 2 0 4 31 4 69 l0 69 -221 268 c-273 333 -274 334 -328 341 -23 3 -39 8
-36 11 8 9 -29 31 -52 32 -13 0 -23 -2 -23 -5z"/>
<path d="M1890 601 c-342 -6 -356 -8 -392 -48 -14 -15 -308 -540 -308 -550 0
-2 59 -2 131 -1 l130 3 103 190 102 190 180 7 c98 3 439 8 757 10 l577 5 143
-203 142 -203 118 -1 c92 0 117 3 111 12 -47 80 -393 553 -417 570 l-32 23
-505 1 c-278 0 -656 -2 -840 -5z"/>
</g>
</svg>
