<?xml version="1.0" standalone="no"?>
<!DOCTYPE svg PUBLIC "-//W3C//DTD SVG 20010904//EN"
 "http://www.w3.org/TR/2001/REC-SVG-20010904/DTD/svg10.dtd">
<svg version="1.0" xmlns="http://www.w3.org/2000/svg"
 width="1224.000000pt" height="689.000000pt" viewBox="0 0 1224.000000 689.000000"
 preserveAspectRatio="xMidYMid meet">
<metadata>
Created by potrace 1.16, written by Peter Selinger 2001-2019
</metadata>
<g transform="translate(0.000000,689.000000) scale(0.100000,-0.100000)"
fill="#000000" stroke="none">
<path d="M44 6875 c-13 -33 140 -175 311 -289 117 -78 368 -219 422 -237 18
-6 33 -14 33 -18 0 -4 -46 -44 -102 -88 -144 -113 -312 -268 -383 -352 -73
-87 -165 -220 -165 -238 0 -19 154 -117 275 -174 111 -52 335 -132 477 -169
l87 -23 -83 -96 c-153 -178 -263 -335 -340 -489 -33 -66 -76 -169 -76 -183 0
-12 169 -78 263 -104 136 -36 303 -64 462 -76 77 -6 154 -13 172 -15 l31 -5
-51 -87 c-82 -142 -193 -379 -231 -492 -40 -122 -72 -269 -64 -292 5 -11 36
-22 105 -34 80 -16 142 -19 343 -18 150 1 283 7 343 16 53 8 97 13 97 13 0 -1
-11 -34 -25 -74 -95 -282 -159 -626 -140 -764 l7 -50 147 6 c209 8 388 44 649
129 68 22 126 38 128 35 3 -2 -3 -60 -13 -128 -25 -183 -25 -589 1 -716 18
-91 19 -93 47 -93 46 0 167 28 279 66 106 35 403 174 495 232 59 37 65 32 65
-53 0 -85 27 -312 52 -430 24 -120 71 -272 104 -337 l24 -48 63 24 c203 76
489 266 693 459 l42 39 7 -33 c36 -170 139 -468 210 -609 41 -82 141 -240 151
-240 19 0 184 120 267 194 99 89 257 263 353 391 31 41 59 75 63 75 3 0 42
-71 86 -157 127 -249 295 -488 418 -593 l37 -32 38 32 c122 105 284 335 415
589 l84 162 58 -78 c127 -168 266 -319 395 -427 101 -85 215 -160 229 -152 22
14 105 151 161 268 58 120 154 391 180 511 7 31 16 57 20 57 4 0 17 -12 31
-26 39 -43 258 -215 349 -276 106 -71 235 -139 322 -172 l66 -25 30 67 c82
184 133 434 157 769 4 51 8 93 10 93 1 0 42 -23 91 -51 195 -113 401 -205 562
-253 77 -23 220 -51 227 -45 11 12 38 184 45 295 9 135 0 364 -20 507 -6 44
-9 81 -7 84 3 2 62 -14 132 -37 249 -80 457 -120 638 -120 l107 0 0 121 c0
199 -45 436 -134 701 -20 59 -36 109 -36 110 0 2 60 -5 133 -15 243 -34 624
-28 780 14 37 10 37 10 31 52 -28 195 -167 546 -302 762 l-31 50 32 2 c294 23
458 46 613 88 91 25 231 78 248 95 4 4 -1 33 -13 64 -64 171 -204 394 -380
604 -67 80 -106 134 -99 137 7 2 74 20 148 40 168 46 325 103 455 165 109 52
255 145 255 162 0 6 -24 47 -54 92 -102 153 -284 336 -508 510 l-107 84 64 26
c164 70 471 260 583 361 l62 57 0 59 0 59 -46 0 c-39 0 -44 -2 -35 -14 34 -41
-334 -292 -636 -433 l-92 -43 -143 93 c-150 98 -345 216 -510 308 -54 30 -98
57 -98 60 0 3 10 11 23 17 17 8 -17 11 -143 11 -126 0 -160 -3 -142 -11 12 -6
22 -14 22 -18 0 -13 -599 -302 -612 -294 -9 5 -360 254 -397 281 -2 1 7 11 20
22 l24 20 -150 1 -150 0 29 -19 29 -19 -146 -97 c-81 -53 -151 -95 -156 -93
-5 1 -55 47 -111 101 -84 81 -99 101 -90 113 11 12 -11 14 -166 13 -157 -1
-175 -2 -149 -14 l30 -13 -40 -17 c-22 -9 -107 -39 -189 -66 l-149 -50 -111
49 c-61 27 -129 55 -151 62 l-40 13 45 16 c42 15 6 16 -568 19 -1009 4 -1844
-2 -1782 -12 l55 -10 -60 -13 c-47 -9 -93 -10 -210 -2 -82 6 -154 14 -160 17
-5 4 15 10 45 13 30 3 -87 6 -260 7 -173 0 -307 -3 -297 -7 14 -5 -4 -15 -70
-40 -48 -18 -121 -48 -161 -67 l-72 -33 -88 28 c-48 15 -127 42 -175 61 -84
32 -88 34 -65 46 20 11 -3 13 -151 14 -142 0 -171 -2 -163 -13 11 -13 -13 -40
-153 -169 l-40 -38 -150 100 c-83 56 -149 105 -147 110 1 6 -42 10 -109 10
-61 0 -108 -4 -105 -9 3 -5 -29 -33 -72 -62 -42 -29 -138 -97 -214 -150 l-136
-97 -293 145 c-266 132 -291 147 -274 159 16 12 -1 14 -129 14 -122 0 -147 -2
-137 -13 8 -11 -8 -24 -77 -62 -166 -93 -408 -239 -539 -326 l-131 -88 -164
83 c-235 119 -399 223 -513 328 -44 40 -53 53 -44 64 10 12 -2 14 -70 14 -63
0 -83 -3 -87 -15z m4881 -86 c152 -27 157 -29 120 -41 -16 -6 -82 -30 -145
-55 -109 -43 -118 -45 -185 -39 -88 8 -247 36 -258 45 -16 15 294 123 328 115
11 -2 74 -14 140 -25z m-1735 -86 c88 -58 160 -109 160 -113 0 -4 -63 -66
-140 -139 l-140 -132 -157 70 c-87 38 -189 84 -227 101 l-69 31 24 17 c57 41
384 271 387 272 1 0 74 -48 162 -107z m680 65 c14 -6 79 -30 144 -53 l119 -42
-74 -43 c-41 -24 -115 -69 -165 -102 -50 -32 -102 -58 -116 -58 -13 0 -49 15
-79 33 -125 76 -159 99 -159 106 0 15 158 160 195 179 37 19 43 19 75 5 19 -8
46 -19 60 -25z m-1768 -115 c163 -82 297 -150 297 -153 0 -3 -52 -43 -115 -90
-64 -47 -188 -142 -277 -212 -89 -70 -169 -128 -178 -128 -42 0 -746 253 -771
278 -6 6 36 39 114 89 205 133 600 363 623 363 5 0 143 -66 307 -147z m5618
104 c144 -50 172 -63 150 -71 -30 -10 -218 -36 -263 -36 -47 0 -293 91 -280
104 3 3 20 6 37 7 17 0 67 9 111 18 44 10 89 19 100 20 11 0 76 -18 145 -42z
m901 28 c19 -8 76 -54 127 -102 l93 -88 -111 -69 c-156 -96 -157 -96 -305 -1
-66 42 -141 88 -167 102 -27 14 -48 29 -48 32 0 3 51 23 113 44 61 21 141 51
177 67 78 34 79 34 121 15z m2078 -62 c253 -143 601 -360 601 -375 0 -11 -303
-127 -563 -213 l-248 -83 -152 121 c-84 67 -208 165 -277 217 l-125 94 310
157 c170 86 312 157 314 158 2 0 65 -34 140 -76z m-1167 -80 l192 -137 -29
-12 c-17 -7 -115 -51 -220 -98 l-190 -84 -135 135 c-74 74 -130 137 -125 139
6 3 73 47 150 99 77 51 146 94 153 94 7 1 99 -61 204 -136z m-5150 -37 c57
-14 126 -28 153 -32 81 -11 82 -17 13 -59 -35 -22 -93 -61 -131 -87 -51 -37
-76 -48 -105 -48 -41 0 -291 36 -336 48 l-29 8 50 32 c38 25 270 158 280 161
1 1 48 -10 105 -23z m3750 -32 c46 -25 125 -71 176 -102 l93 -57 -68 -13 c-37
-7 -120 -19 -183 -26 l-115 -14 -70 49 c-38 26 -105 70 -147 96 l-77 48 132
26 c73 14 139 28 147 32 25 9 27 9 112 -39z m-3102 -75 c-47 -28 -106 -67
-132 -86 l-47 -34 -163 -5 -163 -6 25 21 c14 11 74 48 135 83 l109 63 151 6
c82 3 155 6 160 7 6 1 -28 -21 -75 -49z m2590 0 c41 -21 113 -64 160 -94 99
-63 107 -60 -125 -45 l-150 11 -73 50 c-40 28 -101 67 -136 87 l-62 37 155 -3
156 -3 75 -40z m-4061 -36 c58 -36 110 -70 115 -74 6 -5 -158 -249 -169 -249
-4 0 -298 121 -308 127 -8 5 239 263 252 263 2 0 52 -30 110 -67z m5514 -93
c53 -52 97 -97 97 -101 0 -8 -338 -144 -343 -138 -35 46 -148 212 -152 221 -3
8 43 42 118 89 l122 76 30 -26 c17 -14 74 -68 128 -121z m-6372 -3 c101 -46
210 -94 241 -108 l57 -24 -102 -105 c-57 -58 -140 -145 -185 -194 l-83 -89
-142 37 c-251 64 -517 139 -517 145 1 7 535 420 546 421 0 0 84 -37 185 -83z
m7299 -67 c94 -72 214 -165 267 -207 l95 -77 -114 -32 c-62 -18 -205 -57 -317
-85 l-204 -53 -134 140 c-149 155 -228 243 -222 247 14 10 436 196 445 196 7
1 89 -58 184 -129z m-6050 26 c69 -14 154 -28 190 -32 36 -4 68 -9 72 -11 5
-2 -19 -28 -51 -56 -33 -29 -102 -91 -154 -139 -62 -58 -102 -88 -117 -88 -29
0 -270 92 -270 103 0 16 142 207 168 226 15 11 29 20 32 21 3 0 61 -11 130
-24z m1139 -83 c-68 -66 -125 -113 -148 -121 -56 -20 -281 -74 -293 -70 -12 4
120 130 202 192 50 38 66 44 175 65 66 13 129 27 140 32 11 4 23 8 28 8 4 1
-43 -47 -104 -106z m2264 52 c93 -20 114 -28 155 -61 68 -56 193 -176 188
-181 -5 -6 -253 55 -287 70 -15 7 -75 58 -133 114 -100 95 -104 101 -69 91 21
-6 86 -21 146 -33z m1203 10 c30 -23 164 -199 164 -215 0 -12 -216 -90 -250
-90 -29 0 -47 13 -119 83 -47 45 -112 106 -144 134 l-58 51 88 12 c48 7 129
20 178 30 50 10 94 18 99 19 5 1 24 -10 42 -24z m-7498 -79 c143 -59 332 -128
525 -191 l158 -52 -63 -54 c-157 -134 -334 -294 -459 -416 l-135 -133 -130 35
c-147 38 -290 87 -414 140 -94 40 -230 114 -230 126 0 29 176 224 300 334 125
110 311 255 328 255 7 0 61 -20 120 -44z m3524 -81 c-142 -138 -123 -131 -352
-141 l-155 -7 30 33 c17 18 83 78 149 135 l118 102 167 -1 166 -1 -123 -120z
m6916 66 c140 -106 216 -171 326 -279 101 -99 226 -243 226 -261 0 -11 -134
-82 -238 -127 -152 -65 -502 -174 -561 -174 -9 0 -52 36 -96 81 -93 94 -363
343 -482 444 -46 38 -83 73 -83 76 0 3 35 16 78 28 114 34 458 156 607 217 72
29 134 53 138 53 5 1 43 -25 85 -58z m-3415 -30 c45 -39 109 -96 142 -126 l60
-55 -105 0 c-58 0 -148 5 -200 10 l-95 10 -117 118 -118 117 176 -2 175 -2 82
-70z m-4783 -73 c69 -28 128 -54 132 -57 10 -8 -208 -325 -226 -329 -12 -3
-399 80 -434 93 -20 7 -10 19 166 204 l164 171 36 -16 c20 -8 93 -38 162 -66z
m6130 -104 c91 -96 165 -178 165 -182 0 -7 -452 -112 -472 -109 -7 1 -61 74
-121 162 l-109 160 171 71 c94 39 178 72 186 72 8 0 89 -78 180 -174z m-4143
109 c-24 -32 -67 -93 -95 -135 l-52 -77 -122 -60 c-68 -33 -140 -66 -160 -75
l-38 -15 49 72 c26 40 75 105 108 145 58 71 63 75 164 116 57 23 122 52 144
64 22 12 41 21 43 22 2 0 -17 -26 -41 -57z m1943 -36 c41 -17 86 -40 99 -51
23 -21 150 -185 185 -239 l18 -29 -24 7 c-12 4 -83 36 -156 72 l-132 64 -59
87 c-33 48 -74 106 -91 130 l-32 43 58 -27 c33 -14 93 -40 134 -57z m-3550
-119 c63 -25 123 -48 132 -51 15 -5 9 -24 -44 -139 -33 -73 -63 -136 -67 -140
-5 -6 -358 56 -367 65 -8 7 211 317 221 313 6 -2 62 -24 125 -48z m1753 -50
c-25 -57 -52 -121 -60 -143 -7 -22 -26 -50 -41 -63 -42 -34 -204 -157 -235
-177 l-27 -18 36 84 c19 46 54 119 76 161 40 74 45 79 153 152 62 42 118 82
125 91 7 8 14 15 16 15 1 0 -18 -46 -43 -102z m1618 -22 c79 -53 88 -62 127
-134 47 -89 114 -242 106 -242 -9 0 -139 95 -216 157 -60 49 -69 61 -99 136
-18 45 -45 108 -61 139 -15 32 -28 60 -28 63 0 4 19 -9 43 -28 23 -19 81 -60
128 -91z m-2266 4 c-36 -51 -79 -116 -95 -145 -17 -29 -38 -55 -48 -58 -195
-55 -372 -97 -372 -89 0 8 174 241 216 290 27 31 37 35 141 52 62 11 137 26
165 33 29 8 54 13 56 12 2 -2 -27 -44 -63 -95z m2935 50 c121 -21 104 -7 256
-210 52 -69 90 -126 86 -128 -10 -3 -302 71 -343 86 -16 7 -39 32 -58 65 -17
30 -60 95 -95 144 l-63 90 56 -14 c31 -8 103 -23 161 -33z m1178 -103 l103
-152 -138 -26 c-76 -14 -154 -29 -173 -33 l-36 -6 -58 132 c-33 73 -61 136
-62 139 -4 7 222 96 246 98 9 0 59 -64 118 -152z m-6880 63 c75 -21 222 -62
325 -89 104 -27 191 -52 194 -54 2 -3 -51 -68 -119 -144 -94 -105 -320 -370
-333 -391 -9 -14 -814 106 -853 127 -25 14 595 590 636 591 7 0 74 -18 150
-40z m8528 -37 c209 -177 565 -516 553 -527 -14 -13 -482 -86 -704 -109 l-120
-12 -96 115 c-53 63 -158 185 -232 270 -75 85 -135 155 -134 156 1 1 112 31
247 68 135 36 274 74 310 85 36 11 72 20 81 20 9 1 52 -29 95 -66z m-6190 39
c-2 -4 -40 -55 -83 -113 -43 -57 -96 -133 -118 -167 -34 -52 -44 -62 -69 -62
-25 0 -268 38 -272 43 -7 7 111 246 133 270 24 25 34 28 68 24 33 -4 310 6
338 11 5 1 6 -2 3 -6z m4060 -41 c27 -31 130 -249 121 -257 -11 -12 -263 -47
-289 -41 -20 5 -42 30 -79 85 -29 42 -81 114 -116 160 -34 45 -63 85 -63 87 0
3 91 3 202 -1 201 -7 202 -7 224 -33z m-1559 -146 c47 -45 55 -59 78 -135 14
-47 34 -125 44 -174 l20 -89 -46 44 c-71 69 -192 217 -197 242 -3 12 -14 69
-26 127 -11 58 -25 117 -30 133 -7 21 4 13 48 -35 31 -35 80 -86 109 -113z
m-1232 39 c-14 -60 -25 -119 -25 -131 0 -22 -72 -116 -179 -233 l-60 -65 21
95 c11 52 30 128 43 168 22 68 31 81 122 176 54 56 99 101 100 101 2 -1 -8
-51 -22 -111z m231 -108 l-4 -154 -36 -68 c-20 -38 -61 -107 -91 -154 l-54
-85 -1 76 c0 42 5 122 10 178 l11 101 79 122 c44 67 80 125 80 130 0 4 2 8 4
8 3 0 3 -69 2 -154z m751 -30 l53 -79 10 -131 c5 -72 10 -149 10 -171 l0 -40
-34 51 c-19 28 -60 96 -90 150 l-56 99 0 145 1 145 27 -45 c14 -25 50 -81 79
-124z m-225 -111 c17 -34 12 -112 -18 -284 -21 -117 -25 -113 -90 85 l-48 144
22 118 c12 64 25 134 28 156 7 38 7 37 49 -75 23 -63 49 -127 57 -144z m-1366
144 c-18 -41 -47 -110 -62 -153 l-29 -79 -183 -90 c-101 -49 -185 -88 -187
-85 -2 2 36 85 84 184 l89 181 88 32 c49 17 121 47 159 65 39 18 71 30 73 26
1 -3 -13 -40 -32 -81z m1098 -173 c5 -20 -47 -185 -85 -272 l-22 -49 -8 35
c-4 19 -15 90 -24 157 l-16 121 40 94 c22 51 45 113 52 137 l13 43 22 -123
c13 -68 25 -133 28 -143z m1437 160 l75 -27 61 -122 c79 -155 115 -238 109
-245 -3 -3 -85 35 -182 84 l-177 89 -43 112 c-23 61 -52 129 -63 152 -12 22
-21 45 -21 50 0 5 37 -7 83 -29 45 -21 116 -50 158 -64z m-4734 60 c82 -19
184 -42 228 -51 44 -10 85 -20 92 -24 8 -4 -11 -42 -60 -116 -40 -61 -104
-161 -142 -223 l-70 -114 -155 7 c-190 8 -479 31 -486 38 -7 6 430 515 443
517 2 0 69 -15 150 -34z m7006 -118 c74 -84 176 -202 228 -263 l92 -110 -59
-6 c-57 -7 -294 -22 -519 -34 l-110 -6 -103 168 c-56 92 -119 194 -139 226
-20 31 -34 59 -32 60 3 3 468 110 500 116 4 0 67 -68 142 -151z m-6349 -22
c94 -18 171 -37 173 -42 2 -5 -31 -88 -72 -184 l-75 -175 -252 3 c-139 2 -254
5 -256 7 -2 2 59 100 135 219 116 181 141 214 158 210 11 -2 96 -20 189 -38z
m5633 -38 c26 -40 86 -136 134 -213 83 -132 87 -140 66 -147 -12 -3 -119 -6
-237 -7 l-215 -1 -77 183 c-42 100 -74 184 -73 186 3 3 315 66 348 70 4 1 29
-32 54 -71z m-4527 39 c0 -2 -26 -60 -58 -128 -32 -68 -69 -150 -82 -182 -12
-32 -32 -63 -44 -69 -12 -7 -80 -14 -162 -16 l-142 -4 32 133 c29 121 49 179
61 179 16 0 299 63 335 74 48 16 60 18 60 13z m3274 -17 c40 -11 125 -31 187
-44 108 -22 115 -25 133 -56 14 -24 75 -247 76 -280 0 -9 -255 1 -281 11 -21
8 -35 30 -64 102 -21 51 -60 136 -87 190 -26 53 -46 97 -43 97 3 0 38 -9 79
-20z m-2574 -96 c-11 -49 -25 -120 -32 -159 l-13 -69 -90 -74 c-49 -40 -122
-95 -161 -122 l-71 -49 19 82 c10 45 32 130 49 189 l31 106 82 50 c44 27 108
70 141 95 33 24 61 43 63 42 1 -1 -7 -42 -18 -91z m1867 30 c43 -31 106 -73
140 -93 58 -34 64 -40 79 -91 28 -94 85 -323 82 -331 -4 -10 -148 93 -251 178
-70 58 -76 65 -82 110 -7 49 -39 210 -51 257 -3 14 -4 26 -1 26 3 0 41 -25 84
-56z m-3234 4 c75 -12 137 -27 137 -33 -1 -5 -16 -73 -34 -150 l-33 -140 -181
-3 c-100 -1 -182 0 -182 4 0 12 144 344 149 344 3 0 68 -10 144 -22z m4754
-153 l72 -170 -186 -3 c-102 -1 -187 -1 -189 1 -3 3 -72 297 -70 298 11 5 267
47 281 45 16 -1 34 -36 92 -171z m-3165 -358 c-38 -45 -97 -111 -131 -147
l-62 -65 6 115 c3 63 8 153 12 199 l6 83 116 117 116 118 3 -170 2 -169 -68
-81z m1529 97 c4 -44 8 -128 8 -189 l0 -110 -72 75 c-40 41 -99 109 -132 150
l-60 75 3 160 3 159 120 -121 121 -121 9 -78z m-1125 60 l26 -131 -27 -54
c-55 -109 -169 -289 -176 -277 -7 14 -35 200 -44 293 l-6 60 68 96 c37 53 81
118 98 145 27 45 30 47 33 24 1 -14 14 -84 28 -156z m647 71 c32 -49 71 -108
87 -130 l29 -40 -14 -110 c-20 -160 -37 -259 -45 -268 -8 -10 -73 90 -147 228
l-49 91 18 69 c9 39 25 114 34 168 10 53 21 94 24 90 4 -5 32 -48 63 -98z
m-1709 -57 c-18 -73 -38 -159 -44 -191 -15 -74 -34 -87 -189 -122 -64 -14
-122 -28 -130 -31 -11 -4 -12 18 -7 123 10 193 -3 171 149 237 73 31 157 70
187 86 30 16 58 29 61 30 3 0 -9 -60 -27 -132z m2905 6 c76 -33 116 -55 121
-69 13 -33 17 -295 5 -295 -27 0 -262 62 -281 75 -15 9 -24 32 -33 84 -7 38
-27 129 -45 200 l-32 129 75 -37 c42 -21 127 -60 190 -87z m-6459 82 c153 -29
424 -69 580 -86 58 -6 111 -13 118 -16 9 -3 0 -20 -29 -57 -83 -103 -309 -409
-386 -523 l-78 -116 -115 7 c-145 8 -315 30 -449 56 -111 21 -291 75 -291 87
1 15 94 181 148 262 112 169 327 423 352 415 8 -2 76 -15 150 -29z m4900 -3
c7 -21 35 -91 62 -157 l50 -118 -41 -124 c-23 -69 -51 -146 -63 -172 l-20 -47
-18 41 c-35 79 -104 299 -103 329 0 31 102 284 115 285 3 0 12 -17 18 -37z
m5096 -76 c159 -181 291 -366 369 -519 26 -50 43 -94 38 -98 -13 -13 -168 -57
-275 -79 -95 -20 -322 -46 -466 -54 l-73 -4 -81 121 c-106 157 -234 334 -352
484 l-94 120 67 6 c139 14 452 59 596 86 83 15 159 28 170 29 13 0 47 -30 101
-92z m-8826 -62 c129 -8 258 -16 287 -18 l51 -2 -39 -65 c-22 -36 -100 -171
-174 -301 l-135 -236 -153 -12 c-83 -7 -269 -15 -411 -18 l-259 -6 78 114
c100 146 224 314 338 458 l90 113 46 -6 c25 -3 152 -12 281 -21z m7858 -97
c141 -178 422 -572 422 -593 0 -19 -859 26 -873 46 -2 2 -46 83 -99 179 -53
96 -130 234 -172 305 l-75 130 132 8 c72 4 209 14 302 21 94 7 193 14 222 15
l51 1 90 -112z m-7001 62 l143 0 -21 -52 c-12 -29 -53 -134 -91 -233 -38 -99
-75 -185 -81 -191 -18 -17 -661 -103 -674 -91 -6 6 82 164 235 421 l95 159
126 -6 c69 -4 190 -7 268 -7z m1053 -135 c0 -142 0 -145 -22 -150 -63 -15
-353 -74 -355 -72 -1 2 15 81 35 177 l38 175 54 6 c30 3 99 6 153 7 l97 2 0
-145z m842 -57 c-4 -193 -5 -204 -26 -226 -21 -21 -220 -119 -255 -124 -12 -2
-19 23 -35 122 -31 186 -34 177 90 261 58 40 133 94 167 120 34 27 62 49 63
49 0 0 -1 -91 -4 -202z m2998 192 l66 0 37 -182 c20 -99 35 -184 32 -187 -5
-4 -345 65 -350 72 -1 1 -5 71 -8 156 l-6 154 82 -7 c45 -3 111 -6 147 -6z
m-4254 -17 c-3 -10 -22 -94 -41 -188 -20 -93 -37 -170 -39 -172 -10 -10 -466
-87 -473 -79 -3 3 31 99 75 213 45 114 84 216 88 226 6 15 25 17 201 17 180 0
194 -1 189 -17z m4688 7 l142 0 92 -237 c50 -130 91 -238 89 -239 -2 -2 -108
16 -442 76 l-60 11 -41 201 -41 201 60 -7 c33 -3 124 -6 201 -6z m845 -145
c107 -183 250 -439 247 -442 -8 -9 -640 84 -644 95 -2 4 -45 115 -96 247 l-93
240 71 6 c39 3 151 5 249 5 l178 -1 88 -150z m-2244 68 c44 -33 115 -83 157
-111 52 -35 78 -59 80 -74 4 -27 -34 -263 -43 -273 -11 -10 -232 94 -260 123
-26 27 -27 29 -33 221 -4 152 -3 191 7 184 6 -5 48 -37 92 -70z m-1639 -217
c8 -54 21 -126 28 -160 12 -59 12 -64 -10 -95 -19 -29 -99 -91 -196 -155 l-26
-17 -40 103 c-68 178 -72 159 63 299 63 66 126 134 138 151 l22 30 3 -28 c1
-16 9 -73 18 -128z m1317 -18 c91 -99 117 -133 117 -155 0 -15 -21 -85 -47
-154 l-47 -126 -104 75 c-130 95 -152 121 -141 171 7 34 40 222 54 320 l7 43
23 -23 c12 -13 74 -81 138 -151z m-917 30 c15 -46 47 -132 70 -191 l44 -108
-21 -41 c-23 -45 -177 -210 -189 -203 -17 11 -132 206 -141 240 -10 35 -7 41
59 143 38 59 87 137 108 175 21 37 39 67 40 67 1 0 15 -37 30 -82z m425 -43
c29 -49 74 -123 100 -162 58 -90 57 -99 -33 -239 l-64 -102 -82 88 c-44 48
-89 103 -98 123 -16 34 -16 35 34 163 27 71 55 147 62 169 14 44 20 58 25 53
1 -2 27 -43 56 -93z m-1661 28 c0 -5 11 -71 24 -148 13 -77 23 -141 22 -142
-1 -2 -81 -36 -177 -77 l-174 -74 -3 97 c-1 53 1 139 5 191 l8 95 135 31 c151
36 160 37 160 27z m3120 -260 l0 -183 -32 13 c-190 80 -304 130 -310 136 -5 5
8 95 37 257 l5 31 150 -36 150 -35 0 -183z m-3530 -23 l0 -200 -36 -15 c-130
-54 -435 -167 -440 -163 -6 6 76 472 86 488 4 7 323 81 383 89 4 1 7 -89 7
-199z m3829 141 c108 -23 178 -43 183 -52 5 -8 26 -116 47 -242 38 -224 38
-227 17 -221 -11 4 -114 43 -228 88 l-208 81 0 146 c0 80 -3 167 -6 193 -5 36
-4 46 7 46 8 -1 92 -18 188 -39z m-4359 -188 c-15 -82 -36 -197 -45 -258 -10
-60 -23 -115 -29 -121 -21 -22 -612 -221 -623 -210 -8 8 200 621 218 640 4 5
117 28 251 51 134 24 246 43 249 44 3 1 -6 -65 -21 -146z m4933 77 c124 -22
230 -40 236 -40 6 0 18 -17 26 -37 25 -59 205 -596 202 -600 -5 -4 -641 210
-654 221 -2 1 -70 400 -80 470 -6 38 -5 39 19 33 14 -4 127 -25 251 -47z
m-3504 -97 c24 -65 46 -123 48 -129 4 -12 -295 -220 -303 -211 -7 7 -65 310
-62 325 3 12 237 129 263 131 6 1 30 -52 54 -116z m2022 56 c74 -33 136 -62
138 -65 6 -6 -60 -348 -69 -358 -9 -9 -310 193 -310 208 0 9 102 276 105 276
1 0 62 -27 136 -61z m-4092 -106 c-21 -60 -72 -212 -114 -338 l-76 -231 -167
-47 c-292 -82 -666 -167 -678 -154 -10 10 114 290 243 548 l122 245 133 13
c73 7 221 26 328 41 107 15 207 28 221 29 l27 1 -39 -107z m6384 22 c109 -14
205 -25 213 -25 27 0 379 -749 361 -767 -12 -12 -784 183 -792 200 -3 6 -210
632 -213 642 -2 8 32 6 115 -7 65 -10 207 -29 316 -43z m-3809 -126 c36 -59
66 -110 66 -115 0 -5 -56 -65 -124 -133 l-123 -123 -51 124 c-28 67 -59 145
-70 172 l-19 50 116 81 c100 71 117 80 127 66 6 -9 41 -64 78 -122z m1019 40
c61 -45 114 -84 116 -86 7 -5 -123 -323 -130 -320 -3 1 -62 61 -131 132 l-126
131 71 112 c40 61 75 112 80 112 4 0 58 -37 120 -81z m-4489 -120 c-93 -188
-193 -404 -250 -545 l-29 -72 -80 -11 c-192 -26 -326 -33 -495 -27 -96 3 -190
9 -207 12 -39 7 -39 2 18 179 41 124 172 400 257 540 l48 80 255 7 c140 4 304
12 364 16 61 5 134 10 163 11 l52 1 -96 -191z m2577 4 c34 -173 34 -178 16
-192 -11 -7 -107 -69 -216 -137 l-196 -123 -7 237 c-4 130 -4 238 0 240 4 1
84 36 177 76 94 41 175 74 181 75 7 1 25 -70 45 -176z m2842 97 l177 -75 -1
-175 c-1 -96 -4 -211 -7 -256 l-7 -81 -200 129 c-110 70 -206 132 -214 137
-11 7 -7 42 24 205 21 108 41 195 45 194 4 -2 86 -37 183 -78z m2747 30 c129
-5 262 -10 296 -10 l61 0 61 -107 c126 -221 244 -497 267 -624 l7 -36 -44 -7
c-99 -14 -320 -18 -448 -7 -192 16 -363 41 -376 55 -6 6 -21 38 -34 71 -41
106 -135 315 -229 509 -50 104 -91 190 -91 190 0 1 66 -4 148 -11 81 -7 253
-17 382 -23z m-4181 -70 c85 -92 91 -101 80 -122 -20 -38 -190 -290 -193 -286
-2 1 -46 69 -99 150 l-96 147 101 106 c55 58 103 105 107 105 4 0 49 -45 100
-100z m-850 -259 l71 -175 -132 -126 c-73 -69 -156 -147 -184 -173 l-51 -46
-31 137 c-69 307 -77 353 -61 362 8 5 79 53 159 108 80 54 148 96 152 93 3 -3
38 -84 77 -180z m-1069 66 c0 -63 3 -174 6 -248 l6 -134 -135 -77 c-197 -113
-458 -258 -464 -258 -7 0 -3 27 43 365 20 143 41 265 47 272 7 6 84 39 172 72
88 33 192 73 230 90 39 16 76 30 83 30 9 1 12 -28 12 -112z m3926 2 l191 -73
27 -191 c51 -356 64 -497 49 -490 -18 6 -303 170 -454 260 l-115 69 3 176 c2
96 6 216 9 267 l6 92 46 -19 c26 -10 133 -51 238 -91z m-1023 -87 c47 -31 66
-50 63 -61 -3 -9 -26 -110 -52 -226 -25 -115 -48 -212 -50 -214 -4 -4 -223
201 -313 293 l-54 55 69 169 69 169 100 -70 c55 -38 130 -90 168 -115z m-543
-189 c0 -21 -193 -444 -202 -441 -4 2 -70 92 -146 202 l-139 199 109 162 108
162 135 -137 c74 -75 135 -141 135 -147z m-674 45 l56 -88 -139 -194 -138
-195 -38 82 c-21 45 -66 144 -99 221 l-60 139 133 133 133 133 48 -72 c27 -40
74 -111 104 -159z m-2336 -114 c-16 -121 -36 -268 -43 -329 l-12 -110 -40 -22
c-64 -36 -427 -206 -580 -272 -103 -45 -141 -57 -143 -47 -7 33 161 703 191
764 10 20 43 34 177 77 91 30 235 78 320 108 85 29 156 52 158 51 2 -1 -11
-100 -28 -220z m5227 111 l331 -110 51 -180 c71 -254 166 -663 156 -673 -7 -8
-291 120 -532 239 l-262 130 -5 42 c-3 23 -11 87 -17 142 -13 124 -57 460 -65
499 -4 16 -2 27 3 25 5 -2 158 -53 340 -114z m-3952 -176 c30 -134 55 -249 55
-256 0 -12 -194 -188 -399 -362 l-119 -101 -6 48 c-9 70 -24 306 -32 483 l-7
155 224 141 c123 77 225 139 227 138 1 -1 27 -112 57 -246z m2638 88 c106 -68
206 -132 224 -142 36 -21 35 29 8 -386 -8 -125 -15 -239 -15 -254 0 -15 -4
-25 -9 -23 -12 4 -239 199 -397 340 l-121 109 38 162 c20 89 45 197 54 240 9
42 19 77 21 77 3 0 91 -55 197 -123z m-1973 -259 l102 -227 -125 -163 c-68
-90 -162 -211 -209 -271 l-86 -107 -42 152 c-23 84 -62 228 -85 320 l-43 167
192 179 c105 99 192 179 192 178 1 0 48 -103 104 -228z m1356 45 c183 -175
186 -179 180 -213 -7 -42 -139 -539 -158 -593 l-14 -38 -130 168 c-186 239
-284 372 -284 387 0 7 31 80 68 162 38 82 84 184 102 227 19 42 37 77 42 77 5
0 92 -80 194 -177z m-4046 152 c0 -3 -24 -95 -54 -203 -52 -189 -118 -470
-132 -559 l-7 -43 -152 -50 c-251 -82 -523 -140 -659 -140 l-43 0 4 58 c11
163 62 394 136 611 l42 124 180 38 c169 34 514 120 615 153 50 16 70 19 70 11z
m6775 -90 c116 -29 266 -65 335 -80 69 -14 128 -29 131 -33 11 -11 88 -248
119 -367 38 -142 70 -330 70 -411 l0 -64 -42 0 c-62 0 -227 26 -346 55 -111
27 -382 112 -395 125 -5 4 -26 90 -47 191 -49 235 -90 400 -166 661 -5 15 1
15 63 -3 37 -11 163 -44 278 -74z m-3474 -70 c45 -66 112 -160 147 -209 l64
-88 -147 -296 -146 -296 -56 104 c-68 129 -243 493 -243 507 0 6 44 71 98 145
53 74 117 164 142 200 25 37 48 63 51 60 4 -4 44 -61 90 -127z m-1881 -53 c0
-73 23 -444 35 -562 l6 -55 -43 -33 c-178 -137 -443 -333 -543 -400 l-120 -82
-3 128 c-3 130 9 384 30 617 l11 130 121 65 c66 36 203 113 305 172 102 58
189 104 193 102 5 -3 8 -40 8 -82z m3861 -104 c118 -68 242 -139 276 -158 l61
-34 6 -60 c11 -112 25 -359 32 -565 l7 -204 -119 81 c-117 79 -344 247 -497
367 -46 37 -74 66 -72 75 2 8 11 125 20 260 27 423 23 394 49 376 13 -8 119
-70 237 -138z m-3137 -210 c24 -96 125 -467 142 -520 3 -11 -29 -56 -97 -135
-107 -125 -377 -419 -452 -491 l-44 -43 -7 33 c-29 141 -85 517 -101 673 -3
33 -8 76 -11 96 -5 35 -5 36 173 186 98 83 219 188 268 232 50 44 92 81 95 81
3 0 18 -51 34 -112z m2392 -73 c88 -77 196 -171 242 -208 45 -38 82 -76 82
-85 -1 -111 -110 -824 -130 -845 -12 -13 -334 335 -577 624 -12 14 -5 46 45
225 33 115 74 268 93 340 l34 132 26 -22 c14 -11 98 -84 185 -161z m-3860 3
c-14 -145 -28 -388 -34 -598 l-7 -224 -75 -44 c-126 -72 -340 -177 -440 -215
-96 -37 -241 -80 -247 -73 -14 14 -25 210 -20 381 6 190 37 471 54 485 5 4 71
32 148 64 77 32 246 109 375 171 129 62 239 113 244 114 5 1 6 -27 2 -61z
m2474 -569 c0 -41 -435 -749 -450 -732 -33 36 -296 795 -283 816 4 7 59 77
123 157 64 80 158 200 209 267 l92 121 155 -309 c85 -170 154 -314 154 -320z
m556 444 c65 -87 163 -212 216 -279 l97 -122 -45 -143 c-46 -145 -186 -526
-222 -608 l-20 -43 -61 91 c-71 105 -275 446 -345 574 l-48 88 149 299 c81
164 151 299 154 299 3 1 60 -70 125 -156z m2572 -112 c97 -43 194 -85 216 -92
21 -8 42 -23 46 -34 17 -45 42 -339 42 -495 0 -146 -12 -283 -26 -298 -10 -9
-141 29 -256 75 -142 56 -237 103 -407 201 l-133 76 0 195 c0 182 -11 432 -26
577 l-6 61 187 -94 c102 -52 266 -129 363 -172z m-4777 -352 c29 -235 51 -373
81 -519 l19 -95 -53 -48 c-95 -86 -291 -241 -378 -299 -103 -69 -249 -148
-272 -148 -46 0 -123 380 -143 710 l-7 105 146 98 c144 96 540 388 552 408 18
30 30 -15 55 -212z m3611 110 c148 -116 368 -275 476 -344 l62 -40 0 -68 c0
-166 -42 -466 -91 -644 -44 -159 -41 -157 -135 -108 -152 78 -365 233 -544
393 l-54 49 22 114 c35 185 60 341 87 554 14 110 25 201 25 202 0 9 22 -7 152
-108z m-2723 -295 c66 -201 156 -448 207 -566 l34 -79 -77 -102 c-159 -210
-331 -390 -477 -500 l-50 -38 -33 53 c-75 122 -180 399 -243 643 l-31 119 149
151 c146 147 293 307 402 437 30 36 56 65 57 64 1 -1 29 -83 62 -182z m1879
-44 c70 -80 196 -216 280 -302 l154 -157 -12 -53 c-58 -247 -159 -517 -257
-686 l-25 -43 -28 18 c-115 73 -327 290 -486 498 l-86 114 58 143 c61 154 172
462 199 553 8 31 20 68 26 83 l11 27 20 -25 c11 -14 77 -90 146 -170z m-1002
53 c77 -143 231 -398 326 -542 l89 -135 -51 -105 c-113 -234 -253 -457 -354
-566 l-56 -60 -56 60 c-83 89 -211 288 -313 486 -50 97 -91 181 -91 187 0 6
42 75 93 154 98 150 216 345 308 510 30 54 55 98 56 98 1 0 23 -39 49 -87z"/>
</g>
</svg>
