<svg xmlns:dc="http://purl.org/dc/elements/1.1/" xmlns:cc="http://creativecommons.org/ns#" xmlns:rdf="http://www.w3.org/1999/02/22-rdf-syntax-ns#" xmlns:svg="http://www.w3.org/2000/svg" xmlns="http://www.w3.org/2000/svg" xmlns:sodipodi="http://sodipodi.sourceforge.net/DTD/sodipodi-0.dtd" xmlns:inkscape="http://www.inkscape.org/namespaces/inkscape" viewBox="0 0 256 320" version="1.1" x="0px" y="0px"><g><path style="color:#000000;font-style:normal;font-variant:normal;font-weight:normal;font-stretch:normal;font-size:medium;line-height:normal;font-family:sans-serif;font-variant-ligatures:normal;font-variant-position:normal;font-variant-caps:normal;font-variant-numeric:normal;font-variant-alternates:normal;font-feature-settings:normal;text-indent:0;text-align:start;text-decoration:none;text-decoration-line:none;text-decoration-style:solid;text-decoration-color:#000000;letter-spacing:normal;word-spacing:normal;text-transform:none;writing-mode:lr-tb;direction:ltr;text-orientation:mixed;dominant-baseline:auto;baseline-shift:baseline;text-anchor:start;white-space:normal;shape-padding:0;clip-rule:nonzero;display:inline;overflow:visible;visibility:visible;opacity:1;isolation:auto;mix-blend-mode:normal;color-interpolation:sRGB;color-interpolation-filters:linearRGB;solid-color:#000000;solid-opacity:1;vector-effect:none;fill:#000000;fill-opacity:1;fill-rule:nonzero;stroke:none;stroke-width:1.88976383;stroke-linecap:butt;stroke-linejoin:miter;stroke-miterlimit:4;stroke-dasharray:none;stroke-dashoffset:0;stroke-opacity:1;color-rendering:auto;image-rendering:auto;shape-rendering:auto;text-rendering:auto;enable-background:accumulate" d="m 128,4.3242188 -0.63477,0.5742187 c -3.70064,3.349812 -7.03612,8.7276285 -10.04296,15.2714845 -4.24205,-5.819113 -8.57706,-10.4322297 -12.86719,-12.9843751 l -0.73438,-0.4375 -0.50976,0.6894531 c -2.87453,3.892466 -5.035571,9.586976 -6.671878,16.316406 -5.107837,-4.676785 -10.075381,-8.202852 -14.630859,-9.833984 l -0.806641,-0.28711 -0.367187,0.771485 C 78.593354,18.913737 77.564262,25.158128 77.285156,32.355469 71.141967,28.5958 65.375195,25.987924 60.435547,25.267578 l -0.847656,-0.121094 -0.207032,0.828125 c -1.14363,4.588806 -0.998788,10.508548 -0.0039,17.164063 -6.324072,-2.301349 -12.097324,-3.622064 -16.822265,-3.416016 l -0.855469,0.03906 -0.04687,0.853515 c -0.278679,4.984015 1.128208,11.154615 3.58789,17.923828 -7.109452,-1.16102 -13.433037,-1.396634 -18.279296,-0.197265 l -0.832032,0.207031 0.123047,0.845703 c 0.690423,4.789347 3.155648,10.36102 6.720703,16.298828 -6.920692,0.262109 -12.932835,1.244089 -17.320312,3.285157 l -0.775391,0.363281 0.28125,0.806641 c 1.645734,4.712485 5.303262,9.878707 10.160156,15.195312 -7.012145,1.642166 -12.948339,3.839974 -16.9687496,6.79883 l -0.6875,0.50976 0.4355468,0.73438 c 2.5652108,4.3282 7.2237038,8.70459 13.1015628,12.98828 -6.61385,3.02638 -12.0510782,6.38688 -15.4277346,10.11719 l -0.5742188,0.63476 0.5742188,0.63477 c 3.349811,3.70063 8.7276286,7.03612 15.2714846,10.04297 -5.819113,4.24203 -10.432234,8.57704 -12.9843752,12.86719 l -0.4375,0.73437 0.6894531,0.50977 c 3.8924631,2.87451 9.5869751,5.03556 16.3164061,6.67187 -4.676786,5.10784 -8.202857,10.07537 -9.833984,14.63086 l -0.28711,0.80664 0.771485,0.36719 c 4.509435,2.14101 10.75383,3.17011 17.951172,3.44922 -3.75967,6.14318 -6.367551,11.90995 -7.087891,16.84961 l -0.121094,0.84765 0.828125,0.20703 c 4.5888,1.14363 10.508546,0.99879 17.164063,0.004 -2.301351,6.32407 -3.622072,12.09732 -3.416016,16.82227 l 0.03906,0.85546 0.853515,0.0469 c 4.984007,0.27867 11.154612,-1.12821 17.923828,-3.58789 -1.161022,7.10945 -1.396644,13.43303 -0.197265,18.2793 l 0.207031,0.83203 0.845703,-0.12305 c 4.789338,-0.69043 10.361017,-3.15565 16.298828,-6.7207 0.262106,6.92069 1.24408,12.93283 3.285156,17.32031 l 0.363282,0.77539 0.80664,-0.28125 c 4.712476,-1.64574 9.878704,-5.30326 15.195313,-10.16016 1.642163,7.01215 3.839983,12.94834 6.798823,16.96875 l 0.50977,0.6875 0.73438,-0.43554 c 4.32818,-2.56521 8.70458,-7.22371 12.98828,-13.10157 3.02638,6.61385 6.38688,12.05108 10.11718,15.42774 l 0.63477,0.57422 0.63477,-0.57422 c 3.70063,-3.34981 7.03612,-8.72763 10.04296,-15.27149 4.24204,5.81911 8.57705,10.43224 12.86719,12.98438 l 0.73438,0.4375 0.50976,-0.68945 c 2.87452,-3.89247 5.03557,-9.58698 6.67188,-16.31641 5.10783,4.67678 10.07536,8.20286 14.63086,9.83398 l 0.80664,0.28711 0.36718,-0.77148 c 2.14102,-4.50944 3.17011,-10.75383 3.44922,-17.95117 6.14319,3.75967 11.90995,6.36755 16.84961,7.08789 l 0.84766,0.12109 0.20703,-0.82812 c 1.14363,-4.5888 0.99879,-10.50855 0.004,-17.16407 6.32406,2.30135 12.09731,3.62207 16.82226,3.41602 l 0.85547,-0.0391 0.0469,-0.85352 c 0.27866,-4.98401 -1.12821,-11.15461 -3.58789,-17.92383 7.10944,1.16102 13.43303,1.39665 18.27929,0.19727 l 0.83203,-0.20703 -0.12304,-0.8457 c -0.69043,-4.78934 -3.15565,-10.36102 -6.72071,-16.29883 6.92069,-0.26211 12.93283,-1.24409 17.32032,-3.28516 l 0.77539,-0.36328 -0.28125,-0.80664 c -1.64574,-4.71248 -5.30327,-9.87871 -10.16016,-15.19531 7.01214,-1.64217 12.94834,-3.83998 16.96875,-6.79883 l 0.6875,-0.50977 -0.43555,-0.73437 c -2.56521,-4.32819 -7.2237,-8.70459 -13.10156,-12.98828 6.61385,-3.02639 12.05107,-6.3869 15.42774,-10.11719 l 0.57421,-0.63477 -0.57421,-0.63476 c -3.34982,-3.70065 -8.72763,-7.03613 -15.27149,-10.04297 5.81911,-4.24204 10.43223,-8.57706 12.98438,-12.86719 l 0.4375,-0.73437 -0.68946,-0.50977 c -3.89247,-2.874523 -9.58697,-5.035566 -16.3164,-6.671874 4.67678,-5.107839 8.20284,-10.07538 9.83398,-14.63086 l 0.28711,-0.80664 -0.77148,-0.367188 c -4.50945,-2.141019 -10.75384,-3.170112 -17.95118,-3.449219 3.75967,-6.14319 6.36753,-11.909959 7.0879,-16.849609 l 0.12109,-0.847656 -0.82813,-0.207032 c -4.58881,-1.143627 -10.50854,-0.998787 -17.16406,-0.0039 2.30135,-6.324071 3.62206,-12.097321 3.41602,-16.822265 l -0.0391,-0.855469 -0.85351,-0.04687 c -4.98402,-0.278675 -11.15461,1.12821 -17.92383,3.587891 1.16102,-7.109452 1.39663,-13.433034 0.19727,-18.279297 l -0.20704,-0.832032 -0.8457,0.123047 c -4.78934,0.690426 -10.36102,3.155649 -16.29883,6.720703 -0.26211,-6.920691 -1.24409,-12.932831 -3.28515,-17.320312 l -0.36328,-0.775391 -0.80664,0.28125 c -4.71249,1.645737 -9.87871,5.303263 -15.19532,10.160156 -1.64216,-7.012143 -3.83998,-12.948335 -6.79882,-16.9687495 l -0.50977,-0.6875 -0.73438,0.4355469 c -4.32819,2.5652137 -8.70458,7.2237036 -12.98828,13.1015626 -3.02638,-6.613851 -6.3869,-12.051077 -10.11718,-15.4277345 z m 0,2.7480468 c 3.33085,3.3014834 6.51251,8.6207384 9.43555,15.1035154 -3.20129,4.597122 -6.34221,9.827256 -9.36133,15.353516 -3.04006,-5.586411 -6.20676,-10.870855 -9.4336,-15.505859 C 121.5423,15.609382 124.6961,10.347032 128,7.0722656 Z m -23.73633,2.3691406 c 3.88643,2.5570728 8.0206,7.0913848 12.13477,12.8027348 -2.16043,4.98401 -4.14757,10.546123 -5.96485,16.371093 -4.06264,-4.879976 -8.18494,-9.427947 -12.238278,-13.310546 1.555878,-6.577957 3.558728,-12.121551 6.068358,-15.8632818 z m 47.66602,0.041016 C 154.51471,13.350195 156.55432,19.13589 158.11914,26 c -4.08531,3.898592 -8.24018,8.445042 -12.33203,13.3125 -1.85687,-6.016759 -3.8927,-11.767703 -6.11328,-16.910156 4.15638,-5.770063 8.33371,-10.348542 12.25586,-12.9199221 z M 82.152344,16.171875 c 4.168852,1.709377 8.920392,5.196412 13.876953,9.792969 -1.202946,5.482036 -2.094746,11.555591 -2.75,17.871094 -4.752074,-3.823321 -9.497439,-7.334866 -14.066406,-10.269532 0.231314,-7.037866 1.136354,-13.105712 2.939453,-17.394531 z m 92.564456,0.363281 c 1.71344,4.166772 2.57178,9.998101 2.78515,16.753906 -4.74558,2.99663 -9.69305,6.631546 -14.64648,10.603516 -0.61982,-6.071206 -1.45624,-11.917255 -2.58008,-17.232422 5.1695,-4.77629 10.12346,-8.393956 14.44141,-10.125 z m -56.99805,7.583985 c 3.16565,4.592037 6.30333,9.830249 9.28906,15.382812 -2.16486,4.050862 -4.24691,8.222869 -6.2207,12.386719 -2.8727,-3.912592 -5.86116,-7.811501 -8.91602,-11.550781 1.77359,-5.778596 3.73882,-11.288889 5.84766,-16.21875 z m 20.63672,0.15625 c 2.16975,5.088027 4.18571,10.787755 5.99609,16.759765 -3.02173,3.662475 -5.97693,7.468337 -8.82031,11.285156 -2.02552,-4.307031 -4.1635,-8.627164 -6.39453,-12.818359 2.96451,-5.491501 6.07843,-10.673171 9.21875,-15.226562 z m -77.236329,3.152343 c 4.568425,0.87907 10.120397,3.49229 16.103515,7.203125 -0.09037,5.305736 0.184129,11.058113 0.705078,16.986329 C 72.291583,48.63008 66.72931,45.981951 61.496094,43.939453 60.483477,37.457497 60.249429,31.741285 61.119141,27.427734 Z m 133.923829,0.109375 c 0.91216,4.562578 0.58862,10.689236 -0.58789,17.632813 -5.06185,1.964986 -10.41179,4.458664 -15.83008,7.257812 0.61683,-6.320194 0.95533,-12.450196 0.86914,-18.0625 5.77282,-3.515455 11.12337,-5.984075 15.54883,-6.828125 z m -97.351564,0.0039 c 3.980904,3.853269 8.066254,8.361762 12.070314,13.216796 -1.38357,4.583761 -2.64453,9.285501 -3.79688,13.958985 -3.5614,-3.239307 -7.233021,-6.440792 -10.935543,-9.476563 0.62053,-6.262275 1.502484,-12.281688 2.662109,-17.699218 z m 60.914064,0.697265 c 1.08357,5.250805 1.91191,11.041129 2.49805,17.056641 -3.73844,3.054996 -7.4429,6.280097 -11.03711,9.541016 -1.10433,-4.474371 -2.31282,-8.977312 -3.62696,-13.378907 4.03131,-4.844494 8.14999,-9.350779 12.16602,-13.21875 z m 18.94531,7.339844 c 0.0565,5.540763 -0.28163,11.615442 -0.92187,17.876953 -4.23368,2.237059 -8.46793,4.642873 -12.60352,7.107422 -0.19796,-4.810822 -0.4952,-9.670856 -0.9375,-14.439453 4.89193,-3.959899 9.79325,-7.562602 14.46289,-10.544922 z m -98.388671,0.283203 c 4.495359,2.918542 9.193153,6.398115 13.882813,10.207031 -0.424999,4.502301 -0.726027,9.091182 -0.931641,13.638672 -3.968191,-2.419261 -8.025679,-4.780233 -12.080078,-6.980469 -0.03983,-0.02162 -0.07931,-0.04091 -0.119141,-0.0625 C 79.372081,46.794576 79.0982,41.098399 79.162109,35.861328 Z m 48.908201,5.654297 c 2.15991,4.109316 4.22962,8.333455 6.18946,12.539063 -2.07447,2.82242 -4.09965,5.641714 -6.00586,8.398437 -1.9661,-2.891572 -4.05837,-5.85252 -6.20508,-8.816406 1.91061,-4.066918 3.92496,-8.148431 6.02148,-12.121094 z m -84.439451,0.201172 c 4.400114,0.0075 9.955805,1.37402 16.105469,3.658203 0.958645,5.535732 2.44613,11.513844 4.25,17.632812 C 58.279477,61.315231 52.696899,59.900434 47.478516,58.931641 45.035314,52.329187 43.581708,46.368528 43.630859,41.716797 Z m 67.585941,0.818359 c 2.96872,3.67394 5.87094,7.491385 8.66015,11.314453 -1.54518,3.315361 -3.03546,6.618244 -4.41601,9.830079 -2.52378,-2.470023 -5.18575,-4.984907 -7.9043,-7.490235 1.11301,-4.562019 2.32947,-9.159247 3.66016,-13.654297 z m 102.19336,0.222656 c -0.008,4.400115 -1.37402,9.955805 -3.65821,16.105469 -5.53573,0.958645 -11.51384,2.446128 -17.63281,4.25 1.69259,-5.70685 3.10738,-11.28943 4.07617,-16.507812 6.60246,-2.443202 12.56311,-3.896805 17.21485,-3.847657 z m -68.41407,0.460938 c 1.26228,4.310099 2.4233,8.712284 3.48438,13.078125 -2.69433,2.476514 -5.33476,4.960551 -7.83789,7.402344 -1.31843,-3.081202 -2.74073,-6.24654 -4.21094,-9.425781 2.75917,-3.730258 5.6285,-7.458152 8.56445,-11.054688 z m -83.123043,2.978516 c 5.155448,2.044492 10.66867,4.671659 16.244141,7.658203 0.0044,0.04533 0.0073,0.08942 0.01172,0.134765 0.46425,4.745755 1.088598,9.557983 1.802735,14.304688 -4.510327,-1.645981 -9.103525,-3.2142 -13.66211,-4.615234 -0.04332,-0.01332 -0.0856,-0.02577 -0.128906,-0.03906 C 64.325369,57.582042 62.848873,51.65657 61.873047,46.197266 Z m 132.175783,1.230468 c -0.98127,5.144166 -2.38517,10.67148 -4.08594,16.314454 -0.0436,0.01329 -0.0873,0.0238 -0.13086,0.03711 -4.41153,1.347944 -8.85648,2.851716 -13.22656,4.431641 0.70479,-4.497837 1.32377,-9.053912 1.80469,-13.550782 5.35414,-2.797396 10.65219,-5.268903 15.63867,-7.232422 z m -99.226564,0.0957 c 3.605753,2.988942 7.178144,6.128285 10.640624,9.296874 -0.80502,3.358669 -1.56825,6.698039 -2.25,9.941407 -2.97374,-1.966833 -6.088226,-3.947375 -9.253906,-5.90625 0.189387,-4.437831 0.470657,-8.921545 0.863282,-13.332031 z m 66.484374,0.05273 c 0.40805,4.670851 0.68387,9.420009 0.86524,14.113281 -3.16239,1.912694 -6.27346,3.84472 -9.23829,5.761719 -0.71282,-3.423344 -1.51556,-6.957827 -2.36914,-10.515625 3.49492,-3.189935 7.10113,-6.35133 10.74219,-9.359375 z m -81.167968,7.376953 c 3.996731,2.194136 7.993397,4.534192 11.896484,6.927734 -0.143439,3.719316 -0.238503,7.40737 -0.267578,10.972657 -3.165567,-1.283938 -6.463553,-2.553417 -9.802734,-3.796875 -0.714661,-4.672894 -1.344773,-9.41693 -1.826172,-14.103516 z m 41.001948,0.65625 c 2.06056,2.862997 4.06931,5.719973 5.95508,8.505859 -1.57978,2.311078 -3.08112,4.564153 -4.49414,6.732422 -1.79906,-1.859431 -3.69999,-3.787765 -5.68945,-5.755859 1.32216,-3.093795 2.74925,-6.279862 4.22851,-9.482422 z m 55.23633,0.123047 c -0.49444,4.400622 -1.11342,8.851192 -1.8125,13.238281 -3.49095,1.28834 -6.93716,2.609138 -10.24218,3.943359 -0.0216,-3.314795 -0.10304,-6.740694 -0.22266,-10.193359 4.02386,-2.414285 8.14896,-4.778534 12.27734,-6.988281 z m -41.21875,0.289062 c 1.40649,3.06937 2.76726,6.123377 4.0293,9.089844 -1.92423,1.897364 -3.75488,3.749451 -5.50195,5.546875 -1.35419,-2.109863 -2.78135,-4.289975 -4.28907,-6.533203 1.82815,-2.655668 3.77135,-5.376236 5.76172,-8.103516 z m -28.10156,2.28125 c 2.61419,2.423725 5.17352,4.851984 7.59766,7.234375 -1.02655,2.424043 -1.98317,4.769888 -2.89063,7.042969 -2.17656,-1.527208 -4.4678,-3.100684 -6.85351,-4.697266 0.64942,-3.123085 1.37847,-6.34071 2.14648,-9.580078 z m 41.91797,0.107422 c 0.81101,3.433688 1.57487,6.841316 2.25391,10.136719 -2.34264,1.532605 -4.59055,3.041692 -6.72461,4.505859 -0.95278,-2.405934 -1.9753,-4.913169 -3.0625,-7.492187 2.40371,-2.354649 4.94272,-4.755062 7.5332,-7.150391 z M 33.628906,59.564453 c 3.642469,-0.07373 7.853603,0.334705 12.414063,1.107422 1.964986,5.061846 4.458666,10.41178 7.257812,15.830078 -6.320194,-0.616829 -12.450195,-0.955326 -18.0625,-0.869141 -3.515457,-5.772823 -5.984078,-11.123373 -6.828125,-15.548828 1.565931,-0.313059 3.31534,-0.481001 5.21875,-0.519531 z m 187.205074,0.146485 c 2.54854,-0.03761 4.85793,0.130437 6.86524,0.535156 -0.87907,4.568425 -3.49229,10.120397 -7.20313,16.103515 -5.30573,-0.09037 -11.05811,0.184126 -16.98632,0.705079 2.98723,-5.636393 5.63715,-11.198231 7.67968,-16.431641 3.46275,-0.538969 6.71792,-0.868916 9.64453,-0.912109 z m -11.90039,1.285156 c -2.04476,5.156792 -4.67465,10.670885 -7.66211,16.248047 -0.0453,0.0044 -0.0894,0.0073 -0.13476,0.01172 -4.74576,0.464244 -9.55798,1.088596 -14.30469,1.802735 1.64596,-4.510264 3.21416,-9.103378 4.61524,-13.66211 0.0133,-0.04332 0.0258,-0.0856 0.0391,-0.128906 5.12681,-1.53608 10.16772,-2.845305 14.90234,-3.796875 0.861,-0.173045 1.70504,-0.324908 2.54492,-0.474609 z m -160.632809,0.08203 c 5.144165,0.981265 10.671479,2.385167 16.314453,4.085937 0.01328,0.04356 0.02379,0.08729 0.03711,0.13086 1.347949,4.411533 2.851718,8.856474 4.43164,13.226562 C 64.586087,77.816683 60.029938,77.197698 55.533203,76.716797 52.735807,71.362652 50.2643,66.064599 48.300781,61.078125 Z m 45.585938,1.962891 c 3.048505,1.897342 6.046612,3.812607 8.906251,5.71289 -0.57046,2.789026 -1.08698,5.489442 -1.55859,8.083985 -2.416334,-1.05771 -4.951204,-2.136998 -7.582036,-3.220703 0.02058,-3.433213 0.105086,-6.988391 0.234375,-10.576172 z m 68.353511,0.816406 c 0.10696,3.328259 0.17946,6.627871 0.19336,9.818359 -2.65794,1.089822 -5.21367,2.175161 -7.65234,3.238281 -0.43676,-2.409451 -0.90861,-4.899272 -1.43164,-7.480468 2.85104,-1.851895 5.84499,-3.721725 8.89062,-5.576172 z m -34,1.953125 c 1.43559,2.146115 2.8021,4.238271 4.09571,6.257812 -1.411,1.468357 -2.80902,2.928479 -4.0625,4.28125 l -0.10156,0.111329 -0.0605,0.132812 c -0.0244,0.05214 -0.046,0.102275 -0.0703,0.154297 -0.0241,-0.05212 -0.0441,-0.102065 -0.0684,-0.154297 l -0.0625,-0.134766 -0.0996,-0.109375 c -1.19243,-1.291105 -2.52927,-2.689021 -3.86524,-4.085937 1.35188,-2.078316 2.78857,-4.238998 4.29492,-6.453125 z m -61.425777,0.03125 c 4.497477,1.406196 9.019652,2.967379 13.457031,4.599609 0.553163,3.519603 1.140351,7.003369 1.767578,10.361328 -3.498958,-0.682011 -7.133523,-1.323233 -10.80664,-1.923828 -1.567362,-4.301903 -3.064564,-8.683325 -4.417969,-13.037109 z m 122.470707,0.09961 c -1.4062,4.497479 -2.96738,9.019653 -4.59961,13.457032 -3.51961,0.553162 -7.00337,1.140352 -10.36133,1.767578 0.68204,-3.499048 1.32324,-7.133571 1.92383,-10.806641 4.30225,-1.567399 8.68302,-3.06445 13.03711,-4.417969 z m -73.17383,1.03125 c 1.8995,1.887409 3.7194,3.736454 5.4414,5.519532 -1.0456,1.624961 -2.09051,3.252342 -3.01562,4.746093 l -0.0781,0.126953 -0.01,0.04297 -0.0254,-0.03516 -0.11914,-0.08789 c -1.52872,-1.130398 -3.23536,-2.346321 -4.95313,-3.566406 0.86658,-2.176274 1.78387,-4.427394 2.75977,-6.746094 z m 23.875,0.01953 c 1.03495,2.470235 2.0113,4.873613 2.92187,7.179687 -1.58743,1.102696 -3.17574,2.206868 -4.60156,3.234375 l -0.12109,0.08789 -0.0859,0.11914 c -0.0342,0.04628 -0.0636,0.09052 -0.0977,0.136719 -0.0134,-0.05587 -0.0236,-0.108048 -0.0371,-0.164062 l -0.0352,-0.144532 -0.0762,-0.126953 c -0.95895,-1.575864 -2.03647,-3.287277 -3.12696,-5.007812 1.66946,-1.72072 3.4264,-3.49869 5.25977,-5.314453 z m -35.49414,2.886718 c 2.28474,1.536202 4.47831,3.049374 6.56054,4.515625 -0.77249,1.967202 -1.52916,3.910137 -2.19335,5.699219 l -0.0508,0.140625 v 0.04297 l -0.0332,-0.0293 -0.13281,-0.0625 c -1.74475,-0.81637 -3.68006,-1.682698 -5.63281,-2.550781 0.44777,-2.486922 0.94131,-5.08087 1.48242,-7.75586 z m 47.14648,0.669922 c 0.49431,2.467354 0.94384,4.856439 1.35938,7.16211 -1.92556,0.852608 -3.8379,1.703151 -5.56055,2.505859 l -0.13477,0.0625 -0.0351,0.0293 v -0.04297 l -0.0527,-0.138672 c -0.60903,-1.648763 -1.30841,-3.45244 -2.00976,-5.253906 2.04318,-1.404588 4.19602,-2.853284 6.43359,-4.324219 z m 22.5625,0.576172 c -0.5886,3.542637 -1.21459,7.044783 -1.8789,10.414062 -2.79627,0.53804 -5.49008,1.091451 -8.07032,1.646485 0.0546,-2.637902 0.0851,-5.390527 0.082,-8.238281 3.1809,-1.29213 6.50164,-2.570829 9.86719,-3.822266 z m -91.890623,0.08398 c 3.21714,1.207361 6.3939,2.438691 9.439453,3.681641 -0.0075,2.750041 0.01921,5.397948 0.06641,7.953125 -2.494614,-0.555591 -5.084891,-1.111576 -7.78125,-1.652344 C 83.4242,77.959261 82.852297,74.602248 82.310547,71.208984 Z M 133.375,73.724609 c 0.9613,1.52016 1.92521,3.043229 2.7793,4.445313 0.1361,0.567072 0.243,1.101163 0.36523,1.652344 -1.76055,2.527026 -3.23273,4.926706 -4.48633,7.240234 -0.76737,-2.517896 -1.73104,-5.163988 -2.95312,-7.992188 0.22923,-0.514801 0.44156,-1.015403 0.6875,-1.542968 1.11623,-1.203532 2.36245,-2.504484 3.60742,-3.802735 z m -10.47656,0.1875 c 1.17256,1.228565 2.35939,2.468331 3.41601,3.611329 0.24553,0.528968 0.45481,1.032694 0.6836,1.548828 -1.1387,2.623697 -2.05831,5.090862 -2.80274,7.445312 -1.20564,-2.242683 -2.61494,-4.569461 -4.28515,-7.015625 0.1088,-0.467205 0.20148,-0.916009 0.32031,-1.394531 0.82037,-1.323252 1.74999,-2.765726 2.66797,-4.195313 z m -10.25586,1.626953 c 1.51855,1.082652 3.04277,2.16759 4.41015,3.177735 0.28838,0.401409 0.54159,0.785102 0.81641,1.179687 -0.67327,3.017991 -1.12995,5.807633 -1.41602,8.433594 -1.67622,-2.04282 -3.58397,-4.129805 -5.79882,-6.289062 0.0143,-0.479495 0.0153,-0.937118 0.0371,-1.429688 0.59304,-1.595175 1.26936,-3.330951 1.95117,-5.072266 z M 93.636719,75.65625 c 2.522636,1.045547 4.951624,2.08588 7.265621,3.103516 -0.36236,2.060306 -0.71935,4.109893 -1.011715,5.978515 -1.920293,-0.479045 -4.031381,-0.969166 -6.173828,-1.458984 -0.04931,-2.44706 -0.08156,-4.988128 -0.08008,-7.623047 z m 68.810551,0.05664 c -0.003,2.730252 -0.0369,5.371895 -0.0937,7.898437 -2.08574,0.461088 -4.15367,0.922849 -6.0254,1.375 l -0.14453,0.0332 -0.0391,0.02344 0.008,-0.04297 -0.0234,-0.146484 c -0.2943,-1.885727 -0.64643,-3.941469 -1.01172,-6.023438 2.33295,-1.021996 4.7849,-2.067165 7.33008,-3.117187 z m -18.83985,0.283203 c 0.61457,1.583651 1.2372,3.182408 1.77735,4.642578 0.0211,0.49273 0.0216,0.952002 0.0351,1.43164 -2.12405,2.063999 -3.96746,4.064214 -5.5957,6.021485 -0.26011,-2.456897 -0.67035,-5.0598 -1.26367,-7.859375 0.32648,-0.459318 0.63312,-0.908429 0.97851,-1.376953 1.26367,-0.909767 2.67371,-1.888489 4.06836,-2.859375 z M 38.564453,77.5625 c 4.954273,0.03536 10.293296,0.376195 15.763672,0.935547 2.23706,4.233681 4.642873,8.467923 7.107422,12.603515 -4.810888,0.197964 -9.671001,0.495214 -14.439453,0.9375 -3.959902,-4.891931 -7.5626,-9.793245 -10.544922,-14.46289 0.700155,-0.0074 1.396533,-0.01879 2.113281,-0.01367 z m -4.402344,0.0625 c 2.996631,4.745586 6.631546,9.693049 10.603516,14.646484 -6.071206,0.619822 -11.917254,1.45624 -17.232422,2.580078 -4.776291,-5.169499 -8.393957,-10.123461 -10.125,-14.441406 4.166271,-1.713215 10.000655,-2.568897 16.753906,-2.785156 z m 183.660161,0.640625 c 0.48984,3.37e-4 0.96121,0.01342 1.44335,0.01953 -2.9189,4.496193 -6.39733,9.196101 -10.20703,13.886719 -4.50229,-0.425004 -9.09118,-0.72603 -13.63867,-0.931641 2.41923,-3.968137 4.78017,-8.025549 6.98047,-12.080078 0.0216,-0.03983 0.0409,-0.07931 0.0625,-0.11914 5.32931,-0.492103 10.53009,-0.778717 15.35938,-0.775391 z m 3.74218,0.06836 c 7.03442,0.23482 13.10226,1.142408 17.39063,2.945313 -1.70938,4.168853 -5.19641,8.920392 -9.79297,13.876953 -5.48204,-1.202947 -11.5556,-2.094754 -17.87109,-2.75 3.82497,-4.754133 7.33801,-9.501473 10.27343,-14.072266 z M 56.605469,78.75 c 4.40062,0.494441 8.851192,1.113419 13.238281,1.8125 1.288338,3.49095 2.609134,6.937162 3.943359,10.242188 -3.314709,0.02162 -6.740653,0.10303 -10.193359,0.222656 C 61.179464,87.003482 58.815216,82.878381 56.605469,78.75 Z m 143.568361,0.515625 c -2.19414,3.996733 -4.53419,7.993397 -6.92774,11.896484 -3.71931,-0.143437 -7.40736,-0.238496 -10.97265,-0.267578 1.28398,-3.165642 2.55343,-6.463596 3.79687,-9.802734 4.67319,-0.714616 9.41668,-1.344724 14.10352,-1.826172 z M 102.68164,79.5625 c 1.72708,0.771517 3.4552,1.54409 5.01563,2.273438 0.36205,0.336466 0.68579,0.663635 1.0332,0.996093 -0.0607,2.965279 0.0341,5.687023 0.25195,8.226563 -2.0794,-1.701381 -4.40157,-3.401638 -7.04687,-5.115235 -0.0539,-0.321463 -0.11629,-0.62123 -0.16797,-0.949218 0.26641,-1.701899 0.58962,-3.567663 0.91406,-5.431641 z m 50.64844,0.07227 c 0.32112,1.842395 0.6391,3.677733 0.90234,5.359375 -0.0768,0.48717 -0.16645,0.937315 -0.24804,1.410156 -2.6012,1.67475 -4.88759,3.339726 -6.9375,5.007812 0.24327,-2.631393 0.35514,-5.455817 0.29687,-8.548828 0.34727,-0.331217 0.67133,-0.656999 1.0332,-0.992187 1.54079,-0.717096 3.24973,-1.47822 4.95313,-2.236328 z m -81.332033,1.291015 c 3.542637,0.588599 7.044781,1.214591 10.414062,1.878907 0.537912,2.795611 1.091581,5.488663 1.646485,8.068359 -2.637811,-0.05506 -5.390085,-0.08516 -8.238282,-0.08203 -1.292009,-3.180642 -2.570892,-6.500037 -3.822265,-9.865235 z M 183.91797,81.4375 c -1.20736,3.21714 -2.43869,6.393904 -3.68164,9.439453 -2.75005,-0.0075 -5.39794,0.02116 -7.95313,0.06836 0.55543,-2.495826 1.10943,-5.086025 1.65039,-7.783203 3.23261,-0.611057 6.59056,-1.182839 9.98438,-1.724609 z m -55.88086,0.06055 c 1.16267,2.845364 2.05475,5.49275 2.74023,8.003906 -1.04602,2.155772 -1.90281,4.241534 -2.58398,6.275391 -0.70888,-2.206132 -1.62408,-4.477082 -2.76172,-6.833985 0.66901,-2.343936 1.5246,-4.812231 2.60547,-7.445312 z m -8.69336,0.570312 c 1.61785,2.471523 2.96262,4.811863 4.08984,7.060547 -0.67953,2.527425 -1.15629,4.928086 -1.44336,7.228516 -1.08204,-1.934748 -2.35955,-3.88939 -3.85156,-5.88086 0.20654,-2.603513 0.59175,-5.382148 1.20508,-8.408203 z m 17.71484,0.337891 c 0.53433,2.795077 0.882,5.384383 1.07032,7.814453 -1.58524,2.083704 -2.93355,4.127104 -4.06836,6.148438 -0.26221,-2.129523 -0.68772,-4.345963 -1.28321,-6.667969 1.17212,-2.323376 2.57519,-4.738879 4.28125,-7.294922 z m -52.646481,0.789062 c 2.582561,0.523778 5.065386,1.059843 7.453125,1.595704 0.05294,2.197263 0.112509,4.364364 0.199219,6.341796 -1.889142,-0.08591 -3.967665,-0.145584 -6.058594,-0.201171 -0.536043,-2.470315 -1.072057,-5.056274 -1.59375,-7.736329 z m 87.519531,0.34375 c -0.52378,2.582563 -1.05984,5.065387 -1.5957,7.453126 -2.19727,0.05294 -4.36437,0.112506 -6.3418,0.199218 0.0859,-1.888886 0.144,-3.9676 0.19922,-6.058594 2.47085,-0.536172 5.05758,-1.071929 7.73828,-1.59375 z m -61.32617,1.13086 c 2.1698,2.199383 4.01353,4.314984 5.61133,6.382812 -0.15971,2.481645 -0.1618,4.816825 -0.01,7.027344 -1.49672,-1.767099 -3.21091,-3.514814 -5.16211,-5.257812 -0.2869,-2.500807 -0.44225,-5.195747 -0.43945,-8.152344 z m 34.85742,0.02734 c -0.002,3.088526 -0.17567,5.889412 -0.49219,8.482422 -1.85879,1.654106 -3.50332,3.313956 -4.94922,4.99414 0.17721,-2.311453 0.18925,-4.758857 0.0274,-7.371094 1.55295,-1.979106 3.33549,-4.005416 5.41406,-6.105468 z m -51.693359,0.535156 c 1.942373,0.447614 3.870656,0.896449 5.625,1.333984 0.283107,0.175911 0.536308,0.350002 0.812499,0.525391 0.54337,3.070571 1.19763,5.845428 1.94531,8.400391 -2.35517,-1.242465 -4.944447,-2.437371 -7.845699,-3.582032 -0.116375,-0.304465 -0.236054,-0.587142 -0.351563,-0.898437 -0.07909,-1.806665 -0.13396,-3.785813 -0.185547,-5.779297 z m 68.521489,0.332031 c -0.0535,1.890227 -0.10937,3.781568 -0.1875,5.501953 -0.11646,0.312299 -0.2362,0.594973 -0.35352,0.900391 -2.9332,1.151784 -5.54753,2.355165 -7.92383,3.607422 0.72,-2.446146 1.35495,-5.094543 1.88672,-8.013672 0.40589,-0.25602 0.78798,-0.510553 1.20899,-0.767578 1.67449,-0.403688 3.52277,-0.816632 5.36914,-1.228516 z m -59.90235,2.941406 c 2.6132,1.763006 4.8774,3.504985 6.88281,5.246094 0.33655,2.596135 0.81264,4.99693 1.42579,7.232427 -1.83891,-1.453962 -3.89236,-2.843939 -6.1836,-4.181646 -0.81178,-2.501469 -1.52475,-5.238891 -2.125,-8.296875 z m 51.11914,0.482422 c -0.5864,2.897676 -1.27534,5.509065 -2.05469,7.902344 -2.2593,1.318778 -4.28655,2.68973 -6.10546,4.123045 0.58995,-2.137204 1.05441,-4.42699 1.39257,-6.892576 1.97689,-1.706676 4.20432,-3.410947 6.76758,-5.132813 z m -28.8125,2.84375 c 1.08924,2.496753 1.9189,4.893907 2.51758,7.230469 -0.58168,2.26488 -0.96132,4.49221 -1.21094,6.7168 -0.65814,-2.1398 -1.4453,-4.25729 -2.4375,-6.375003 0.15444,-2.407026 0.52348,-4.91613 1.13086,-7.572266 z m 6.79883,0.595703 c 0.52403,2.439148 0.84896,4.755837 0.98828,6.984375 -0.9098,1.933611 -1.65088,3.867871 -2.27734,5.818361 -0.22527,-2.03662 -0.56611,-4.08002 -1.07227,-6.156251 0.58066,-2.155809 1.36184,-4.361376 2.36133,-6.646485 z m -54.908202,0.251954 c 2.730249,0.0029 5.371893,0.03695 7.898437,0.09375 0.461088,2.085729 0.922847,4.153664 1.375,6.02539 l 0.0332,0.144531 0.02344,0.03906 -0.04297,-0.0078 -0.146485,0.02344 c -1.885725,0.294294 -3.941468,0.646423 -6.023437,1.011723 -1.021996,-2.332959 -2.067166,-4.784905 -3.117187,-7.330082 z m -2.03711,0.01367 c 1.089818,2.657939 2.17516,5.213675 3.238281,7.652341 -2.409451,0.43676 -4.899272,0.90862 -7.480468,1.43164 -1.851895,-2.851031 -3.721725,-5.844985 -5.576172,-8.890621 3.328259,-0.106956 6.62787,-0.179459 9.818359,-0.19336 z m 104.921872,0.07031 c -1.04554,2.522637 -2.08588,4.951619 -3.10351,7.265628 -2.06031,-0.362364 -4.1099,-0.719351 -5.97852,-1.011722 0.47887,-1.919563 0.96965,-4.031804 1.45899,-6.173828 2.44706,-0.04931 4.98812,-0.08156 7.62304,-0.08008 z m 2.03711,0.01563 c 3.43382,0.02057 6.98965,0.105132 10.57813,0.234375 -1.89734,3.048505 -3.81261,6.046619 -5.71289,8.906248 -2.79046,-0.57074 -5.49215,-1.08873 -8.08789,-1.56054 1.05808,-2.41801 2.13826,-4.945715 3.22265,-7.57813 z m -95.07031,0.05664 c 1.890227,0.05349 3.781569,0.109362 5.501953,0.1875 0.312299,0.116462 0.594973,0.236196 0.900391,0.353515 1.151785,2.933198 2.355166,5.547533 3.607422,7.923827 -2.446145,-0.71999 -5.094543,-1.354945 -8.013672,-1.886718 -0.25602,-0.40589 -0.510553,-0.787999 -0.767578,-1.208984 C 87.262328,96.53058 86.849384,94.6823 86.4375,92.835938 Z m 83.45703,0.06055 c -0.44761,1.942372 -0.89645,3.870654 -1.33398,5.625 -0.17591,0.283107 -0.35,0.536307 -0.52539,0.8125 -3.07057,0.543363 -5.84543,1.197626 -8.40039,1.945316 1.24253,-2.354811 2.43731,-4.944548 3.58203,-7.845706 0.30447,-0.116366 0.58714,-0.236053 0.89843,-0.351563 1.80667,-0.07909 3.78582,-0.13396 5.7793,-0.185547 z M 62.5625,92.955078 c 1.912694,3.162386 3.844719,6.273453 5.761719,9.238282 -3.423345,0.71283 -6.957826,1.51556 -10.515625,2.36914 -3.189936,-3.49492 -6.351329,-7.101133 -9.359375,-10.742188 4.67085,-0.408051 9.420008,-0.683868 14.113281,-0.865234 z m 131.70898,0.13086 c 4.43755,0.189291 8.92186,0.470715 13.33204,0.863281 -2.98896,3.605752 -6.12829,7.178141 -9.29688,10.640621 -3.35867,-0.80502 -6.69804,-1.56824 -9.94141,-2.25 1.9669,-2.973798 3.9474,-6.088267 5.90625,-9.253902 z m -55.99804,0.113281 c 0.0657,2.724376 -0.072,5.25691 -0.40039,7.646481 -1.39522,1.87857 -2.58853,3.799 -3.66016,5.76563 0.19948,-2.23161 0.27103,-4.49271 0.15234,-6.83008 1.05242,-2.170407 2.34338,-4.352809 3.90821,-6.582031 z m -20.29102,0.269531 c 1.47062,2.132328 2.69345,4.223883 3.69727,6.302734 -0.11629,2.218636 -0.0611,4.368526 0.11133,6.490236 -1.01584,-1.87092 -2.14619,-3.69993 -3.45704,-5.49414 -0.29639,-2.289529 -0.41628,-4.709427 -0.35156,-7.29883 z m -71.814451,0.554688 c 3.054997,3.738432 6.280097,7.442902 9.541015,11.037112 -4.47437,1.10432 -8.977314,2.31281 -13.378906,3.62695 -4.845685,-4.0323 -9.354054,-8.15101 -13.222656,-12.167969 0.475024,-0.09824 0.938101,-0.200933 1.421875,-0.294922 C 35.39276,95.279728 40.69499,94.55671 46.167969,94.023438 Z M 209.88672,94.15625 c 6.26227,0.620525 12.28169,1.502486 17.69922,2.662109 -3.85327,3.980901 -8.36176,8.066251 -13.2168,12.070311 -4.58376,-1.38357 -9.2855,-2.64453 -13.95898,-3.79687 3.2393,-3.5614 6.44079,-7.233028 9.47656,-10.93555 z M 95.257812,94.332031 c 2.877415,1.197885 5.418948,2.443979 7.708988,3.738281 0.85361,2.510488 1.8074,4.797688 2.86523,6.888668 -2.06832,-1.04637 -4.32775,-1.99066 -6.804686,-2.83789 -1.306332,-2.31175 -2.56285,-4.877133 -3.769532,-7.789059 z m 65.537108,0.05273 c -1.19788,2.877414 -2.44398,5.41895 -3.73828,7.708984 -2.51049,0.85362 -4.79769,1.8074 -6.88867,2.86523 1.04637,-2.06832 1.99066,-4.32775 2.83789,-6.804683 2.31175,-1.306331 4.87714,-2.562851 7.78906,-3.769531 z m -49.33008,1.378906 c 1.95951,1.893393 3.64271,3.793714 5.08985,5.726558 0.32708,2.31357 0.8256,4.5162 1.44336,6.66602 -1.42456,-1.72489 -2.961,-3.37982 -4.68555,-4.95703 -0.77707,-2.28527 -1.39371,-4.747573 -1.84766,-7.435548 z m 33.06055,0.376953 c -0.45257,2.550663 -1.05194,4.899215 -1.79883,7.083985 -1.64101,1.49588 -3.11269,3.06178 -4.48047,4.69141 0.59179,-2.04407 1.07226,-4.13946 1.40039,-6.33594 1.39802,-1.83702 3.01315,-3.643383 4.87891,-5.439455 z M 26.867188,97.001953 c 3.899851,4.087237 8.448523,8.244037 13.318359,12.337887 -6.016762,1.85688 -11.767703,3.89271 -16.910156,6.11328 -5.770063,-4.15636 -10.348542,-8.33371 -12.919922,-12.25585 3.867377,-2.58474 9.650656,-4.628079 16.511719,-6.195317 z m 202.955082,0.320313 c 6.57795,1.555876 12.12154,3.558734 15.86328,6.068354 -2.55708,3.88644 -7.09139,8.0206 -12.80274,12.13477 -4.98401,-2.16043 -10.54612,-4.14758 -16.37109,-5.96484 4.87997,-4.06265 9.42795,-8.18495 13.31055,-12.238284 z m -124.31641,2.27539 c 2.33094,1.485184 4.38198,3.033554 6.20508,4.662114 0.78824,2.23207 1.72631,4.31705 2.77344,6.32617 -1.75967,-1.42681 -3.61622,-2.76113 -5.64649,-3.97852 -1.23247,-2.11106 -2.34118,-4.43005 -3.33203,-7.009764 z m 44.95117,0.08789 c -0.98094,2.545533 -2.07715,4.836003 -3.29492,6.921873 -2.00612,1.20291 -3.84258,2.52004 -5.58399,3.92774 1.03544,-1.98502 1.96557,-4.04573 2.74805,-6.25 1.80444,-1.6066 3.83198,-3.13398 6.13086,-4.599613 z m -64.589842,1.208983 c 0.48717,0.0768 0.937315,0.16645 1.410156,0.24805 1.67475,2.60119 3.339726,4.88759 5.007812,6.9375 -2.631392,-0.24327 -5.455818,-0.35514 -8.548828,-0.29688 -0.331217,-0.34727 -0.657,-0.67134 -0.992187,-1.0332 -0.717096,-1.54079 -1.478219,-3.24973 -2.236329,-4.95312 1.842396,-0.32113 3.677733,-0.63911 5.359376,-0.90235 z m 84.265622,0 c 1.7019,0.26641 3.56766,0.58962 5.43164,0.91406 -0.77151,1.72708 -1.54409,3.4552 -2.27343,5.01563 -0.33583,0.36136 -0.66231,0.68447 -0.99414,1.03125 -2.96558,-0.0608 -5.68679,0.0321 -8.22657,0.25 1.70047,-2.07819 3.40056,-4.39917 5.11328,-7.04297 0.32147,-0.0539 0.62123,-0.11629 0.94922,-0.16797 z m -3.51172,0.62109 c -1.76238,2.6123 -3.50364,4.87597 -5.24414,6.88086 -2.59669,0.33665 -5.00041,0.81253 -7.23633,1.42579 1.45381,-1.83871 2.84596,-3.89109 4.1836,-6.18165 2.50147,-0.81177 5.23889,-1.52474 8.29687,-2.125 z m -76.759762,0.10352 c 2.897675,0.58641 5.509065,1.27535 7.902344,2.05469 1.318777,2.25931 2.689728,4.28655 4.123048,6.10547 -2.137216,-0.58995 -4.426993,-1.05442 -6.892579,-1.39258 -1.706676,-1.97689 -3.410947,-4.20432 -5.132813,-6.76758 z m -11.277344,0.50977 c 0.852609,1.92555 1.70315,3.83789 2.50586,5.56054 l 0.0625,0.13477 0.0293,0.0352 h -0.04297 L 81,107.91211 c -1.648763,0.60903 -3.452441,1.3084 -5.253906,2.00977 -1.404588,-2.04319 -2.853284,-4.19603 -4.324219,-6.4336 2.467353,-0.4943 4.85644,-0.94384 7.162109,-1.35937 z m 98.906246,0.008 c 2.48748,0.44786 5.08218,0.94118 7.75782,1.48242 -1.53621,2.28475 -3.04938,4.47831 -4.51563,6.56055 -1.9672,-0.7725 -3.91014,-1.52917 -5.69922,-2.19336 l -0.14062,-0.0508 h -0.043 l 0.0293,-0.0332 0.0625,-0.13281 c 0.81625,-1.74426 1.68108,-3.68012 2.54882,-5.63281 z m -49.3457,1.53711 c 0.35576,2.40003 0.51164,4.79293 0.55274,7.22461 -0.24748,1.12665 -0.47828,2.25971 -0.68555,3.41211 -0.16028,-0.89956 -0.34748,-1.78051 -0.53125,-2.66407 0.0508,-2.69329 0.23895,-5.32884 0.66406,-7.97265 z m -58.724608,0.22461 c 1.532608,2.34263 3.043162,4.59054 4.507812,6.72461 -2.406424,0.95296 -4.914544,1.97505 -7.49414,3.0625 -2.354649,-2.40372 -4.755062,-4.94272 -7.150391,-7.53321 3.433688,-0.81101 6.841316,-1.57487 10.136719,-2.2539 z m 117.822268,0.13867 c 3.12358,0.64952 6.34207,1.3784 9.58203,2.14648 -2.42372,2.61419 -4.85199,5.17353 -7.23438,7.59766 -2.42519,-1.02703 -4.7728,-1.9828 -7.04687,-2.89063 1.52803,-2.17833 3.10153,-4.46619 4.69922,-6.85351 z m -63.73828,0.0703 c 0.90675,2.51378 1.58103,5.06402 2.13086,7.69531 -0.0179,0.95906 -0.0349,1.91664 -0.0234,2.88868 -0.40039,-1.03931 -0.82325,-2.05505 -1.25391,-3.06446 -0.44124,-2.50437 -0.75324,-4.98827 -0.85351,-7.51953 z m 9.02929,0.008 c -0.11047,2.6776 -0.45192,5.3016 -0.93945,7.95313 -0.35513,0.82701 -0.71335,1.65071 -1.04883,2.49805 0.0267,-1.17397 0.026,-2.33344 0.008,-3.49024 0.52459,-2.3715 1.15447,-4.68269 1.98047,-6.96094 z m 22.9961,0.51758 c -1.48519,2.33094 -3.03356,4.38199 -4.66211,6.20508 -2.23206,0.78825 -4.31706,1.72631 -6.32617,2.77344 1.42681,-1.75966 2.76112,-3.61621 3.97851,-5.64649 2.11107,-1.23247 4.43005,-2.34118 7.00977,-3.33203 z m -54.97071,0.0371 c 2.54554,0.98094 4.836,2.07716 6.92188,3.29492 1.2029,2.00613 2.52004,3.8426 3.92773,5.58399 -1.98501,-1.03544 -4.04573,-1.96556 -6.25,-2.74805 -1.60659,-1.80443 -3.13397,-3.83197 -4.59961,-6.13086 z m 18.61914,0.72656 c 1.29813,2.17052 2.39378,4.4161 3.39258,6.75 0.1919,1.08498 0.39494,2.16826 0.62891,3.26172 -0.51783,-0.81369 -1.053,-1.59754 -1.58789,-2.38476 -0.98229,-2.51012 -1.8165,-5.01979 -2.4336,-7.62696 z m 17.81641,0.0703 c -0.60222,2.45812 -1.4017,4.82747 -2.33203,7.1914 -0.62551,0.90631 -1.2422,1.81983 -1.84375,2.76172 0.20415,-0.9461 0.37561,-1.88493 0.54883,-2.82422 1.06472,-2.47344 2.23488,-4.84224 3.62695,-7.1289 z m -79.824218,1.17968 c 2.476514,2.69433 4.96055,5.33476 7.402344,7.8379 -3.081201,1.31842 -6.246539,2.74073 -9.425782,4.21093 -3.730256,-2.75917 -7.458151,-5.6285 -11.054687,-8.56445 4.310098,-1.26228 8.712284,-2.4233 13.078125,-3.48438 z m 141.767578,0.0371 c 4.56187,1.11288 9.15944,2.32956 13.6543,3.66016 -3.67395,2.96873 -7.49139,5.87095 -11.31446,8.66016 -3.31536,-1.54519 -6.61824,-3.03547 -9.83007,-4.41602 2.47002,-2.52378 4.9849,-5.18575 7.49023,-7.9043 z m -83.88281,0.88672 c 1.7951,1.97376 3.38987,4.06905 4.90039,6.28711 0.38346,0.97988 0.7715,1.95818 1.19336,2.93946 -0.70646,-0.73587 -1.42405,-1.4394 -2.14258,-2.14258 -1.48239,-2.29548 -2.81601,-4.61821 -3.95117,-7.08399 z m 25.92383,0.0215 c -1.12352,2.43002 -2.4409,4.71998 -3.90235,6.98242 -0.68354,0.66703 -1.36712,1.3327 -2.03906,2.0293 0.44661,-1.02322 0.86171,-2.04508 1.26562,-3.06836 1.44529,-2.09004 2.9697,-4.07363 4.67579,-5.94336 z m -55.408208,2.07226 c 3.088527,0.002 5.889414,0.17567 8.482422,0.49219 1.654108,1.85879 3.313958,3.50332 4.994141,4.94922 -2.311455,-0.17721 -4.758857,-0.18923 -7.371094,-0.0273 -1.979106,-1.55294 -4.005415,-3.33549 -6.105469,-5.41406 z m -2.626953,0.043 c 2.063998,2.12405 4.064213,3.96746 6.021485,5.5957 -2.456897,0.26011 -5.059801,0.67035 -7.859375,1.26368 -0.459318,-0.32649 -0.908429,-0.63313 -1.376953,-0.97852 -0.909767,-1.26367 -1.888489,-2.6737 -2.859375,-4.06836 1.583651,-0.61457 3.182406,-1.2372 4.642578,-1.77734 0.49273,-0.0211 0.952,-0.0216 1.43164,-0.0352 z m 87.513671,0.0254 c -2.19816,2.16861 -4.31216,4.01218 -6.37891,5.60938 -2.48308,-0.15988 -4.81961,-0.16187 -7.03124,-0.01 1.76462,-1.49462 3.50944,-3.20497 5.25,-5.15234 2.507,-0.28744 5.19716,-0.45007 8.16015,-0.44727 z m 2.62891,0.0488 c 0.4795,0.0143 0.93714,0.0153 1.42968,0.0371 1.59518,0.59305 3.33095,1.26936 5.07227,1.95117 -1.08265,1.51855 -2.16759,3.04277 -3.17773,4.41016 -0.40065,0.28783 -0.78389,0.54013 -1.17774,0.81445 -3.01864,-0.67348 -5.80906,-1.12997 -8.43554,-1.41602 2.04249,-1.6756 4.13022,-3.58259 6.28906,-5.79687 z m -61.66992,0.76172 c 2.18616,1.60102 4.19367,3.36723 6.14453,5.27344 0.54829,0.84869 1.09851,1.69588 1.68164,2.53906 -0.87308,-0.606 -1.74975,-1.1795 -2.62891,-1.74805 -1.87664,-1.92604 -3.61795,-3.90792 -5.19726,-6.06445 z m 33.16796,0 c -1.60102,2.18616 -3.36723,4.19368 -5.27343,6.14453 -0.8487,0.54829 -1.69589,1.09852 -2.53907,1.68164 0.606,-0.87307 1.17951,-1.74975 1.74805,-2.62891 1.92604,-1.87664 3.90792,-3.61794 6.06445,-5.19726 z m 14.78711,0.041 c -1.89593,1.96296 -3.7989,3.64857 -5.73437,5.09766 -2.31356,0.32709 -4.51619,0.82561 -6.66602,1.44336 1.7249,-1.42456 3.37982,-2.961 4.95703,-4.68555 1.49209,-0.50737 3.05059,-0.95015 4.70118,-1.32422 0.88248,-0.19999 1.80346,-0.37297 2.74218,-0.53125 z m -62.357418,0.0176 c 2.550664,0.45257 4.899208,1.05195 7.083988,1.79883 1.49588,1.64101 3.06178,3.11269 4.6914,4.48047 -2.04406,-0.59179 -4.13945,-1.07226 -6.33594,-1.40039 -1.837,-1.39801 -3.643377,-3.01315 -5.439448,-4.87891 z m -55.105469,0.17383 c 3.662476,3.02174 7.468337,5.97693 11.285156,8.82031 -4.307032,2.02552 -8.627167,4.16351 -12.818359,6.39453 -5.491501,-2.96451 -10.673171,-6.07843 -15.226562,-9.21875 5.088027,-2.16975 10.787755,-4.1857 16.759765,-5.99609 z m 172.880857,0.22266 c 5.7786,1.77357 11.28889,3.73882 16.21875,5.84765 -4.59203,3.16565 -9.83025,6.30333 -15.38281,9.28907 -4.05087,-2.16487 -8.22287,-4.24691 -12.38672,-6.22071 3.91259,-2.87269 7.81151,-5.86116 11.55078,-8.91601 z m -139.744138,1.2207 c 1.103276,1.58778 2.208615,3.17546 3.236328,4.60156 l 0.08594,0.1211 0.11914,0.0859 c 0.04628,0.0342 0.09052,0.0636 0.136719,0.0977 -0.05587,0.0134 -0.108048,0.0236 -0.164063,0.0371 l -0.144531,0.0352 -0.126953,0.0762 c -1.575863,0.95894 -3.287278,2.03646 -5.007812,3.12695 -1.720721,-1.66945 -3.498689,-3.4264 -5.314454,-5.25977 2.470236,-1.03493 4.873614,-2.01129 7.179688,-2.92187 z m 106.363278,0.25977 c 2.17628,0.86657 4.4274,1.78386 6.7461,2.75976 -1.88741,1.89951 -3.73646,3.71941 -5.51953,5.44141 -1.62497,-1.04561 -3.25234,-2.09051 -4.7461,-3.01563 l -0.12695,-0.0781 -0.043,-0.01 0.0352,-0.0254 0.0879,-0.11914 c 1.13041,-1.52872 2.34642,-3.23495 3.5664,-4.95312 z m -72.94336,1.66992 c 2.43002,1.12352 4.71999,2.44089 6.98243,3.90234 0.66702,0.68355 1.3327,1.36712 2.02929,2.03906 -1.02321,-0.4466 -2.04507,-0.86171 -3.06836,-1.26562 -2.09003,-1.44529 -4.07363,-2.96969 -5.94336,-4.67578 z m 39.0918,0.0332 c -1.97376,1.79511 -4.06905,3.38988 -6.28711,4.90039 -0.97988,0.38347 -1.95818,0.7715 -2.93945,1.19336 0.74256,-0.71289 1.45282,-1.43686 2.16211,-2.16211 2.28468,-1.47134 4.59858,-2.79644 7.06445,-3.93164 z m -81.572265,1.75781 c 1.897379,1.92425 3.750936,3.75496 5.548828,5.50196 -2.110269,1.35443 -4.291458,2.78103 -6.535156,4.28906 -2.655666,-1.82815 -5.376236,-3.77135 -8.103516,-5.76172 3.06937,-1.40649 6.123375,-2.76726 9.089844,-4.0293 z m 124.050785,0.0996 c 3.09379,1.32216 6.27986,2.74925 9.48242,4.22852 -2.863,2.06056 -5.71998,4.06931 -8.50586,5.95508 -2.31108,-1.57978 -4.56415,-3.08112 -6.73242,-4.49414 1.85943,-1.79906 3.78777,-3.7 5.75586,-5.68946 z m -93.824222,0.79102 c 1.924925,0.0358 3.751336,0.1824 5.507812,0.42383 1.87856,1.39521 3.79899,2.58853 5.76563,3.66015 -2.23162,-0.19948 -4.49272,-0.27102 -6.83008,-0.15234 -2.176762,-1.0555 -4.365531,-2.35076 -6.601566,-3.92188 0.06505,-0.002 0.134416,-0.007 0.199219,-0.008 0.664513,-0.0132 1.317341,-0.0139 1.958985,-0.002 z m -5.115235,0.16797 c 2.083274,1.58482 4.125551,2.93377 6.146485,4.06836 -2.129526,0.2622 -4.345963,0.68771 -6.667969,1.2832 -2.323377,-1.17212 -4.738878,-2.57519 -7.294922,-4.28125 2.79643,-0.53458 5.383457,-0.88037 7.816406,-1.07031 z m 68.134767,0.0937 c 0.78514,-0.0187 1.60364,-8e-4 2.42383,0.0195 -2.1311,1.46951 -4.22113,2.69205 -6.29883,3.69531 -2.21863,-0.11628 -4.36852,-0.0611 -6.49024,0.11133 1.87092,-1.01583 3.69993,-2.14619 5.49415,-3.45703 1.56295,-0.20234 3.17913,-0.3288 4.87109,-0.36914 z m 5.40625,0.18164 c 2.61131,0.207 5.38726,0.58219 8.42187,1.19726 -2.47093,1.61747 -4.8104,2.96278 -7.05859,4.08985 -2.52859,-0.68011 -4.92905,-1.15812 -7.23047,-1.44532 1.93042,-1.07961 3.88028,-2.35449 5.86719,-3.84179 z m -141.587892,0.41797 c 4.597122,3.20128 9.827255,6.3422 15.353516,9.36132 -5.586414,3.04007 -10.870855,6.20677 -15.50586,9.4336 -6.414054,-2.90168 -11.676405,-6.05548 -14.9511715,-9.35938 3.3014835,-3.33085 8.6207385,-6.51251 15.1035155,-9.43554 z m 210.054692,0.0762 c 6.41405,2.90167 11.6764,6.05547 14.95117,9.35937 -3.30149,3.33085 -8.62074,6.51251 -15.10352,9.43555 -4.59712,-3.20129 -9.82725,-6.34221 -15.35351,-9.36133 5.58641,-3.04006 10.87085,-6.20676 15.50586,-9.43359 z m -126.76368,0.36523 c 2.45813,0.60222 4.82748,1.4017 7.19141,2.33203 0.90631,0.62551 1.81982,1.24221 2.76172,1.84375 -0.9461,-0.20415 -1.88493,-0.37561 -2.82422,-0.54882 -2.47344,-1.06472 -4.84224,-2.23488 -7.12891,-3.62696 z m 43.39063,0.17188 c -2.17053,1.29813 -4.4161,2.39377 -6.75,3.39258 -1.08498,0.19189 -2.16826,0.39493 -3.26172,0.6289 0.82292,-0.52369 1.61626,-1.06425 2.41211,-1.60547 2.49654,-0.97319 4.9934,-1.79915 7.59961,-2.41601 z m -69.035158,0.30273 c 2.527029,1.76055 4.926706,3.23274 7.240235,4.48633 -2.517896,0.76738 -5.163989,1.73103 -7.992188,2.95313 -0.514803,-0.22926 -1.015404,-0.44156 -1.542968,-0.6875 -1.203533,-1.11625 -2.504484,-2.36246 -3.802735,-3.60743 1.52016,-0.96129 3.043229,-1.92521 4.445313,-2.77929 0.567072,-0.13611 1.101163,-0.24301 1.652343,-0.36524 z m 94.929688,0.42969 c 0.46721,0.1088 0.91601,0.20148 1.39453,0.32031 1.32325,0.82037 2.76573,1.74999 4.19531,2.66797 -1.22856,1.17256 -2.46833,2.35939 -3.61132,3.41602 -0.52836,0.24525 -1.03131,0.45504 -1.54688,0.68359 -2.62474,-1.13924 -5.09395,-2.05797 -7.44922,-2.80273 2.24341,-1.20555 4.57056,-2.61449 7.01758,-4.28516 z m -120.697266,1.83008 c 2.82242,2.07446 5.641715,4.09964 8.398438,6.00586 -2.891572,1.96609 -5.852519,4.05837 -8.816406,6.20507 -4.066919,-1.9106 -8.148432,-3.92496 -12.121094,-6.02148 4.109317,-2.1599 8.333454,-4.22962 12.539062,-6.18945 z m 146.562496,0.30859 c 4.06692,1.91061 8.14845,3.92497 12.1211,6.02149 -4.10932,2.15989 -8.33346,4.22962 -12.53906,6.18945 -2.82242,-2.07446 -5.64172,-4.09964 -8.39844,-6.00586 2.89157,-1.9661 5.85252,-4.05837 8.8164,-6.20508 z m -96.50195,1.41797 c 2.6776,0.11046 5.3016,0.45192 7.95313,0.93945 0.82701,0.35513 1.6507,0.71335 2.49804,1.04883 -1.17396,-0.0267 -2.33344,-0.026 -3.49023,-0.008 -2.3715,-0.52459 -4.68268,-1.15446 -6.96094,-1.98047 z m 46.03125,0.0371 c -2.51378,0.90675 -5.06402,1.58103 -7.69531,2.13086 -0.95905,-0.0178 -1.91664,-0.0349 -2.88867,-0.0234 1.05171,-0.40516 2.08045,-0.83133 3.10156,-1.26758 2.48709,-0.43458 4.9554,-0.73973 7.48242,-0.83984 z m -50.73437,0.0137 c 1.93361,0.9098 3.86787,1.65088 5.81836,2.27735 -2.03662,0.22525 -4.08002,0.56611 -6.156254,1.07226 -2.161318,-0.58214 -4.372678,-1.3659 -6.664063,-2.36914 2.44543,-0.52351 4.765634,-0.84066 7.001957,-0.98047 z m 55.4375,0.0469 c 2.40703,0.15443 4.91613,0.52348 7.57226,1.13086 -2.49675,1.08923 -4.8939,1.9189 -7.23047,2.51757 -2.26487,-0.58168 -4.49221,-0.96132 -6.71679,-1.21093 2.13979,-0.65814 4.25729,-1.44531 6.375,-2.4375 z m -82.781254,0.0996 c 1.469096,1.41129 2.930108,2.80871 4.283203,4.0625 l 0.109375,0.10156 0.132813,0.0605 c 0.05214,0.0244 0.102277,0.046 0.154297,0.0703 -0.05211,0.0241 -0.102063,0.044 -0.154297,0.0684 l -0.134766,0.0625 -0.109375,0.0996 c -1.291105,1.19242 -2.689021,2.52927 -4.085937,3.86523 -2.078316,-1.35187 -4.238997,-2.78856 -6.453125,-4.29492 2.146115,-1.43559 4.238271,-2.8021 6.257812,-4.0957 z m 109.921874,0.28125 c 2.07832,1.35187 4.239,2.78857 6.45313,4.29492 -2.14612,1.43559 -4.23827,2.8021 -6.25782,4.0957 -1.46836,-1.411 -2.92847,-2.80901 -4.28125,-4.0625 l -0.11132,-0.10156 -0.13282,-0.0625 c -0.0513,-0.024 -0.10122,-0.0447 -0.15234,-0.0684 0.0515,-0.0239 0.10067,-0.0442 0.15234,-0.0684 l 0.13477,-0.0625 0.10937,-0.0996 c 1.2911,-1.19243 2.68902,-2.52927 4.08594,-3.86523 z m -92.509764,1.26562 c 2.163546,1.05091 4.256158,1.91223 6.296875,2.5957 -2.206133,0.70888 -4.477082,1.62408 -6.833985,2.76172 -2.343938,-0.66901 -4.81223,-1.52458 -7.445312,-2.60547 2.832319,-1.15734 5.480432,-2.06613 7.982422,-2.75195 z m 75.828124,0.2207 c 2.34449,0.66909 4.81349,1.52431 7.44727,2.60547 -2.84468,1.16238 -5.49134,2.05481 -8.00196,2.74024 -2.15627,-1.04646 -4.243,-1.9046 -6.27734,-2.58594 2.2054,-0.70864 4.47597,-1.62304 6.83203,-2.75977 z m -54.43945,1.86524 c 1.13613,0.25001 2.27912,0.48236 3.4414,0.6914 -0.89955,0.16028 -1.78051,0.34749 -2.66406,0.53125 -2.6933,-0.0508 -5.32886,-0.23894 -7.97265,-0.66406 2.39847,-0.35552 4.77833,-0.51502 7.19531,-0.55859 z m 31.76562,0.17773 c 2.67844,0.0538 5.30154,0.24482 7.94531,0.66992 -2.40003,0.35576 -4.79293,0.51164 -7.2246,0.55274 -1.12666,-0.24747 -2.25972,-0.47828 -3.41211,-0.68555 0.90881,-0.16193 1.79891,-0.35116 2.6914,-0.53711 z m -43.572263,1.3125 c 2.264873,0.58169 4.492213,0.96132 6.716793,1.21094 -2.13979,0.65814 -4.25729,1.44531 -6.375,2.4375 -2.407017,-0.15443 -4.916125,-0.52348 -7.572262,-1.13086 2.496753,-1.08924 4.893906,-1.91889 7.230469,-2.51758 z m -34.947266,0.11719 c 2.311078,1.57978 4.565623,3.07965 6.734375,4.49219 -1.860018,1.7996 -3.789044,3.70128 -5.757812,5.6914 -3.093794,-1.32216 -6.279862,-2.74924 -9.482422,-4.22851 2.862997,-2.06056 5.719972,-4.06932 8.505859,-5.95508 z M 40.375,128.11914 c 4.050864,2.16487 8.222869,4.24691 12.386719,6.2207 -3.912593,2.8727 -7.811507,5.86116 -11.550781,8.91602 -5.778597,-1.77358 -11.288889,-3.73882 -16.21875,-5.84766 4.592037,-3.16564 9.83025,-6.30332 15.382812,-9.28906 z m 39.570312,0.01 c 2.6237,1.13869 5.090863,2.0583 7.445313,2.80273 -2.242683,1.20564 -4.569462,2.61494 -7.015625,4.28516 -0.467205,-0.1088 -0.916009,-0.20148 -1.394531,-0.32032 -1.323252,-0.82036 -2.765726,-1.74999 -4.195313,-2.66796 1.228566,-1.17256 2.468331,-2.3594 3.611328,-3.41602 0.528966,-0.24554 1.032697,-0.4548 1.548828,-0.68359 z m 96.111328,0.0781 c 0.51481,0.22924 1.01541,0.44156 1.54297,0.6875 1.20353,1.11624 2.50448,2.36245 3.80273,3.60742 -1.52016,0.9613 -3.04323,1.92521 -4.44531,2.7793 -0.56643,0.13595 -1.09981,0.24313 -1.65039,0.36523 -2.52702,-1.76065 -4.92676,-3.23253 -7.24023,-4.48632 2.51736,-0.7673 5.1627,-1.73134 7.99023,-2.95313 z m -20.00391,0.0527 c 2.15582,0.58065 4.36138,1.36183 6.64649,2.36132 -2.43915,0.52403 -4.75584,0.84895 -6.98438,0.98829 -1.93361,-0.90981 -3.86787,-1.65089 -5.81836,-2.27735 2.03662,-0.22527 4.08003,-0.56611 6.15625,-1.07226 z m 59.57227,0.004 c 5.49151,2.96451 10.67317,6.07844 15.22656,9.21875 -5.08802,2.16976 -10.78775,4.18571 -16.75976,5.9961 -3.66248,-3.02174 -7.46834,-5.97693 -11.28516,-8.82032 4.30703,-2.02551 8.62717,-4.1635 12.81836,-6.39453 z m -24.62305,0.25977 c 2.65567,1.82814 5.37624,3.77134 8.10352,5.76172 -3.06937,1.40649 -6.12337,2.76726 -9.08985,4.02929 -1.89736,-1.92422 -3.74944,-3.75488 -5.54687,-5.50195 2.10986,-1.35419 4.28998,-2.78135 6.5332,-4.28906 z m -78.34765,0.96679 c 0.96611,0.0182 1.93089,0.0369 2.91015,0.0254 -1.0393,0.40039 -2.05504,0.82326 -3.06445,1.25391 -2.50437,0.44125 -4.98828,0.75324 -7.51953,0.85352 2.45438,-0.88532 4.92974,-1.55134 7.48047,-2.09375 0.0636,-0.0135 0.12957,-0.0257 0.19336,-0.0391 z m 27.90625,0.18165 c 1.17396,0.0267 2.33344,0.026 3.49023,0.008 2.37151,0.52459 4.68272,1.15448 6.96094,1.98047 -2.6776,-0.11047 -5.3016,-0.45193 -7.95313,-0.93946 -0.82701,-0.35512 -1.6507,-0.71335 -2.49804,-1.04882 z m -50.558597,2.02148 c 2.527425,0.67953 4.928086,1.15628 7.228516,1.44336 -1.934748,1.08204 -3.889391,2.35955 -5.88086,3.85156 -2.603514,-0.20654 -5.382146,-0.59174 -8.408203,-1.20508 2.471523,-1.61785 4.811863,-2.96262 7.060547,-4.08984 z m 75.423827,0.21094 c 2.32338,1.17211 4.73888,2.57518 7.29492,4.28125 -2.79508,0.53431 -5.38438,0.88199 -7.81445,1.07031 -2.08371,-1.58524 -4.1271,-2.93355 -6.14844,-4.06836 2.12953,-0.2622 4.34597,-0.68771 6.66797,-1.2832 z m -49.14453,0.0234 c -0.81369,0.51783 -1.59754,1.053 -2.38477,1.58789 -2.51011,0.98229 -5.01978,1.81651 -7.62695,2.4336 2.16813,-1.29669 4.39566,-2.39148 6.71289,-3.38672 1.0972,-0.19353 2.19301,-0.39815 3.29883,-0.63477 z m 23.42578,0.0176 c 0.9461,0.20415 1.88493,0.37562 2.82422,0.54883 2.47345,1.06472 4.84227,2.2349 7.12891,3.62695 -2.45813,-0.60222 -4.82748,-1.4017 -7.19141,-2.33203 -0.90631,-0.6255 -1.81982,-1.2422 -2.76172,-1.84375 z m -32.57226,1.39063 c -1.87092,1.01583 -3.69991,2.14618 -5.49415,3.45703 -2.289509,0.2964 -4.70942,0.41628 -7.298823,0.35156 2.132329,-1.47062 4.223884,-2.69344 6.302733,-3.69726 2.21863,0.11629 4.36852,0.0611 6.49024,-0.11133 z m 41.38085,0.004 c 2.23162,0.19948 4.49272,0.27103 6.83008,0.15235 2.17041,1.05242 4.35281,2.34337 6.58203,3.9082 -2.72437,0.0657 -5.2569,-0.0719 -7.64648,-0.40039 -1.87856,-1.39521 -3.799,-2.58853 -5.76563,-3.66016 z m -75.148432,0.23243 c 1.625309,1.04525 3.252343,2.09051 4.746093,3.01562 l 0.125,0.0801 0.04297,0.01 -0.03516,0.0254 -0.08789,0.11915 c -1.13041,1.5287 -2.346324,3.23535 -3.566406,4.95312 -2.176273,-0.86657 -4.427391,-1.78386 -6.746094,-2.75977 1.888148,-1.90024 3.737762,-3.72076 5.521485,-5.44335 z m 109.453122,0.28125 c 1.72072,1.66945 3.49869,3.4264 5.31446,5.25976 -2.47024,1.03495 -4.87362,2.0113 -7.17969,2.92188 -1.1027,-1.58744 -2.20687,-3.17574 -3.23438,-4.60157 l -0.0879,-0.12109 -0.11914,-0.0879 c -0.0455,-0.0337 -0.0893,-0.0622 -0.13476,-0.0957 0.0552,-0.0132 0.10673,-0.0237 0.16211,-0.0371 l 0.14453,-0.0352 0.12695,-0.0762 c 1.57586,-0.95894 3.28728,-2.03647 5.00781,-3.12695 z m -65.15039,0.125 c -0.73586,0.70645 -1.43939,1.42404 -2.14258,2.14257 -2.29547,1.48239 -4.6182,2.81601 -7.08398,3.95118 1.93027,-1.75553 3.96302,-3.31562 6.11328,-4.79102 0.0486,-0.0333 0.0997,-0.0663 0.14844,-0.0996 0.98831,-0.38639 1.97516,-0.77765 2.96484,-1.20312 z m 20.85352,0.18554 c 1.02321,0.44661 2.04507,0.86172 3.06836,1.26563 2.09004,1.44529 4.07365,2.96971 5.94336,4.67578 -2.43002,-1.12353 -4.71999,-2.4409 -6.98243,-3.90235 -0.66702,-0.68354 -1.3327,-1.36711 -2.02929,-2.03906 z M 54.722656,135.25 c 3.315361,1.54518 6.618244,3.03546 9.830078,4.41602 -2.470021,2.52378 -4.984905,5.18575 -7.490234,7.90429 -4.562019,-1.11301 -9.159247,-2.32948 -13.654297,-3.66015 3.67394,-2.96873 7.491385,-5.87095 11.314453,-8.66016 z m 146.130864,0.30859 c 3.73025,2.75918 7.45815,5.6285 11.05468,8.56446 -4.31009,1.26227 -8.71228,2.42329 -13.07812,3.48437 -2.47652,-2.69432 -4.96055,-5.33477 -7.40235,-7.83789 3.0812,-1.31843 6.24654,-2.74073 9.42579,-4.21094 z m -81.625,0.32813 c -0.60573,0.87268 -1.17779,1.7482 -1.7461,2.62695 -1.92636,1.87702 -3.90949,3.61767 -6.0664,5.19727 1.60075,-2.18581 3.36564,-4.19399 5.27148,-6.14453 0.84908,-0.54852 1.69746,-1.09631 2.54102,-1.67969 z m 17.52929,0.0117 c 0.87308,0.60599 1.74975,1.1795 2.62891,1.74804 1.87665,1.92605 3.61797,3.90795 5.19726,6.06446 -2.18616,-1.60103 -4.19367,-3.36724 -6.14453,-5.27344 -0.54829,-0.84869 -1.09851,-1.69588 -1.68164,-2.53906 z m -27.72851,1.23047 c -1.7249,1.42456 -3.37982,2.96099 -4.95703,4.68554 -2.28526,0.77707 -4.747576,1.39371 -7.435551,1.84766 1.893394,-1.95951 3.793711,-3.64271 5.726561,-5.08984 2.31357,-0.32709 4.51619,-0.82561 6.66602,-1.44336 z m -28.259769,0.1289 c 3.017992,0.67328 5.807633,1.12995 8.433594,1.41602 -2.04282,1.67622 -4.129808,3.58396 -6.289063,5.79883 -0.479494,-0.0143 -0.937115,-0.0153 -1.429687,-0.0371 -1.595174,-0.59304 -3.330953,-1.26938 -5.072266,-1.95117 1.082652,-1.51856 2.16759,-3.04278 3.177735,-4.41016 0.401409,-0.28838 0.785102,-0.54159 1.179687,-0.81641 z m 66.441409,0.11524 c 2.04406,0.59179 4.13946,1.07225 6.33594,1.40039 1.83701,1.39801 3.64338,3.01314 5.43945,4.8789 -2.55067,-0.45257 -4.89921,-1.05193 -7.08399,-1.79882 -1.49588,-1.64101 -3.06178,-3.1127 -4.6914,-4.48047 z m -12.35938,0.084 c 0.70646,0.73586 1.42405,1.43939 2.14258,2.14258 1.48238,2.29547 2.816,4.6182 3.95117,7.08398 -1.7951,-1.97376 -3.38987,-4.06905 -4.90039,-6.28711 -0.38346,-0.97987 -0.7715,-1.95818 -1.19336,-2.93945 z m -13.88867,0.19336 c -0.44661,1.02322 -0.86171,2.04507 -1.26562,3.06836 -1.44529,2.09004 -2.9697,4.07362 -4.67579,5.94336 1.12352,-2.43003 2.4409,-4.71998 3.90235,-6.98242 0.68354,-0.66703 1.36712,-1.3327 2.03906,-2.0293 z m 53.93164,0.0371 c 0.45932,0.32649 0.90843,0.63313 1.37695,0.97852 0.90977,1.26366 1.88849,2.6737 2.85938,4.06836 -1.58365,0.61456 -3.18241,1.2372 -4.64258,1.77734 -0.49273,0.0211 -0.95201,0.0216 -1.43164,0.0352 -2.064,-2.12406 -4.06421,-3.96747 -6.02148,-5.59571 2.45689,-0.2601 5.0598,-0.67034 7.85937,-1.26367 z m -151.777342,1.04102 c 4.98401,2.16043 10.546123,4.14757 16.371093,5.96484 -4.879978,4.06264 -9.427947,8.18495 -13.310547,12.23828 -6.577957,-1.55588 -12.121552,-3.55874 -15.863281,-6.06836 2.557071,-3.88643 7.091385,-8.0206 12.802735,-12.13476 z m 209.607422,0.0723 c 5.77006,4.15639 10.34853,8.33373 12.91992,12.25586 -3.86781,2.58504 -9.6534,4.62463 -16.51758,6.18945 -3.89859,-4.08531 -8.44504,-8.24018 -13.3125,-12.33203 6.01676,-1.85687 11.76771,-3.8927 16.91016,-6.11328 z m -109.54297,0.0332 c -0.20415,0.9461 -0.37561,1.88494 -0.54883,2.82422 -1.06472,2.47345 -2.23488,4.84224 -3.62695,7.12891 0.60187,-2.45672 1.40043,-4.82492 2.33008,-7.1875 0.62609,-0.90708 1.24362,-1.82289 1.8457,-2.76563 z m 9.61914,0.0117 c 0.5182,0.81428 1.05259,1.6009 1.58789,2.38868 0.9817,2.50897 1.81678,5.01706 2.4336,7.62304 -1.29813,-2.17052 -2.39378,-4.4161 -3.39258,-6.75 -0.1919,-1.08497 -0.39494,-2.16826 -0.62891,-3.26172 z m -40.874999,0.0645 c 2.481644,0.15971 4.816824,0.16179 7.027344,0.01 -1.767101,1.49672 -3.514813,3.21091 -5.257813,5.16211 -2.500808,0.2869 -5.195744,0.44226 -8.152343,0.43945 2.199383,-2.1698 4.314983,-4.01353 6.382812,-5.61132 z m 65.027339,0.23828 c 2.31147,0.17721 4.75886,0.18924 7.3711,0.0273 1.9791,1.55295 4.00541,3.33549 6.10547,5.41406 -3.08853,-0.002 -5.88942,-0.17566 -8.48242,-0.49218 -1.65411,-1.85879 -3.31396,-3.50332 -4.99415,-4.94922 z m -26.56445,0.41406 c 0.40039,1.03931 0.82325,2.05505 1.25391,3.06445 0.44124,2.50438 0.75323,4.98827 0.85351,7.51953 -0.90674,-2.51378 -1.58102,-5.06402 -2.13086,-7.69531 0.0179,-0.95905 0.0349,-1.91664 0.0234,-2.88867 z m -4.93359,0.125 c -0.0267,1.17396 -0.026,2.33344 -0.008,3.49023 -0.52459,2.37151 -1.15447,4.68269 -1.98047,6.96094 0.11046,-2.6776 0.45192,-5.3016 0.93945,-7.95312 0.35513,-0.82702 0.71335,-1.65071 1.04883,-2.49805 z m 2.5332,0.25586 c 0.16028,0.89955 0.34748,1.78051 0.53125,2.66406 -0.0509,2.6933 -0.23895,5.32884 -0.66406,7.97266 -0.35575,-2.40004 -0.51164,-4.79294 -0.55274,-7.22461 0.24748,-1.12665 0.47828,-2.25972 0.68555,-3.41211 z m -61.578124,0.5293 c 2.424599,1.02677 4.771007,1.98156 7.044922,2.88867 -1.52768,2.17721 -3.102098,4.46896 -4.699219,6.85547 -3.123085,-0.64943 -6.34071,-1.37847 -9.580078,-2.14649 2.423396,-2.61383 4.852291,-5.17382 7.234375,-7.59765 z m 123.156254,0.0957 c 2.35465,2.40371 4.75506,4.94272 7.15039,7.5332 -3.43369,0.81102 -6.84132,1.57487 -10.13672,2.25391 -1.53261,-2.34263 -3.04169,-4.59055 -4.50586,-6.72461 2.40593,-0.95278 4.91317,-1.9753 7.49219,-3.0625 z m -78.10743,0.0742 c -1.42681,1.75966 -2.76112,3.61622 -3.97851,5.64648 -2.11107,1.23248 -4.43005,2.34119 -7.00977,3.33203 1.48519,-2.33093 3.03356,-4.38199 4.66211,-6.20507 2.23207,-0.78825 4.31706,-1.72632 6.32617,-2.77344 z m 33.13282,0.0644 c 1.98486,1.03533 4.04591,1.96369 6.25,2.74609 1.60659,1.80445 3.13397,3.83198 4.59961,6.13086 -2.54554,-0.98093 -4.836,-2.07714 -6.92188,-3.29492 -1.20263,-2.00566 -2.5204,-3.84098 -3.92773,-5.58203 z m -3.07813,2.95899 c 1.76029,1.42746 3.61735,2.76259 5.64844,3.98046 1.23248,2.11108 2.34118,4.43005 3.33203,7.00977 -2.33094,-1.48519 -4.38199,-3.03356 -6.20508,-4.66211 -0.78866,-2.23325 -1.72758,-4.31802 -2.77539,-6.32812 z m -27.09179,0.0527 c -1.03545,1.98501 -1.96557,4.04574 -2.74805,6.25 -1.80444,1.6066 -3.83197,3.13398 -6.13086,4.59961 0.98094,-2.54554 2.07715,-4.83599 3.29492,-6.92188 2.00612,-1.2029 3.84259,-2.52003 5.58399,-3.92773 z m -39.154302,0.35352 c 1.967576,0.77207 3.912032,1.52719 5.701172,2.1914 l 0.138672,0.0547 h 0.04297 l -0.0293,0.0332 -0.0625,0.13282 c -0.816385,1.74454 -1.682702,3.68012 -2.550782,5.63281 -2.48692,-0.44777 -5.080869,-0.94132 -7.755859,-1.48242 1.536512,-2.28521 3.049097,-4.47989 4.515625,-6.5625 z m 104.986332,0.25976 c 1.40459,2.04318 2.85328,4.19603 4.32421,6.43359 -2.46734,0.49431 -4.85644,0.94384 -7.1621,1.35938 -0.85261,-1.92555 -1.70315,-3.8379 -2.50586,-5.56055 l -0.0625,-0.13476 -0.0293,-0.0352 h 0.043 L 175,146.3418 c 1.64876,-0.60904 3.45244,-1.30842 5.25391,-2.00977 z m -78.39649,0.0977 c -1.45395,1.8389 -2.843932,3.89235 -4.181639,6.18359 -2.501469,0.81178 -5.238892,1.52475 -8.296875,2.125 1.763006,-2.6132 3.504984,-4.8774 5.246094,-6.88281 2.596082,-0.33655 4.996972,-0.81265 7.23242,-1.42578 z m 52.25586,0.0449 c 2.13721,0.58996 4.42699,1.05442 6.89258,1.39258 1.70667,1.97689 3.41095,4.20431 5.13281,6.76758 -2.89767,-0.58641 -5.50906,-1.27535 -7.90234,-2.05469 -1.31878,-2.25932 -2.68973,-4.28655 -4.12305,-6.10547 z m -112.482421,0.89062 c 4.583761,1.38358 9.2855,2.64453 13.958985,3.79688 -3.239309,3.5614 -6.440799,7.23302 -9.476563,10.93555 -6.262274,-0.62053 -12.281688,-1.50248 -17.699219,-2.66211 3.853271,-3.9809 8.361765,-8.06625 13.216797,-12.07032 z m 172.039061,0.20118 c 4.8445,4.0313 9.35078,8.14998 13.21875,12.16601 -5.2508,1.08357 -11.04113,1.91191 -17.05664,2.49805 -3.055,-3.73843 -6.28009,-7.4429 -9.54101,-11.03711 4.47437,-1.10432 8.97731,-2.31282 13.3789,-3.62695 z m -75.66797,0.53125 c 1.42456,1.72489 2.961,3.37982 4.68555,4.95703 0.77707,2.28526 1.39371,4.74757 1.84766,7.43554 -1.95951,-1.89339 -3.64271,-3.79371 -5.08985,-5.72656 -0.32709,-2.31357 -0.82561,-4.51619 -1.44336,-6.66601 z m -46.070309,0.0488 c -1.701062,2.07912 -3.401963,4.40011 -5.115235,7.04493 -0.321463,0.0539 -0.621232,0.11628 -0.949218,0.16797 -1.7019,-0.26642 -3.567663,-0.58963 -5.431641,-0.91407 0.771516,-1.72708 1.54409,-3.45519 2.273437,-5.01562 0.336469,-0.36205 0.663635,-0.6858 0.996094,-1.03321 2.965228,0.0607 5.687061,-0.0322 8.226563,-0.25 z m 71.783199,0.0274 c 2.6314,0.24327 5.45582,0.35514 8.54883,0.29687 0.33123,0.34727 0.65701,0.67134 0.99219,1.03321 0.7171,1.54078 1.47822,3.24972 2.23633,4.95312 -1.8424,0.32113 -3.67773,0.63909 -5.35938,0.90235 -0.48717,-0.0768 -0.93731,-0.16645 -1.41015,-0.24805 -1.67475,-2.6012 -3.33973,-4.88759 -5.00782,-6.9375 z m -45.96093,0.16406 c -0.59179,2.04406 -1.07226,4.13946 -1.40039,6.33594 -1.39802,1.83701 -3.01315,3.64338 -4.87891,5.43945 0.45255,-2.55034 1.05202,-4.89944 1.79883,-7.08398 1.641,-1.49588 3.11269,-3.06179 4.48047,-4.69141 z m 4.0332,1.30469 c -0.19948,2.23161 -0.27102,4.49271 -0.15234,6.83008 -1.05242,2.1704 -2.34338,4.35281 -3.90821,6.58203 -0.0657,-2.72438 0.072,-5.25691 0.40039,-7.64649 1.39522,-1.87856 2.58853,-3.799 3.66016,-5.76562 z m 12.42187,0.34961 c 1.01584,1.87092 2.14619,3.69992 3.45704,5.49414 0.29639,2.28952 0.41628,4.70942 0.35156,7.29883 -1.47062,-2.13233 -2.69344,-4.2239 -3.69727,-6.30274 0.11629,-2.21864 0.0611,-4.36852 -0.11133,-6.49023 z m -4.21093,0.48242 c 0.65814,2.1398 1.4453,4.2573 2.4375,6.375 -0.15444,2.40703 -0.52348,4.91613 -1.13086,7.57227 -1.08924,-2.49676 -1.9189,-4.89392 -2.51758,-7.23047 0.58169,-2.26488 0.96132,-4.49222 1.21094,-6.7168 z m -4.20313,0.54883 c 0.22527,2.03662 0.56611,4.08002 1.07227,6.15625 -0.58066,2.15581 -1.36184,4.36137 -2.36133,6.64648 -0.52379,-2.43846 -0.84899,-4.7564 -0.98828,-6.98437 0.9098,-1.93361 1.65088,-3.86787 2.27734,-5.81836 z m -19.96289,0.27148 c -1.04637,2.06833 -1.99066,4.32775 -2.83789,6.80469 -2.31176,1.30633 -4.877139,2.56284 -7.789062,3.76953 1.197885,-2.87741 2.443977,-5.41895 3.738281,-7.70898 2.510491,-0.85362 4.797691,-1.8074 6.888671,-2.86524 z m 44.33594,0 c 2.06832,1.04638 4.32775,1.99066 6.80469,2.83789 1.30633,2.31176 2.56285,4.87714 3.76953,7.78907 -2.87742,-1.1979 -5.41895,-2.44398 -7.70899,-3.73829 -0.85361,-2.51048 -1.8074,-4.79768 -2.86523,-6.88867 z m -92.474611,0.36914 c 3.358668,0.80502 6.698039,1.56825 9.941407,2.25 -1.96684,2.97374 -3.947375,6.08823 -5.90625,9.25391 -4.437832,-0.18939 -8.921547,-0.47262 -13.332032,-0.86524 2.988943,-3.60575 6.128286,-7.17618 9.296875,-10.63867 z m 140.498051,0.0273 c 3.18993,3.49491 6.35133,7.10113 9.35937,10.74218 -4.67098,0.40807 -9.42008,0.68388 -14.11328,0.86524 -1.91269,-3.16239 -3.84472,-6.27346 -5.76172,-9.23828 3.42335,-0.71283 6.95783,-1.51557 10.51563,-2.36914 z m -128.564457,2.64257 c 2.789026,0.57047 5.489441,1.08698 8.083985,1.5586 -1.057705,2.41627 -2.136991,4.9512 -3.220704,7.58203 -3.433212,-0.0206 -6.988389,-0.10508 -10.576172,-0.23438 1.897343,-3.0485 3.812607,-6.0466 5.712891,-8.90625 z m 116.066407,0.14258 c 1.85189,2.85105 3.72172,5.84499 5.57617,8.89063 -3.32822,0.10695 -6.62776,0.17946 -9.81836,0.19336 -1.08918,-2.65641 -2.17379,-5.21689 -3.23633,-7.6543 2.40879,-0.43666 4.8981,-0.90682 7.47852,-1.42969 z m -26.14063,0.47656 c 2.44615,0.72 5.09455,1.35495 8.01368,1.88672 0.25602,0.4059 0.51055,0.788 0.76757,1.20899 0.40369,1.6745 0.81664,3.52278 1.22852,5.36914 -1.88977,-0.0535 -3.7822,-0.10939 -5.50195,-0.1875 -0.31231,-0.11646 -0.59498,-0.2362 -0.90039,-0.35352 -1.15179,-2.9332 -2.35517,-5.54753 -3.60743,-7.92383 z m -63.187496,0.0215 c -1.242463,2.35518 -2.437374,4.94445 -3.582031,7.8457 -0.304465,0.11637 -0.587144,0.23605 -0.898437,0.35157 -1.806665,0.0791 -3.785813,0.13396 -5.779297,0.18554 0.447614,-1.94237 0.896449,-3.87066 1.333984,-5.625 0.175911,-0.28311 0.350002,-0.5363 0.525391,-0.8125 3.07057,-0.54336 5.84543,-1.19762 8.40039,-1.94531 z m 14.287106,0.26562 c -0.58995,2.13722 -1.05441,4.427 -1.39257,6.89258 -1.97689,1.70668 -4.20432,3.41095 -6.76758,5.13281 0.5864,-2.89767 1.27533,-5.50906 2.05469,-7.90234 2.2593,-1.31877 4.28655,-2.68972 6.10546,-4.12305 z m 34.65235,0.0274 c 1.83871,1.4538 3.89108,2.84595 6.18164,4.18359 0.81178,2.50147 1.52475,5.23889 2.125,8.29688 -2.61229,-1.76239 -4.87596,-3.50364 -6.88086,-5.24414 -0.33665,-2.5967 -0.81251,-5.00042 -1.42578,-7.23633 z m -65.671878,0.95703 c 2.060307,0.36236 4.109894,0.71935 5.978516,1.01172 -0.479063,1.92029 -0.96917,4.03138 -1.458984,6.17383 -2.447061,0.0493 -4.988128,0.0816 -7.623047,0.0801 1.045547,-2.52263 2.085881,-4.95161 3.103515,-7.26562 z m 96.664068,0.0195 c 1.02199,2.33296 2.06716,4.7849 3.11718,7.33008 -2.73062,-0.003 -5.3712,-0.0369 -7.89844,-0.0937 -0.46108,-2.08573 -0.92284,-4.15367 -1.375,-6.02539 l -0.0332,-0.14453 -0.0234,-0.0391 0.043,0.008 0.14649,-0.0234 c 1.88572,-0.2943 3.94147,-0.64642 6.02344,-1.01172 z m -60.31836,1.83594 c -0.17721,2.31145 -0.18924,4.75886 -0.0273,7.37109 -1.55295,1.97911 -3.33549,4.00542 -5.41406,6.10547 0.002,-3.08873 0.17562,-5.88927 0.49219,-8.48242 1.85879,-1.65411 3.50332,-3.31396 4.94922,-4.99414 z m 23.8164,0.0937 c 1.49672,1.7671 3.20934,3.51482 5.16016,5.25781 0.2869,2.50081 0.44225,5.19574 0.43945,8.15234 -2.16861,-2.19816 -4.01218,-4.31216 -5.60937,-6.3789 0.15988,-2.48309 0.16187,-4.81961 0.01,-7.03125 z m -17.85547,1.71094 c 0.26221,2.12952 0.68772,4.34596 1.28321,6.66796 -1.17212,2.32338 -2.57519,4.73888 -4.28125,7.29493 -0.53433,-2.79508 -0.882,-5.38439 -1.07032,-7.81446 1.58524,-2.0837 2.93355,-4.1271 4.06836,-6.14843 z m 12.07227,0.0137 c 1.08115,1.93289 2.35966,3.88543 3.84961,5.875 -0.20645,2.60463 -0.59144,5.38453 -1.20508,8.41211 -1.61747,-2.47094 -2.96278,-4.8104 -4.08984,-7.0586 0.67992,-2.5279 1.1581,-4.92767 1.44531,-7.22851 z m -6.20313,0.57812 c 0.70865,2.20541 1.62305,4.47598 2.75977,6.83203 -0.66909,2.34449 -1.52431,4.81349 -2.60547,7.44727 -1.16248,-2.84489 -2.05479,-5.49117 -2.74023,-8.00195 1.04645,-2.15627 1.9046,-4.243 2.58593,-6.27735 z m -25.63476,0.20313 c -0.72,2.44614 -1.35495,5.09454 -1.88672,8.01367 -0.405894,0.25602 -0.788,0.51055 -1.208985,0.76758 -1.674497,0.40369 -3.522777,0.81663 -5.369141,1.22851 0.05349,-1.89022 0.109363,-3.78157 0.1875,-5.50195 0.116463,-0.31231 0.236199,-0.59497 0.353516,-0.90039 2.933197,-1.15179 5.54753,-2.35517 7.92383,-3.60742 z m 51.67383,0.082 c 2.3548,1.24253 4.94455,2.43731 7.8457,3.58203 0.11638,0.30446 0.23605,0.58715 0.35156,0.89844 0.0791,1.80666 0.13396,3.78581 0.18555,5.77929 -1.94247,-0.44763 -3.87083,-0.89649 -5.625,-1.33398 -0.28311,-0.17591 -0.53631,-0.35 -0.8125,-0.52539 -0.54337,-3.07057 -1.19763,-5.84543 -1.94531,-8.40039 z m -127.009769,0.33594 c 5.482037,1.20294 11.555593,2.09474 17.871093,2.75 -3.823323,4.75207 -7.334864,9.49744 -10.269531,14.0664 -7.037867,-0.23132 -13.105715,-1.13637 -17.394531,-2.93945 1.709374,-4.16886 5.19641,-8.9204 9.792969,-13.87695 z m 201.628909,0.30468 c 4.77629,5.16951 8.39394,10.12348 10.125,14.44141 -4.16678,1.71344 -9.9981,2.57178 -16.75391,2.78516 -2.99663,-4.74559 -6.63156,-9.69305 -10.60351,-14.64649 6.07121,-0.61982 11.91725,-1.45624 17.23242,-2.58008 z m -181.525394,2.67969 c 4.502302,0.42501 9.091182,0.72603 13.638672,0.93164 -2.41926,3.9682 -4.780236,8.02568 -6.980469,12.08008 -0.02162,0.0398 -0.04091,0.0793 -0.0625,0.11914 -5.869486,0.54199 -11.565663,0.81587 -16.802734,0.75195 2.918543,-4.49535 6.398116,-9.19314 10.207031,-13.88281 z m 162.062504,0.13281 c 3.9599,4.89193 7.5626,9.79324 10.54492,14.46289 -5.54076,0.0565 -11.61546,-0.28163 -17.87695,-0.92187 -2.23707,-4.23368 -4.64288,-8.46792 -7.10743,-12.60352 4.81083,-0.19796 9.67087,-0.49519 14.43946,-0.9375 z m -100.05079,0.62696 c -0.24326,2.63139 -0.35514,5.45582 -0.29687,8.54882 -0.34727,0.33123 -0.67135,0.657 -1.0332,0.99219 -1.54079,0.7171 -3.24972,1.47822 -4.95313,2.23633 -0.32112,-1.84239 -0.6391,-3.67773 -0.90234,-5.35937 0.0768,-0.48718 0.16645,-0.93732 0.24804,-1.41016 2.60121,-1.67475 4.88759,-3.33973 6.9375,-5.00781 z m -16.947261,0.2207 c -0.08593,1.88914 -0.145588,3.96767 -0.201171,6.05859 -2.470315,0.53604 -5.056274,1.07206 -7.736329,1.59375 0.523778,-2.58256 1.059844,-5.06538 1.595703,-7.45312 2.197263,-0.053 4.364364,-0.11259 6.341797,-0.19922 z m -29.251953,0.0293 c 3.719316,0.14343 7.40737,0.2385 10.972656,0.26758 -1.283944,3.16555 -2.553417,6.46355 -3.796874,9.80273 -4.672895,0.71466 -9.416934,1.34477 -14.103516,1.82617 2.194134,-3.99673 4.534192,-7.9934 6.927734,-11.89648 z m 101.181644,0.0293 c 1.88888,0.0859 3.9676,0.144 6.05859,0.19922 0.53617,2.47085 1.07193,5.05758 1.59375,7.73828 -2.58228,-0.52373 -5.06527,-1.05982 -7.45312,-1.5957 -0.053,-2.19726 -0.1126,-4.36437 -0.19922,-6.3418 z m -16.91407,0.0762 c 2.0782,1.70047 4.39918,3.40055 7.04297,5.11328 0.0539,0.32146 0.11629,0.62123 0.16797,0.94922 -0.26641,1.70189 -0.58962,3.56766 -0.91406,5.43164 -1.72716,-0.77155 -3.45535,-1.54416 -5.01563,-2.27344 -0.36137,-0.33583 -0.68447,-0.6623 -1.03125,-0.99414 0.0608,-2.96559 -0.0321,-5.68679 -0.25,-8.22656 z m 45.38477,0.0293 c 2.41429,4.02387 4.77853,8.14897 6.98828,12.27735 -4.40074,-0.49445 -8.85126,-1.11343 -13.23828,-1.8125 -1.28834,-3.49095 -2.60913,-6.93717 -3.94336,-10.24219 3.3148,-0.0216 6.74069,-0.10303 10.19336,-0.22266 z m -108.689453,0.084 c -0.555585,2.49461 -1.111571,5.08489 -1.652344,7.78125 -3.232147,0.61095 -6.589157,1.18286 -9.982422,1.72461 1.207361,-3.21714 2.438691,-6.3939 3.681641,-9.43946 2.750041,0.008 5.397948,-0.0192 7.953125,-0.0664 z m 88.224613,0.0684 c 2.6379,0.0546 5.39053,0.0851 8.23828,0.082 1.29213,3.1809 2.57083,6.50163 3.82226,9.86718 -3.54259,-0.58859 -7.04466,-1.21456 -10.41406,-1.8789 -0.53803,-2.79626 -1.09145,-5.49008 -1.64648,-8.07031 z m -32.39258,2.54492 c 1.6756,2.0425 3.5826,4.13022 5.79687,6.28906 -0.0143,0.4795 -0.0153,0.93713 -0.0371,1.42969 -0.59305,1.59517 -1.26936,3.33095 -1.95117,5.07226 -1.51862,-1.08269 -3.04291,-2.16768 -4.41015,-3.17773 -0.28784,-0.40065 -0.54014,-0.78389 -0.81446,-1.17773 0.67349,-3.01866 1.12998,-5.80907 1.41602,-8.43555 z m -23.37305,0.23828 c 0.26011,2.45689 0.67034,5.0598 1.26367,7.85937 -0.32648,0.45932 -0.63312,0.90843 -0.97851,1.37696 -1.26367,0.90976 -2.67371,1.88849 -4.06836,2.85937 -0.61457,-1.58365 -1.23721,-3.18241 -1.77735,-4.64258 -0.0211,-0.49274 -0.0216,-0.95201 -0.0352,-1.43164 2.12405,-2.064 3.96746,-4.06421 5.5957,-6.02148 z m 7.79102,1.03125 c 0.76729,2.51736 1.73133,5.16271 2.95312,7.99023 -0.22923,0.51481 -0.44156,1.01541 -0.6875,1.54297 -1.11623,1.20354 -2.36245,2.50449 -3.60742,3.80274 -0.9613,-1.52016 -1.92521,-3.04323 -2.7793,-4.44532 -0.13595,-0.56643 -0.24312,-1.09981 -0.36523,-1.65039 1.76065,-2.52702 3.23253,-4.92676 4.48633,-7.24023 z m 7.83789,0.54102 c 1.20554,2.2434 2.61449,4.57056 4.28515,7.01757 -0.1088,0.46721 -0.20148,0.91601 -0.32031,1.39453 -0.82037,1.32325 -1.74999,2.76573 -2.66797,4.19532 -1.17256,-1.22857 -2.35939,-2.46834 -3.41601,-3.61133 -0.24525,-0.52836 -0.45504,-1.03131 -0.6836,-1.54688 1.13924,-2.62474 2.05797,-5.09396 2.80274,-7.44921 z m -31.949221,1.47656 -0.0078,0.043 0.02344,0.14648 c 0.294296,1.88573 0.646426,3.94147 1.011716,6.02344 -2.332952,1.02199 -4.784898,2.06716 -7.330076,3.11719 0.0029,-2.73026 0.03695,-5.3719 0.09375,-7.89844 2.086246,-0.46112 4.155499,-0.92283 6.027344,-1.375 l 0.142578,-0.0332 z m 56.253911,0.30468 c 1.91956,0.47888 4.0318,0.96966 6.17382,1.45899 0.0493,2.44706 0.0816,4.98813 0.0801,7.62305 -2.52236,-1.04545 -4.9515,-2.08584 -7.26562,-3.10352 0.36236,-2.06031 0.71933,-4.10989 1.01172,-5.97852 z m -64.363286,1.55274 c -0.05505,2.63781 -0.08516,5.39008 -0.08203,8.23828 -3.180643,1.29201 -6.500035,2.5709 -9.865234,3.82227 0.5886,-3.54264 1.214592,-7.04478 1.878906,-10.41407 2.795612,-0.53791 5.488197,-1.09158 8.06836,-1.64648 z m 72.435546,0.3418 c 2.49583,0.55542 5.08603,1.10943 7.7832,1.65039 0.61106,3.2326 1.18284,6.59055 1.72461,9.98437 -3.2174,-1.20745 -6.39347,-2.4385 -9.43945,-3.68164 0.008,-2.75004 -0.0211,-5.39794 -0.0684,-7.95312 z m -82.505859,1.67773 c -0.682018,3.49896 -1.323234,7.13352 -1.923828,10.80664 -4.301904,1.56736 -8.683329,3.06456 -13.037109,4.41797 1.406194,-4.49748 2.967378,-9.01965 4.599609,-13.45703 3.519603,-0.55317 7.003369,-1.14035 10.361328,-1.76758 z m 92.285159,0.36328 c 3.49905,0.68205 7.13357,1.32324 10.80664,1.92383 1.5674,4.30225 3.06445,8.68303 4.41797,13.03711 -4.49716,-1.40609 -9.02023,-2.96761 -13.45703,-4.59961 -0.55317,-3.5196 -1.14036,-7.00337 -1.76758,-10.36133 z m -65.22852,0.49414 v 0.043 l 0.0527,0.13867 c 0.60903,1.64877 1.30841,3.45244 2.00976,5.25391 -2.04318,1.40459 -4.19602,2.85328 -6.43359,4.32422 -0.49431,-2.46736 -0.94384,-4.85644 -1.35938,-7.16211 1.92605,-0.85274 3.83974,-1.70311 5.5625,-2.50586 l 0.13282,-0.0606 z m 38.46094,0.0312 0.0312,0.0293 0.13477,0.0625 c 1.74416,0.8162 3.67829,1.68114 5.63085,2.54883 -0.44785,2.48747 -0.94118,5.08217 -1.48242,7.75781 -2.28495,-1.53636 -4.47978,-3.04903 -6.5625,-4.51562 0.77207,-1.96758 1.52719,-3.91204 2.19141,-5.70118 l 0.0547,-0.13867 z m -78.025391,1.21875 c -1.64598,4.51033 -3.214203,9.10353 -4.615235,13.66211 -0.01332,0.0433 -0.02577,0.0856 -0.03906,0.12891 -6.058582,1.81526 -11.984052,3.29175 -17.44336,4.26758 2.044496,-5.15545 4.671663,-10.66867 7.658204,-16.24414 0.04533,-0.004 0.08942,-0.007 0.134765,-0.0117 4.745756,-0.46424 9.557983,-1.0886 14.304688,-1.80274 z m 117.748051,0.53711 c 4.49783,0.70479 9.05391,1.32378 13.55078,1.80469 2.7974,5.35414 5.2689,10.65219 7.23242,15.63867 -5.14416,-0.98127 -10.67148,-2.38517 -16.31445,-4.08594 -0.0133,-0.0436 -0.0238,-0.0873 -0.0371,-0.13086 -1.34795,-4.41153 -2.85172,-8.85647 -4.43164,-13.22656 z m -68.91797,0.77344 c 0.0132,0.0552 0.0237,0.10673 0.0371,0.16211 l 0.0352,0.14453 0.0762,0.12695 c 0.95894,1.57587 2.03647,3.28728 3.12696,5.00782 -1.66946,1.72072 -3.4264,3.49868 -5.25977,5.31445 -1.03495,-2.47024 -2.0113,-4.87362 -2.92187,-7.17969 1.58778,-1.10328 3.17545,-2.20861 4.60156,-3.23633 l 0.12109,-0.0859 0.0879,-0.11915 c 0.0337,-0.0455 0.0622,-0.0893 0.0957,-0.13476 z m 19.55273,0.33984 0.0254,0.0352 0.11914,0.0879 c 1.52872,1.13042 3.23495,2.34642 4.95313,3.56641 -0.86658,2.17627 -1.78387,4.4274 -2.75977,6.74609 -1.90025,-1.88815 -3.72076,-3.73776 -5.44336,-5.52148 1.04526,-1.62531 2.09051,-3.25234 3.01563,-4.7461 l 0.0801,-0.125 z m -85.060546,0.35352 c -2.987109,5.63615 -5.635235,11.19842 -7.677734,16.43164 -6.481958,1.01261 -12.198173,1.24665 -16.511719,0.37695 0.879065,-4.56843 3.492288,-10.1204 7.203125,-16.10351 5.305737,0.0904 11.058114,-0.18413 16.986328,-0.70508 z m 48.728516,0.14062 c 0.43676,2.40946 0.90861,4.89928 1.43164,7.48047 -2.85104,1.8519 -5.844987,3.72173 -8.890624,5.57617 -0.106955,-3.32825 -0.179459,-6.62785 -0.19336,-9.81836 2.657939,-1.0898 5.213211,-2.17506 7.652344,-3.23828 z m 53.54883,0.0723 c 2.41802,1.05809 4.94763,2.13826 7.58008,3.22266 -0.0206,3.43381 -0.10514,6.98964 -0.23438,10.57812 -3.04845,-1.89731 -6.04649,-3.81251 -8.90625,-5.71289 0.57075,-2.79045 1.08874,-5.49214 1.56055,-8.08789 z m -26.8086,0.0957 c 0.0239,0.0515 0.0442,0.10068 0.0684,0.15235 l 0.0625,0.13476 0.0996,0.10938 c 1.19243,1.2911 2.52927,2.68902 3.86524,4.08593 -1.35188,2.07832 -2.78857,4.239 -4.29492,6.45313 -1.43559,-2.14612 -2.8021,-4.23827 -4.09571,-6.25781 1.4113,-1.4691 2.80871,-2.93011 4.0625,-4.28321 l 0.10156,-0.10937 0.0625,-0.13281 c 0.024,-0.0513 0.0447,-0.10122 0.0684,-0.15235 z m 74.74024,0.24414 c 6.3202,0.61683 12.4502,0.95533 18.0625,0.86914 3.51545,5.77283 5.98406,11.12339 6.82812,15.54883 -4.56258,0.91217 -10.68923,0.58863 -17.63281,-0.58789 -1.96498,-5.06185 -4.45866,-10.41178 -7.25781,-15.83008 z m -91.20313,3.44727 c 0.95296,2.40642 1.97506,4.91455 3.0625,7.49414 -2.40371,2.35465 -4.94272,4.75506 -7.5332,7.15039 -0.81101,-3.43369 -1.57487,-6.84132 -2.25391,-10.13672 2.34264,-1.53261 4.59055,-3.04316 6.72461,-4.50781 z m -19.818356,0.14062 c 0.02162,3.31471 0.10303,6.74066 0.222657,10.19336 -4.023863,2.41429 -8.148965,4.77854 -12.277344,6.98828 0.494438,-4.40062 1.113419,-8.85119 1.8125,-13.23828 3.490949,-1.28834 6.937163,-2.60913 10.242187,-3.94336 z m 72.554686,0.0605 c 3.16565,1.28399 6.4636,2.55343 9.80274,3.79688 0.71461,4.67318 1.34472,9.41667 1.82617,14.10351 -3.99691,-2.19421 -7.99348,-4.53424 -11.89649,-6.92773 0.14344,-3.71932 0.23851,-7.40738 0.26758,-10.97266 z m -19.99804,0.26953 c 2.17871,1.52831 4.46768,3.10123 6.85546,4.69922 -0.64951,3.12359 -1.3784,6.34207 -2.14648,9.58203 -2.61419,-2.42372 -5.17352,-4.85198 -7.59766,-7.23437 1.02703,-2.42518 1.98139,-4.77247 2.88868,-7.04688 z m -10.8379,1.73438 c 1.79961,1.86002 3.70127,3.78905 5.69141,5.75781 -1.32216,3.09379 -2.74925,6.27986 -4.22851,9.48242 -2.06056,-2.863 -4.06931,-5.71997 -5.95508,-8.50586 1.57978,-2.31108 3.07964,-4.56562 4.49218,-6.73437 z m -11.08203,0.18945 c 1.35444,2.11027 2.78104,4.29146 4.28907,6.53516 -1.82815,2.65566 -3.77135,5.37623 -5.76172,8.10351 -1.40649,-3.06937 -2.76726,-6.12338 -4.0293,-9.08984 1.92425,-1.89738 3.75496,-3.75094 5.50195,-5.54883 z m 53.75391,2.36523 c 4.51026,1.64596 9.10338,3.21417 13.66211,4.61524 0.0433,0.0133 0.0856,0.0259 0.12891,0.0391 1.81525,6.05859 3.29175,11.98405 4.26757,17.44336 -5.15544,-2.0445 -10.66866,-4.67167 -16.24414,-7.6582 -0.004,-0.0453 -0.007,-0.0894 -0.0117,-0.13477 -0.46425,-4.74575 -1.0886,-9.55798 -1.80273,-14.30469 z m -96.673829,0.084 c -0.704799,4.4979 -1.323787,9.05405 -1.804687,13.55078 -5.354142,2.7974 -10.652196,5.26891 -15.638672,7.23242 0.981268,-5.14416 2.385168,-10.67148 4.085937,-16.31445 0.04356,-0.0133 0.08728,-0.0238 0.13086,-0.0371 4.411536,-1.34794 8.856475,-2.85172 13.226562,-4.43164 z m 23.671879,0.75976 c 0.71282,3.42335 1.51556,6.95783 2.36914,10.51563 -3.49492,3.18994 -7.101135,6.35133 -10.742191,9.35937 -0.408054,-4.67085 -0.683869,-9.42001 -0.865234,-14.11328 3.162387,-1.91269 6.273455,-3.84471 9.238285,-5.76172 z m 49.7207,0.68946 c 2.97381,1.9669 6.08827,3.9474 9.25391,5.90625 -0.18929,4.43755 -0.47071,8.92186 -0.86329,13.33203 -3.60575,-2.98894 -7.17814,-6.12829 -10.64062,-9.29688 0.80502,-3.35866 1.56825,-6.69804 2.25,-9.9414 z m -37.42969,3.0625 c 1.31843,3.0812 2.74073,6.24653 4.21094,9.42578 -2.75917,3.73026 -5.6285,7.45815 -8.56445,11.05469 -1.26228,-4.3101 -2.4233,-8.71229 -3.48438,-13.07813 2.69432,-2.47651 5.33477,-4.96055 7.83789,-7.40234 z m 25.18164,0.0195 c 2.52378,2.47002 5.18576,4.98491 7.9043,7.49023 -1.11288,4.56187 -2.32955,9.15945 -3.66016,13.6543 -2.96872,-3.67394 -5.87094,-7.49138 -8.66015,-11.31445 1.54518,-3.31537 3.03546,-6.61824 4.41601,-9.83008 z m -76.658201,0.5664 c -1.692584,5.70686 -3.107377,11.28943 -4.076171,16.50782 -6.602458,2.4432 -12.56312,3.8968 -17.214844,3.84765 0.0075,-4.40011 1.374016,-9.95579 3.658203,-16.10547 5.535733,-0.95864 11.513846,-2.44611 17.632812,-4.25 z m 128.132811,0.10547 c 5.70686,1.69259 11.28943,3.10738 16.50781,4.07618 2.4432,6.60245 3.8968,12.56312 3.84766,17.21484 -4.40012,-0.008 -9.95581,-1.37401 -16.10547,-3.6582 -0.95864,-5.53574 -2.44613,-11.51385 -4.25,-17.63282 z m -64.26758,0.55469 c 1.9661,2.89157 4.05837,5.85252 6.20508,8.81641 -1.91061,4.06692 -3.92497,8.14843 -6.02148,12.12109 -2.15991,-4.10931 -4.22962,-8.33345 -6.18946,-12.53906 2.07447,-2.82242 4.09965,-5.64171 6.00586,-8.39844 z m -35.771481,1.89063 c 0.197966,4.81088 0.495212,9.671 0.9375,14.43945 -4.891139,3.95926 -9.791968,7.56093 -14.460937,10.54297 -0.05644,-5.54024 0.279754,-11.61422 0.919922,-17.875 4.233681,-2.23706 8.467922,-4.64287 12.603515,-7.10742 z m 71.912111,0.85547 c 3.96814,2.41922 8.02555,4.78017 12.08008,6.98046 0.0398,0.0216 0.0793,0.0409 0.11914,0.0625 0.54198,5.86949 0.81586,11.56567 0.75195,16.80274 -4.49536,-2.91855 -9.19315,-6.39811 -13.88281,-10.20703 0.42499,-4.5023 0.72602,-9.09118 0.93164,-13.63867 z m -57.95313,4.87109 c 1.10433,4.47437 2.31282,8.97731 3.62696,13.37891 -4.03131,4.84449 -8.14999,9.35078 -12.166019,13.21874 -1.083571,-5.2508 -1.911906,-11.04113 -2.498047,-17.05664 3.738434,-3.05499 7.442906,-6.28009 11.037106,-9.54101 z m 44.10157,0.11914 c 3.5614,3.23931 7.23302,6.44079 10.93554,9.47656 -0.62052,6.26228 -1.50248,12.28169 -2.66211,17.69922 -3.98089,-3.85327 -8.06625,-8.36176 -12.07031,-13.2168 1.38357,-4.58375 2.64453,-9.2855 3.79688,-13.95898 z M 77.375,201.82617 c -0.616831,6.3202 -0.955324,12.4502 -0.869141,18.0625 -5.772826,3.51546 -11.123381,5.98407 -15.548828,6.82813 -0.912159,-4.56259 -0.588622,-10.68924 0.587891,-17.63282 5.061848,-1.96498 10.411782,-4.45866 15.830078,-7.25781 z m 43.09375,0.10742 c 2.02552,4.30704 4.1635,8.62718 6.39453,12.81836 -2.96452,5.4915 -6.07843,10.67318 -9.21875,15.22657 -2.16975,-5.08803 -4.18571,-10.78776 -5.99609,-16.75977 3.02173,-3.66247 5.97693,-7.46834 8.82031,-11.28516 z m 14.74414,0.43164 c 2.8727,3.9126 5.86116,7.81151 8.91602,11.55079 -1.77358,5.77859 -3.73882,11.28888 -5.84766,16.21875 -3.16565,-4.59204 -6.30333,-9.83026 -9.28906,-15.38282 2.16486,-4.05086 4.24691,-8.22286 6.2207,-12.38672 z m 42.85938,0.27149 c 5.63615,2.98711 11.19842,5.63524 16.43164,7.67773 1.01261,6.48196 1.24664,12.19817 0.37695,16.51172 -4.56844,-0.87906 -10.1204,-3.49229 -16.10352,-7.20312 0.0904,-5.30574 -0.18413,-11.05812 -0.70507,-16.98633 z m -84.927739,7.72461 c 0.619821,6.07121 1.456242,11.91725 2.580078,17.23242 -5.169503,4.77629 -10.123472,8.39395 -14.441406,10.125 -1.713604,-4.16719 -2.571884,-9.99922 -2.785156,-16.75586 4.745319,-2.99652 9.693359,-6.62984 14.646484,-10.60156 z m 69.576169,0.0566 c 4.75208,3.82332 9.49745,7.33486 14.06641,10.26953 -0.23132,7.03787 -1.13637,13.10571 -2.93945,17.39453 -4.16887,-1.70937 -8.9204,-5.19641 -13.87696,-9.79297 1.20295,-5.48203 2.09475,-11.55559 2.75,-17.87109 z m -52.50781,4.52344 c 1.85688,6.01676 3.8927,11.7677 6.11328,16.91015 -4.15638,5.77006 -8.33372,10.34854 -12.25586,12.91992 -2.58503,-3.86781 -4.624625,-9.6534 -6.189451,-16.51757 4.085311,-3.89859 8.240181,-8.44504 12.332031,-13.3125 z m 35.35352,0.69726 c 4.06264,4.87998 8.18494,9.42795 12.23828,13.31055 -1.55589,6.57795 -3.55875,12.12154 -6.06836,15.86328 -3.88644,-2.55707 -8.02061,-7.09138 -12.13477,-12.80273 2.16043,-4.98402 4.14757,-10.54613 5.96485,-16.3711 z m -17.64063,1.08594 c 3.04007,5.58642 6.20676,10.87086 9.4336,15.50586 -2.90168,6.41405 -6.05549,11.6764 -9.35938,14.95117 -3.33086,-3.30148 -6.51251,-8.62074 -9.43555,-15.10352 3.20129,-4.59712 6.34221,-9.82725 9.36133,-15.35351 z"/></g><text x="0" y="271" fill="#000000" font-size="5px" font-weight="bold" font-family="'Helvetica Neue', Helvetica, Arial-Unicode, Arial, Sans-serif">Created by Hassan Khaled</text><text x="0" y="276" fill="#000000" font-size="5px" font-weight="bold" font-family="'Helvetica Neue', Helvetica, Arial-Unicode, Arial, Sans-serif">from the Noun Project</text></svg>