<?xml version="1.0" standalone="no"?>
<!DOCTYPE svg PUBLIC "-//W3C//DTD SVG 20010904//EN"
 "http://www.w3.org/TR/2001/REC-SVG-20010904/DTD/svg10.dtd">
<svg version="1.0" xmlns="http://www.w3.org/2000/svg"
 width="1280.000000pt" height="710.000000pt" viewBox="0 0 1280.000000 710.000000"
 preserveAspectRatio="xMidYMid meet">
<metadata>
Created by potrace 1.15, written by Peter Selinger 2001-2017
</metadata>
<g transform="translate(0.000000,710.000000) scale(0.100000,-0.100000)"
fill="#000000" stroke="none">
<path d="M100 7055 c-128 -57 -128 -63 -3 -160 222 -173 386 -269 556 -327 79
-27 110 -32 221 -36 l129 -4 54 -54 c44 -43 52 -55 39 -60 -9 -4 -83 -4 -164
-1 -266 9 -447 80 -804 313 l-128 83 0 -33 c0 -33 6 -38 142 -127 301 -196
547 -289 772 -289 l71 0 -50 -28 c-193 -107 -338 -276 -425 -497 -60 -155 -81
-269 -87 -487 -11 -378 52 -698 191 -964 33 -62 52 -112 49 -121 -5 -12 -2
-15 9 -10 11 4 25 -6 43 -33 44 -63 204 -211 290 -269 179 -120 396 -200 638
-236 113 -16 393 -21 475 -7 28 5 52 6 52 2 0 -3 -12 -17 -26 -31 -42 -39
-130 -178 -183 -290 -72 -149 -119 -300 -211 -669 -115 -459 -176 -630 -285
-806 -25 -40 -45 -77 -45 -83 0 -30 35 -19 102 32 158 121 325 213 683 377
422 193 598 302 774 477 62 62 110 105 106 95 -49 -115 -69 -380 -41 -542 15
-85 81 -308 95 -320 3 -3 19 -30 35 -60 243 -460 767 -726 1322 -671 127 13
170 23 334 77 241 81 516 269 676 463 l58 71 17 -102 c22 -127 64 -250 134
-390 66 -131 131 -234 315 -498 256 -366 349 -532 414 -733 27 -82 37 -102 52
-102 16 0 21 11 27 60 13 92 52 243 82 320 15 39 85 187 155 330 140 285 177
374 215 522 52 198 75 445 58 611 -5 45 -8 82 -8 82 1 0 53 -52 116 -116 130
-132 225 -211 354 -297 437 -288 927 -344 1331 -153 131 62 206 116 309 221
136 138 212 283 257 485 21 97 23 128 22 390 -1 189 -6 318 -16 382 -13 94
-13 99 6 117 19 20 19 20 -7 30 -15 6 -27 17 -27 26 0 9 31 -10 80 -50 90 -73
196 -130 315 -168 200 -65 307 -77 835 -87 471 -9 518 -14 687 -60 42 -11 110
-36 151 -55 83 -39 112 -43 112 -18 0 29 -232 438 -373 658 -250 390 -497 673
-789 904 -4 4 32 3 80 0 547 -38 1068 305 1256 829 63 177 84 423 52 609 -52
293 -225 569 -451 719 -30 20 -55 37 -55 38 0 1 42 -1 93 -2 248 -9 483 74
937 333 200 115 372 204 458 238 36 14 42 21 42 46 l0 29 -50 -19 c-102 -39
-241 -108 -473 -238 -459 -256 -648 -327 -919 -347 -71 -5 -98 -4 -98 5 0 6 6
11 13 11 17 0 133 74 169 108 22 20 39 25 81 27 82 2 212 71 395 209 170 129
285 200 412 256 74 32 231 87 295 103 11 2 -17 5 -63 6 -72 1 -94 -3 -170 -33
-178 -69 -304 -142 -482 -280 -145 -113 -220 -163 -306 -202 -99 -46 -118 -45
-72 4 43 45 90 114 124 182 35 70 76 97 333 220 l220 105 -49 3 c-45 3 -66 -6
-247 -97 -109 -55 -200 -98 -202 -96 -2 2 1 26 7 52 6 26 14 69 17 96 l6 47
-30 0 c-28 0 -31 -3 -31 -30 0 -59 -32 -186 -66 -258 -91 -197 -248 -341 -448
-407 -129 -43 -304 -44 -409 -3 -40 15 -56 -2 -33 -36 26 -41 48 -142 41 -189
-3 -23 -15 -91 -27 -152 -27 -147 -22 -249 16 -325 39 -76 88 -133 146 -171
28 -18 50 -34 50 -35 0 -2 -20 -12 -45 -23 -76 -34 -208 -125 -283 -196 -132
-124 -213 -252 -287 -453 -24 -67 -54 -141 -66 -164 -53 -104 -127 -164 -217
-175 -41 -5 -51 -10 -56 -28 -5 -18 8 -37 64 -94 183 -186 273 -373 274 -571
1 -171 -50 -300 -166 -425 -258 -276 -650 -338 -1014 -160 -62 30 -129 71
-150 92 -46 44 -83 66 -101 59 -9 -4 -13 -25 -13 -65 0 -123 -53 -233 -186
-385 -181 -207 -227 -279 -254 -396 -15 -64 -18 -178 -7 -267 l8 -61 -108 54
c-161 80 -273 108 -448 108 -105 1 -174 -5 -275 -23 -162 -28 -282 -26 -371 8
-55 21 -167 88 -196 116 -7 8 -20 12 -28 9 -12 -5 -15 -26 -15 -93 0 -159 -54
-307 -160 -438 -51 -63 -147 -139 -210 -166 -19 -9 -52 -23 -74 -32 -66 -29
-193 -47 -281 -39 -277 23 -514 152 -600 327 -53 109 -67 175 -71 326 -2 74
-8 139 -13 144 -6 6 -29 -6 -63 -35 -107 -91 -138 -99 -443 -108 -269 -8 -309
-14 -424 -66 -104 -48 -193 -118 -325 -255 l-114 -119 -12 72 c-45 278 -119
428 -335 673 -136 155 -210 257 -256 351 -43 89 -74 210 -65 261 4 25 0 35
-14 43 -16 8 -27 1 -72 -46 -154 -161 -367 -254 -588 -256 -119 -1 -190 15
-283 65 -116 61 -230 223 -274 387 -24 88 -23 270 1 365 37 148 176 380 242
405 34 13 32 48 -3 56 -85 19 -115 30 -184 65 -42 22 -127 76 -190 120 -273
192 -443 227 -736 151 l-112 -29 39 77 c51 101 105 258 132 384 29 134 30 396
4 606 -26 199 -25 401 2 502 33 121 59 174 94 189 l30 12 -23 18 c-30 23 -45
24 -53 3 -6 -14 -20 -16 -99 -12 -234 12 -432 143 -508 335 -33 83 -34 262 -1
343 12 30 22 56 22 58 0 1 -13 2 -29 2 -24 0 -31 -6 -45 -40 -30 -75 -40 -174
-28 -258 7 -41 10 -77 8 -80 -16 -16 -101 -12 -164 7 -59 18 -226 113 -354
202 l-23 17 65 31 c36 17 97 51 135 76 l70 44 -41 1 c-30 0 -60 -11 -110 -40
-38 -22 -98 -50 -134 -63 -43 -15 -65 -28 -65 -39 0 -29 319 -229 420 -263 56
-19 146 -22 187 -6 26 10 28 8 62 -61 20 -40 34 -73 32 -75 -1 -2 -38 2 -81 8
-94 13 -222 49 -322 91 -121 50 -368 206 -480 303 l-36 31 114 56 114 57 -45
-1 c-31 0 -74 -13 -140 -43z m1170 -709 c41 -14 88 -28 104 -31 28 -6 26 -9
-53 -51 l-84 -44 -76 26 c-55 19 -98 27 -157 28 -45 0 -80 4 -78 7 5 10 135
71 179 85 47 16 65 13 165 -20z m9805 -47 c-13 -16 -25 -33 -27 -39 -2 -7 -36
4 -85 27 l-81 39 108 0 109 0 -24 -27z m195 -27 c36 -23 50 -37 40 -40 -32
-10 -68 -43 -84 -77 l-17 -35 -47 39 c-26 22 -58 49 -71 59 -24 19 -24 20 -8
46 10 14 34 34 55 45 41 21 40 21 132 -37z m-9760 6 c-65 -111 -79 -328 -40
-638 38 -303 20 -550 -55 -777 -27 -79 -95 -226 -136 -296 -21 -33 -21 -39 -8
-52 13 -14 23 -12 89 10 193 67 337 85 460 61 114 -23 179 -56 361 -178 86
-57 182 -115 212 -129 31 -13 57 -27 57 -31 0 -12 -139 -86 -225 -119 -244
-95 -500 -110 -729 -44 -114 33 -185 66 -281 130 -397 264 -541 772 -374 1319
103 337 306 589 593 738 50 25 92 45 94 44 1 -2 -6 -19 -18 -38z m9511 -85
c201 -120 342 -307 415 -548 25 -81 28 -105 28 -245 0 -140 -3 -164 -27 -243
-51 -165 -128 -296 -250 -424 -177 -185 -407 -295 -676 -324 -98 -11 -124 -10
-267 10 -149 22 -194 31 -148 31 36 0 123 51 153 88 40 51 82 136 136 277 57
146 98 222 174 317 106 134 216 219 388 300 57 27 103 55 103 62 0 8 -29 28
-64 44 -179 84 -248 259 -197 497 12 55 22 134 23 177 l0 77 67 -25 c36 -13
100 -45 142 -71z m-9896 22 c28 -10 53 -21 58 -24 4 -4 -31 -45 -78 -92 l-85
-85 -27 17 c-49 32 -146 52 -223 46 l-70 -6 36 44 c20 25 57 63 83 85 l46 41
105 -5 c63 -2 125 -11 155 -21z m10334 -101 c45 -48 81 -90 81 -94 0 -4 -15
-11 -34 -14 -19 -4 -55 -25 -80 -47 -26 -23 -48 -40 -50 -38 -1 2 -13 20 -26
39 -13 19 -44 59 -69 88 -39 47 -43 56 -35 80 12 33 68 72 105 72 21 0 44 -18
108 -86z m-10614 -75 c33 -6 80 -22 107 -35 l47 -24 -36 -52 c-19 -29 -46 -75
-60 -101 -21 -42 -28 -48 -46 -43 -86 25 -197 12 -288 -35 l-42 -21 7 29 c17
67 112 253 138 269 12 8 69 21 99 23 8 0 42 -4 74 -10z m10777 -159 c67 -136
67 -132 10 -152 -26 -10 -66 -33 -89 -53 -23 -19 -44 -32 -46 -28 -2 5 -12 33
-22 63 -10 30 -30 81 -46 113 -22 44 -26 63 -19 77 18 33 112 81 150 77 8 -1
36 -45 62 -97z m-10767 -147 c-24 -56 -63 -164 -74 -205 l-13 -46 -79 1 c-72
0 -86 -3 -149 -35 -57 -30 -70 -33 -70 -20 1 28 19 154 32 209 10 50 13 52 67
76 75 33 81 34 195 36 90 1 98 0 91 -16z m10849 -55 c26 -93 57 -308 44 -308
-3 0 -20 7 -38 16 -25 13 -50 15 -110 11 l-77 -5 -6 107 -7 106 38 33 c32 28
102 59 138 61 7 1 15 -9 18 -21z m-10963 -238 c14 0 15 -7 4 -67 -7 -38 -16
-98 -20 -135 l-7 -68 -44 0 c-53 0 -102 -19 -154 -60 -21 -16 -41 -30 -44 -30
-3 0 -6 65 -6 144 l0 143 40 27 c51 33 134 57 180 51 19 -3 42 -5 51 -5z
m10954 -89 l50 -18 -3 -64 c-7 -162 -87 -387 -195 -548 l-30 -44 -12 30 c-16
39 -80 91 -127 104 -21 5 -38 12 -38 14 0 3 14 27 30 53 17 27 46 84 66 127
l36 77 36 -7 c20 -4 62 -20 95 -36 60 -31 80 -31 61 -1 -19 29 -71 53 -130 59
-54 6 -56 7 -50 32 3 14 12 58 20 96 9 39 16 84 16 102 0 25 5 33 23 36 48 9
104 5 152 -12z m-10974 -314 c4 -53 10 -117 13 -142 7 -44 6 -45 -19 -45 -52
0 -132 -64 -155 -125 -12 -30 -12 -30 -21 -7 -9 24 -43 195 -53 268 -6 39 -3
44 35 78 22 20 52 42 67 47 33 13 103 28 117 25 6 -2 13 -46 16 -99z m43 -286
c10 -38 33 -105 52 -148 31 -71 33 -79 18 -88 -37 -21 -90 -75 -114 -114 -14
-22 -28 -41 -32 -41 -11 0 -95 178 -109 231 -17 64 -5 114 39 161 30 31 91 65
123 68 3 0 13 -31 23 -69z m10645 10 c26 -19 81 -98 81 -117 0 -8 -181 -194
-190 -194 -3 0 -11 20 -18 46 -9 31 -27 59 -60 92 l-47 47 70 78 c65 73 72 78
103 73 18 -2 45 -14 61 -25z m-178 -260 c11 -31 25 -61 30 -67 11 -13 -75 -72
-186 -127 l-70 -35 -11 69 c-7 38 -21 85 -32 103 l-21 35 72 45 c40 25 86 56
102 70 l30 25 33 -32 c17 -17 41 -56 53 -86z m-10326 -58 c16 -26 55 -75 87
-109 l58 -61 -22 -19 c-34 -30 -59 -99 -59 -160 l0 -55 -38 30 c-51 41 -152
149 -191 205 l-31 46 30 44 c28 41 116 126 130 126 3 0 19 -21 36 -47z m10034
-47 c12 -23 21 -58 21 -77 0 -19 5 -40 11 -46 9 -9 -7 -17 -58 -32 -38 -11
-83 -24 -100 -27 l-31 -6 -5 78 c-2 44 -8 88 -11 99 -6 17 2 24 61 46 77 30
82 29 112 -35z m-729 -32 c36 -7 102 -14 148 -14 92 0 96 -3 96 -72 1 -55 -32
-94 -75 -90 -110 8 -116 11 -154 63 -20 28 -55 71 -78 97 -28 30 -35 43 -22
38 11 -4 49 -14 85 -22z m515 -6 c19 -32 28 -138 14 -153 -11 -10 -129 -25
-207 -25 l-73 0 18 33 c10 19 17 53 16 85 0 46 2 53 21 56 11 2 55 11 96 19
41 8 80 15 85 16 6 0 19 -14 30 -31z m-9599 -148 c21 -17 64 -47 96 -66 32
-20 58 -37 58 -40 0 -2 -8 -23 -17 -46 -11 -27 -18 -68 -17 -110 0 -38 -2 -68
-4 -68 -18 0 -208 109 -223 128 -36 46 -18 154 33 209 12 13 25 23 28 23 4 0
25 -14 46 -30z m1310 -72 c-54 -62 -130 -209 -148 -287 -16 -72 -45 -87 -89
-45 -38 37 -77 116 -85 175 l-6 47 68 22 c79 26 213 89 264 124 19 13 37 22
39 20 2 -1 -18 -27 -43 -56z m7932 -52 c319 -245 612 -608 919 -1136 145 -248
171 -295 169 -297 -1 -2 -42 10 -89 26 -199 68 -337 82 -807 86 -215 2 -425 8
-475 14 -288 38 -479 112 -664 259 -23 19 -22 19 117 17 122 -2 144 -5 169
-22 84 -60 241 -115 393 -139 63 -10 228 -18 485 -24 293 -6 413 -12 483 -25
107 -20 133 -12 86 27 -156 129 -217 213 -373 521 -60 119 -133 251 -161 291
-59 86 -165 195 -216 222 -21 12 -34 26 -34 39 0 11 -15 57 -34 103 -18 45
-31 82 -29 82 3 0 30 -20 61 -44z m-8921 -46 l71 -23 -5 -72 c-5 -58 -2 -80
15 -117 l20 -46 -37 10 c-20 5 -76 21 -124 35 -74 22 -91 31 -99 52 -13 35 -4
128 17 173 17 35 19 36 44 24 14 -8 58 -24 98 -36z m626 -69 c7 -59 38 -124
80 -168 l30 -32 -24 -6 c-13 -3 -71 -7 -129 -8 l-105 -2 -27 54 c-22 42 -28
69 -28 117 l0 62 65 7 c35 3 77 10 92 15 15 5 31 9 34 9 3 1 9 -21 12 -48z
m-338 14 l90 -7 0 -62 c0 -48 6 -74 28 -115 l28 -54 -103 7 c-170 12 -180 15
-203 61 -19 39 -33 151 -22 179 4 10 15 12 49 6 24 -4 84 -11 133 -15z m8756
-212 c79 -85 137 -176 255 -404 129 -249 181 -333 261 -420 31 -32 51 -59 47
-59 -5 0 -40 5 -79 11 -38 6 -248 14 -465 19 -468 10 -550 22 -742 107 -59 26
-74 43 -38 43 10 0 54 11 96 24 l77 25 51 -29 c82 -45 137 -52 371 -45 239 8
281 2 367 -50 63 -39 78 -43 78 -19 0 29 -283 552 -336 622 l-50 67 4 97 4 98
27 -19 c15 -11 47 -41 72 -68z m-8231 -119 c0 -72 -2 -78 -34 -115 -82 -97
-135 -240 -196 -531 -54 -265 -113 -441 -207 -628 -55 -110 -73 -154 -65 -162
8 -8 83 23 277 115 418 199 520 261 651 399 75 79 144 177 144 203 0 12 6 15
20 10 19 -6 170 7 239 21 l35 7 -34 -49 c-19 -27 -86 -101 -150 -165 -170
-171 -363 -292 -740 -464 -230 -106 -448 -217 -552 -282 l-95 -60 47 101 c70
148 129 332 220 686 94 366 141 512 215 668 75 156 186 322 215 322 6 0 10
-34 10 -76z m8161 -115 c39 -58 269 -481 264 -487 -1 -1 -17 4 -36 12 -59 25
-154 29 -342 16 -195 -13 -257 -8 -340 28 l-42 18 60 32 c94 51 191 129 250
201 50 62 125 199 125 228 0 27 21 11 61 -48z m-8140 -99 l19 -82 -24 -19
c-47 -37 -75 -115 -97 -270 -51 -370 -64 -418 -141 -496 -27 -28 -39 -47 -34
-58 8 -21 21 -17 172 56 202 98 330 191 424 308 27 34 53 69 58 77 8 15 16 15
71 3 l61 -14 -35 -52 c-54 -80 -151 -180 -240 -246 -54 -40 -175 -107 -370
-203 -159 -79 -292 -144 -296 -144 -5 0 17 51 46 113 71 146 125 313 170 523
44 204 68 300 95 379 24 70 91 217 97 211 2 -2 13 -41 24 -86z m50 -147 c35
-93 165 -239 247 -278 23 -11 42 -22 42 -25 0 -3 -23 -36 -51 -73 -53 -70
-141 -148 -239 -209 -53 -34 -194 -108 -205 -108 -3 0 1 12 9 28 27 52 47 138
72 307 39 267 48 310 82 363 19 29 30 28 43 -5z m6653 -105 c109 -241 161
-537 138 -786 -15 -163 -41 -264 -99 -382 -38 -80 -60 -109 -132 -181 -72 -73
-101 -94 -183 -133 -142 -69 -250 -89 -443 -83 -123 4 -171 10 -265 35 -369
95 -655 298 -877 619 -29 42 -51 78 -49 80 2 2 23 -9 47 -25 118 -79 288 -101
495 -66 143 25 389 25 486 1 112 -28 221 -75 313 -134 110 -71 115 -68 90 64
-12 57 -19 138 -19 193 1 153 43 236 218 435 54 61 120 144 147 185 48 72 89
177 89 226 0 13 3 24 6 24 3 0 20 -33 38 -72z m-5438 -143 c36 -112 113 -224
293 -425 137 -153 219 -272 260 -378 28 -73 69 -253 86 -375 9 -64 29 -71 69
-25 242 273 357 364 531 418 61 19 104 23 325 29 220 7 263 11 315 29 33 11
61 19 63 17 6 -6 -58 -157 -95 -223 -128 -228 -352 -430 -590 -531 -316 -135
-635 -130 -928 14 -375 184 -569 587 -515 1070 21 189 96 484 133 523 l22 24
7 -58 c4 -32 15 -81 24 -109z m5700 61 l69 -23 7 -59 c6 -42 4 -60 -5 -66 -18
-12 -117 -9 -156 5 -39 14 -38 12 -81 132 -18 50 -35 96 -37 102 -3 7 26 -6
65 -28 38 -22 101 -51 138 -63z m-5856 -57 c-10 -31 -26 -88 -35 -128 -15 -60
-21 -71 -34 -64 -31 15 -106 8 -148 -13 -24 -12 -43 -19 -43 -15 0 3 15 42 33
85 l32 80 80 40 c44 23 91 49 105 58 13 10 25 16 26 15 2 -1 -5 -27 -16 -58z
m5791 -125 c26 -9 67 -14 99 -12 l55 3 7 -45 c3 -25 9 -91 13 -147 l8 -101
-46 -7 c-48 -7 -107 6 -126 29 -6 7 -16 48 -22 92 -10 77 -24 150 -35 187 -6
21 -7 21 47 1z m-5855 -134 c-4 -19 -9 -65 -13 -101 l-6 -66 -57 -6 c-47 -4
-89 -18 -163 -55 -8 -4 -6 13 14 135 16 92 76 134 182 130 l49 -2 -6 -35z
m5991 -214 l53 0 0 -129 c0 -113 -2 -130 -19 -149 l-20 -20 -69 21 c-38 11
-73 26 -78 33 -5 7 -8 75 -6 150 l3 137 42 -22 c27 -14 59 -21 94 -21z m-6017
-86 l0 -90 -35 0 c-44 0 -100 -28 -140 -70 l-30 -31 -6 23 c-4 13 -7 59 -8
104 -1 69 2 84 19 99 27 24 116 54 163 55 l37 0 0 -90z m21 -216 c14 -78 14
-86 0 -91 -56 -17 -96 -42 -131 -80 l-40 -43 -10 25 c-21 54 -41 147 -35 164
9 29 76 91 109 100 17 5 45 10 61 10 30 1 30 1 46 -85z m2239 10 c0 -43 27
-178 44 -219 16 -38 11 -54 -14 -48 -18 5 -20 0 -20 -36 0 -34 -3 -41 -19 -41
-35 0 -74 20 -107 55 l-33 35 49 92 c26 51 56 119 66 150 19 62 34 67 34 12z
m3664 -9 c31 -16 66 -25 94 -25 l45 0 -7 -57 c-11 -98 -38 -204 -52 -210 -23
-8 -106 16 -147 43 -45 29 -57 25 -33 -11 19 -30 83 -64 137 -73 l39 -7 -33
-75 c-18 -41 -52 -103 -75 -137 l-42 -61 -52 12 c-29 7 -64 18 -78 25 -30 16
-90 71 -90 84 0 5 20 32 45 60 80 91 151 254 189 430 4 15 7 27 9 27 1 0 24
-11 51 -25z m-2125 -38 c13 -23 42 -66 64 -96 30 -41 37 -56 26 -59 -28 -10
-89 -80 -95 -111 l-7 -32 -34 33 c-56 53 -56 57 -23 156 16 50 30 104 30 121
0 42 10 39 39 -12z m-3719 -179 c19 -51 36 -95 38 -98 1 -3 -19 -11 -45 -18
-32 -9 -59 -26 -84 -52 l-37 -39 -15 22 c-27 41 -67 126 -67 142 0 27 79 103
123 119 23 8 44 15 47 15 3 0 21 -41 40 -91z m3951 -165 c-18 -15 -43 -48 -55
-75 l-21 -48 -73 73 -74 74 16 34 c18 41 32 58 71 86 l30 22 70 -70 70 -69
-34 -27z m-1825 15 c19 -6 34 -15 34 -18 0 -10 -44 -67 -92 -118 -45 -48 -47
-49 -90 -42 -56 8 -84 24 -102 58 -13 26 -12 29 33 82 26 30 60 72 75 92 l28
38 40 -40 c22 -21 55 -45 74 -52z m204 -20 c17 -20 30 -46 30 -58 0 -79 89
-289 183 -432 29 -46 105 -148 167 -228 240 -309 301 -421 331 -605 7 -44 16
-84 20 -89 15 -17 38 15 60 82 12 37 57 155 100 263 141 354 181 490 197 671
8 87 1 262 -11 274 -3 3 20 28 50 57 30 28 71 74 91 101 l37 51 7 -50 c12 -91
8 -322 -7 -437 -34 -257 -84 -403 -255 -749 -125 -251 -164 -344 -204 -481
l-25 -83 -12 34 c-22 62 -115 244 -174 341 -31 52 -131 201 -220 330 -279 402
-377 585 -435 808 -36 137 -39 191 -16 240 l21 43 17 -23 c10 -13 32 -40 48
-60z m-2260 23 c0 -6 22 -39 49 -75 43 -57 47 -66 31 -71 -24 -8 -100 -91
-100 -110 0 -25 -13 -17 -55 33 -93 108 -98 117 -81 150 18 35 53 59 103 71
52 12 53 12 53 2z m4077 -110 l32 -22 -39 -39 c-26 -26 -44 -55 -51 -85 -6
-25 -14 -45 -17 -45 -2 0 -40 28 -83 63 -50 40 -78 69 -78 82 -1 34 42 97 78
116 l34 18 46 -33 c25 -18 60 -42 78 -55z m-1650 -44 c65 -38 72 -45 73 -73 0
-63 79 -181 220 -329 166 -176 223 -255 256 -355 12 -37 21 -50 35 -50 11 0
19 3 19 8 1 38 40 172 86 296 67 180 88 270 80 347 -3 31 -8 62 -11 70 -3 9
12 23 48 42 29 15 56 27 61 27 14 0 -1 -308 -19 -390 -25 -114 -68 -241 -168
-503 l-91 -239 -21 69 c-47 150 -125 278 -326 533 -149 189 -211 288 -276 437
-29 68 -60 137 -69 155 l-17 32 24 -17 c13 -9 56 -36 96 -60z m-549 -63 c18
-4 32 -9 31 -13 0 -7 -123 -112 -146 -125 -21 -11 -100 20 -118 47 -30 48 -24
65 49 126 l70 58 41 -44 c25 -25 54 -45 73 -49z m3626 12 c38 -38 71 -59 107
-71 l53 -18 -49 -43 c-28 -24 -78 -62 -111 -84 l-61 -41 -54 21 c-30 11 -64
29 -76 39 -30 25 -73 90 -73 110 0 10 26 29 64 49 35 18 81 46 102 62 22 16
40 30 41 30 0 0 26 -24 57 -54z m-1281 13 c34 -17 64 -33 66 -35 3 -2 -7 -17
-22 -32 -26 -28 -57 -90 -57 -116 0 -8 5 -27 11 -43 11 -27 12 -27 29 36 13
45 28 74 54 99 l35 36 90 -29 90 -28 -35 -41 c-32 -37 -64 -116 -64 -158 0
-10 -4 -18 -9 -18 -24 0 -187 77 -271 128 -102 62 -112 78 -90 133 13 30 82
99 100 99 6 0 39 -14 73 -31z m-3960 -94 l27 -17 -30 -35 c-28 -32 -35 -56
-30 -112 2 -26 4 -27 -80 30 -91 61 -150 118 -143 137 13 36 46 73 81 91 l37
19 55 -48 c30 -26 67 -55 83 -65z m2411 33 c104 -28 309 -31 401 -5 32 9 62
14 65 11 3 -3 5 -49 5 -102 -1 -88 -5 -108 -43 -217 -24 -66 -55 -155 -71
-198 l-27 -78 -47 74 c-26 41 -106 136 -178 213 -173 183 -259 295 -259 337 0
16 2 16 37 2 20 -9 73 -25 117 -37z m-1066 -43 c14 -36 64 -85 88 -85 32 0 9
-20 -93 -78 -92 -53 -109 -60 -123 -48 -8 8 -25 17 -37 20 -25 8 -83 70 -83
89 0 7 40 32 88 56 49 24 100 52 113 62 32 25 33 24 47 -16z m3602 -10 c0 -50
93 -158 147 -171 13 -4 23 -9 23 -14 0 -8 -112 -52 -194 -75 -55 -16 -60 -16
-98 1 -73 33 -148 140 -148 212 0 5 35 14 78 20 42 7 97 19 122 27 59 18 70
18 70 0z m-575 -20 c44 -8 81 -14 81 -15 1 0 -3 -19 -8 -42 -13 -58 -4 -142
21 -184 l21 -35 -47 6 c-27 4 -87 16 -134 26 l-87 20 -6 40 c-4 22 -1 59 5 81
11 43 54 118 67 118 4 0 43 -7 87 -15z m-4137 -85 l59 -21 -24 -47 c-15 -30
-23 -59 -21 -79 3 -21 0 -33 -8 -33 -11 0 -147 53 -206 80 -56 26 -49 133 12
165 20 11 31 8 77 -16 29 -15 79 -37 111 -49z m4412 47 c0 -60 33 -132 81
-181 27 -27 48 -50 47 -51 -2 -2 -48 -6 -103 -10 l-101 -7 -36 40 c-40 44 -58
94 -58 159 0 71 3 73 91 73 76 0 79 -1 79 -23z m-3575 -58 c9 -28 74 -99 91
-99 7 0 15 -4 18 -9 7 -11 -115 -57 -218 -81 -78 -19 -79 -19 -107 1 -29 20
-63 95 -57 125 2 13 20 21 68 31 36 7 90 21 120 32 73 25 77 25 85 0z m-605
-45 c72 -9 71 -8 54 -51 -11 -25 -14 -53 -11 -85 l6 -47 -32 5 c-218 36 -225
41 -192 121 26 62 44 76 90 68 22 -3 60 -8 85 -11z m307 -18 c-8 -21 11 -96
33 -126 l19 -27 -46 -7 c-25 -3 -83 -6 -128 -6 -78 0 -82 1 -93 25 -15 33 -15
87 -1 119 11 23 18 25 88 29 42 1 89 4 105 5 20 1 27 -2 23 -12z"/>
<path d="M10294 3296 c-10 -25 0 -69 18 -80 13 -8 23 -5 43 14 27 26 32 49 13
68 -17 17 -67 15 -74 -2z"/>
<path d="M10464 3215 c-15 -23 -15 -27 0 -50 28 -43 66 -28 66 25 0 19 -25 50
-40 50 -5 0 -17 -11 -26 -25z"/>
<path d="M2340 3026 c-16 -20 -9 -56 13 -70 24 -15 51 3 55 38 3 20 -2 28 -23
36 -33 12 -30 13 -45 -4z"/>
<path d="M2278 2886 c-24 -18 -23 -53 1 -66 41 -22 72 16 46 56 -18 27 -23 29
-47 10z"/>
<path d="M6327 1532 c-22 -24 -21 -45 1 -65 27 -25 60 -21 74 8 25 56 -35 101
-75 57z"/>
<path d="M6365 1364 c-9 -9 -15 -26 -13 -38 2 -17 10 -21 43 -21 34 0 40 3 43
23 7 46 -40 69 -73 36z"/>
<path d="M1388 7025 c-49 -42 -95 -87 -105 -101 -16 -25 -16 -26 43 -86 135
-138 379 -341 548 -457 l87 -59 -53 -30 c-73 -41 -143 -119 -183 -205 -75
-158 -87 -284 -56 -589 34 -333 26 -467 -37 -617 -37 -88 -30 -100 49 -77 157
47 308 4 603 -173 249 -150 363 -194 499 -195 42 -1 77 -4 77 -9 0 -4 -7 -51
-15 -105 -32 -218 -71 -748 -63 -867 l3 -50 45 -4 c25 -2 142 -4 260 -4 231
-1 359 14 571 68 54 14 100 25 102 25 2 0 1 -19 -4 -42 -27 -142 11 -322 102
-475 19 -32 113 -138 214 -242 197 -203 241 -268 266 -388 7 -34 18 -64 25
-67 6 -2 40 24 75 58 116 112 216 144 545 176 118 11 248 27 287 36 140 31
259 107 313 200 14 24 29 44 32 44 4 0 20 -21 37 -48 158 -253 538 -701 639
-752 l29 -15 74 80 c172 185 362 424 487 612 l68 101 66 -54 c160 -129 394
-204 597 -190 50 4 133 13 185 21 189 29 305 16 389 -46 29 -21 47 -27 53 -21
6 6 12 53 13 104 6 183 46 258 245 463 80 83 164 179 188 214 56 84 86 184 79
262 -3 32 -2 59 1 59 4 0 59 -7 122 -14 185 -23 439 -37 703 -39 245 -2 281 2
262 32 -3 6 -8 102 -9 214 -4 223 -27 434 -76 677 -17 80 -32 154 -36 166 -5
19 -1 20 58 21 109 1 207 52 314 161 65 66 117 143 206 302 114 205 168 277
259 347 32 25 59 52 59 59 0 8 -13 20 -30 29 -72 37 -88 153 -50 361 36 198
22 325 -48 426 l-31 45 82 59 c45 32 84 61 87 64 3 3 50 42 105 86 129 104
358 310 459 412 68 69 78 83 66 96 -8 10 -29 16 -58 16 -43 0 -44 -1 -28 -19
16 -18 13 -23 -86 -114 -272 -251 -527 -463 -710 -590 -359 -251 -777 -438
-1103 -497 -66 -11 -136 -26 -155 -32 -19 -7 -42 -11 -51 -10 -9 2 -22 -4 -28
-12 -11 -13 -1 -28 57 -94 299 -339 500 -761 606 -1267 37 -181 54 -323 72
-609 8 -143 18 -264 20 -268 7 -11 -378 -10 -576 2 -687 42 -1187 175 -1607
427 -116 69 -252 166 -253 179 0 5 -6 19 -14 30 -12 16 -17 17 -28 6 -9 -9
-15 -69 -19 -220 -5 -154 -12 -233 -27 -308 -48 -225 -115 -415 -222 -629
-131 -261 -288 -489 -598 -868 l-143 -175 -128 131 c-206 211 -326 360 -483
602 -272 416 -440 822 -563 1358 -40 176 -43 201 -31 219 16 23 11 48 -9 48
-7 0 -80 -67 -162 -148 -438 -436 -1006 -713 -1608 -782 -129 -14 -505 -25
-505 -14 0 27 31 475 40 574 48 543 150 948 336 1340 79 165 322 577 347 585
18 7 23 40 7 50 -5 3 -51 -2 -102 -11 -127 -23 -388 -22 -527 1 -389 64 -757
235 -1151 535 -130 99 -454 367 -458 379 -1 4 49 47 113 95 63 48 117 92 120
97 4 5 -13 9 -37 9 -39 0 -51 -8 -130 -75z m9071 -731 c60 -88 73 -189 47
-364 -35 -228 -31 -317 19 -391 l23 -36 -62 -64 c-71 -73 -126 -152 -248 -359
-104 -175 -175 -263 -258 -319 -69 -46 -181 -84 -230 -79 -30 3 -34 7 -51 63
-10 32 -17 60 -16 60 1 1 31 7 67 13 91 16 185 65 248 129 51 52 71 90 187
336 44 94 96 151 170 188 36 17 65 36 65 41 0 4 -20 27 -44 51 -59 57 -66 100
-36 239 48 229 47 331 -3 421 -19 33 -19 40 -7 47 8 5 31 20 50 34 19 14 40
25 45 25 6 1 21 -15 34 -35z m-8406 -31 l60 -36 -29 -15 c-16 -8 -44 -28 -62
-46 -109 -103 -135 -249 -130 -721 l3 -300 -34 -69 c-37 -76 -33 -88 26 -79
51 8 150 -15 228 -53 39 -19 133 -79 210 -135 77 -55 163 -113 190 -129 115
-65 232 -85 330 -55 27 8 51 13 52 11 3 -3 -5 -46 -22 -123 -5 -21 -11 -23
-83 -23 -143 0 -245 39 -492 185 -279 166 -372 200 -526 193 l-91 -4 25 76
c33 103 40 281 18 496 -20 205 -21 400 -1 496 30 145 108 269 213 338 25 16
47 30 50 30 2 0 31 -16 65 -37z m8240 -72 c32 -80 39 -159 22 -251 -9 -47 -22
-121 -31 -165 -17 -91 -7 -172 26 -217 11 -15 20 -29 20 -32 0 -2 -22 -21 -50
-41 -62 -46 -122 -136 -190 -289 -30 -65 -73 -144 -96 -176 -63 -86 -170 -151
-290 -175 l-31 -6 -43 113 c-23 62 -64 159 -90 215 l-48 102 47 -29 c104 -63
243 -77 343 -32 65 28 133 94 165 161 25 50 28 67 28 156 0 93 -3 105 -34 170
-47 97 -133 180 -233 225 l-75 34 126 56 c122 55 261 128 359 190 26 16 50 30
53 30 4 0 14 -18 22 -39z m-7992 -60 c79 -38 204 -90 278 -115 73 -24 135 -47
137 -49 3 -2 -19 -7 -47 -11 -77 -10 -193 -71 -265 -138 -34 -32 -67 -58 -73
-58 -7 0 -10 -4 -7 -8 3 -5 -10 -38 -29 -74 -94 -176 -82 -352 34 -494 91
-112 235 -170 361 -145 124 25 206 75 347 214 l103 100 -34 -80 c-61 -144
-107 -275 -151 -428 l-43 -150 -69 -18 c-134 -36 -269 9 -463 153 -187 140
-322 209 -410 210 -57 1 -63 10 -43 61 15 38 17 69 13 224 -14 548 4 693 99
798 37 41 87 77 107 77 6 0 76 -31 155 -69z m659 -211 c22 -7 20 -8 -15 -9
-22 -1 -64 -7 -93 -15 -29 -7 -55 -9 -58 -5 -3 5 -18 9 -34 9 -15 0 -37 3 -47
7 -14 6 -8 9 22 14 58 9 196 8 225 -1z m487 -32 c-20 -24 -60 -82 -90 -130
-103 -165 -233 -240 -332 -192 -95 45 -93 160 2 244 68 60 156 87 343 109 122
14 116 16 77 -31z m-747 -5 l49 -17 -40 -23 c-35 -20 -46 -21 -90 -13 -28 5
-58 14 -67 19 -15 8 -13 11 13 21 17 7 39 16 50 20 28 12 32 12 85 -7z m7097
-18 c31 -14 72 -37 91 -51 32 -25 33 -27 16 -45 -17 -19 -18 -19 -47 16 -16
20 -52 52 -81 71 -61 41 -56 43 21 9z m-6783 -4 c-78 -47 -124 -148 -103 -225
13 -49 62 -102 106 -117 19 -6 61 -9 94 -7 l58 4 -17 -29 c-52 -92 -176 -179
-273 -192 -61 -9 -157 16 -214 55 -133 92 -135 272 -3 396 50 47 76 64 138 88
52 21 159 44 210 45 l35 1 -31 -19z m6690 -14 c115 -53 179 -146 179 -261 0
-158 -124 -258 -280 -226 -61 13 -171 63 -213 98 l-25 21 40 -14 c58 -20 161
-18 211 4 50 23 112 93 120 138 21 114 -38 210 -161 261 -28 12 -27 12 23 7
30 -2 77 -15 106 -28z m-132 -29 c85 -36 137 -121 121 -199 -13 -66 -112 -139
-189 -139 -74 0 -172 64 -255 168 -34 42 -78 93 -96 113 l-34 36 63 7 c35 4
97 15 138 26 90 23 181 19 252 -12z m-7001 0 c32 -13 59 -25 58 -28 0 -3 -15
-23 -34 -44 l-35 -39 -75 13 c-42 7 -78 16 -80 21 -5 7 91 99 102 99 3 0 32
-10 64 -22z m7405 -98 c26 -39 27 -41 8 -55 -20 -15 -54 -29 -57 -23 -1 1 -10
25 -19 51 -16 48 -16 49 5 57 34 13 35 13 63 -30z m-7469 -40 c31 0 33 -8 16
-75 l-15 -60 -108 -2 -109 -3 14 39 c17 49 43 101 61 122 13 14 19 14 67 -2
28 -10 62 -18 74 -19z m7522 -96 c5 -27 7 -68 4 -91 l-5 -41 -42 19 c-22 10
-49 19 -58 19 -14 0 -15 5 -7 32 5 18 9 45 9 60 0 22 8 32 38 47 20 11 40 16
44 12 4 -4 12 -29 17 -57z m-7518 -82 c4 -4 10 -21 14 -39 6 -30 4 -33 -22
-38 -15 -3 -68 -16 -118 -30 -49 -13 -91 -22 -93 -21 -8 9 -14 79 -8 108 l6
33 107 -3 c60 -2 111 -7 114 -10z m7476 -64 l33 -19 -17 -32 c-26 -51 -56 -87
-71 -87 -8 0 -30 16 -49 35 -20 20 -38 34 -40 31 -8 -8 16 -44 44 -66 27 -21
27 -22 8 -33 -11 -7 -36 -18 -55 -25 -35 -13 -35 -13 -72 29 -38 42 -50 36
-23 -11 8 -14 14 -29 15 -33 0 -14 -104 5 -137 25 -32 19 -43 38 -22 38 5 0 8
4 4 10 -8 13 -35 1 -35 -16 0 -8 -3 -14 -6 -14 -19 0 -134 96 -134 112 0 5 19
-2 43 -16 52 -30 138 -56 187 -56 92 0 202 62 230 130 11 27 17 30 39 25 14
-4 41 -16 58 -27z m-6825 -40 c-7 -7 -12 -8 -12 -2 0 14 12 26 19 19 2 -3 -1
-11 -7 -17z m-573 -44 c19 -19 44 -42 57 -50 l23 -15 -40 -61 c-21 -34 -44
-79 -51 -100 -10 -35 -14 -39 -37 -33 -34 8 -116 58 -116 71 0 5 37 42 83 82
45 40 82 77 82 83 0 25 -37 2 -109 -66 -43 -41 -82 -75 -86 -75 -19 0 -95 122
-95 154 0 10 19 16 65 21 35 3 77 10 92 15 62 19 97 12 132 -26z m370 -110
c-31 -33 -159 -124 -173 -124 -8 0 55 113 68 122 6 4 25 8 41 8 17 1 44 7 60
15 17 7 32 14 34 14 3 1 -11 -15 -30 -35z m-188 10 c21 -4 39 -9 39 -12 0 -15
-76 -142 -89 -147 -24 -9 -131 -18 -131 -11 0 14 44 93 78 139 22 31 40 46 49
43 8 -4 32 -9 54 -12z m2299 -1007 c0 -19 9 -83 20 -143 35 -191 24 -284 -41
-358 -46 -52 -91 -70 -164 -64 -94 8 -145 68 -145 170 0 80 41 158 126 238 38
35 96 93 129 127 33 34 63 62 68 62 4 1 7 -14 7 -32z m2490 -261 c0 -5 18 -29
41 -53 53 -57 87 -134 95 -209 7 -75 -15 -121 -69 -148 -34 -16 -44 -17 -80
-6 -60 18 -103 68 -127 148 -24 81 -40 208 -40 314 l0 77 90 -57 c49 -31 90
-61 90 -66z m-2868 -128 c-3 -54 0 -71 25 -118 79 -149 292 -144 399 11 29 42
29 42 32 15 6 -48 -18 -166 -43 -215 -50 -99 -117 -152 -217 -172 -115 -23
-224 26 -272 123 -31 62 -35 169 -10 245 14 41 80 173 87 173 2 0 1 -28 -1
-62z m-75 15 c-13 -21 -35 -67 -48 -102 -18 -48 -33 -70 -63 -92 -22 -16 -41
-27 -43 -25 -12 12 83 161 145 229 35 37 37 34 9 -10z m3158 -108 c25 -40 55
-98 65 -129 21 -59 27 -180 10 -191 -5 -3 -10 -15 -10 -26 0 -45 -117 -138
-176 -139 -46 0 -123 32 -165 69 -70 62 -109 158 -124 306 l-6 60 31 -62 c34
-69 74 -105 137 -123 156 -47 252 124 173 308 -20 47 -20 47 0 23 11 -12 40
-56 65 -96z m-3298 13 c-75 -101 -111 -216 -105 -347 3 -84 8 -105 37 -166 19
-38 33 -76 32 -82 -1 -7 3 -13 10 -13 6 0 27 -14 47 -31 20 -18 61 -44 92 -58
49 -23 67 -26 165 -26 102 1 115 3 178 32 178 84 276 269 264 503 l-6 105 48
-125 c63 -168 121 -299 202 -456 l67 -132 -25 -43 c-48 -85 -111 -134 -213
-163 -30 -9 -142 -23 -250 -31 -214 -16 -307 -36 -434 -91 -44 -19 -81 -34
-83 -34 -2 0 -3 10 -3 23 0 36 -54 113 -107 151 -26 19 -90 59 -142 88 -162
91 -234 181 -266 333 -15 72 -19 227 -7 304 l7 43 122 53 c124 54 318 153 363
185 34 25 37 18 7 -22z m3400 -23 c32 -36 75 -94 96 -128 36 -58 37 -62 17
-65 -29 -5 -90 17 -90 32 0 31 -32 116 -64 169 -19 31 -31 57 -26 57 5 0 35
-29 67 -65z m293 -39 c74 -24 181 -54 237 -67 113 -25 113 -25 113 -114 0
-107 -53 -243 -134 -347 -25 -31 -94 -97 -154 -147 -117 -97 -161 -152 -170
-213 -4 -34 -7 -38 -26 -32 -97 31 -139 30 -316 -6 -156 -32 -284 -39 -368
-19 -66 16 -220 92 -264 131 l-36 33 66 135 c37 75 87 191 112 258 l45 122 17
-71 c39 -158 151 -298 293 -366 68 -32 87 -37 154 -37 62 0 87 5 133 26 160
74 250 254 219 438 -20 124 -64 212 -169 339 l-33 40 72 -30 c40 -16 134 -49
209 -73z m-795 -253 c14 -35 15 -50 6 -69 -6 -14 -11 -36 -11 -49 0 -44 -17
-27 -33 33 -27 93 -31 167 -16 245 l13 72 12 -93 c7 -51 20 -114 29 -139z
m-2835 159 c0 -32 -8 -46 -59 -100 -33 -34 -61 -62 -64 -62 -4 0 8 94 18 131
4 17 21 33 48 47 56 28 57 28 57 -16z m4142 -28 c23 -5 27 -11 33 -52 3 -26 1
-71 -5 -100 -18 -97 -65 -165 -225 -333 -197 -205 -252 -299 -276 -465 -7 -44
-13 -80 -14 -82 -1 -1 -23 7 -49 19 -74 32 -168 35 -361 9 -344 -46 -517 -3
-808 201 -8 6 49 109 60 109 3 0 28 -20 55 -45 91 -82 256 -144 381 -145 26 0
118 14 205 31 186 37 288 37 360 0 57 -29 76 -22 69 24 -13 81 21 132 170 252
194 156 302 358 291 541 l-3 54 45 -7 c25 -3 57 -8 72 -11z m-666 -69 c12 -4
41 -141 33 -150 -3 -2 -39 9 -80 25 l-74 29 4 58 c1 32 5 61 7 64 2 4 25 0 51
-8 27 -8 53 -16 59 -18z m-4070 3 c-18 -65 -28 -171 -22 -233 19 -212 108
-345 299 -449 163 -89 221 -149 233 -237 4 -27 11 -52 16 -55 5 -3 50 15 101
40 149 73 304 105 522 106 193 1 374 82 432 193 l15 30 20 -32 21 -32 -24 -50
c-41 -89 -142 -166 -267 -203 -82 -24 -152 -34 -341 -51 -283 -24 -397 -60
-532 -165 l-26 -20 -22 58 c-32 90 -111 192 -261 341 -180 180 -243 274 -285
427 -18 65 -31 283 -18 300 7 10 114 51 137 53 4 1 6 -9 2 -21z m604 9 c0 -7
9 -30 20 -51 l19 -39 -49 -73 c-26 -40 -51 -82 -55 -94 -10 -33 -22 -23 -44
35 -32 85 -29 100 37 171 59 64 72 73 72 51z m585 -110 c-9 -40 -24 -88 -35
-107 l-18 -35 -7 40 c-3 22 -10 50 -15 61 -7 17 -3 27 20 49 15 14 36 42 46
61 26 49 30 21 9 -69z m-460 -98 c-6 -45 -50 -178 -64 -192 -18 -18 -121 62
-121 93 0 9 27 56 61 104 l60 87 35 -28 c30 -25 33 -32 29 -64z m3295 39 c41
-18 76 -33 77 -33 4 -2 -24 -111 -31 -123 -9 -15 -64 12 -134 67 l-51 41 26
40 c15 22 29 40 32 40 3 0 40 -14 81 -32z m-2931 -19 c19 -55 14 -104 -15
-138 -37 -45 -50 -40 -57 22 -4 29 -9 66 -13 83 -5 26 -2 32 28 46 45 22 44
22 57 -13z m2414 -15 c22 -25 35 -48 32 -60 -2 -10 -7 -41 -10 -67 -6 -48 -7
-49 -27 -30 -11 10 -31 37 -44 59 -22 38 -23 46 -13 93 6 29 14 51 18 49 4 -2
24 -21 44 -44z m-2650 -11 c4 -2 7 -54 7 -115 l0 -110 -79 3 c-44 2 -83 7 -87
11 -4 4 5 35 20 67 15 33 32 83 39 111 l12 51 40 -7 c22 -3 43 -8 48 -11z
m137 -81 c18 -91 18 -90 -44 -116 -66 -27 -66 -28 -59 87 3 56 11 105 17 110
6 4 24 6 40 5 28 -3 30 -6 46 -86z m2906 37 c10 -12 47 -41 82 -66 34 -25 62
-48 62 -53 0 -10 -109 -110 -120 -110 -19 0 -110 164 -110 198 0 15 39 51 56
52 6 0 19 -10 30 -21z m-281 -18 c39 -15 50 -24 49 -40 0 -12 -1 -55 -2 -97
l-2 -75 -40 22 c-22 12 -51 34 -64 48 l-25 26 17 68 c9 37 16 67 16 67 1 0 24
-9 51 -19z m193 -78 c13 -38 35 -85 49 -106 13 -22 22 -41 20 -44 -12 -11
-116 -14 -153 -4 l-42 11 5 48 c13 157 11 150 46 155 18 2 37 5 42 5 6 1 21
-28 33 -65z"/>
<path d="M1770 7074 c-78 -54 -104 -156 -57 -224 44 -66 98 -87 170 -67 26 7
27 6 27 -33 0 -47 17 -85 55 -120 23 -21 36 -25 90 -25 l63 0 4 -57 c3 -44 10
-64 29 -84 55 -59 114 -69 173 -29 33 23 37 23 42 7 27 -85 70 -122 144 -122
25 1 56 7 70 15 36 21 40 19 40 -17 0 -43 31 -93 69 -113 48 -24 93 -19 149
18 l49 34 12 -33 c15 -43 72 -91 115 -99 45 -9 97 9 137 46 37 35 39 35 39 9
0 -31 25 -74 60 -104 25 -20 42 -26 82 -26 45 0 54 4 88 38 20 20 40 44 43 52
5 11 9 12 13 3 34 -72 93 -113 166 -113 55 0 95 28 140 99 19 31 28 39 28 25
0 -10 9 -34 20 -52 11 -18 20 -34 20 -36 0 -2 -16 -7 -35 -10 -77 -15 -140
-108 -117 -174 l10 -29 -51 -6 c-62 -8 -118 -44 -140 -90 -19 -39 -22 -112 -7
-151 6 -18 6 -26 -1 -26 -27 0 -81 -35 -99 -65 -24 -39 -27 -121 -5 -151 17
-25 11 -34 -24 -34 -36 0 -87 -34 -111 -72 -37 -60 -18 -162 37 -205 14 -11
14 -13 -3 -19 -67 -24 -114 -90 -114 -159 0 -36 30 -108 51 -120 6 -4 -6 -15
-28 -25 -108 -48 -129 -176 -44 -262 l37 -37 -38 -6 c-51 -9 -87 -41 -97 -87
-12 -50 -3 -83 29 -118 l27 -29 -44 -36 c-121 -102 -142 -242 -51 -341 99
-107 259 -94 327 26 l23 40 29 -24 c86 -72 210 -50 265 47 l20 37 24 -25 c68
-73 189 -45 232 53 l20 44 26 -25 c37 -34 65 -47 104 -47 63 0 114 48 132 123
l6 27 40 -26 c44 -29 91 -34 139 -15 39 17 61 56 61 111 0 22 2 40 4 40 3 0
21 -10 41 -21 91 -54 205 20 205 133 l0 46 34 -10 c77 -24 167 27 188 108 12
43 12 44 49 38 110 -18 206 94 181 212 l-10 44 33 -29 c18 -16 39 -31 47 -33
10 -4 9 -9 -4 -25 -48 -54 -43 -130 11 -176 l28 -23 -28 -32 c-64 -72 -55
-184 19 -228 l29 -16 -19 -36 c-23 -47 -23 -99 2 -139 20 -34 85 -73 120 -73
20 0 20 -1 5 -30 -19 -36 -19 -110 -1 -153 17 -42 76 -93 116 -102 24 -5 30
-11 24 -23 -11 -27 -17 -109 -10 -136 16 -66 104 -125 185 -126 l45 0 -26 -27
c-51 -53 -60 -111 -28 -180 22 -49 66 -80 128 -89 35 -5 42 -10 36 -23 -24
-57 -33 -91 -34 -127 -1 -101 74 -183 170 -187 36 -1 37 -3 29 -25 -29 -76 7
-177 79 -223 81 -51 206 -36 268 33 40 44 66 109 68 170 l1 58 46 -6 c137 -18
219 96 164 229 -5 12 -2 17 11 17 38 0 100 40 122 79 26 45 28 88 8 136 -15
35 -15 35 12 35 51 0 115 41 140 90 28 57 28 85 -3 146 -14 27 -25 50 -25 52
0 1 9 2 20 2 34 0 97 37 121 71 23 33 36 110 25 153 -3 13 -17 38 -30 53 l-25
29 34 13 c98 35 123 163 49 251 -14 16 -21 30 -15 30 22 0 81 64 92 100 17 56
4 105 -39 148 l-38 38 31 15 c41 21 68 72 68 125 0 34 -7 53 -30 82 -28 35
-29 39 -14 49 15 9 20 4 34 -38 25 -70 73 -104 147 -104 l56 0 1 -46 c1 -81
51 -138 128 -147 24 -2 57 0 73 6 28 9 29 9 40 -34 32 -120 156 -167 257 -98
l35 23 0 -25 c0 -34 23 -85 48 -108 44 -39 142 -29 181 18 16 19 31 21 31 3 0
-35 52 -114 89 -135 66 -38 156 -22 201 35 l19 24 6 -38 c13 -80 41 -110 113
-120 43 -6 129 26 158 58 24 26 31 24 39 -11 8 -37 48 -86 86 -105 55 -29 131
-12 178 39 l24 26 43 -40 c75 -69 174 -77 253 -20 106 77 115 230 19 332 -27
29 -28 32 -11 41 65 36 110 125 97 193 -8 45 -57 102 -103 121 l-33 14 20 22
c31 35 42 62 42 107 0 64 -26 107 -82 139 -29 17 -45 32 -39 36 6 3 21 25 32
47 28 55 23 140 -10 186 -26 36 -79 67 -134 77 -20 4 -37 8 -37 10 0 1 7 19
15 38 48 114 -30 233 -145 225 -42 -2 -49 0 -44 12 33 80 28 123 -17 175 -30
34 -97 62 -123 52 -9 -4 -11 12 -8 57 3 53 0 66 -23 100 -14 21 -25 39 -23 40
2 2 18 8 36 16 35 14 92 72 92 95 0 20 4 19 48 -9 49 -32 91 -40 141 -26 53
14 95 51 115 100 l16 40 32 -20 c39 -24 98 -26 139 -5 33 17 69 69 69 99 0 14
5 17 22 11 85 -26 142 -22 195 12 32 21 61 72 69 120 l6 41 36 -15 c49 -20
113 -12 155 20 33 25 49 54 61 108 l6 26 45 -15 c37 -12 54 -13 85 -3 52 15
100 71 100 116 l0 35 64 0 c49 0 70 5 96 23 48 32 72 69 77 120 l5 44 40 -10
c82 -21 199 29 246 105 27 44 43 115 35 161 -4 30 -10 37 -27 37 -21 0 -22 -4
-18 -58 4 -62 -16 -119 -55 -154 -51 -46 -152 -61 -220 -33 -42 18 -47 13 75
85 41 24 77 50 80 59 4 9 -11 30 -43 58 -42 37 -56 43 -94 43 l-44 0 52 -41
c28 -22 51 -44 51 -49 0 -4 -26 -23 -57 -40 -32 -18 -181 -112 -333 -208 -383
-245 -530 -332 -715 -422 -184 -91 -378 -160 -550 -196 -165 -35 -441 -44
-600 -20 -105 17 -114 20 -217 82 -143 87 -349 184 -483 229 -60 20 -111 38
-112 39 -5 4 30 86 36 86 7 0 103 -67 111 -78 3 -4 66 -37 140 -74 239 -118
425 -165 686 -175 372 -13 646 66 1076 313 257 148 798 486 798 499 0 23 -56
55 -96 55 l-39 0 38 -26 c21 -14 37 -27 35 -29 -9 -7 -216 -135 -219 -135 -2
0 -5 20 -5 44 -2 77 -15 137 -30 143 -8 3 -17 3 -20 0 -3 -3 3 -50 14 -104 11
-54 20 -98 19 -99 -1 0 -62 -38 -135 -82 -74 -45 -135 -82 -137 -82 -1 0 6 30
16 67 13 46 19 101 19 169 0 108 -5 134 -24 134 -9 0 -13 -35 -13 -127 -1 -92
-6 -148 -20 -198 l-19 -70 -75 -47 c-41 -26 -77 -47 -82 -47 -4 -1 -1 12 7 27
27 51 48 155 53 263 6 101 7 108 30 118 32 15 27 46 -7 46 -15 0 -26 7 -28 18
-5 24 -32 21 -32 -3 0 -18 -6 -20 -62 -19 -81 1 -168 13 -176 25 -4 5 -61 10
-127 11 l-120 2 60 -20 c79 -26 236 -57 308 -61 31 -2 57 -5 57 -8 0 -3 -26
-19 -58 -36 -32 -17 -146 -87 -253 -155 -411 -261 -552 -314 -824 -313 -212 1
-368 38 -704 170 l-123 48 6 49 c3 27 7 52 10 54 2 2 23 -8 47 -24 23 -15 47
-31 53 -35 60 -36 303 -123 421 -149 97 -22 352 -17 447 9 153 41 247 104 292
194 43 87 33 160 -31 219 -48 45 -86 59 -160 58 -49 -1 -60 -3 -38 -8 l30 -7
-33 -17 c-18 -10 -46 -36 -62 -59 -50 -69 -40 -167 23 -226 33 -31 98 -54 112
-40 7 7 7 12 0 14 -77 29 -125 85 -125 146 0 75 38 117 124 139 43 11 48 10
81 -15 66 -51 80 -108 44 -183 -37 -76 -125 -132 -269 -172 l-74 -21 -34 33
c-49 46 -82 120 -82 186 0 78 18 127 68 182 l44 49 -30 0 c-23 0 -38 -9 -61
-37 -90 -109 -77 -311 24 -391 33 -27 18 -32 -92 -32 -83 0 -86 1 -116 33
-100 107 -100 272 2 378 l48 50 -35 -3 c-73 -6 -141 -143 -128 -260 6 -62 22
-102 64 -157 21 -29 22 -33 6 -28 -11 3 -35 8 -54 12 -19 4 -72 17 -116 31
-75 22 -83 27 -100 61 -42 88 -25 214 40 289 28 33 41 39 87 45 38 4 15 7 -81
7 -105 1 -152 -3 -210 -18 -99 -26 -130 -26 -130 0 0 15 -7 20 -25 20 l-25 0
0 -122 c0 -350 -103 -609 -331 -837 -318 -319 -839 -469 -1459 -422 -187 14
-208 19 -333 82 -437 218 -690 613 -737 1149 -5 63 -10 123 -10 133 0 11 -8
17 -22 17 -21 0 -21 -1 -15 -144 l6 -144 -72 -10 c-39 -6 -72 -10 -74 -9 -1 2
9 26 24 55 28 58 41 156 26 212 -7 28 -15 36 -36 38 -15 2 -27 2 -27 0 0 -2 7
-21 15 -43 22 -62 19 -142 -9 -200 -12 -27 -29 -55 -37 -62 -13 -11 -179 -34
-179 -25 0 2 13 20 30 40 53 67 84 171 73 250 -5 36 -9 42 -30 42 -22 0 -23
-2 -17 -37 19 -93 0 -176 -55 -249 -33 -44 -42 -50 -86 -56 -60 -8 -195 -10
-195 -3 0 3 16 26 35 51 61 79 82 155 70 244 -6 44 -10 50 -30 50 -22 0 -23
-2 -14 -32 24 -85 -3 -185 -69 -259 -34 -38 -51 -49 -74 -49 -90 0 -364 57
-288 60 100 3 204 127 184 217 -13 58 -16 63 -39 63 -22 0 -22 -1 -9 -41 37
-107 -67 -222 -186 -206 -50 6 -68 21 -91 72 -23 49 -24 100 -4 139 19 36 19
36 -6 36 -24 0 -49 -52 -49 -102 0 -91 49 -161 143 -207 65 -32 182 -61 247
-61 24 0 40 -5 44 -15 4 -11 11 -13 31 -5 15 6 74 7 143 3 143 -7 345 10 485
42 56 13 109 26 119 30 13 5 18 -4 28 -52 6 -32 15 -70 20 -85 8 -26 7 -27
-38 -32 -286 -34 -708 -40 -882 -12 -266 43 -455 114 -723 273 -61 37 -154 87
-207 112 l-95 45 65 18 c36 11 81 25 100 33 l35 14 -60 0 c-33 1 -82 -6 -109
-14 -61 -19 -66 -19 -66 0 0 9 -9 15 -25 15 -18 0 -25 -5 -25 -19 0 -10 -7
-21 -15 -25 -19 -7 -20 -32 -2 -39 10 -4 16 -37 20 -114 4 -59 13 -137 21
-173 8 -36 13 -66 11 -68 -2 -2 -37 11 -79 28 -69 29 -77 35 -85 68 -24 88
-32 143 -34 239 -1 74 -6 103 -14 103 -31 0 -28 -148 6 -281 10 -41 18 -76 16
-77 -2 -2 -36 13 -76 35 -63 33 -77 45 -98 87 -27 52 -34 139 -18 204 8 28 6
32 -12 32 -15 0 -22 -9 -27 -36 -10 -51 1 -145 21 -183 9 -18 15 -34 13 -36
-5 -6 -248 129 -248 137 0 3 13 9 29 13 15 3 64 27 107 53 l79 47 -43 3 c-35
3 -53 -3 -92 -28 -26 -17 -60 -42 -74 -55 -21 -20 -31 -23 -46 -15 -12 6 -21
6 -25 1 -13 -21 222 -170 420 -266 631 -306 1413 -434 2118 -345 59 7 73 6 80
-6 11 -20 27 -18 27 4 0 14 13 20 64 28 58 8 65 7 69 -8 6 -21 -1 -28 -27 -28
-12 0 -86 -16 -166 -35 -240 -58 -415 -77 -710 -78 -360 -1 -649 39 -959 132
-423 128 -715 286 -966 523 l-78 74 66 49 c37 27 67 50 67 52 0 2 -51 3 -112
3 -103 -1 -116 -3 -148 -26z m136 -28 c-20 -24 -36 -50 -36 -58 0 -7 18 -35
40 -62 l40 -48 -37 -29 c-53 -40 -109 -40 -147 -1 -73 77 -25 189 97 228 77
24 84 19 43 -30z m5987 -25 c-35 -69 -40 -151 -16 -223 11 -32 18 -58 17 -58
-2 0 -41 17 -88 39 -74 34 -85 42 -91 71 -12 56 11 136 51 172 16 14 105 44
140 47 6 1 0 -21 -13 -48z m-188 -18 c-19 -47 -27 -91 -22 -125 5 -40 -1 -45
-34 -28 -16 9 -19 22 -19 85 0 68 2 74 23 78 50 10 59 8 52 -10z m-4849 -53
l81 -38 5 -118 c4 -88 10 -133 26 -171 13 -35 16 -53 9 -52 -7 0 -59 17 -117
37 l-105 38 -12 89 c-6 50 -12 130 -12 178 -1 103 -11 100 125 37z m6783 -57
c-4 -49 -19 -133 -33 -187 -14 -54 -24 -102 -21 -106 4 -7 -155 -100 -199
-116 -16 -6 -18 -4 -12 12 23 57 38 185 33 269 l-6 90 116 67 c64 37 119 65
123 63 3 -2 3 -43 -1 -92z m-6562 -63 l91 -53 4 -81 c2 -63 9 -93 30 -136 15
-30 26 -55 25 -56 -4 -4 -192 48 -198 54 -17 18 -51 150 -59 223 -8 80 -5 112
9 106 3 -2 47 -27 98 -57z m7410 -43 c11 -70 -54 -127 -143 -127 -50 0 -77 15
-86 48 -2 7 41 41 97 76 110 71 121 71 132 3z m-8424 -14 c45 -36 83 -72 85
-79 5 -20 -58 -54 -101 -54 -53 0 -97 46 -97 100 0 35 17 100 26 100 3 0 42
-30 87 -67z m7307 -97 c-5 -39 -18 -106 -26 -148 l-17 -77 -106 -45 c-116 -48
-210 -80 -216 -74 -3 2 7 32 21 67 14 35 36 107 48 162 l22 98 139 89 140 89
3 -45 c2 -24 -2 -76 -8 -116z m-6087 43 l85 -41 -5 -73 c-3 -42 -1 -86 5 -104
6 -17 9 -31 7 -31 -2 0 -27 5 -54 11 -50 10 -51 11 -87 83 -24 50 -37 93 -41
135 -3 33 -3 61 0 61 3 0 43 -18 90 -41z m4398 -50 l61 -30 -6 -50 c-8 -58
-15 -79 -27 -79 -5 0 -36 17 -69 37 -39 25 -58 43 -56 53 3 8 10 34 16 58 6
23 13 42 16 42 2 0 32 -14 65 -31z m2552 -8 c41 -70 -2 -151 -81 -151 -42 0
-105 35 -109 60 -1 9 31 36 80 67 45 29 84 53 87 53 3 0 13 -13 23 -29z
m-7929 -50 l87 -48 -34 -44 c-46 -61 -69 -71 -124 -52 -24 8 -51 26 -60 39
-19 30 -19 90 1 139 13 30 19 35 30 26 7 -6 53 -33 100 -60z m1203 20 c74 -24
334 -81 372 -81 5 0 11 -24 14 -52 3 -29 8 -63 12 -75 7 -20 4 -22 -26 -18
-19 3 -73 7 -120 11 l-86 6 -21 36 c-11 20 -23 58 -27 85 -4 26 -11 47 -16 47
-13 0 -11 -81 2 -119 6 -18 9 -34 6 -37 -4 -4 -113 10 -164 21 -25 6 -52 50
-64 105 -10 44 0 113 15 106 6 -3 53 -18 103 -35z m5563 5 c0 -19 -59 -185
-87 -247 l-35 -76 -96 -16 c-53 -9 -113 -18 -134 -19 l-36 -4 43 48 c49 54 73
101 83 159 7 39 9 41 92 78 47 21 101 48 120 59 34 21 50 27 50 18z m-1200
-50 c77 -33 85 -38 83 -62 -1 -14 -14 -45 -28 -70 l-26 -44 -42 21 c-40 19
-119 60 -125 64 -1 1 4 15 13 31 8 16 15 46 15 68 0 27 4 36 13 33 6 -4 50
-22 97 -41z m-3114 -56 c13 -36 24 -66 24 -67 0 -2 -43 -10 -96 -18 l-41 -6
-22 51 c-31 71 -26 82 39 96 30 6 59 11 64 10 5 -1 19 -31 32 -66z m-165 -28
c9 -37 16 -68 14 -70 -1 -1 -39 -3 -85 -5 -77 -2 -83 -1 -101 23 -26 34 -36
88 -18 94 8 2 46 8 84 14 39 5 75 10 80 10 6 1 17 -28 26 -66z m-1961 -55 c0
-4 -15 -23 -33 -43 -36 -40 -97 -55 -136 -34 -49 26 -77 115 -50 158 11 17 18
15 115 -27 57 -25 104 -49 104 -54z m1478 87 c16 -3 22 -12 22 -32 1 -15 7
-44 14 -64 l14 -38 -103 0 -103 0 -21 49 c-11 27 -21 61 -21 74 0 25 0 25 88
20 48 -2 97 -6 110 -9z m5900 -37 c4 -56 -9 -82 -51 -107 -46 -28 -109 -26
-144 4 -19 17 -25 28 -18 35 20 20 190 120 200 117 6 -1 11 -23 13 -49z
m-5638 18 c0 -14 7 -42 15 -62 8 -20 14 -37 13 -39 -2 -1 -46 -5 -99 -9 l-96
-7 -21 29 c-11 16 -23 45 -27 65 l-7 37 44 4 c23 2 73 4 111 5 66 2 67 1 67
-23z m3726 -6 c72 -21 74 -23 74 -53 -1 -17 -7 -49 -15 -71 -18 -49 -18 -45 0
-45 20 0 31 26 40 89 l7 53 32 -6 c17 -4 67 -9 111 -12 44 -3 85 -7 92 -9 16
-5 -2 -79 -32 -131 l-24 -41 -58 9 c-85 13 -258 57 -335 85 l-67 25 24 36 c13
21 30 52 36 70 8 23 16 31 26 28 8 -3 48 -16 89 -27z m684 -2 c0 -2 -7 -28
-16 -58 -16 -53 -77 -149 -95 -149 -5 0 -9 -7 -9 -16 0 -15 -13 -16 -121 -11
-66 3 -123 7 -126 10 -2 3 7 22 21 44 14 21 30 59 36 84 l12 46 76 6 c42 4
106 15 142 26 71 21 80 23 80 18z m-5888 -159 c-5 -20 -41 -65 -73 -92 -43
-37 -83 -34 -125 8 -29 29 -34 41 -34 83 0 98 -4 97 123 52 66 -23 111 -44
109 -51z m4767 23 c470 -178 870 -472 1147 -842 262 -353 434 -798 473 -1229
15 -166 20 -291 11 -285 -4 2 -65 14 -136 25 -316 51 -1002 266 -1347 424
-437 200 -716 514 -947 1070 -23 54 -59 130 -81 169 -22 38 -38 71 -37 72 16
10 122 44 126 40 3 -3 15 -44 27 -93 120 -473 491 -919 950 -1143 55 -27 150
-67 210 -89 141 -53 1084 -322 1098 -313 23 14 -11 277 -63 480 -82 317 -257
659 -476 933 -87 108 -256 277 -359 359 -44 35 -88 73 -98 84 -10 12 -24 22
-30 23 -12 1 -191 113 -214 134 -7 5 -15 10 -18 10 -3 0 -52 22 -108 49 -85
40 -187 82 -279 114 -15 5 -16 10 -6 32 6 14 15 25 19 25 4 0 66 -22 138 -49z
m2097 -6 c9 -48 -19 -119 -58 -146 -16 -12 -49 -24 -73 -27 -40 -4 -46 -1 -87
38 -23 23 -38 44 -33 46 6 2 60 31 120 64 61 33 113 60 117 60 4 0 10 -16 14
-35z m-6723 -40 c150 -39 137 -32 125 -66 -5 -16 -24 -43 -40 -59 -62 -62
-171 -25 -185 62 -8 50 3 91 23 84 8 -3 43 -13 77 -21z m1815 -9 c23 -39 20
-46 -18 -46 -61 0 -192 -44 -315 -105 -154 -77 -286 -169 -405 -282 -48 -46
-90 -80 -94 -76 -3 3 -6 1 -6 -6 0 -7 -31 -49 -68 -94 -290 -348 -479 -802
-567 -1362 -26 -169 -31 -235 -16 -235 9 0 19 39 42 155 17 91 19 94 35 55 8
-19 33 -56 55 -82 21 -26 39 -49 39 -51 0 -2 -12 -7 -27 -10 -46 -9 -123 -46
-123 -58 0 -29 143 1 370 77 449 150 804 325 1090 537 135 101 342 311 419
426 111 167 178 326 201 476 17 111 15 106 47 95 57 -21 73 -33 62 -46 -5 -6
-30 -70 -55 -141 -249 -711 -699 -1123 -1526 -1396 -185 -61 -753 -205 -765
-193 -4 4 85 471 133 701 116 550 275 915 526 1203 116 134 261 242 461 345
86 45 125 59 200 72 100 17 231 50 256 65 24 14 27 13 49 -24z m2715 -16 c37
-13 67 -27 67 -31 0 -12 -40 -102 -52 -116 -8 -10 -28 -3 -91 29 -45 22 -84
42 -86 44 -2 2 13 28 34 59 24 35 42 52 49 46 6 -4 41 -18 79 -31z m-4223 -40
c41 -6 85 -13 97 -16 l23 -4 -20 -53 c-23 -61 -60 -97 -100 -97 -69 0 -108 45
-117 137 -6 55 -6 56 18 50 13 -3 58 -11 99 -17z m4430 -50 c77 -39 100 -55
100 -70 0 -30 -56 -130 -73 -130 -11 0 -192 111 -192 118 1 9 59 131 63 132 1
0 47 -23 102 -50z m1700 -18 c0 -35 -6 -49 -29 -73 -43 -42 -92 -40 -138 6
-19 19 -33 40 -31 46 6 18 182 87 190 74 4 -5 8 -29 8 -53z m-4581 -89 c-79
-23 -80 -23 -117 -4 -40 20 -68 47 -74 70 -2 9 27 23 92 45 l95 31 42 -60 42
-59 -80 -23z m-1181 118 c49 -1 62 -4 62 -16 0 -27 -38 -92 -66 -114 -36 -29
-102 -28 -139 1 -29 23 -64 90 -65 123 0 20 4 20 73 14 39 -4 100 -8 135 -8z
m502 -23 c-35 -17 -102 -60 -149 -95 l-84 -64 -39 17 c-48 22 -84 63 -97 111
-6 20 -9 38 -8 39 2 2 311 20 391 22 l49 2 -63 -32z m3293 -79 c285 -155 449
-270 603 -424 155 -154 209 -243 355 -584 72 -167 124 -273 167 -338 13 -21 7
-19 -64 14 -44 20 -212 80 -375 134 -163 54 -341 118 -394 143 -292 137 -501
350 -665 680 -44 88 -80 163 -80 167 0 8 84 69 94 69 2 0 8 -15 11 -32 59
-276 307 -584 577 -718 72 -36 100 -44 161 -48 60 -4 82 -1 125 18 147 63 157
204 27 385 -84 118 -324 328 -481 421 -79 46 -209 104 -236 104 -29 0 -28 14
4 47 17 18 34 33 36 33 2 0 63 -32 135 -71z m-2778 -14 l41 -41 -92 -45 c-74
-36 -97 -43 -121 -37 -35 9 -68 43 -77 80 -6 25 -2 30 36 49 24 12 68 33 98
45 51 21 56 22 65 6 6 -9 28 -35 50 -57z m4505 19 c0 -102 -120 -168 -207
-114 -32 19 -70 66 -61 76 3 2 48 16 99 30 52 14 105 30 119 34 45 15 50 12
50 -26z m-1212 -54 c51 -32 92 -61 92 -63 0 -9 -51 -161 -58 -173 -5 -10 -27
2 -77 42 -39 31 -89 69 -112 85 l-42 30 33 43 c18 24 36 56 40 70 3 14 12 26
19 26 7 0 54 -27 105 -60z m-3048 -42 c-180 -81 -375 -221 -550 -397 -280
-282 -404 -537 -288 -597 69 -36 254 7 430 98 230 120 413 320 569 623 31 61
58 117 61 124 3 12 10 11 36 -8 28 -20 32 -28 32 -69 -1 -142 -80 -316 -209
-455 -100 -108 -335 -273 -373 -263 -11 2 -18 -1 -18 -10 0 -18 -12 -24 -306
-150 -280 -120 -437 -196 -536 -260 -38 -24 -68 -41 -68 -38 0 2 9 22 20 43
10 21 53 141 94 266 126 381 215 538 420 741 177 176 376 302 621 392 l80 30
23 -21 23 -22 -61 -27z m2342 3 c-49 -36 -60 -51 -81 -106 l-18 -47 -22 62
-23 62 48 42 47 42 44 -14 43 -14 -38 -27z m-2838 -20 c6 -14 23 -32 38 -40
16 -9 28 -18 28 -21 -1 -3 -29 -24 -63 -48 -34 -23 -76 -54 -94 -68 l-31 -25
-36 32 c-20 17 -46 44 -57 61 -27 37 -23 42 95 119 89 59 91 60 100 37 4 -13
13 -34 20 -47z m4025 49 c58 -6 108 -13 112 -15 3 -3 9 -18 13 -35 7 -35 -12
-86 -40 -112 -19 -16 -23 -14 -109 60 -50 42 -104 87 -120 100 l-30 23 35 -5
c19 -3 82 -11 139 -16z m421 -12 c0 -74 -73 -137 -143 -124 -46 9 -83 38 -107
86 l-20 39 33 5 c39 6 184 22 215 24 19 2 22 -3 22 -30z m-3820 -67 l62 -60
-32 -70 -33 -71 -27 43 c-34 53 -97 97 -149 104 -23 3 -41 9 -41 12 0 5 149
101 156 101 1 0 30 -27 64 -59z m2382 23 l51 -26 -44 -19 c-97 -44 -154 -115
-175 -219 l-11 -55 -36 71 -36 72 19 52 c28 76 43 95 101 124 65 32 68 32 131
0z m-3552 6 c11 -7 1 -23 -55 -82 -38 -40 -75 -80 -83 -88 -12 -13 -16 -12
-33 9 -39 47 -14 137 45 161 28 12 108 12 126 0z m4305 -99 c77 -65 80 -69 77
-107 -3 -46 -37 -155 -55 -176 -10 -12 -27 1 -105 82 l-92 97 35 74 c19 40 35
79 35 86 0 25 26 11 105 -56z m-562 -28 l89 -68 -44 -8 c-146 -28 -237 -105
-274 -234 -8 -29 -17 -53 -19 -53 -3 0 -22 24 -44 53 -39 51 -40 55 -37 118 2
40 12 81 24 105 28 55 92 110 144 125 24 7 47 16 53 21 14 12 12 13 108 -59z
m1007 52 c10 -13 9 -15 -8 -15 -15 0 -20 5 -16 15 4 8 7 15 9 15 1 0 8 -7 15
-15z m-4432 -54 c13 -22 36 -51 52 -65 l30 -25 -68 -68 c-74 -75 -175 -197
-212 -259 -13 -21 -24 -40 -26 -42 -1 -2 -24 10 -51 27 -29 18 -58 46 -72 71
l-22 40 45 57 c25 32 55 71 68 87 l24 28 27 -36 c30 -39 74 -66 107 -66 33 0
23 14 -31 40 -30 14 -59 37 -68 53 l-16 29 88 84 c48 46 91 84 96 84 4 0 17
-18 29 -39z m2796 -26 c7 -40 7 -40 -54 -84 -34 -23 -63 -41 -64 -39 -2 1 -10
24 -19 51 -16 46 -15 48 6 61 60 37 113 62 118 57 4 -3 10 -24 13 -46z m-2075
12 c28 -18 50 -46 70 -85 l29 -58 -42 -70 c-62 -101 -70 -114 -76 -114 -3 0
-15 24 -28 53 -43 99 -125 162 -229 175 l-56 7 89 63 c88 63 90 64 146 60 40
-3 68 -12 97 -31z m3774 -1 c51 -21 87 -70 87 -117 0 -46 -25 -102 -43 -97
-15 4 -191 197 -185 203 24 25 96 30 141 11z m-5009 -66 l26 -9 -44 -63 c-24
-35 -55 -84 -70 -110 -30 -51 -52 -60 -78 -30 -38 42 -39 132 -2 174 38 42
113 59 168 38z m1642 -17 l56 -28 -6 -45 c-3 -24 -11 -49 -17 -55 -16 -16
-103 36 -107 65 -4 24 6 90 13 90 3 0 30 -12 61 -27z m3063 -58 c57 -59 81
-92 81 -109 0 -55 -83 -266 -105 -266 -2 0 -18 26 -36 58 -18 31 -52 85 -75
120 l-42 63 39 75 c23 45 39 89 39 110 0 18 4 34 9 34 4 0 45 -38 90 -85z
m-1346 -13 c15 -38 27 -73 27 -78 0 -33 -117 -95 -132 -70 -3 6 -18 41 -31 77
l-25 66 62 36 c33 20 63 37 66 37 3 0 17 -31 33 -68z m775 9 l53 -48 -56 -6
c-127 -13 -230 -123 -242 -258 -7 -69 -10 -69 -104 18 -59 55 -61 58 -55 96
14 84 78 172 153 208 39 19 77 26 188 37 6 1 34 -21 63 -47z m-1144 -24 c131
-233 226 -548 257 -845 15 -143 6 -471 -16 -612 -64 -412 -224 -830 -480
-1254 -91 -150 -165 -240 -222 -269 l-32 -17 -98 203 c-113 229 -162 320 -346
636 -212 366 -299 563 -349 791 -20 92 -22 133 -22 340 0 198 3 255 22 362 34
197 68 330 116 452 24 61 51 132 60 159 16 43 21 47 49 47 67 0 67 1 -12 -175
-17 -38 -73 -217 -87 -277 -3 -16 -9 -28 -13 -28 -3 0 -6 -12 -7 -27 0 -16 -9
-80 -19 -143 -24 -150 -24 -421 -1 -572 50 -322 195 -679 439 -1083 122 -202
299 -468 313 -472 6 -2 41 41 77 95 487 734 647 1587 431 2299 -43 143 -73
220 -131 337 -24 49 -42 90 -41 91 2 1 19 6 38 12 19 6 36 11 37 12 1 1 18
-27 37 -62z m-1977 17 c83 -30 188 -191 143 -219 -6 -4 -8 -15 -5 -24 4 -12
-14 -39 -56 -84 -33 -37 -65 -67 -70 -67 -5 0 -9 15 -9 33 -1 112 -128 232
-254 239 -25 2 -46 6 -46 10 0 15 133 123 158 129 34 8 85 2 139 -17z m1828
-18 c0 -27 -55 -57 -105 -58 -45 0 -57 6 -62 36 -2 17 6 22 57 32 83 16 110
14 110 -10z m-1197 -67 c21 -8 23 -13 17 -45 -16 -86 -28 -96 -88 -71 -56 24
-60 36 -36 111 l22 66 30 -26 c17 -14 42 -30 55 -35z m1016 -70 c97 -320 130
-522 123 -750 -7 -181 -5 -160 -28 -279 -39 -192 -124 -490 -141 -490 -5 0 -6
-4 -3 -10 10 -17 -64 -237 -82 -245 -13 -4 -14 -8 -5 -13 9 -6 7 -20 -5 -60
-9 -29 -20 -52 -23 -52 -6 0 -46 88 -225 495 -100 226 -171 425 -161 451 3 8
0 22 -8 29 -41 41 -55 436 -22 615 33 182 83 297 163 378 47 47 75 57 49 18
-22 -34 -61 -154 -85 -261 -62 -281 -47 -673 36 -927 66 -203 175 -292 274
-225 68 46 91 118 109 341 21 257 -19 561 -126 960 -20 70 -33 130 -31 133 8
7 141 20 149 13 4 -3 23 -57 42 -121z m-476 111 l55 0 -39 -34 c-33 -28 -43
-32 -69 -25 -16 4 -54 11 -83 14 -41 6 -52 10 -48 22 3 8 6 19 6 25 0 7 21 9
61 4 34 -3 87 -6 117 -6z m259 -77 c12 -43 20 -79 18 -81 -2 -2 -12 1 -23 7
-27 15 -78 13 -124 -3 -46 -17 -47 -11 -12 64 33 72 51 90 88 90 30 0 32 -2
53 -77z m462 -15 c21 -46 54 -127 72 -181 l34 -98 -30 -25 c-40 -32 -105 -64
-147 -70 l-34 -6 -23 102 c-12 57 -25 109 -28 116 -4 11 6 14 37 14 63 0 130
43 130 84 0 18 -3 17 -32 -11 -43 -40 -69 -53 -111 -53 -33 0 -33 0 -58 84
l-26 83 53 0 c35 0 63 7 86 21 18 11 34 21 36 21 2 1 20 -36 41 -81z m2323 23
c38 -42 46 -95 22 -141 -10 -19 -24 -35 -31 -35 -10 0 -148 184 -141 190 45
35 112 29 150 -14z m-947 -31 c36 -49 82 -150 68 -150 -3 0 -15 7 -25 16 -45
41 -177 23 -228 -31 -27 -29 -39 -110 -20 -144 11 -21 10 -22 -12 -16 -12 4
-52 23 -87 44 l-63 36 5 60 c5 70 31 126 80 173 42 41 102 60 184 61 l61 1 37
-50z m-2204 22 l66 -17 -30 -64 -30 -64 -64 6 c-35 2 -66 7 -69 10 -9 9 39
147 50 147 6 0 41 -8 77 -18z m1377 -60 c30 -47 41 -71 35 -82 -5 -8 -38 -30
-73 -47 -65 -32 -68 -37 -20 -33 28 2 95 34 105 50 11 18 22 11 80 -55 l57
-65 -37 -46 c-21 -25 -55 -57 -76 -71 -39 -25 -40 -26 -54 -7 -48 61 -205 335
-205 357 0 3 17 7 38 11 20 3 51 17 67 31 17 13 32 24 35 24 3 0 24 -30 48
-67z m1475 -74 c32 -42 57 -83 57 -91 0 -45 -98 -270 -145 -331 -20 -26 -25
-19 -73 99 -22 55 -50 120 -61 144 l-19 45 27 40 c41 59 67 114 86 178 l16 57
28 -32 c15 -18 53 -67 84 -109z m-4119 90 c24 -8 59 -31 86 -58 37 -36 50 -58
64 -110 9 -36 19 -72 22 -81 3 -11 -11 -28 -43 -52 -49 -35 -191 -117 -206
-117 -4 0 -5 15 -1 34 18 100 -72 206 -176 206 -49 0 -50 -3 51 115 63 74 64
75 113 75 27 0 67 -6 90 -12z m-966 -16 c9 -6 0 -34 -35 -110 -26 -56 -52
-101 -58 -99 -23 8 -55 71 -55 109 0 54 51 108 102 108 18 0 39 -4 46 -8z
m358 -94 c10 -9 31 -21 45 -27 l27 -10 -49 -97 c-27 -53 -51 -99 -53 -101 -2
-2 -27 7 -55 21 -49 25 -101 84 -101 116 0 14 46 97 93 166 l21 32 26 -42 c15
-22 36 -49 46 -58z m1333 68 c19 -14 46 -28 62 -31 l28 -6 -19 -50 c-43 -107
-58 -129 -91 -129 -31 0 -81 21 -111 47 -15 13 -12 21 38 95 30 45 54 85 54
90 0 12 2 11 39 -16z m902 -27 c21 -7 40 -18 43 -25 5 -14 46 -182 46 -190 0
-3 -12 4 -27 15 -71 51 -175 46 -247 -11 l-39 -31 7 39 c26 144 37 175 69 195
36 21 92 24 148 8z m-383 -59 c19 0 23 -4 18 -17 -4 -9 -16 -67 -28 -127 -12
-61 -22 -112 -22 -112 -1 -3 -107 14 -135 21 -28 7 -27 16 19 164 l31 99 46
-14 c25 -8 57 -14 71 -14z m2249 -27 c57 -29 63 -44 38 -93 -45 -86 -169 -105
-225 -33 -27 35 -25 65 7 103 48 57 99 64 180 23z m1083 -8 c35 -18 60 -62 60
-105 0 -36 -29 -97 -58 -123 -21 -19 -21 -18 -51 41 -16 32 -44 83 -60 111
-17 29 -31 54 -31 56 0 2 12 11 28 19 35 20 76 20 112 1z m-4772 -65 c55 -34
74 -75 68 -149 -3 -35 -7 -65 -9 -68 -2 -2 -40 -12 -85 -24 -67 -17 -88 -18
-121 -9 -57 15 -77 47 -61 97 20 62 68 151 87 162 29 17 86 12 121 -9z m800
-20 c21 -16 52 -32 70 -36 17 -4 32 -12 32 -18 0 -6 -25 -46 -56 -88 -45 -65
-59 -78 -82 -78 -36 0 -121 41 -150 73 l-24 25 44 38 c23 21 59 55 78 76 19
20 39 37 43 37 5 1 25 -12 45 -29z m3677 -95 c32 -59 50 -102 44 -105 -5 -4
-30 -55 -54 -113 -51 -123 -106 -237 -115 -237 -9 0 -99 154 -117 199 -15 38
-15 38 30 102 55 79 89 146 113 222 22 70 23 69 99 -68z m-5080 86 c9 -30 92
-101 126 -108 16 -3 28 -11 26 -17 -2 -6 -21 -63 -42 -126 -21 -63 -39 -116
-41 -118 -1 -2 -27 8 -58 23 -38 18 -66 40 -88 71 -17 24 -35 44 -40 44 -4 0
-8 4 -8 10 0 18 102 240 111 240 4 0 10 -9 14 -19z m-278 -9 c9 -6 3 -36 -25
-117 -20 -61 -38 -112 -40 -115 -1 -2 -19 4 -38 15 -91 49 -104 159 -26 208
28 17 108 23 129 9z m2718 -22 c72 -35 91 -64 107 -162 8 -49 14 -88 12 -88
-2 0 -19 11 -38 24 -69 46 -175 41 -273 -14 l-53 -30 0 98 c0 98 0 98 33 130
64 62 140 77 212 42z m1348 -92 c37 -28 67 -54 67 -58 0 -25 -76 -100 -134
-132 l-66 -37 -76 87 c-95 109 -101 119 -71 128 36 11 102 62 121 95 l18 30
36 -31 c20 -17 67 -53 105 -82z m-754 -5 c35 -158 37 -153 -38 -190 -49 -25
-77 -33 -118 -33 -29 0 -53 3 -53 8 0 4 -7 56 -15 116 -8 61 -13 110 -12 111
1 1 27 7 58 14 31 6 76 25 100 41 24 15 47 29 50 29 3 1 16 -43 28 -96z
m-1081 -10 c50 -4 62 -8 58 -20 -3 -8 -6 -67 -6 -130 l0 -116 -62 5 c-35 3
-81 14 -103 24 -46 22 -45 21 -18 159 18 96 20 99 47 90 11 -4 49 -9 84 -12z
m-738 -28 c20 -20 62 -46 93 -59 l56 -23 -68 -67 -67 -67 -65 21 c-62 19 -189
91 -189 107 0 5 25 21 55 36 30 16 71 42 92 58 21 16 42 29 48 29 5 0 26 -16
45 -35z m426 -71 c-9 -49 -20 -142 -24 -207 -9 -123 -15 -137 -57 -137 -29 0
-79 33 -109 73 l-27 35 65 85 c35 47 86 121 113 165 26 44 49 79 51 77 2 -1
-4 -43 -12 -91z m1743 -113 c31 -41 64 -85 74 -98 17 -21 18 -27 5 -65 -19
-60 -63 -85 -122 -68 l-44 12 -7 91 c-6 84 -24 221 -41 307 -5 31 -1 26 37
-35 23 -38 67 -103 98 -144z m2154 163 c45 -24 69 -71 64 -127 -5 -58 -29 -94
-84 -125 l-41 -23 -18 53 c-9 29 -32 89 -51 133 -18 44 -33 83 -33 87 0 13 64
27 100 22 19 -3 47 -12 63 -20z m-1551 -58 l107 -54 -112 -93 c-62 -52 -117
-100 -123 -108 -10 -13 -26 -3 -98 57 -47 40 -86 76 -86 80 0 5 20 13 43 19
51 14 144 92 153 129 3 13 7 24 8 24 0 0 49 -24 108 -54z m1203 -62 l37 -87
-16 -66 c-35 -145 -139 -300 -258 -384 -115 -81 -105 -80 -252 -37 -71 20
-125 39 -120 42 5 3 27 9 49 12 70 13 180 74 252 141 53 51 70 62 84 54 38
-20 52 1 27 40 -9 16 -6 27 20 67 46 74 89 170 109 245 9 37 20 66 24 64 3 -3
23 -44 44 -91z m-5222 -53 c19 -11 48 -24 65 -27 l30 -6 -28 -82 c-35 -104
-70 -186 -80 -186 -9 0 -84 88 -130 153 l-34 47 18 58 c10 31 27 81 38 110
l20 54 34 -50 c18 -27 48 -59 67 -71z m1119 -7 c27 -13 64 -28 84 -32 l37 -7
-54 -46 c-71 -61 -198 -151 -280 -200 l-66 -39 -73 30 c-40 16 -87 39 -105 50
-41 25 -159 119 -163 129 -3 8 248 116 252 109 1 -2 18 -23 38 -48 41 -52 124
-105 186 -118 55 -13 66 4 15 24 -87 35 -143 69 -183 109 l-43 43 51 22 c28
12 77 34 109 50 l58 27 45 -40 c25 -21 66 -50 92 -63z m-1442 89 c0 -31 -67
-263 -76 -263 -7 0 -28 18 -48 40 -30 33 -36 48 -36 83 0 64 38 110 110 134
43 14 50 15 50 6z m2857 -22 c54 -26 62 -34 67 -63 7 -49 16 -168 12 -168 -2
0 -23 9 -47 20 -89 40 -230 20 -296 -42 -13 -12 -25 -19 -27 -17 -3 2 -8 51
-12 107 -7 99 -6 104 17 129 64 69 182 83 286 34z m578 -109 c3 -48 8 -107 11
-132 l5 -46 -63 -23 c-35 -12 -98 -25 -142 -28 l-79 -6 6 63 c4 35 7 96 7 136
l0 74 58 0 c68 0 122 14 154 39 12 11 26 17 30 15 3 -2 9 -43 13 -92z m1165
58 c68 -24 114 -45 112 -52 -12 -45 -152 -173 -242 -222 l-50 -27 -78 46 c-42
25 -88 54 -101 64 l-24 18 78 58 c43 33 101 80 129 107 28 26 53 47 56 48 3 0
57 -18 120 -40z m-2365 -61 c28 -10 67 -18 88 -19 20 0 37 -3 37 -7 0 -5 7
-53 15 -107 8 -55 13 -101 11 -104 -7 -6 -134 17 -188 34 l-48 16 0 110 c0
101 1 110 18 103 9 -5 40 -16 67 -26z m2663 -34 l112 -36 -37 -42 c-89 -98
-175 -166 -261 -206 -59 -28 -61 -27 -192 31 l-65 29 55 32 c62 36 190 153
221 204 14 22 26 32 38 29 9 -3 67 -22 129 -41z m748 -145 c35 -118 53 -210
43 -210 -5 0 -21 -25 -35 -55 -31 -64 -79 -108 -142 -129 -38 -14 -43 -14 -38
-1 3 8 1 15 -3 15 -5 0 -11 -5 -13 -12 -3 -8 -32 -4 -104 16 -54 16 -105 32
-113 36 -9 5 4 17 42 38 30 17 82 56 116 87 91 85 143 173 196 330 7 19 8 18
17 -5 5 -14 21 -63 34 -110z m-5390 -60 c35 -39 37 -44 26 -72 -18 -47 3 -64
39 -32 17 15 21 15 53 -14 56 -49 152 -111 219 -141 l62 -29 -45 -19 c-25 -11
-68 -28 -97 -38 l-52 -19 -66 29 c-124 52 -235 154 -288 262 -20 40 -20 43 -2
115 32 131 30 129 74 60 22 -33 56 -79 77 -102z m562 140 c18 -11 35 -27 38
-35 8 -21 137 -105 206 -135 32 -14 58 -28 58 -31 0 -4 -40 -28 -90 -53 l-89
-47 -48 25 c-26 13 -69 39 -95 58 -51 36 -181 158 -175 164 4 5 151 73 157 74
3 0 20 -9 38 -20z m4352 -42 l105 -50 -63 -58 c-74 -68 -170 -121 -269 -148
l-71 -19 -71 22 c-39 13 -78 26 -87 29 -11 4 5 17 55 42 78 39 221 165 243
214 15 36 14 36 158 -32z m820 27 c32 -31 46 -79 36 -122 -10 -37 -69 -93 -99
-93 -22 0 -26 6 -32 42 -4 24 -18 78 -30 120 -12 43 -20 80 -16 84 3 3 30 4
59 2 40 -4 59 -11 82 -33z m-4230 -88 c0 -54 -24 -103 -62 -127 -42 -25 -84
-25 -127 1 l-33 20 98 97 c99 97 99 97 111 72 7 -14 12 -42 13 -63z m2208 17
c48 -42 87 -81 87 -88 0 -6 -16 -16 -37 -23 -66 -22 -132 12 -158 81 -12 34
-2 106 16 106 3 0 44 -34 92 -76z m-1093 47 c64 -29 68 -38 60 -145 l-7 -94
-44 31 c-35 25 -54 31 -97 31 -63 1 -119 -25 -145 -66 -11 -17 -22 -26 -26
-20 -3 6 -16 55 -27 109 l-20 98 28 22 c65 53 201 69 278 34z m-2972 -153
c-14 -68 -28 -126 -32 -131 -9 -9 -67 33 -88 63 -21 30 -21 91 0 124 24 36 75
66 113 66 l31 0 -24 -122z m762 44 c47 -46 113 -98 159 -125 l80 -47 -99 -46
-99 -46 -80 38 c-73 36 -192 109 -241 149 -20 17 -20 17 3 33 17 12 195 122
197 122 0 0 36 -35 80 -78z m1299 11 c3 -21 6 -64 6 -95 0 -62 -9 -70 -53 -46
-58 31 -64 93 -13 144 19 19 38 34 44 34 5 0 12 -17 16 -37z m1737 22 c67 -24
99 -60 99 -111 0 -26 -7 -51 -20 -67 -23 -29 -77 -48 -110 -40 -19 5 -20 13
-20 119 0 63 2 114 4 114 2 0 23 -7 47 -15z m-1461 -25 c31 -10 79 -22 107
-26 l52 -6 38 -122 39 -121 -46 -3 c-45 -3 -215 23 -237 36 -11 7 -43 190 -43
247 0 22 3 26 18 20 9 -3 42 -15 72 -25z m1206 -102 c-4 -73 -10 -141 -13
-151 -10 -37 -170 -87 -277 -87 -36 0 -66 2 -66 4 0 3 13 58 29 123 16 65 33
134 36 154 l7 36 86 6 c53 3 107 13 137 25 28 11 54 20 59 21 5 1 6 -57 2
-131z m669 42 c3 -5 45 -33 93 -61 48 -28 88 -53 90 -54 9 -8 -22 -46 -48 -60
-107 -56 -210 37 -169 154 11 32 23 39 34 21z m-4018 -42 c41 -89 164 -206
267 -254 l50 -23 -29 -11 c-41 -16 -167 -50 -183 -50 -23 0 -120 100 -143 147
-21 44 -21 45 -4 129 10 46 21 84 25 84 4 0 11 -10 17 -22z m1427 -4 c16 -42
6 -86 -28 -120 -30 -30 -40 -34 -84 -34 -33 0 -57 6 -72 18 -21 17 -21 17 64
76 47 32 88 62 92 67 8 14 21 11 28 -7z m1309 -18 c18 -7 44 -27 60 -45 25
-29 26 -34 17 -77 -22 -98 -72 -154 -124 -138 -56 17 -146 120 -146 166 0 32
32 70 75 89 48 22 75 23 118 5z m3197 -21 c117 -61 80 -230 -55 -246 l-29 -4
-12 105 c-6 58 -13 114 -14 125 -1 11 -2 23 -1 28 2 13 81 8 111 -8z m-4033
-152 c22 -117 21 -123 -30 -123 -60 0 -107 48 -107 109 0 42 69 121 105 121 6
0 20 -48 32 -107z m2464 47 c64 -28 113 -55 111 -62 -13 -47 -88 -98 -145 -98
-57 0 -117 69 -117 134 0 27 19 76 30 76 3 0 58 -23 121 -50z m1264 -99 c7
-69 6 -73 -11 -67 -11 3 -55 15 -99 27 -81 21 -116 39 -79 39 34 0 107 56 139
106 l30 47 7 -39 c3 -21 9 -72 13 -113z m-5863 92 c-2 -16 -24 -129 -49 -252
-26 -133 -40 -228 -35 -233 8 -8 38 -3 170 27 22 5 22 5 7 -32 -43 -102 -141
-141 -235 -93 -98 50 -123 170 -55 271 25 39 106 99 132 99 7 0 13 9 13 20 0
12 -7 20 -16 20 -8 0 -29 13 -45 29 -22 22 -29 39 -29 68 0 65 41 99 121 102
23 1 26 -2 21 -26z m1432 -9 c3 -9 6 -38 6 -66 0 -43 -4 -54 -31 -79 -43 -40
-92 -39 -147 1 -23 17 -42 36 -42 43 0 10 180 114 201 116 4 1 10 -6 13 -15z
m2419 5 c67 -35 91 -92 63 -151 -9 -18 -26 -40 -38 -48 -29 -18 -130 -31 -125
-15 3 5 10 58 18 118 12 102 14 107 37 107 13 0 33 -5 45 -11z m-1443 -25 c33
-11 88 -18 137 -18 l82 -1 53 -124 c29 -68 55 -128 57 -134 2 -7 -33 -8 -105
-3 -142 9 -222 24 -234 45 -9 17 -70 239 -70 254 0 5 6 6 13 3 6 -2 37 -13 67
-22z m1140 -138 c-11 -65 -20 -121 -20 -125 0 -20 -210 -70 -295 -70 -93 -1
-93 -2 -50 140 l37 124 122 0 c111 0 126 2 171 26 28 14 51 25 53 24 1 -1 -7
-55 -18 -119z m1323 67 c59 -21 107 -41 107 -44 0 -3 -17 -25 -37 -49 -63 -73
-120 -83 -168 -30 -14 16 -20 40 -23 91 -2 38 0 69 4 69 5 0 57 -17 117 -37z
m-3684 -60 c14 -51 14 -69 -4 -102 -17 -33 -33 -41 -86 -41 -31 0 -47 8 -79
36 -22 20 -40 42 -40 49 0 9 165 90 192 94 4 1 12 -16 17 -36z m3966 -36 c83
-28 101 -37 103 -56 7 -46 -64 -111 -122 -111 -63 0 -126 68 -126 137 0 49 11
74 29 68 9 -3 62 -20 116 -38z m-2950 -95 c19 -55 35 -104 35 -107 0 -3 -25
-5 -56 -5 -50 0 -59 3 -90 34 -25 25 -34 43 -34 68 0 46 29 88 70 102 19 7 36
12 37 11 1 0 18 -47 38 -103z m3931 87 c101 -62 116 -219 28 -288 -71 -56
-157 -48 -218 19 -56 62 -50 71 39 63 l75 -6 17 39 c11 25 17 67 17 117 0 42
3 77 5 77 2 0 19 -9 37 -21z m-5191 -50 c10 -43 -3 -100 -28 -126 -15 -17 -32
-23 -64 -23 -37 0 -50 6 -88 41 -25 23 -45 47 -45 54 0 10 176 80 212 84 3 1
9 -13 13 -30z m4515 -37 c69 -19 127 -37 129 -39 9 -7 -65 -75 -101 -94 -21
-10 -54 -19 -75 -19 -70 0 -94 33 -108 149 -5 49 -4 53 12 47 10 -4 74 -24
143 -44z m-1617 -10 c71 -64 57 -166 -28 -206 -34 -16 -106 -18 -121 -3 -3 3
37 195 52 245 4 15 66 -8 97 -36z m-1308 -27 c44 -9 111 -15 149 -13 l69 3 53
-119 c30 -66 53 -121 51 -122 -9 -10 -212 21 -278 42 -88 28 -87 27 -139 160
-29 76 -29 76 -7 71 12 -3 58 -13 102 -22z m-1855 -20 c0 -125 -157 -165 -226
-60 -9 14 -15 28 -12 30 7 7 199 62 221 64 13 1 17 -7 17 -34z m2836 -2 c-4
-9 -16 -53 -27 -98 -11 -45 -24 -87 -28 -93 -13 -22 -163 -54 -278 -59 -62 -3
-113 -4 -113 -2 0 2 16 54 34 114 l34 110 118 -3 c105 -2 127 0 184 21 82 30
83 31 76 10z m2236 -20 c126 -31 132 -41 69 -104 -29 -29 -47 -39 -70 -39 -44
0 -88 25 -106 60 -15 29 -21 110 -8 110 3 0 55 -12 115 -27z m-5344 -35 c6
-30 -27 -87 -60 -108 -63 -38 -146 -19 -182 41 -17 28 -17 28 11 35 15 3 69
17 118 29 99 25 109 26 113 3z m1913 -149 c65 -132 66 -139 1 -139 -97 0 -162
95 -127 187 13 34 46 73 62 73 2 0 30 -55 64 -121z m344 -38 c28 -6 86 -13
130 -14 l79 -2 47 -105 c61 -137 72 -138 111 -10 l30 95 121 1 c84 0 142 6
186 18 35 9 66 15 68 12 3 -3 -9 -45 -26 -94 l-33 -90 -71 -21 c-40 -11 -110
-26 -157 -32 -161 -22 -489 21 -507 67 -3 8 -10 14 -17 14 -9 0 -116 198 -116
215 0 2 24 -6 53 -19 28 -13 75 -28 102 -35z m1114 3 c79 -66 47 -193 -57
-225 -47 -14 -136 -4 -129 14 2 7 22 63 43 125 l38 112 37 0 c26 0 47 -8 68
-26z m-1304 -246 c39 -68 71 -125 73 -129 6 -13 -69 -20 -107 -9 -114 30 -156
153 -80 230 17 16 34 30 37 30 4 0 39 -55 77 -122z m325 -10 c157 -30 381 -31
485 0 38 11 71 20 72 19 1 -2 -105 -229 -111 -234 -1 -2 -40 -8 -85 -15 -95
-13 -216 -1 -325 32 l-65 20 -49 83 c-75 125 -77 130 -55 123 10 -3 70 -15
133 -28z m847 -34 c64 -48 68 -140 7 -193 -29 -26 -43 -31 -84 -31 -48 0 -103
17 -98 30 2 3 25 56 53 118 55 123 57 125 122 76z m-1008 -243 c34 -60 61
-114 61 -119 0 -17 -68 -34 -102 -26 -100 21 -131 120 -67 209 18 25 36 45 40
45 4 0 35 -49 68 -109z m246 36 c49 -17 86 -21 198 -21 75 0 137 -2 137 -3 0
-9 -76 -131 -88 -140 -9 -7 -43 -13 -76 -13 -71 0 -153 33 -177 71 -80 122
-91 142 -73 134 11 -4 46 -17 79 -28z m613 -70 c84 -87 24 -208 -96 -194 -24
2 -48 9 -53 14 -11 11 90 212 107 213 5 0 25 -15 42 -33z m-452 -135 l64 -7
-38 -57 c-20 -32 -40 -58 -43 -58 -5 0 -30 34 -94 134 l-19 29 33 -18 c19 -9
62 -20 97 -23z m-246 -133 c39 -77 70 -142 68 -143 -58 -44 -128 -49 -173 -14
-52 41 -70 132 -40 204 17 42 53 94 64 94 5 0 41 -63 81 -141z m584 1 c40 -68
3 -162 -69 -176 -37 -7 -104 11 -111 30 -3 7 20 52 51 101 30 48 55 92 55 97
0 16 57 -24 74 -52z m-405 -315 c35 8 125 71 157 108 14 16 27 27 31 24 3 -4
6 -35 6 -70 0 -126 -73 -207 -186 -207 -115 0 -192 122 -141 223 34 66 36 65
73 -12 31 -68 36 -72 60 -66z"/>
<path d="M4797 7078 c-12 -44 14 -281 43 -395 55 -217 143 -381 287 -533 149
-157 311 -254 508 -306 84 -22 128 -27 281 -31 596 -17 1045 168 1320 542 143
195 234 452 234 664 0 74 -2 81 -20 81 -16 0 -20 -7 -20 -31 0 -16 -4 -28 -9
-24 -12 7 -285 44 -290 39 -11 -10 18 -18 151 -46 78 -16 144 -30 146 -32 3
-4 -26 -208 -32 -213 -2 -2 -46 13 -97 33 -52 20 -103 40 -114 44 -16 6 -12 9
20 14 91 16 110 43 50 72 -44 21 -116 84 -134 118 -10 19 -22 26 -43 26 -15 0
-28 -3 -28 -8 0 -14 32 -56 81 -107 l49 -50 -71 -33 c-136 -64 -258 -218 -289
-367 -6 -31 -10 -89 -8 -130 2 -63 1 -74 -12 -70 -118 36 -295 48 -380 25
-117 -31 -234 -120 -280 -211 -12 -24 -24 -45 -25 -47 -2 -2 -27 22 -56 53
-124 131 -325 167 -576 102 l-93 -23 0 45 c-1 173 -107 348 -258 423 -37 18
-69 34 -71 35 -2 2 8 21 23 43 46 70 68 139 74 233 l5 87 -27 0 c-24 0 -26 -4
-26 -39 0 -45 -1 -46 -162 -57 -62 -4 -95 -10 -91 -17 4 -6 50 -8 129 -4 68 4
124 3 124 -1 0 -5 -7 -31 -15 -60 -15 -50 -16 -51 -68 -62 -29 -6 -80 -19
-114 -29 l-61 -19 -6 22 c-3 11 -9 76 -12 144 -5 86 -11 122 -19 122 -7 0 -15
-10 -18 -22z m2580 -333 c5 -14 -50 -161 -69 -188 -12 -15 -23 -9 -118 59 -58
41 -127 87 -153 100 -27 14 -47 30 -45 37 3 7 32 33 66 59 l61 46 126 -50 c70
-28 129 -57 132 -63z m-2326 78 c-5 -10 -23 -36 -40 -57 -17 -22 -30 -44 -28
-50 2 -6 29 -19 61 -29 32 -11 55 -22 51 -25 -8 -8 -189 -72 -193 -68 -5 6
-50 191 -47 194 2 2 47 14 102 26 54 13 99 24 101 25 1 0 -2 -7 -7 -16z m2051
-188 c67 -47 136 -96 152 -109 l28 -24 -45 -70 -46 -71 -148 100 c-81 55 -149
95 -151 89 -2 -6 -2 -13 -1 -14 30 -26 261 -186 269 -186 19 0 10 -15 -54 -85
-62 -69 -64 -70 -90 -56 -64 35 -140 106 -149 141 -13 51 -2 177 22 239 22 59
66 131 80 131 5 0 65 -38 133 -85z m-1918 -27 l37 -33 -57 -29 c-55 -29 -169
-124 -160 -133 2 -3 31 13 63 34 32 22 85 54 117 72 68 38 68 38 112 -53 l23
-50 -37 -25 c-20 -13 -69 -51 -109 -83 -39 -32 -74 -58 -77 -58 -11 0 -118
172 -150 242 l-34 76 106 35 c59 19 112 35 118 36 6 1 27 -14 48 -31z m151
-269 c4 -23 4 -69 0 -104 -5 -50 -12 -67 -33 -87 -63 -57 -57 -57 -123 8 -32
32 -59 64 -59 70 0 7 33 36 73 64 39 29 83 61 97 71 35 25 37 24 45 -22z
m1278 -19 c15 0 27 -4 27 -10 0 -13 128 -209 158 -242 l24 -27 -62 -31 c-34
-17 -63 -30 -64 -28 -15 21 -147 181 -200 241 -37 43 -65 81 -61 85 8 9 105
21 130 16 11 -2 32 -4 48 -4z m172 -35 c50 -17 82 -22 88 -16 14 14 138 -90
126 -106 -12 -13 -155 -113 -163 -113 -3 0 -6 6 -6 13 0 8 -36 64 -80 125 -44
62 -80 114 -80 117 0 11 41 4 115 -20z m-347 -29 c17 -24 74 -97 127 -161 52
-65 92 -122 89 -126 -5 -9 -161 -59 -182 -59 -7 0 -20 19 -29 43 -9 23 -45 97
-80 165 -35 68 -61 127 -58 133 7 11 76 48 91 49 6 0 25 -20 42 -44z m-777
-63 c-90 -222 -110 -268 -120 -271 -17 -6 -132 50 -128 62 2 6 12 34 21 63 10
28 35 79 56 112 34 52 44 61 77 66 21 4 45 8 53 10 8 1 25 3 37 4 l23 1 -19
-47z m174 35 c2 -2 -6 -38 -19 -80 -13 -42 -34 -121 -46 -175 -12 -54 -25
-101 -29 -104 -11 -11 -173 32 -167 44 2 7 32 75 66 152 34 77 62 148 63 159
1 16 8 18 65 13 35 -2 65 -7 67 -9z m474 -56 c13 -31 46 -104 73 -161 32 -70
45 -107 37 -112 -12 -7 -150 -31 -154 -27 -16 21 -68 171 -72 209 -5 43 -2 54
22 89 25 36 50 59 65 60 3 0 16 -26 29 -58z m-361 13 c15 -8 38 -24 50 -35 21
-17 22 -21 9 -34 -22 -23 -40 -138 -33 -208 l7 -60 -100 4 c-55 2 -102 6 -105
8 -2 3 13 62 34 132 21 69 41 146 45 170 4 23 9 46 12 50 4 8 38 -3 81 -27z
m-503 -40 c-18 -31 -39 -78 -45 -105 l-12 -50 -30 18 c-16 9 -45 30 -64 45
l-34 28 52 42 c53 42 118 75 150 76 13 1 10 -10 -17 -54z m634 -102 c14 -26
33 -49 43 -51 16 -3 19 2 33 63 7 27 9 23 22 -40 8 -38 23 -85 34 -104 11 -19
16 -37 12 -42 -4 -4 -54 -11 -110 -14 l-102 -8 -7 28 c-8 33 1 145 16 199 13
45 20 41 59 -31z"/>
<path d="M5310 7056 c0 -61 24 -180 49 -244 58 -147 193 -293 333 -361 113
-55 200 -74 328 -74 295 2 551 166 674 435 34 72 66 199 66 258 0 25 -4 30
-25 30 -20 0 -25 -5 -25 -26 0 -26 0 -26 -70 -22 -51 3 -77 9 -99 26 -17 12
-43 22 -58 22 l-27 0 34 -35 c18 -19 32 -36 29 -38 -95 -67 -125 -119 -116
-203 5 -50 4 -53 -13 -44 -10 6 -42 10 -70 10 -65 0 -119 -28 -151 -79 l-23
-37 -31 31 c-32 31 -91 55 -137 55 -42 0 -127 -50 -161 -95 l-33 -42 0 51 c-2
94 -64 173 -151 191 l-32 6 25 36 c53 79 59 193 10 193 -21 0 -22 -5 -22 -62
0 -102 -57 -182 -146 -203 -18 -5 -28 -14 -28 -26 0 -10 -4 -19 -10 -19 -15 0
-50 126 -62 223 -11 81 -13 87 -35 87 -21 0 -23 -5 -23 -44z m1380 -110 c-21
-83 -66 -184 -103 -229 l-22 -27 -35 18 c-53 28 -80 75 -80 136 0 91 69 156
166 156 27 0 59 6 70 14 10 8 20 13 21 12 2 -2 -6 -38 -17 -80z m-1030 -144
c71 -36 99 -118 65 -199 -8 -19 -15 -49 -15 -65 0 -16 6 -31 15 -34 8 -4 15
-10 15 -16 0 -5 -23 3 -52 19 -62 33 -168 129 -210 191 l-30 44 22 23 c51 54
127 69 190 37z m785 -101 c38 -22 74 -43 80 -45 15 -7 -80 -92 -145 -130 -52
-30 -161 -79 -165 -74 -1 2 -10 42 -19 90 -18 84 -18 88 0 125 46 93 129 105
249 34z m-389 -7 c43 -21 74 -63 74 -101 0 -16 11 -52 25 -79 14 -27 25 -54
25 -61 0 -35 -238 -38 -347 -5 l-71 22 44 83 c24 45 62 99 84 120 34 32 46 37
86 37 25 0 61 -7 80 -16z m-315 -167 c-10 -9 -11 -8 -5 6 3 10 9 15 12 12 3
-3 0 -11 -7 -18z"/>
<path d="M5740 7092 c0 -4 15 -32 33 -62 78 -131 253 -166 373 -75 36 27 76
83 88 123 6 18 4 22 -16 21 -16 0 -32 -14 -53 -47 -16 -26 -45 -57 -63 -69
-94 -62 -234 -26 -290 75 -18 31 -30 42 -48 42 -13 0 -24 -4 -24 -8z"/>
<path d="M552 6998 c-30 -30 0 -75 42 -64 33 8 40 32 16 56 -23 23 -41 25 -58
8z"/>
<path d="M715 6996 c-16 -12 -18 -19 -10 -43 14 -38 48 -42 70 -9 31 47 -14
86 -60 52z"/>
</g>
</svg>
