<?xml version="1.0" standalone="no"?>
<!DOCTYPE svg PUBLIC "-//W3C//DTD SVG 20010904//EN"
 "http://www.w3.org/TR/2001/REC-SVG-20010904/DTD/svg10.dtd">
<svg version="1.0" xmlns="http://www.w3.org/2000/svg"
 width="1280.000000pt" height="853.000000pt" viewBox="0 0 1280.000000 853.000000"
 preserveAspectRatio="xMidYMid meet">
<metadata>
Created by potrace 1.15, written by Peter Selinger 2001-2017
</metadata>
<g transform="translate(0.000000,853.000000) scale(0.100000,-0.100000)"
fill="#000000" stroke="none">
<path d="M368 8498 c-72 -51 -195 -145 -285 -221 -78 -65 -83 -71 -83 -109 0
-36 2 -39 23 -33 12 4 33 17 47 30 33 30 300 232 359 271 25 17 59 46 75 63
l30 31 -60 0 c-51 0 -66 -5 -106 -32z"/>
<path d="M1265 8402 c-447 -300 -860 -631 -1182 -946 l-83 -81 0 -52 c0 -29 5
-53 10 -53 6 0 77 62 158 138 446 416 865 744 1299 1016 66 42 124 83 127 91
4 12 -7 15 -67 15 l-72 0 -190 -128z"/>
<path d="M2460 8459 c-690 -389 -1271 -819 -1803 -1338 -159 -154 -458 -487
-604 -673 -51 -63 -53 -68 -53 -127 0 -58 1 -61 20 -51 11 6 54 54 97 108 330
415 809 892 1238 1233 363 289 777 564 1190 789 94 51 179 101 190 111 19 19
18 19 -65 18 l-85 0 -125 -70z"/>
<path d="M3650 8441 c-580 -261 -1075 -551 -1561 -916 -848 -636 -1549 -1436
-2028 -2313 l-61 -113 0 -87 c0 -85 0 -86 19 -67 11 11 54 85 97 165 781 1459
2102 2631 3754 3330 69 29 136 61 149 71 24 19 23 19 -75 19 l-99 -1 -195 -88z"/>
<path d="M5245 8485 c-1475 -436 -2671 -1180 -3626 -2255 -694 -782 -1201
-1753 -1434 -2748 -113 -483 -155 -854 -155 -1384 0 -560 48 -967 176 -1483
39 -154 133 -469 167 -555 21 -54 23 -55 64 -58 36 -3 43 0 43 15 0 9 -25 90
-55 178 -485 1421 -407 2974 217 4354 615 1359 1689 2479 3104 3235 197 106
617 304 589 278 -5 -4 -75 -40 -155 -77 -197 -94 -372 -188 -580 -313 -1853
-1109 -3010 -2919 -3131 -4897 -14 -235 -6 -732 16 -940 45 -428 135 -846 271
-1253 57 -173 158 -430 205 -525 28 -55 31 -57 69 -57 54 0 53 11 -19 178
-513 1185 -604 2503 -259 3732 465 1657 1654 3063 3315 3917 185 95 435 213
451 213 4 0 -90 -49 -208 -108 -1507 -753 -2622 -1983 -3129 -3454 -439 -1276
-378 -2690 171 -3938 71 -160 231 -479 260 -515 15 -19 29 -25 59 -25 55 0 52
17 -27 161 -183 332 -349 734 -453 1096 -98 341 -155 640 -193 1013 -17 168
-17 755 0 925 43 422 123 801 252 1186 89 269 150 418 274 674 382 787 938
1476 1651 2046 403 323 887 623 1346 835 88 41 164 74 167 74 4 0 -83 -47
-193 -103 -629 -323 -1109 -670 -1580 -1142 -302 -302 -481 -518 -705 -852
-155 -232 -249 -396 -379 -665 -113 -232 -171 -375 -247 -604 -126 -382 -204
-749 -239 -1134 -20 -221 -20 -721 0 -935 74 -772 317 -1505 728 -2190 92
-154 204 -323 240 -362 25 -27 107 -34 107 -9 0 8 -43 77 -95 154 -194 285
-392 648 -515 942 -316 755 -447 1562 -379 2345 94 1098 561 2153 1334 3021
470 526 1070 987 1730 1330 170 88 425 207 431 201 2 -2 -38 -23 -88 -47 -322
-151 -710 -387 -1013 -616 -387 -291 -790 -692 -1073 -1067 -486 -645 -809
-1390 -932 -2150 -48 -296 -54 -387 -54 -767 0 -285 4 -396 17 -505 51 -415
131 -755 263 -1118 212 -587 570 -1181 987 -1639 l88 -98 50 0 c35 0 49 4 49
14 0 7 -42 61 -93 118 -682 766 -1111 1673 -1236 2618 -34 255 -41 362 -41
609 0 250 8 374 41 614 162 1199 799 2315 1793 3141 223 186 460 353 746 526
128 78 621 330 644 330 6 0 -56 -35 -139 -78 -313 -162 -627 -361 -875 -554
-474 -369 -887 -823 -1193 -1312 -104 -167 -288 -531 -357 -706 -164 -418
-259 -810 -301 -1245 -17 -168 -17 -623 -1 -790 117 -1204 698 -2295 1662
-3124 192 -165 187 -163 262 -159 l63 3 -40 37 c-22 20 -96 82 -165 139 -143
118 -421 388 -548 533 -642 729 -1020 1562 -1133 2496 -32 264 -32 675 0 940
173 1426 1010 2674 2330 3475 193 117 643 346 678 345 4 0 -73 -42 -172 -93
-778 -402 -1384 -938 -1838 -1628 -371 -563 -590 -1180 -662 -1862 -19 -180
-19 -596 0 -783 53 -522 184 -974 421 -1446 207 -415 461 -770 788 -1105 408
-419 816 -719 1333 -982 l139 -71 89 0 c115 0 110 5 -100 108 -784 385 -1440
948 -1890 1622 -129 194 -208 331 -306 535 -74 154 -174 394 -167 401 2 2 26
-50 52 -114 96 -231 248 -507 399 -722 607 -868 1523 -1496 2621 -1795 125
-34 135 -35 300 -35 198 1 197 8 -10 54 -790 176 -1488 513 -2072 1000 -407
340 -742 747 -992 1206 -85 157 -239 505 -228 516 2 2 21 -38 43 -89 452
-1081 1471 -1932 2725 -2278 669 -184 1443 -216 2135 -88 1300 241 2396 1013
2954 2081 259 495 390 1024 391 1579 1 906 -359 1770 -1019 2451 -695 717
-1612 1158 -2679 1291 -154 19 -226 22 -557 22 -332 0 -403 -3 -560 -23 -795
-98 -1524 -379 -2126 -819 -371 -270 -705 -616 -942 -972 -81 -121 -195 -315
-232 -394 -10 -21 -20 -36 -22 -33 -8 7 136 281 218 415 290 479 715 923 1206
1264 260 180 631 378 928 496 1151 454 2439 472 3600 50 1120 -408 2010 -1185
2486 -2173 182 -378 294 -757 346 -1174 24 -189 24 -642 0 -832 -166 -1310
-1013 -2450 -2297 -3091 -361 -180 -716 -305 -1135 -400 -231 -53 -233 -60
-10 -56 l190 3 157 47 c683 205 1220 484 1738 906 139 113 407 377 535 526
412 482 701 1049 839 1648 76 324 101 581 93 927 -14 580 -143 1088 -413 1620
-512 1010 -1472 1801 -2649 2183 -416 135 -784 206 -1260 242 -397 30 -811 9
-1227 -60 -906 -153 -1747 -545 -2407 -1124 -361 -316 -663 -694 -905 -1131
-47 -84 -86 -151 -86 -147 0 4 25 58 56 120 202 403 463 769 784 1101 1106
1141 2817 1708 4485 1486 923 -123 1751 -450 2477 -978 650 -473 1178 -1125
1486 -1833 149 -342 251 -712 303 -1099 20 -142 23 -210 23 -485 0 -280 -3
-341 -23 -485 -84 -608 -268 -1118 -593 -1642 -449 -725 -1139 -1334 -1968
-1734 -69 -34 -132 -69 -140 -78 -13 -17 -9 -18 80 -15 l95 4 170 91 c489 261
842 520 1205 884 582 583 968 1259 1154 2020 135 554 152 1134 50 1688 -115
623 -383 1233 -771 1753 -162 217 -236 302 -443 509 -321 321 -666 587 -1037
800 -51 29 -93 54 -93 57 0 2 35 -15 78 -38 494 -270 874 -546 1236 -899 430
-420 766 -889 1011 -1414 89 -191 95 -196 95 -73 l0 97 -69 138 c-166 332
-364 633 -614 936 -138 167 -512 537 -687 679 -201 163 -426 322 -646 455
-103 61 -184 112 -180 112 11 0 214 -113 356 -198 688 -413 1300 -989 1730
-1629 41 -61 83 -116 93 -122 16 -10 17 -5 17 60 l0 72 -82 116 c-335 477
-731 884 -1208 1242 -201 151 -477 332 -648 424 -28 15 -50 30 -48 32 5 5 172
-87 346 -190 546 -324 1083 -773 1481 -1238 161 -189 159 -188 159 -100 l0 58
-97 114 c-122 143 -444 466 -583 585 -317 271 -641 504 -967 692 -73 42 -131
77 -129 79 4 5 191 -98 346 -190 452 -269 862 -584 1241 -954 92 -90 172 -163
178 -163 7 0 11 21 11 53 l0 54 -152 149 c-388 379 -861 734 -1340 1004 -43
24 -76 46 -74 48 12 11 430 -234 651 -381 295 -197 679 -495 853 -663 12 -12
31 -24 42 -27 18 -5 20 0 20 42 0 53 -9 64 -175 205 -340 291 -809 613 -1197
826 -92 49 -104 63 -19 20 157 -79 360 -197 696 -404 86 -53 394 -275 529
-382 154 -123 166 -128 166 -72 0 46 -7 54 -161 175 -377 299 -796 560 -1289
807 -451 225 -890 396 -1371 535 l-176 51 -2204 -1 -2204 0 -150 -44z m-95
-490 c-14 -8 -29 -14 -35 -14 -5 0 1 6 15 14 14 8 30 14 35 14 6 0 -1 -6 -15
-14z m2395 -355 c605 -71 1175 -255 1710 -553 133 -74 415 -264 538 -362 647
-519 1101 -1205 1287 -1945 63 -254 88 -435 97 -706 33 -1071 -465 -2089
-1379 -2821 -104 -83 -391 -276 -513 -345 -1396 -790 -3162 -775 -4540 40
-758 448 -1317 1088 -1626 1861 -28 68 -48 125 -46 128 3 2 17 -29 33 -69 40
-105 178 -375 254 -496 542 -862 1488 -1478 2576 -1676 272 -50 671 -82 879
-72 551 28 979 112 1405 276 1253 483 2098 1489 2266 2700 35 254 28 633 -17
899 -160 943 -756 1781 -1644 2310 -497 296 -1017 472 -1630 552 -147 19 -217
22 -515 23 -299 0 -368 -3 -515 -22 -631 -82 -1183 -275 -1684 -588 -260 -162
-463 -326 -681 -550 -226 -232 -398 -463 -549 -739 -39 -71 -71 -127 -71 -122
0 13 117 242 171 333 308 523 756 976 1297 1313 593 368 1296 592 2037 651
189 15 656 4 860 -20z m-620 -340 c693 -45 1338 -248 1902 -599 991 -616 1593
-1639 1593 -2706 0 -674 -245 -1352 -689 -1905 -107 -133 -385 -411 -517 -516
-597 -477 -1303 -761 -2104 -846 -163 -17 -637 -17 -800 0 -1352 142 -2499
895 -3030 1987 -68 140 -155 353 -147 361 2 2 16 -29 32 -68 15 -40 61 -138
101 -218 254 -504 682 -956 1194 -1261 123 -73 379 -200 500 -248 317 -127
688 -217 1040 -253 161 -16 579 -16 740 0 1164 118 2154 733 2668 1657 393
707 451 1560 157 2311 -143 365 -353 689 -639 983 -561 575 -1296 923 -2166
1027 -163 19 -641 22 -800 4 -511 -55 -1000 -206 -1411 -435 -554 -308 -984
-738 -1269 -1268 -27 -50 -50 -88 -50 -83 0 23 167 328 243 443 230 350 537
668 892 921 708 506 1658 770 2560 712z m-150 -379 c39 -7 115 -19 170 -27
576 -91 1133 -334 1605 -700 133 -103 385 -351 484 -474 260 -326 452 -707
546 -1079 61 -246 74 -353 74 -631 0 -275 -14 -401 -70 -620 -211 -824 -785
-1512 -1597 -1915 -435 -217 -861 -331 -1382 -372 -180 -14 -238 -14 -405 -4
-436 27 -808 108 -1185 258 -742 295 -1344 833 -1678 1500 -48 95 -141 322
-135 328 2 2 21 -37 42 -88 230 -555 721 -1058 1327 -1363 523 -262 1126 -373
1758 -324 576 45 1177 271 1627 612 481 364 810 845 958 1398 57 215 70 324
70 600 0 221 -3 272 -23 384 -74 417 -228 766 -490 1111 -96 127 -357 389
-481 485 -474 363 -1011 578 -1615 645 -179 20 -556 20 -735 0 -525 -59 -997
-228 -1420 -510 -179 -119 -276 -200 -435 -359 -193 -194 -333 -382 -454 -606
-70 -130 -64 -106 10 41 140 281 301 502 539 740 182 183 311 290 500 415 309
203 629 347 998 448 205 57 353 84 662 120 73 8 668 -2 735 -13z m-357 -365
c373 -53 656 -140 987 -301 601 -295 1047 -748 1299 -1320 279 -631 258 -1325
-57 -1950 -114 -227 -250 -416 -437 -609 -454 -468 -1025 -753 -1724 -862
-154 -25 -199 -27 -446 -28 -234 0 -298 3 -430 23 -694 100 -1291 389 -1740
840 -244 245 -429 521 -554 823 -20 48 -36 90 -36 95 0 4 31 -53 68 -127 120
-241 250 -418 458 -620 398 -388 896 -625 1494 -712 219 -32 578 -32 790 1
414 62 764 190 1090 396 279 178 532 425 710 695 397 604 450 1364 141 2015
-224 470 -609 850 -1116 1100 -497 245 -1054 334 -1625 260 -818 -105 -1533
-567 -1897 -1225 -29 -52 -53 -92 -53 -87 0 25 134 267 209 379 464 688 1249
1134 2161 1228 130 13 576 4 708 -14z m-395 -360 c694 -96 1314 -442 1694
-948 124 -165 212 -320 286 -508 141 -355 173 -751 91 -1119 -142 -636 -602
-1189 -1241 -1493 -68 -32 -126 -58 -130 -58 -4 0 33 23 82 51 200 115 332
217 485 375 133 138 227 265 304 414 143 275 198 501 198 810 0 263 -45 474
-151 709 -272 607 -911 1057 -1644 1158 -166 23 -509 23 -668 0 -657 -96
-1214 -444 -1532 -957 -106 -171 -190 -396 -228 -607 -19 -104 -20 -143 -16
-333 6 -237 24 -346 87 -524 136 -382 411 -727 763 -955 37 -24 66 -46 63 -48
-6 -6 -156 80 -258 149 -472 316 -807 783 -928 1291 -16 67 -33 157 -39 200
-16 114 -14 405 4 519 109 727 606 1344 1345 1671 268 118 555 189 890 221 88
8 437 -4 543 -18z m-61 -691 c780 -103 1434 -609 1658 -1283 114 -344 115
-666 4 -1002 -132 -396 -407 -736 -786 -972 -77 -48 -316 -168 -334 -168 -5 0
32 23 81 51 419 240 692 619 760 1054 14 86 16 145 12 270 -9 223 -40 351
-137 550 -229 473 -706 804 -1286 891 -145 22 -423 22 -567 1 -602 -91 -1101
-457 -1308 -962 -176 -426 -126 -909 134 -1300 105 -157 263 -316 429 -429 45
-31 78 -56 74 -56 -5 0 -57 27 -116 61 -281 159 -532 398 -690 654 -102 165
-191 390 -223 560 -35 185 -41 301 -23 457 45 403 212 746 506 1038 312 311
731 516 1195 585 127 18 477 19 617 0z m-97 -685 c575 -65 1095 -433 1301
-921 114 -269 135 -571 58 -837 -111 -383 -410 -728 -787 -906 -149 -70 -167
-72 -57 -7 138 82 267 203 363 342 255 367 246 857 -23 1218 -364 488 -1068
654 -1661 392 -256 -113 -487 -333 -594 -565 -65 -139 -87 -234 -92 -401 -4
-116 -2 -170 12 -240 49 -262 211 -513 438 -680 37 -27 65 -51 62 -53 -2 -2
-41 17 -87 43 -262 151 -490 387 -616 640 -156 315 -176 678 -55 1005 165 447
565 790 1077 926 190 50 452 67 661 44z m-28 -696 c316 -46 614 -217 794 -453
65 -86 151 -263 180 -371 32 -121 32 -310 0 -430 -82 -308 -290 -556 -588
-702 -57 -28 -106 -48 -109 -46 -2 3 22 22 53 43 127 84 235 224 291 377 25
68 27 84 26 228 0 145 -2 160 -28 230 -59 157 -193 316 -336 400 -163 95 -286
125 -500 124 -188 -1 -265 -19 -420 -96 -92 -46 -117 -64 -200 -148 -104 -104
-147 -169 -188 -282 -24 -66 -26 -87 -27 -223 0 -138 2 -156 27 -226 49 -138
135 -259 251 -351 68 -53 36 -47 -63 12 -204 122 -345 271 -444 467 -211 420
-73 924 335 1223 262 192 610 274 946 224z m-27 -696 c136 -26 292 -110 395
-213 173 -173 236 -396 173 -612 -33 -112 -78 -183 -178 -284 -70 -70 -103
-94 -179 -132 -51 -26 -99 -47 -107 -47 -7 0 10 23 37 50 167 167 138 436 -62
569 -190 127 -455 100 -604 -60 -76 -82 -98 -146 -93 -264 5 -101 30 -164 95
-235 47 -53 26 -51 -71 6 -203 119 -332 321 -343 534 -9 184 52 338 191 476
190 190 464 268 746 212z m-115 -683 c97 -16 196 -88 243 -180 55 -106 27
-232 -73 -324 -75 -69 -123 -86 -240 -86 -89 0 -106 3 -157 28 -65 32 -131 94
-160 151 -11 22 -23 68 -26 102 -8 108 56 213 166 272 57 31 146 52 187 46 11
-1 38 -6 60 -9z"/>
<path d="M10521 8511 c13 -10 74 -39 135 -64 369 -151 873 -412 1229 -637 264
-167 498 -333 767 -547 65 -51 125 -93 133 -93 11 0 15 11 15 39 0 35 -6 44
-62 93 -99 85 -335 264 -493 374 -476 328 -934 582 -1453 805 -108 47 -118 49
-204 49 -90 0 -91 0 -67 -19z"/>
<path d="M11135 8510 c10 -11 72 -48 139 -83 123 -65 381 -214 471 -272 187
-120 488 -323 542 -364 209 -161 383 -298 425 -335 28 -24 59 -47 69 -49 16
-4 19 1 19 38 0 41 -4 46 -67 102 -315 274 -764 587 -1210 841 -237 136 -252
142 -334 142 -71 0 -72 0 -54 -20z"/>
<path d="M11596 8516 c3 -8 47 -40 97 -72 152 -95 414 -271 515 -347 127 -94
285 -218 420 -329 79 -65 150 -118 158 -118 18 0 19 69 2 92 -19 22 -185 160
-333 274 -176 136 -356 265 -559 401 l-171 113 -67 0 c-54 0 -66 -3 -62 -14z"/>
<path d="M11986 8515 c4 -8 45 -43 93 -77 112 -82 324 -242 381 -289 227 -189
316 -259 327 -259 17 0 18 70 1 92 -12 14 -110 99 -184 158 -249 200 -314 251
-440 345 -57 42 -66 45 -123 45 -50 0 -59 -3 -55 -15z"/>
<path d="M12320 8520 c0 -6 10 -19 23 -29 31 -27 99 -83 218 -181 56 -47 126
-106 156 -132 66 -59 83 -61 83 -10 0 34 -7 45 -57 93 -72 67 -223 195 -282
237 -35 25 -54 32 -93 32 -26 0 -48 -5 -48 -10z"/>
<path d="M12620 8516 c0 -17 146 -146 166 -146 10 0 14 12 14 39 0 32 -7 46
-41 80 -37 37 -46 41 -90 41 -35 0 -49 -4 -49 -14z"/>
<path d="M12779 1956 c-8 -11 -30 -55 -49 -96 -230 -507 -567 -990 -970 -1386
-181 -178 -269 -258 -406 -366 -124 -98 -129 -108 -51 -108 48 0 57 4 117 53
455 364 826 788 1119 1279 158 264 190 321 227 411 31 73 34 91 32 158 -3 72
-4 76 -19 55z"/>
<path d="M12779 778 c-9 -7 -40 -49 -70 -93 -129 -195 -439 -585 -506 -638
-38 -31 -30 -47 25 -47 l48 0 84 97 c170 195 343 418 408 526 29 48 33 62 30
111 -3 51 -5 56 -19 44z"/>
</g>
</svg>
